<?xml version="1.0" encoding="UTF-8"?>
<!--Generator: Apple Native CoreSVG 149-->
<!DOCTYPE svg
PUBLIC "-//W3C//DTD SVG 1.1//EN"
       "http://www.w3.org/Graphics/SVG/1.1/DTD/svg11.dtd">
<svg version="1.1" xmlns="http://www.w3.org/2000/svg" xmlns:xlink="http://www.w3.org/1999/xlink" width="3300" height="2200">
 <!--glyph: "uni10031E.medium", point size: 100.0, font version: "17.0d9e1", template writer version: "59"-->
 <g id="Notes">
  <rect height="2200" id="artboard" style="fill:white;opacity:1" width="3300" x="0" y="0"/>
  <line style="fill:none;stroke:black;opacity:1;stroke-width:0.5;" x1="263" x2="3036" y1="292" y2="292"/>
  <text style="stroke:none;fill:black;font-family:sans-serif;font-size:13;font-weight:bold;" transform="matrix(1 0 0 1 263 322)">Weight/Scale Variations</text>
  <text style="stroke:none;fill:black;font-family:sans-serif;font-size:13;text-anchor:middle;" transform="matrix(1 0 0 1 559.711 322)">Ultralight</text>
  <text style="stroke:none;fill:black;font-family:sans-serif;font-size:13;text-anchor:middle;" transform="matrix(1 0 0 1 856.422 322)">Thin</text>
  <text style="stroke:none;fill:black;font-family:sans-serif;font-size:13;text-anchor:middle;" transform="matrix(1 0 0 1 1153.13 322)">Light</text>
  <text style="stroke:none;fill:black;font-family:sans-serif;font-size:13;text-anchor:middle;" transform="matrix(1 0 0 1 1449.84 322)">Regular</text>
  <text style="stroke:none;fill:black;font-family:sans-serif;font-size:13;text-anchor:middle;" transform="matrix(1 0 0 1 1746.56 322)">Medium</text>
  <text style="stroke:none;fill:black;font-family:sans-serif;font-size:13;text-anchor:middle;" transform="matrix(1 0 0 1 2043.27 322)">Semibold</text>
  <text style="stroke:none;fill:black;font-family:sans-serif;font-size:13;text-anchor:middle;" transform="matrix(1 0 0 1 2339.98 322)">Bold</text>
  <text style="stroke:none;fill:black;font-family:sans-serif;font-size:13;text-anchor:middle;" transform="matrix(1 0 0 1 2636.69 322)">Heavy</text>
  <text style="stroke:none;fill:black;font-family:sans-serif;font-size:13;text-anchor:middle;" transform="matrix(1 0 0 1 2933.4 322)">Black</text>
  <line style="fill:none;stroke:black;opacity:1;stroke-width:0.5;" x1="263" x2="3036" y1="1903" y2="1903"/>
  <g transform="matrix(1 0 0 1 263 1933)">
   <path d="M9.24805 0.830078Q10.8691 0.830078 12.2949 0.214844Q13.7207-0.400391 14.8096-1.49414Q15.8984-2.58789 16.5186-4.01367Q17.1387-5.43945 17.1387-7.05078Q17.1387-8.66211 16.5186-10.0879Q15.8984-11.5137 14.8047-12.6074Q13.7109-13.7012 12.2852-14.3164Q10.8594-14.9316 9.23828-14.9316Q7.62695-14.9316 6.20117-14.3164Q4.77539-13.7012 3.69141-12.6074Q2.60742-11.5137 1.9873-10.0879Q1.36719-8.66211 1.36719-7.05078Q1.36719-5.43945 1.9873-4.01367Q2.60742-2.58789 3.69629-1.49414Q4.78516-0.400391 6.21094 0.214844Q7.63672 0.830078 9.24805 0.830078ZM9.24805-0.654297Q7.91992-0.654297 6.7627-1.14746Q5.60547-1.64062 4.73145-2.51953Q3.85742-3.39844 3.36426-4.56055Q2.87109-5.72266 2.87109-7.05078Q2.87109-8.37891 3.35938-9.54102Q3.84766-10.7031 4.72168-11.582Q5.5957-12.4609 6.75293-12.9541Q7.91016-13.4473 9.23828-13.4473Q10.5762-13.4473 11.7334-12.9541Q12.8906-12.4609 13.7695-11.582Q14.6484-10.7031 15.1465-9.54102Q15.6445-8.37891 15.6445-7.05078Q15.6445-5.72266 15.1514-4.56055Q14.6582-3.39844 13.7842-2.51953Q12.9102-1.64062 11.748-1.14746Q10.5859-0.654297 9.24805-0.654297ZM5.83984-7.04102Q5.83984-6.71875 6.04492-6.51855Q6.25-6.31836 6.5918-6.31836L8.50586-6.31836L8.50586-4.39453Q8.50586-4.0625 8.70605-3.85742Q8.90625-3.65234 9.22852-3.65234Q9.56055-3.65234 9.76562-3.85742Q9.9707-4.0625 9.9707-4.39453L9.9707-6.31836L11.8945-6.31836Q12.2266-6.31836 12.4316-6.51855Q12.6367-6.71875 12.6367-7.04102Q12.6367-7.37305 12.4316-7.57812Q12.2266-7.7832 11.8945-7.7832L9.9707-7.7832L9.9707-9.69727Q9.9707-10.0391 9.76562-10.2441Q9.56055-10.4492 9.22852-10.4492Q8.90625-10.4492 8.70605-10.2441Q8.50586-10.0391 8.50586-9.69727L8.50586-7.7832L6.5918-7.7832Q6.25-7.7832 6.04492-7.57812Q5.83984-7.37305 5.83984-7.04102Z"/>
  </g>
  <g transform="matrix(1 0 0 1 281.867 1933)">
   <path d="M11.709 2.91016Q13.75 2.91016 15.5518 2.12891Q17.3535 1.34766 18.7305-0.0292969Q20.1074-1.40625 20.8887-3.20801Q21.6699-5.00977 21.6699-7.05078Q21.6699-9.0918 20.8887-10.8936Q20.1074-12.6953 18.7305-14.0723Q17.3535-15.4492 15.5469-16.2305Q13.7402-17.0117 11.6992-17.0117Q9.6582-17.0117 7.85645-16.2305Q6.05469-15.4492 4.68262-14.0723Q3.31055-12.6953 2.5293-10.8936Q1.74805-9.0918 1.74805-7.05078Q1.74805-5.00977 2.5293-3.20801Q3.31055-1.40625 4.6875-0.0292969Q6.06445 1.34766 7.86621 2.12891Q9.66797 2.91016 11.709 2.91016ZM11.709 1.25Q9.98047 1.25 8.47656 0.605469Q6.97266-0.0390625 5.83496-1.17676Q4.69727-2.31445 4.05762-3.81836Q3.41797-5.32227 3.41797-7.05078Q3.41797-8.7793 4.05762-10.2832Q4.69727-11.7871 5.83008-12.9297Q6.96289-14.0723 8.4668-14.7119Q9.9707-15.3516 11.6992-15.3516Q13.4277-15.3516 14.9316-14.7119Q16.4355-14.0723 17.5781-12.9297Q18.7207-11.7871 19.3652-10.2832Q20.0098-8.7793 20.0098-7.05078Q20.0098-5.32227 19.3701-3.81836Q18.7305-2.31445 17.5928-1.17676Q16.4551-0.0390625 14.9463 0.605469Q13.4375 1.25 11.709 1.25ZM7.39258-7.04102Q7.39258-6.68945 7.62695-6.46484Q7.86133-6.24023 8.23242-6.24023L10.8789-6.24023L10.8789-3.57422Q10.8789-3.21289 11.1035-2.9834Q11.3281-2.75391 11.6797-2.75391Q12.0508-2.75391 12.2852-2.9834Q12.5195-3.21289 12.5195-3.57422L12.5195-6.24023L15.1758-6.24023Q15.5371-6.24023 15.7715-6.46484Q16.0059-6.68945 16.0059-7.04102Q16.0059-7.41211 15.7715-7.6416Q15.5371-7.87109 15.1758-7.87109L12.5195-7.87109L12.5195-10.5176Q12.5195-10.8984 12.2852-11.1279Q12.0508-11.3574 11.6797-11.3574Q11.3281-11.3574 11.1035-11.1279Q10.8789-10.8984 10.8789-10.5176L10.8789-7.87109L8.23242-7.87109Q7.85156-7.87109 7.62207-7.6416Q7.39258-7.41211 7.39258-7.04102Z"/>
  </g>
  <g transform="matrix(1 0 0 1 305.646 1933)">
   <path d="M14.9707 5.66406Q17.0605 5.66406 18.96 5.01465Q20.8594 4.36523 22.4512 3.19336Q24.043 2.02148 25.2197 0.429688Q26.3965-1.16211 27.0459-3.06641Q27.6953-4.9707 27.6953-7.05078Q27.6953-9.14062 27.0459-11.04Q26.3965-12.9395 25.2197-14.5312Q24.043-16.123 22.4512-17.2998Q20.8594-18.4766 18.9551-19.126Q17.0508-19.7754 14.9609-19.7754Q12.8711-19.7754 10.9717-19.126Q9.07227-18.4766 7.48535-17.2998Q5.89844-16.123 4.72168-14.5312Q3.54492-12.9395 2.90039-11.04Q2.25586-9.14062 2.25586-7.05078Q2.25586-4.9707 2.90527-3.06641Q3.55469-1.16211 4.72656 0.429688Q5.89844 2.02148 7.49023 3.19336Q9.08203 4.36523 10.9814 5.01465Q12.8809 5.66406 14.9707 5.66406ZM14.9707 3.84766Q13.1641 3.84766 11.5283 3.2959Q9.89258 2.74414 8.53516 1.74805Q7.17773 0.751953 6.17676-0.610352Q5.17578-1.97266 4.62891-3.6084Q4.08203-5.24414 4.08203-7.05078Q4.08203-8.86719 4.62891-10.5029Q5.17578-12.1387 6.17188-13.501Q7.16797-14.8633 8.52539-15.8594Q9.88281-16.8555 11.5186-17.4023Q13.1543-17.9492 14.9609-17.9492Q16.7773-17.9492 18.4131-17.4023Q20.0488-16.8555 21.4111-15.8594Q22.7734-14.8633 23.7695-13.501Q24.7656-12.1387 25.3174-10.5029Q25.8691-8.86719 25.8691-7.05078Q25.8789-5.24414 25.332-3.6084Q24.7852-1.97266 23.7842-0.610352Q22.7832 0.751953 21.4209 1.74805Q20.0586 2.74414 18.4229 3.2959Q16.7871 3.84766 14.9707 3.84766ZM9.45312-7.04102Q9.45312-6.66016 9.71191-6.41113Q9.9707-6.16211 10.3711-6.16211L14.0625-6.16211L14.0625-2.46094Q14.0625-2.06055 14.3115-1.80664Q14.5605-1.55273 14.9414-1.55273Q15.3516-1.55273 15.6055-1.80664Q15.8594-2.06055 15.8594-2.46094L15.8594-6.16211L19.5605-6.16211Q19.9609-6.16211 20.2148-6.41113Q20.4688-6.66016 20.4688-7.04102Q20.4688-7.45117 20.2148-7.70508Q19.9609-7.95898 19.5605-7.95898L15.8594-7.95898L15.8594-11.6504Q15.8594-12.0605 15.6055-12.3145Q15.3516-12.5684 14.9414-12.5684Q14.5605-12.5684 14.3115-12.3096Q14.0625-12.0508 14.0625-11.6504L14.0625-7.95898L10.3711-7.95898Q9.96094-7.95898 9.70703-7.70508Q9.45312-7.45117 9.45312-7.04102Z"/>
  </g>
  <text style="stroke:none;fill:black;font-family:sans-serif;font-size:13;font-weight:bold;" transform="matrix(1 0 0 1 263 1953)">Design Variations</text>
  <text style="stroke:none;fill:black;font-family:sans-serif;font-size:13;" transform="matrix(1 0 0 1 263 1971)">Symbols are supported in up to nine weights and three scales.</text>
  <text style="stroke:none;fill:black;font-family:sans-serif;font-size:13;" transform="matrix(1 0 0 1 263 1989)">For optimal layout with text and other symbols, vertically align</text>
  <text style="stroke:none;fill:black;font-family:sans-serif;font-size:13;" transform="matrix(1 0 0 1 263 2007)">symbols with the adjacent text.</text>
  <line style="fill:none;stroke:#00AEEF;stroke-width:0.5;opacity:1.0;" x1="776" x2="776" y1="1919" y2="1933"/>
  <g transform="matrix(1 0 0 1 776 1933)">
   <path d="M3.31055 0.15625Q3.70117 0.15625 3.91602-0.00976562Q4.13086-0.175781 4.26758-0.585938L5.52734-4.0332L11.2891-4.0332L12.5488-0.585938Q12.6855-0.175781 12.9004-0.00976562Q13.1152 0.15625 13.4961 0.15625Q13.8867 0.15625 14.1162-0.0585938Q14.3457-0.273438 14.3457-0.644531Q14.3457-0.869141 14.2383-1.17188L9.6582-13.3691Q9.48242-13.8184 9.17969-14.043Q8.87695-14.2676 8.4082-14.2676Q7.5-14.2676 7.17773-13.3789L2.59766-1.16211Q2.49023-0.859375 2.49023-0.634766Q2.49023-0.263672 2.70996-0.0537109Q2.92969 0.15625 3.31055 0.15625ZM6.00586-5.51758L8.37891-12.0898L8.42773-12.0898L10.8008-5.51758Z"/>
  </g>
  <line style="fill:none;stroke:#00AEEF;stroke-width:0.5;opacity:1.0;" x1="793.197" x2="793.197" y1="1919" y2="1933"/>
  <text style="stroke:none;fill:black;font-family:sans-serif;font-size:13;font-weight:bold;" transform="matrix(1 0 0 1 776 1953)">Margins</text>
  <text style="stroke:none;fill:black;font-family:sans-serif;font-size:13;" transform="matrix(1 0 0 1 776 1971)">Leading and trailing margins on the left and right side of each symbol</text>
  <text style="stroke:none;fill:black;font-family:sans-serif;font-size:13;" transform="matrix(1 0 0 1 776 1989)">can be adjusted by modifying the x-location of the margin guidelines.</text>
  <text style="stroke:none;fill:black;font-family:sans-serif;font-size:13;" transform="matrix(1 0 0 1 776 2007)">Modifications are automatically applied proportionally to all</text>
  <text style="stroke:none;fill:black;font-family:sans-serif;font-size:13;" transform="matrix(1 0 0 1 776 2025)">scales and weights.</text>
  <g transform="matrix(1 0 0 1 1289 1933)">
   <path d="M2.8418 1.86523L4.54102 3.57422Q5.18555 4.22852 5.90332 4.17969Q6.62109 4.13086 7.31445 3.35938L18.0078-8.42773L17.041-9.4043L6.42578 2.27539Q6.16211 2.57812 5.89355 2.61719Q5.625 2.65625 5.27344 2.30469L4.10156 1.14258Q3.75 0.791016 3.79395 0.522461Q3.83789 0.253906 4.14062-0.0195312L15.6152-10.8203L14.6387-11.7871L3.04688-0.898438Q2.30469-0.214844 2.25098 0.498047Q2.19727 1.21094 2.8418 1.86523ZM9.25781-16.3281Q8.94531-16.0254 8.90625-15.6348Q8.86719-15.2441 9.04297-14.9512Q9.21875-14.6777 9.55566-14.541Q9.89258-14.4043 10.3809-14.5215Q11.4746-14.7754 12.5977-14.7314Q13.7207-14.6875 14.7949-13.9844L14.209-12.5293Q13.9551-11.9043 14.0674-11.4404Q14.1797-10.9766 14.5801-10.5664L16.875-8.25195Q17.2363-7.88086 17.5781-7.82227Q17.9199-7.76367 18.3398-7.8418L19.4043-8.03711L20.0684-7.36328L20.0293-6.80664Q20-6.43555 20.1221-6.12305Q20.2441-5.81055 20.6055-5.44922L21.3672-4.70703Q21.7285-4.3457 22.1533-4.33105Q22.5781-4.31641 22.9297-4.66797L25.8398-7.58789Q26.1914-7.93945 26.1816-8.35449Q26.1719-8.76953 25.8105-9.13086L25.0391-9.89258Q24.6875-10.2539 24.3799-10.3857Q24.0723-10.5176 23.7109-10.4883L23.1348-10.4395L22.4902-11.0742L22.7344-12.1973Q22.832-12.6172 22.6953-12.9834Q22.5586-13.3496 22.1191-13.7891L19.9219-15.9766Q18.6719-17.2168 17.2607-17.8369Q15.8496-18.457 14.4189-18.4814Q12.9883-18.5059 11.665-17.959Q10.3418-17.4121 9.25781-16.3281ZM10.752-15.957Q11.6602-16.6211 12.7002-16.9043Q13.7402-17.1875 14.8047-17.085Q15.8691-16.9824 16.8701-16.5137Q17.8711-16.0449 18.7012-15.2051L21.1328-12.793Q21.3086-12.6172 21.3525-12.4512Q21.3965-12.2852 21.3379-12.0312L21.0156-10.5469L22.5195-9.0625L23.5059-9.12109Q23.6914-9.13086 23.7891-9.09668Q23.8867-9.0625 24.0332-8.91602L24.6094-8.33984L22.168-5.89844L21.5918-6.47461Q21.4453-6.62109 21.4062-6.71875Q21.3672-6.81641 21.377-7.01172L21.4453-7.98828L19.9512-9.47266L18.4277-9.21875Q18.1836-9.16992 18.042-9.2041Q17.9004-9.23828 17.7148-9.41406L15.7129-11.416Q15.5176-11.5918 15.4932-11.7529Q15.4688-11.9141 15.5859-12.1875L16.4648-14.2773Q15.293-15.3711 13.8281-15.791Q12.3633-16.2109 10.8398-15.7617Q10.7227-15.7324 10.6885-15.8057Q10.6543-15.8789 10.752-15.957Z"/>
  </g>
  <text style="stroke:none;fill:black;font-family:sans-serif;font-size:13;font-weight:bold;" transform="matrix(1 0 0 1 1289 1953)">Exporting</text>
  <text style="stroke:none;fill:black;font-family:sans-serif;font-size:13;" transform="matrix(1 0 0 1 1289 1971)">Symbols should be outlined when exporting to ensure the</text>
  <text style="stroke:none;fill:black;font-family:sans-serif;font-size:13;" transform="matrix(1 0 0 1 1289 1989)">design is preserved when submitting to Xcode.</text>
  <text id="template-version" style="stroke:none;fill:black;font-family:sans-serif;font-size:13;text-anchor:end;" transform="matrix(1 0 0 1 3036 1933)">Template v.3.0</text>
  <text style="stroke:none;fill:black;font-family:sans-serif;font-size:13;text-anchor:end;" transform="matrix(1 0 0 1 3036 1951)">Requires Xcode 13 or greater</text>
  <text id="descriptive-name" style="stroke:none;fill:black;font-family:sans-serif;font-size:13;text-anchor:end;" transform="matrix(1 0 0 1 3036 1969)">Generated from camera</text>
  <text style="stroke:none;fill:black;font-family:sans-serif;font-size:13;text-anchor:end;" transform="matrix(1 0 0 1 3036 1987)">Typeset at 100 points</text>
  <text style="stroke:none;fill:black;font-family:sans-serif;font-size:13;" transform="matrix(1 0 0 1 263 726)">Small</text>
  <text style="stroke:none;fill:black;font-family:sans-serif;font-size:13;" transform="matrix(1 0 0 1 263 1156)">Medium</text>
  <text style="stroke:none;fill:black;font-family:sans-serif;font-size:13;" transform="matrix(1 0 0 1 263 1586)">Large</text>
 </g>
 <g id="Guides">
  <g id="H-reference" style="fill:#27AAE1;stroke:none;" transform="matrix(1 0 0 1 339 696)">
   <path d="M0.976562 0L3.66211 0L29.3457-67.1387L30.0293-67.1387L30.0293-70.459L28.125-70.459ZM11.6699-24.4629L46.9727-24.4629L46.2402-26.709L12.4512-26.709ZM55.127 0L57.7637 0L30.6152-70.459L29.4434-70.459L29.4434-67.1387Z"/>
  </g>
  <line id="Baseline-S" style="fill:none;stroke:#27AAE1;opacity:1;stroke-width:0.5;" x1="263" x2="3036" y1="696" y2="696"/>
  <line id="Capline-S" style="fill:none;stroke:#27AAE1;opacity:1;stroke-width:0.5;" x1="263" x2="3036" y1="625.541" y2="625.541"/>
  <g id="H-reference" style="fill:#27AAE1;stroke:none;" transform="matrix(1 0 0 1 339 1126)">
   <path d="M0.976562 0L3.66211 0L29.3457-67.1387L30.0293-67.1387L30.0293-70.459L28.125-70.459ZM11.6699-24.4629L46.9727-24.4629L46.2402-26.709L12.4512-26.709ZM55.127 0L57.7637 0L30.6152-70.459L29.4434-70.459L29.4434-67.1387Z"/>
  </g>
  <line id="Baseline-M" style="fill:none;stroke:#27AAE1;opacity:1;stroke-width:0.5;" x1="263" x2="3036" y1="1126" y2="1126"/>
  <line id="Capline-M" style="fill:none;stroke:#27AAE1;opacity:1;stroke-width:0.5;" x1="263" x2="3036" y1="1055.54" y2="1055.54"/>
  <g id="H-reference" style="fill:#27AAE1;stroke:none;" transform="matrix(1 0 0 1 339 1556)">
   <path d="M0.976562 0L3.66211 0L29.3457-67.1387L30.0293-67.1387L30.0293-70.459L28.125-70.459ZM11.6699-24.4629L46.9727-24.4629L46.2402-26.709L12.4512-26.709ZM55.127 0L57.7637 0L30.6152-70.459L29.4434-70.459L29.4434-67.1387Z"/>
  </g>
  <line id="Baseline-L" style="fill:none;stroke:#27AAE1;opacity:1;stroke-width:0.5;" x1="263" x2="3036" y1="1556" y2="1556"/>
  <line id="Capline-L" style="fill:none;stroke:#27AAE1;opacity:1;stroke-width:0.5;" x1="263" x2="3036" y1="1485.54" y2="1485.54"/>
  <line id="left-margin-Regular-M" style="fill:none;stroke:#00AEEF;stroke-width:0.5;opacity:1.0;" x1="1377.43" x2="1377.43" y1="1030.79" y2="1150.12"/>
  <line id="right-margin-Regular-M" style="fill:none;stroke:#00AEEF;stroke-width:0.5;opacity:1.0;" x1="1522.26" x2="1522.26" y1="1030.79" y2="1150.12"/>
 </g>
 <g id="Symbols">
  <g id="Black-L" transform="matrix(1 0 0 1 2837.57 1556)">
   <path d="M39.9902 26.5137L151.66 26.5137Q163.086 26.5137 169.336 20.3125Q175.586 14.1113 175.586 2.68555L175.586-63.8184Q175.586-75.2441 169.336-81.4453Q163.086-87.6465 151.66-87.6465L137.012-87.6465Q134.619-87.6465 132.983-87.915Q131.348-88.1836 129.907-89.0137Q128.467-89.8438 126.66-91.5039L121.875-95.8984Q120.02-97.6074 118.066-98.6328Q116.113-99.6582 113.77-100.146Q111.426-100.635 108.301-100.635L83.3008-100.635Q80.2246-100.635 77.8564-100.146Q75.4883-99.6582 73.5596-98.6328Q71.6309-97.6074 69.7754-95.8984L64.9902-91.5039Q63.1836-89.8438 61.7432-89.0137Q60.3027-88.1836 58.667-87.915Q57.0312-87.6465 54.6387-87.6465L39.9902-87.6465Q28.5645-87.6465 22.3145-81.4453Q16.0645-75.2441 16.0645-63.8184L16.0645 2.68555Q16.0645 14.1113 22.3145 20.3125Q28.5645 26.5137 39.9902 26.5137ZM42.6758 6.29883Q39.5508 6.29883 37.9395 4.78516Q36.3281 3.27148 36.3281-0.146484L36.3281-60.9863Q36.3281-64.4043 37.9395-65.918Q39.5508-67.4316 42.6758-67.4316L61.9141-67.4316Q64.7461-67.4316 66.6748-67.7734Q68.6035-68.1152 70.1416-69.0186Q71.6797-69.9219 73.291-71.6309L77.6367-76.0254Q79.2969-77.7344 80.7617-78.6865Q82.2266-79.6387 84.0088-80.0049Q85.791-80.3711 88.5254-80.3711L103.125-80.3711Q105.811-80.3711 107.617-80.0049Q109.424-79.6387 110.815-78.7109Q112.207-77.7832 113.77-76.2207L118.311-71.6309Q119.971-69.9707 121.484-69.0674Q122.998-68.1641 124.951-67.7979Q126.904-67.4316 129.688-67.4316L148.926-67.4316Q152.1-67.4316 153.711-65.918Q155.322-64.4043 155.322-60.9863L155.322-0.146484Q155.322 3.27148 153.711 4.78516Q152.1 6.29883 148.926 6.29883ZM95.8008 0.390625Q102.637 0.390625 108.594-2.14844Q114.551-4.6875 119.043-9.17969Q123.535-13.6719 126.074-19.6289Q128.613-25.5859 128.613-32.4219Q128.613-39.3066 126.074-45.2637Q123.535-51.2207 119.043-55.7129Q114.551-60.2051 108.594-62.7441Q102.637-65.2832 95.8008-65.2832Q89.0137-65.2832 83.0566-62.7441Q77.0996-60.2051 72.6074-55.7129Q68.1152-51.2207 65.5762-45.2637Q63.0371-39.3066 63.0371-32.4219Q63.0371-25.5859 65.5762-19.6289Q68.1152-13.6719 72.6074-9.17969Q77.0996-4.6875 83.0566-2.14844Q89.0137 0.390625 95.8008 0.390625ZM95.8008-16.9434Q92.627-16.9434 89.8193-18.1396Q87.0117-19.3359 84.8877-21.46Q82.7637-23.584 81.5674-26.416Q80.3711-29.248 80.3711-32.4219Q80.3711-35.6934 81.5674-38.501Q82.7637-41.3086 84.8877-43.4326Q87.0117-45.5566 89.8193-46.7529Q92.627-47.9492 95.8008-47.9492Q99.0723-47.9492 101.88-46.7529Q104.688-45.5566 106.787-43.4326Q108.887-41.3086 110.083-38.501Q111.279-35.6934 111.279-32.4219Q111.279-29.248 110.083-26.416Q108.887-23.584 106.787-21.46Q104.688-19.3359 101.88-18.1396Q99.0723-16.9434 95.8008-16.9434ZM129.346-53.1738Q129.346-49.3164 132.08-46.6064Q134.814-43.8965 138.623-43.9941Q142.432-44.043 145.142-46.6797Q147.852-49.3164 147.852-53.1738Q147.852-56.9336 145.117-59.668Q142.383-62.4023 138.623-62.4023Q134.814-62.4023 132.08-59.668Q129.346-56.9336 129.346-53.1738Z"/>
  </g>
  <g id="Heavy-L" transform="matrix(1 0 0 1 2541.62 1556)">
   <path d="M38.8184 25.4883L151.318 25.4883Q162.256 25.4883 168.164 19.6289Q174.072 13.7695 174.072 2.88086L174.072-63.5742Q174.072-74.4629 168.164-80.3223Q162.256-86.1816 151.318-86.1816L135.791-86.1816Q133.398-86.1816 131.763-86.4746Q130.127-86.7676 128.76-87.5977Q127.393-88.4277 125.635-90.0879L120.801-94.8242Q118.994-96.582 117.09-97.6318Q115.186-98.6816 112.891-99.1699Q110.596-99.6582 107.422-99.6582L82.4707-99.6582Q79.3945-99.6582 77.0508-99.1699Q74.707-98.6816 72.8516-97.6318Q70.9961-96.582 69.1895-94.8242L64.3066-90.0879Q62.5977-88.4766 61.2061-87.6221Q59.8145-86.7676 58.2031-86.4746Q56.5918-86.1816 54.1504-86.1816L38.8184-86.1816Q27.8809-86.1816 21.9727-80.3223Q16.0645-74.4629 16.0645-63.5742L16.0645 2.88086Q16.0645 13.7695 21.9727 19.6289Q27.8809 25.4883 38.8184 25.4883ZM40.918 8.00781Q37.3535 8.00781 35.4736 6.22559Q33.5938 4.44336 33.5938 0.585938L33.5938-61.2793Q33.5938-65.1367 35.4736-66.9189Q37.3535-68.7012 40.918-68.7012L60.2051-68.7012Q63.0371-68.7012 64.9902-69.043Q66.9434-69.3848 68.5059-70.3125Q70.0684-71.2402 71.6797-72.998L76.1719-77.6855Q77.8809-79.4434 79.3457-80.4199Q80.8105-81.3965 82.5684-81.7871Q84.3262-82.1777 87.0605-82.1777L102.881-82.1777Q105.566-82.1777 107.349-81.7871Q109.131-81.3965 110.547-80.4443Q111.963-79.4922 113.574-77.832L118.262-72.998Q119.873-71.2891 121.436-70.3613Q122.998-69.4336 124.951-69.0674Q126.904-68.7012 129.736-68.7012L149.17-68.7012Q152.783-68.7012 154.663-66.9189Q156.543-65.1367 156.543-61.2793L156.543 0.585938Q156.543 4.44336 154.663 6.22559Q152.783 8.00781 149.17 8.00781ZM95.0684 1.2207Q101.953 1.2207 107.983-1.34277Q114.014-3.90625 118.579-8.47168Q123.145-13.0371 125.708-19.0674Q128.271-25.0977 128.271-32.0312Q128.271-38.9648 125.708-45.0195Q123.145-51.0742 118.579-55.6152Q114.014-60.1562 107.983-62.7197Q101.953-65.2832 95.0684-65.2832Q88.1836-65.2832 82.1533-62.7197Q76.123-60.1562 71.5576-55.6152Q66.9922-51.0742 64.4287-45.0195Q61.8652-38.9648 61.8652-32.0312Q61.8652-25.0977 64.4287-19.0674Q66.9922-13.0371 71.5576-8.47168Q76.123-3.90625 82.1533-1.34277Q88.1836 1.2207 95.0684 1.2207ZM95.0684-13.9648Q91.3574-13.9648 88.0859-15.3564Q84.8145-16.748 82.3242-19.2383Q79.834-21.7285 78.4424-25.0244Q77.0508-28.3203 77.0508-32.0312Q77.0508-35.8398 78.4424-39.1113Q79.834-42.3828 82.3242-44.8486Q84.8145-47.3145 88.0859-48.7061Q91.3574-50.0977 95.0684-50.0977Q98.8281-50.0977 102.1-48.7061Q105.371-47.3145 107.837-44.8486Q110.303-42.3828 111.694-39.1113Q113.086-35.8398 113.086-32.0312Q113.086-28.3203 111.694-25.0244Q110.303-21.7285 107.837-19.2383Q105.371-16.748 102.1-15.3564Q98.8281-13.9648 95.0684-13.9648ZM129.492-53.3203Q129.492-49.6094 132.129-47.0215Q134.766-44.4336 138.428-44.4824Q142.041-44.5312 144.653-47.0703Q147.266-49.6094 147.266-53.3203Q147.266-56.9336 144.629-59.5459Q141.992-62.1582 138.428-62.1582Q134.766-62.1582 132.129-59.5459Q129.492-56.9336 129.492-53.3203Z"/>
  </g>
  <g id="Bold-L" transform="matrix(1 0 0 1 2245.76 1556)">
   <path d="M37.5488 24.3652L150.928 24.3652Q161.328 24.3652 166.846 18.8965Q172.363 13.4277 172.363 3.07617L172.363-63.2812Q172.363-73.6328 166.846-79.1016Q161.328-84.5703 150.928-84.5703L134.424-84.5703Q131.982-84.5703 130.396-84.8877Q128.809-85.2051 127.49-86.0596Q126.172-86.9141 124.561-88.5742L119.58-93.6523Q117.822-95.4102 116.016-96.4844Q114.209-97.5586 111.914-98.0957Q109.619-98.6328 106.494-98.6328L81.5918-98.6328Q78.4668-98.6328 76.1719-98.0957Q73.877-97.5586 72.0703-96.4844Q70.2637-95.4102 68.5059-93.6523L63.5254-88.5742Q61.9141-86.9141 60.5957-86.0596Q59.2773-85.2051 57.6904-84.8877Q56.1035-84.5703 53.6621-84.5703L37.5488-84.5703Q27.0996-84.5703 21.582-79.1016Q16.0645-73.6328 16.0645-63.2812L16.0645 3.07617Q16.0645 13.4277 21.582 18.8965Q27.0996 24.3652 37.5488 24.3652ZM38.9648 9.96094Q34.9121 9.96094 32.7148 7.86133Q30.5176 5.76172 30.5176 1.41602L30.5176-61.6211Q30.5176-65.9668 32.7148-68.0664Q34.9121-70.166 38.9648-70.166L58.3008-70.166Q61.1328-70.166 63.1104-70.5078Q65.0879-70.8496 66.6748-71.8018Q68.2617-72.7539 69.873-74.5117L74.6094-79.541Q76.3184-81.3965 77.7832-82.3975Q79.248-83.3984 80.9814-83.7891Q82.7148-84.1797 85.4492-84.1797L102.637-84.1797Q105.322-84.1797 107.08-83.7891Q108.838-83.3984 110.254-82.4219Q111.67-81.4453 113.379-79.6387L118.164-74.5117Q119.824-72.8027 121.387-71.8506Q122.949-70.8984 124.951-70.5322Q126.953-70.166 129.785-70.166L149.463-70.166Q153.564-70.166 155.737-68.0664Q157.91-65.9668 157.91-61.6211L157.91 1.41602Q157.91 5.76172 155.737 7.86133Q153.564 9.96094 149.463 9.96094ZM94.2383 2.14844Q101.221 2.14844 107.324-0.463867Q113.428-3.07617 118.042-7.71484Q122.656-12.3535 125.269-18.457Q127.881-24.5605 127.881-31.5918Q127.881-38.623 125.293-44.751Q122.705-50.8789 118.091-55.4932Q113.477-60.1074 107.349-62.7197Q101.221-65.332 94.2383-65.332Q87.2559-65.332 81.1279-62.7197Q75-60.1074 70.3857-55.4932Q65.7715-50.8789 63.1836-44.751Q60.5957-38.623 60.5957-31.5918Q60.5957-24.5605 63.1836-18.457Q65.7715-12.3535 70.3857-7.71484Q75-3.07617 81.1279-0.463867Q87.2559 2.14844 94.2383 2.14844ZM94.2383-10.6934Q89.8926-10.6934 86.1084-12.3047Q82.3242-13.916 79.4678-16.7969Q76.6113-19.6777 74.9756-23.4619Q73.3398-27.2461 73.3398-31.5918Q73.3398-35.9863 74.9756-39.7705Q76.6113-43.5547 79.4678-46.4355Q82.3242-49.3164 86.1084-50.9277Q89.8926-52.5391 94.2383-52.5391Q98.584-52.5391 102.368-50.9277Q106.152-49.3164 109.009-46.4355Q111.865-43.5547 113.477-39.7705Q115.088-35.9863 115.088-31.5918Q115.088-27.2461 113.477-23.4619Q111.865-19.6777 109.009-16.7969Q106.152-13.916 102.368-12.3047Q98.584-10.6934 94.2383-10.6934ZM129.639-53.5156Q129.639-49.9512 132.153-47.5098Q134.668-45.0684 138.184-45.1172Q141.602-45.1172 144.116-47.5586Q146.631-50 146.631-53.5156Q146.631-56.9336 144.116-59.4482Q141.602-61.9629 138.184-61.9629Q134.668-61.9629 132.153-59.4482Q129.639-56.9336 129.639-53.5156Z"/>
  </g>
  <g id="Semibold-L" transform="matrix(1 0 0 1 1949.64 1556)">
   <path d="M36.6211 23.584L150.635 23.584Q160.693 23.584 165.942 18.3838Q171.191 13.1836 171.191 3.17383L171.191-63.0371Q171.191-73.0469 165.942-78.2471Q160.693-83.4473 150.635-83.4473L133.496-83.4473Q131.006-83.4473 129.443-83.7646Q127.881-84.082 126.611-84.9365Q125.342-85.791 123.779-87.4512L118.701-92.8223Q117.041-94.5801 115.259-95.6787Q113.477-96.7773 111.23-97.3145Q108.984-97.8516 105.811-97.8516L80.957-97.8516Q77.7832-97.8516 75.5371-97.3145Q73.291-96.7773 71.5088-95.6787Q69.7266-94.5801 68.0664-92.8223L62.9883-87.4512Q61.4746-85.8398 60.1807-84.9609Q58.8867-84.082 57.2998-83.7646Q55.7129-83.4473 53.2715-83.4473L36.6211-83.4473Q26.5625-83.4473 21.3135-78.2471Q16.0645-73.0469 16.0645-63.0371L16.0645 3.17383Q16.0645 13.1836 21.3135 18.3838Q26.5625 23.584 36.6211 23.584ZM37.5977 11.2793Q33.2031 11.2793 30.8105 8.95996Q28.418 6.64062 28.418 2.00195L28.418-61.8164Q28.418-66.5039 30.8105-68.8232Q33.2031-71.1426 37.5977-71.1426L56.9336-71.1426Q59.7656-71.1426 61.792-71.4844Q63.8184-71.8262 65.4297-72.8027Q67.041-73.7793 68.6523-75.5371L73.4863-80.8105Q75.2441-82.7148 76.6846-83.7402Q78.125-84.7656 79.8584-85.1562Q81.5918-85.5469 84.2773-85.5469L102.441-85.5469Q105.127-85.5469 106.885-85.1562Q108.643-84.7656 110.059-83.7646Q111.475-82.7637 113.184-80.8594L118.115-75.5371Q119.727-73.7793 121.338-72.8271Q122.949-71.875 124.951-71.5088Q126.953-71.1426 129.834-71.1426L149.658-71.1426Q154.053-71.1426 156.445-68.8232Q158.838-66.5039 158.838-61.8164L158.838 2.00195Q158.838 6.64062 156.445 8.95996Q154.053 11.2793 149.658 11.2793ZM93.6523 2.73438Q100.684 2.73438 106.86 0.12207Q113.037-2.49023 117.676-7.15332Q122.314-11.8164 124.976-17.9932Q127.637-24.1699 127.637-31.2988Q127.637-38.3789 125-44.5557Q122.363-50.7324 117.7-55.3955Q113.037-60.0586 106.86-62.6953Q100.684-65.332 93.6523-65.332Q86.5723-65.332 80.3955-62.6953Q74.2188-60.0586 69.5801-55.3955Q64.9414-50.7324 62.3047-44.5557Q59.668-38.3789 59.668-31.2988Q59.668-24.1699 62.3047-17.9932Q64.9414-11.8164 69.5801-7.15332Q74.2188-2.49023 80.3955 0.12207Q86.5723 2.73438 93.6523 2.73438ZM93.6523-8.39844Q88.916-8.39844 84.7656-10.1562Q80.6152-11.9141 77.4658-15.0635Q74.3164-18.2129 72.5586-22.3633Q70.8008-26.5137 70.8008-31.2988Q70.8008-36.084 72.5586-40.2344Q74.3164-44.3848 77.4658-47.5098Q80.6152-50.6348 84.7656-52.417Q88.916-54.1992 93.6523-54.1992Q98.3887-54.1992 102.539-52.417Q106.689-50.6348 109.814-47.5098Q112.939-44.3848 114.697-40.2344Q116.455-36.084 116.455-31.2988Q116.455-26.5137 114.697-22.3633Q112.939-18.2129 109.814-15.0635Q106.689-11.9141 102.539-10.1562Q98.3887-8.39844 93.6523-8.39844ZM129.785-53.6621Q129.785-50.1953 132.227-47.8516Q134.668-45.5078 138.037-45.5078Q141.357-45.5078 143.774-47.876Q146.191-50.2441 146.191-53.6621Q146.191-56.9336 143.75-59.375Q141.309-61.8164 138.037-61.8164Q134.668-61.8164 132.227-59.375Q129.785-56.9336 129.785-53.6621Z"/>
  </g>
  <g id="Medium-L" transform="matrix(1 0 0 1 1653.37 1556)">
   <path d="M35.9375 22.998L150.439 22.998Q160.205 22.998 165.259 17.9932Q170.312 12.9883 170.312 3.27148L170.312-62.8906Q170.312-72.6074 165.259-77.6123Q160.205-82.6172 150.439-82.6172L132.764-82.6172Q130.273-82.6172 128.735-82.9346Q127.197-83.252 125.952-84.1309Q124.707-85.0098 123.193-86.6699L118.066-92.2363Q116.406-93.9453 114.673-95.0684Q112.939-96.1914 110.693-96.7529Q108.447-97.3145 105.273-97.3145L80.4688-97.3145Q77.2949-97.3145 75.0732-96.7529Q72.8516-96.1914 71.0938-95.0684Q69.3359-93.9453 67.6758-92.2363L62.5977-86.6699Q61.084-85.0586 59.8389-84.1553Q58.5938-83.252 57.0312-82.9346Q55.4688-82.6172 52.9785-82.6172L35.9375-82.6172Q26.1719-82.6172 21.1182-77.6123Q16.0645-72.6074 16.0645-62.8906L16.0645 3.27148Q16.0645 12.9883 21.1182 17.9932Q26.1719 22.998 35.9375 22.998ZM36.5723 12.2559Q31.8848 12.2559 29.3457 9.79004Q26.8066 7.32422 26.8066 2.39258L26.8066-62.0117Q26.8066-66.9434 29.3457-69.4092Q31.8848-71.875 36.5723-71.875L55.957-71.875Q58.7891-71.875 60.8154-72.2412Q62.8418-72.6074 64.4531-73.584Q66.0645-74.5605 67.6758-76.3672L72.6074-81.7871Q74.4141-83.7402 75.8545-84.7656Q77.2949-85.791 79.0283-86.1816Q80.7617-86.5723 83.4473-86.5723L102.344-86.5723Q105.029-86.5723 106.738-86.1816Q108.447-85.791 109.888-84.7656Q111.328-83.7402 113.086-81.8359L118.066-76.3672Q119.678-74.5605 121.289-73.584Q122.9-72.6074 124.951-72.2412Q127.002-71.875 129.834-71.875L149.805-71.875Q154.443-71.875 157.007-69.4092Q159.57-66.9434 159.57-62.0117L159.57 2.39258Q159.57 7.32422 157.007 9.79004Q154.443 12.2559 149.805 12.2559ZM93.2129 3.22266Q100.293 3.22266 106.494 0.585938Q112.695-2.05078 117.383-6.7627Q122.07-11.4746 124.731-17.7002Q127.393-23.9258 127.393-31.0547Q127.393-38.1836 124.756-44.4336Q122.119-50.6836 117.432-55.3711Q112.744-60.0586 106.519-62.6953Q100.293-65.332 93.2129-65.332Q86.084-65.332 79.8584-62.6953Q73.6328-60.0586 68.9453-55.3711Q64.2578-50.6836 61.6211-44.4336Q58.9844-38.1836 58.9844-31.0547Q58.9844-23.9258 61.6211-17.7002Q64.2578-11.4746 68.9453-6.7627Q73.6328-2.05078 79.8584 0.585938Q86.084 3.22266 93.2129 3.22266ZM93.2129-6.64062Q88.1348-6.64062 83.7402-8.52051Q79.3457-10.4004 76.001-13.7695Q72.6562-17.1387 70.752-21.5576Q68.8477-25.9766 68.8477-31.0547Q68.8477-36.1328 70.752-40.5518Q72.6562-44.9707 76.001-48.3154Q79.3457-51.6602 83.7402-53.54Q88.1348-55.4199 93.2129-55.4199Q98.2422-55.4199 102.661-53.54Q107.08-51.6602 110.425-48.3154Q113.77-44.9707 115.649-40.5518Q117.529-36.1328 117.529-31.0547Q117.529-25.9766 115.649-21.5576Q113.77-17.1387 110.425-13.7695Q107.08-10.4004 102.661-8.52051Q98.2422-6.64062 93.2129-6.64062ZM129.883-53.7109Q129.883-50.3418 132.251-48.0469Q134.619-45.752 137.939-45.752Q141.113-45.752 143.481-48.0713Q145.85-50.3906 145.85-53.7109Q145.85-56.9336 143.481-59.3018Q141.113-61.6699 137.939-61.6699Q134.619-61.6699 132.251-59.3018Q129.883-56.9336 129.883-53.7109Z"/>
  </g>
  <g id="Regular-L" transform="matrix(1 0 0 1 1357.24 1556)">
   <path d="M35.0586 22.2168L150.146 22.2168Q159.57 22.2168 164.355 17.4805Q169.141 12.7441 169.141 3.41797L169.141-62.6953Q169.141-72.0215 164.355-76.7578Q159.57-81.4941 150.146-81.4941L131.836-81.4941Q129.346-81.4941 127.808-81.8359Q126.27-82.1777 125.073-83.0566Q123.877-83.9355 122.412-85.5957L117.236-91.4062Q115.625-93.1641 113.94-94.3115Q112.256-95.459 110.034-96.0205Q107.812-96.582 104.639-96.582L79.834-96.582Q76.6602-96.582 74.4629-96.0205Q72.2656-95.459 70.5566-94.3115Q68.8477-93.1641 67.2363-91.4062L62.0605-85.5957Q60.6445-83.9844 59.4238-83.0811Q58.2031-82.1777 56.665-81.8359Q55.127-81.4941 52.6367-81.4941L35.0586-81.4941Q25.6348-81.4941 20.8496-76.7578Q16.0645-72.0215 16.0645-62.6953L16.0645 3.41797Q16.0645 12.7441 20.8496 17.4805Q25.6348 22.2168 35.0586 22.2168ZM35.2539 13.5742Q30.2246 13.5742 27.4658 10.8887Q24.707 8.20312 24.707 2.97852L24.707-62.207Q24.707-67.4805 27.4658-70.166Q30.2246-72.8516 35.2539-72.8516L54.6387-72.8516Q57.4707-72.8516 59.5215-73.2178Q61.5723-73.584 63.208-74.585Q64.8438-75.5859 66.4551-77.3926L71.5332-83.0566Q73.3398-85.0586 74.7803-86.1084Q76.2207-87.1582 77.9297-87.5488Q79.6387-87.9395 82.3242-87.9395L102.148-87.9395Q104.834-87.9395 106.543-87.5488Q108.252-87.1582 109.692-86.1084Q111.133-85.0586 112.939-83.0566L118.018-77.3926Q119.629-75.5859 121.265-74.585Q122.9-73.584 124.951-73.2178Q127.002-72.8516 129.883-72.8516L150-72.8516Q154.98-72.8516 157.739-70.166Q160.498-67.4805 160.498-62.207L160.498 2.97852Q160.498 8.20312 157.739 10.8887Q154.98 13.5742 150 13.5742ZM92.627 3.85742Q99.8047 3.85742 106.055 1.19629Q112.305-1.46484 117.041-6.22559Q121.777-10.9863 124.463-17.2607Q127.148-23.5352 127.148-30.7617Q127.148-37.9395 124.487-44.2383Q121.826-50.5371 117.09-55.2734Q112.354-60.0098 106.079-62.6709Q99.8047-65.332 92.627-65.332Q85.4492-65.332 79.1748-62.6709Q72.9004-60.0098 68.1641-55.2734Q63.4277-50.5371 60.7666-44.2383Q58.1055-37.9395 58.1055-30.7617Q58.1055-23.5352 60.7666-17.2607Q63.4277-10.9863 68.1641-6.22559Q72.9004-1.46484 79.1748 1.19629Q85.4492 3.85742 92.627 3.85742ZM92.627-4.39453Q87.1582-4.39453 82.3975-6.4209Q77.6367-8.44727 74.0234-12.085Q70.4102-15.7227 68.3594-20.4834Q66.3086-25.2441 66.3086-30.7617Q66.3086-36.2305 68.3594-41.0156Q70.4102-45.8008 74.0234-49.4141Q77.6367-53.0273 82.3975-55.0537Q87.1582-57.0801 92.627-57.0801Q98.0469-57.0801 102.832-55.0537Q107.617-53.0273 111.23-49.4141Q114.844-45.8008 116.87-41.0156Q118.896-36.2305 118.896-30.7617Q118.896-25.2441 116.87-20.4834Q114.844-15.7227 111.23-12.085Q107.617-8.44727 102.832-6.4209Q98.0469-4.39453 92.627-4.39453ZM129.98-53.8574Q129.98-50.5859 132.275-48.3887Q134.57-46.1914 137.744-46.1914Q140.82-46.1426 143.115-48.3887Q145.41-50.6348 145.41-53.8574Q145.41-56.9336 143.115-59.2285Q140.82-61.5234 137.744-61.5234Q134.57-61.5234 132.275-59.2285Q129.98-56.9336 129.98-53.8574Z"/>
  </g>
  <g id="Light-L" transform="matrix(1 0 0 1 1061.63 1556)">
   <path d="M34.0332 21.4355L148.975 21.4355Q157.861 21.4355 162.402 16.8945Q166.943 12.3535 166.943 3.56445L166.943-62.7441Q166.943-71.4844 162.402-76.0254Q157.861-80.5664 148.975-80.5664L130.273-80.5664Q127.734-80.5664 126.196-80.8594Q124.658-81.1523 123.438-82.0068Q122.217-82.8613 120.654-84.6191L115.332-90.625Q113.672-92.4316 112.036-93.5303Q110.4-94.6289 108.276-95.1172Q106.152-95.6055 103.076-95.6055L78.7598-95.6055Q75.6836-95.6055 73.584-95.1172Q71.4844-94.6289 69.8242-93.5303Q68.1641-92.4316 66.5039-90.625L61.1328-84.6191Q59.668-82.959 58.4229-82.0557Q57.1777-81.1523 55.6152-80.8594Q54.0527-80.5664 51.5137-80.5664L34.0332-80.5664Q25.1465-80.5664 20.6055-76.0254Q16.0645-71.4844 16.0645-62.7441L16.0645 3.56445Q16.0645 12.3535 20.6055 16.8945Q25.1465 21.4355 34.0332 21.4355ZM34.2285 14.7949Q28.7109 14.7949 25.6836 11.8652Q22.6562 8.93555 22.6562 3.22266L22.6562-62.3535Q22.6562-68.1152 25.6836-71.0449Q28.7109-73.9746 34.2285-73.9746L52.7832-73.9746Q55.6152-73.9746 57.6416-74.292Q59.668-74.6094 61.3037-75.5859Q62.9395-76.5625 64.5996-78.418L69.873-84.3262Q71.6309-86.2793 73.0713-87.3047Q74.5117-88.3301 76.1475-88.6719Q77.7832-89.0137 80.3223-89.0137L101.514-89.0137Q104.053-89.0137 105.688-88.6719Q107.324-88.3301 108.74-87.3047Q110.156-86.2793 111.963-84.3262L117.236-78.418Q118.896-76.5625 120.508-75.5859Q122.119-74.6094 124.146-74.292Q126.172-73.9746 129.053-73.9746L148.828-73.9746Q154.248-73.9746 157.275-71.0449Q160.303-68.1152 160.303-62.3535L160.303 3.22266Q160.303 8.93555 157.275 11.8652Q154.248 14.7949 148.828 14.7949ZM91.5039 4.19922Q98.7305 4.19922 105.029 1.51367Q111.328-1.17188 116.089-5.95703Q120.85-10.7422 123.535-17.0654Q126.221-23.3887 126.221-30.6641Q126.221-37.8906 123.56-44.2139Q120.898-50.5371 116.138-55.2979Q111.377-60.0586 105.054-62.7441Q98.7305-65.4297 91.5039-65.4297Q84.2773-65.4297 77.9785-62.7441Q71.6797-60.0586 66.9189-55.2979Q62.1582-50.5371 59.4727-44.2139Q56.7871-37.8906 56.7871-30.6641Q56.7871-23.3887 59.4727-17.0654Q62.1582-10.7422 66.9189-5.95703Q71.6797-1.17188 77.9785 1.51367Q84.2773 4.19922 91.5039 4.19922ZM91.5039-2.29492Q85.6445-2.29492 80.5176-4.46777Q75.3906-6.64062 71.5088-10.5713Q67.627-14.502 65.4297-19.6045Q63.2324-24.707 63.2324-30.6641Q63.2324-36.5234 65.4297-41.6748Q67.627-46.8262 71.5088-50.708Q75.3906-54.5898 80.5176-56.7871Q85.6445-58.9844 91.5039-58.9844Q97.3633-58.9844 102.49-56.7871Q107.617-54.5898 111.499-50.708Q115.381-46.8262 117.554-41.6748Q119.727-36.5234 119.727-30.6641Q119.727-24.707 117.554-19.6045Q115.381-14.502 111.499-10.5713Q107.617-6.64062 102.49-4.46777Q97.3633-2.29492 91.5039-2.29492ZM129.443-53.5645Q129.443-50.3906 131.689-48.291Q133.936-46.1914 137.012-46.1426Q139.941-46.0449 142.188-48.2666Q144.434-50.4883 144.434-53.5645Q144.434-56.543 142.188-58.7891Q139.941-61.0352 137.012-61.0352Q133.936-61.0352 131.689-58.7891Q129.443-56.543 129.443-53.5645Z"/>
  </g>
  <g id="Thin-L" transform="matrix(1 0 0 1 766.383 1556)">
   <path d="M32.666 20.3613L147.412 20.3613Q155.566 20.3613 159.79 16.0889Q164.014 11.8164 164.014 3.75977L164.014-62.7441Q164.014-70.8008 159.79-75.0732Q155.566-79.3457 147.412-79.3457L128.223-79.3457Q125.586-79.3457 124.048-79.5654Q122.51-79.7852 121.265-80.6396Q120.02-81.4941 118.311-83.3984L112.793-89.5996Q111.035-91.4551 109.473-92.4805Q107.91-93.5059 105.933-93.9209Q103.955-94.3359 100.977-94.3359L77.2949-94.3359Q74.3164-94.3359 72.3633-93.9209Q70.4102-93.5059 68.8477-92.4805Q67.2852-91.4551 65.5273-89.5996L59.9609-83.3984Q58.3496-81.543 57.0801-80.6885Q55.8105-79.834 54.248-79.5898Q52.6855-79.3457 50.0488-79.3457L32.666-79.3457Q24.5117-79.3457 20.2881-75.0732Q16.0645-70.8008 16.0645-62.7441L16.0645 3.75977Q16.0645 11.8164 20.2881 16.0889Q24.5117 20.3613 32.666 20.3613ZM32.8125 16.4062Q26.709 16.4062 23.3643 13.1592Q20.0195 9.91211 20.0195 3.56445L20.0195-62.5488Q20.0195-68.9453 23.3643-72.1924Q26.709-75.4395 32.8125-75.4395L50.3418-75.4395Q53.2227-75.4395 55.2002-75.7324Q57.1777-76.0254 58.7891-76.9531Q60.4004-77.8809 62.1094-79.7852L67.627-85.9863Q69.3848-87.9395 70.8008-88.8916Q72.2168-89.8438 73.7793-90.1123Q75.3418-90.3809 77.6367-90.3809L100.635-90.3809Q102.979-90.3809 104.541-90.1123Q106.104-89.8438 107.495-88.8916Q108.887-87.9395 110.645-85.9863L116.211-79.7852Q117.92-77.8809 119.507-76.9531Q121.094-76.0254 123.071-75.7324Q125.049-75.4395 127.979-75.4395L147.266-75.4395Q153.32-75.4395 156.689-72.1924Q160.059-68.9453 160.059-62.5488L160.059 3.56445Q160.059 9.91211 156.689 13.1592Q153.32 16.4062 147.266 16.4062ZM90.0391 4.58984Q97.3145 4.58984 103.638 1.87988Q109.961-0.830078 114.771-5.63965Q119.58-10.4492 122.314-16.8213Q125.049-23.1934 125.049-30.4688Q125.049-37.793 122.339-44.165Q119.629-50.5371 114.844-55.3467Q110.059-60.1562 103.711-62.8418Q97.3633-65.5273 90.0391-65.5273Q82.7637-65.5273 76.416-62.8418Q70.0684-60.1562 65.2832-55.3467Q60.498-50.5371 57.7637-44.165Q55.0293-37.793 55.0293-30.4688Q55.0293-23.1934 57.7637-16.8213Q60.498-10.4492 65.2832-5.63965Q70.0684-0.830078 76.416 1.87988Q82.7637 4.58984 90.0391 4.58984ZM90.0391 0.488281Q83.6426 0.488281 78.0518-1.9043Q72.4609-4.29688 68.2129-8.56934Q63.9648-12.8418 61.5967-18.457Q59.2285-24.0723 59.2285-30.4688Q59.2285-36.9141 61.5967-42.5293Q63.9648-48.1445 68.2129-52.417Q72.4609-56.6895 78.0518-59.082Q83.6426-61.4746 90.0391-61.4746Q96.4355-61.4746 102.026-59.082Q107.617-56.6895 111.865-52.417Q116.113-48.1445 118.481-42.5293Q120.85-36.9141 120.85-30.4688Q120.85-24.0723 118.481-18.457Q116.113-12.8418 111.865-8.56934Q107.617-4.29688 102.026-1.9043Q96.4355 0.488281 90.0391 0.488281ZM128.809-53.2715Q128.809-50.1465 130.957-48.1934Q133.105-46.2402 136.133-46.0938Q138.916-45.9961 141.04-48.1445Q143.164-50.293 143.164-53.2715Q143.164-56.1035 141.04-58.252Q138.916-60.4004 136.133-60.4004Q133.105-60.4004 130.957-58.252Q128.809-56.1035 128.809-53.2715Z"/>
  </g>
  <g id="Ultralight-L" transform="matrix(1 0 0 1 470.429 1556)">
   <path d="M31.9824 19.8242L146.582 19.8242Q154.395 19.8242 158.447 15.6738Q162.5 11.5234 162.5 3.85742L162.5-62.793Q162.5-70.4102 158.447-74.5605Q154.395-78.7109 146.582-78.7109L127.148-78.7109Q124.463-78.7109 122.925-78.9062Q121.387-79.1016 120.142-79.9316Q118.896-80.7617 117.139-82.7148L111.475-89.0625Q109.717-90.9668 108.203-91.9678Q106.689-92.9688 104.761-93.3105Q102.832-93.6523 99.9023-93.6523L76.5625-93.6523Q73.6816-93.6523 71.7773-93.3105Q69.873-92.9688 68.335-91.9678Q66.7969-90.9668 65.0391-89.0625L59.3262-82.7148Q57.7148-80.8594 56.4209-80.0049Q55.127-79.1504 53.54-78.9307Q51.9531-78.7109 49.3164-78.7109L31.9824-78.7109Q24.1699-78.7109 20.1172-74.5605Q16.0645-70.4102 16.0645-62.793L16.0645 3.85742Q16.0645 11.5234 20.1172 15.6738Q24.1699 19.8242 31.9824 19.8242ZM32.1289 17.2363Q25.6836 17.2363 22.1436 13.8184Q18.6035 10.4004 18.6035 3.75977L18.6035-62.6465Q18.6035-69.3359 22.1436-72.7539Q25.6836-76.1719 32.1289-76.1719L49.1211-76.1719Q51.9531-76.1719 53.9307-76.4404Q55.9082-76.709 57.4951-77.6123Q59.082-78.5156 60.8398-80.4688L66.5039-86.8164Q68.2617-88.7695 69.6533-89.6973Q71.0449-90.625 72.583-90.8691Q74.1211-91.1133 76.2695-91.1133L100.195-91.1133Q102.441-91.1133 103.955-90.8691Q105.469-90.625 106.836-89.6973Q108.203-88.7695 110.01-86.8164L115.723-80.4688Q117.432-78.5156 119.019-77.6123Q120.605-76.709 122.559-76.4404Q124.512-76.1719 127.441-76.1719L146.436-76.1719Q152.832-76.1719 156.396-72.7539Q159.961-69.3359 159.961-62.6465L159.961 3.75977Q159.961 10.4004 156.396 13.8184Q152.832 17.2363 146.436 17.2363ZM89.2578 4.83398Q96.582 4.83398 102.954 2.09961Q109.326-0.634766 114.136-5.46875Q118.945-10.3027 121.68-16.6992Q124.414-23.0957 124.414-30.4199Q124.414-37.7441 121.704-44.1406Q118.994-50.5371 114.209-55.3711Q109.424-60.2051 103.027-62.915Q96.6309-65.625 89.2578-65.625Q81.9824-65.625 75.6348-62.915Q69.2871-60.2051 64.4531-55.3711Q59.6191-50.5371 56.8848-44.1406Q54.1504-37.7441 54.1504-30.4199Q54.1504-23.0957 56.8848-16.6992Q59.6191-10.3027 64.4531-5.46875Q69.2871-0.634766 75.6348 2.09961Q81.9824 4.83398 89.2578 4.83398ZM89.2578 1.9043Q82.6172 1.9043 76.7822-0.585938Q70.9473-3.07617 66.5283-7.54395Q62.1094-12.0117 59.6191-17.8467Q57.1289-23.6816 57.1289-30.4199Q57.1289-37.1582 59.6191-42.9932Q62.1094-48.8281 66.5283-53.2959Q70.9473-57.7637 76.7822-60.2539Q82.6172-62.7441 89.2578-62.7441Q95.9473-62.7441 101.782-60.2539Q107.617-57.7637 112.036-53.2959Q116.455-48.8281 118.945-42.9932Q121.436-37.1582 121.436-30.4199Q121.436-23.6816 118.945-17.8467Q116.455-12.0117 112.036-7.54395Q107.617-3.07617 101.782-0.585938Q95.9473 1.9043 89.2578 1.9043ZM128.418-53.0762Q128.418-50.0488 130.542-48.1445Q132.666-46.2402 135.596-46.0938Q138.281-45.9473 140.381-48.0957Q142.48-50.2441 142.48-53.0762Q142.48-55.8594 140.381-57.9834Q138.281-60.1074 135.596-60.1074Q132.666-60.1074 130.542-57.9834Q128.418-55.8594 128.418-53.0762Z"/>
  </g>
  <g id="Black-M" transform="matrix(1 0 0 1 2858.86 1126)">
   <path d="M31.5918 13.2324L117.432 13.2324Q126.514 13.2324 131.567 8.17871Q136.621 3.125 136.621-5.9082L136.621-57.666Q136.621-66.6992 131.567-71.7529Q126.514-76.8066 117.432-76.8066L106.689-76.8066Q104.834-76.8066 103.54-76.9775Q102.246-77.1484 101.074-77.7588Q99.9023-78.3691 98.3887-79.6875L94.7266-82.9102Q92.4805-84.8633 90.0879-85.6201Q87.6953-86.377 84.1309-86.377L64.8926-86.377Q61.377-86.377 58.9844-85.6201Q56.5918-84.8633 54.3457-82.9102L50.6348-79.6875Q48.3887-77.7344 46.7773-77.2705Q45.166-76.8066 42.334-76.8066L31.5918-76.8066Q22.5586-76.8066 17.5049-71.7529Q12.4512-66.6992 12.4512-57.666L12.4512-5.9082Q12.4512 3.125 17.5049 8.17871Q22.5586 13.2324 31.5918 13.2324ZM34.2285-4.10156Q31.9824-4.10156 30.8838-5.12695Q29.7852-6.15234 29.7852-8.59375L29.7852-54.9805Q29.7852-57.4219 30.8838-58.4473Q31.9824-59.4727 34.2285-59.4727L48.8281-59.4727Q52.0996-59.4727 53.8818-60.083Q55.6641-60.6934 57.5684-62.5977L60.8398-65.8691Q62.7441-67.7246 64.4287-68.3838Q66.1133-69.043 69.1406-69.043L79.8828-69.043Q82.959-69.043 84.6191-68.3838Q86.2793-67.7246 87.9883-66.0156L91.5039-62.5977Q93.4082-60.7422 95.166-60.1074Q96.9238-59.4727 100.195-59.4727L114.795-59.4727Q117.041-59.4727 118.164-58.4473Q119.287-57.4219 119.287-54.9805L119.287-8.59375Q119.287-6.15234 118.164-5.12695Q117.041-4.10156 114.795-4.10156ZM74.5117-8.20312Q79.7852-8.20312 84.3262-10.1562Q88.8672-12.1094 92.3096-15.5518Q95.752-18.9941 97.7051-23.5596Q99.6582-28.125 99.6582-33.3984Q99.6582-40.3809 96.2891-46.0938Q92.9199-51.8066 87.207-55.1758Q81.4941-58.5449 74.5117-58.5449Q69.3359-58.5449 64.7705-56.6162Q60.2051-54.6875 56.7627-51.2207Q53.3203-47.7539 51.3672-43.1885Q49.4141-38.623 49.4141-33.3984Q49.4141-28.125 51.3672-23.5596Q53.3203-18.9941 56.7627-15.5518Q60.2051-12.1094 64.7705-10.1562Q69.3359-8.20312 74.5117-8.20312ZM74.5117-22.8516Q71.6309-22.8516 69.2627-24.2676Q66.8945-25.6836 65.4785-28.0762Q64.0625-30.4688 64.0625-33.3984Q64.0625-36.3281 65.4785-38.6963Q66.8945-41.0645 69.2627-42.4805Q71.6309-43.8965 74.5117-43.8965Q77.4414-43.8965 79.8096-42.4805Q82.1777-41.0645 83.5938-38.6963Q85.0098-36.3281 85.0098-33.3984Q85.0098-30.4688 83.5938-28.0762Q82.1777-25.6836 79.8096-24.2676Q77.4414-22.8516 74.5117-22.8516ZM99.9512-48.9258Q99.9512-45.8496 102.124-43.6768Q104.297-41.5039 107.373-41.5527Q110.449-41.6016 112.598-43.7256Q114.746-45.8496 114.746-48.9258Q114.746-51.9043 112.573-54.1016Q110.4-56.2988 107.373-56.2988Q104.346-56.2988 102.148-54.1016Q99.9512-51.9043 99.9512-48.9258Z"/>
  </g>
  <g id="Heavy-M" transform="matrix(1 0 0 1 2562.67 1126)">
   <path d="M30.7129 12.4023L117.334 12.4023Q126.074 12.4023 130.835 7.66602Q135.596 2.92969 135.596-5.76172L135.596-57.373Q135.596-66.0645 130.835-70.8252Q126.074-75.5859 117.334-75.5859L105.859-75.5859Q103.955-75.5859 102.686-75.7812Q101.416-75.9766 100.317-76.6113Q99.2188-77.2461 97.8027-78.5156L94.0918-82.0312Q91.9434-83.9844 89.5996-84.8145Q87.2559-85.6445 83.6426-85.6445L64.3066-85.6445Q60.7422-85.6445 58.3984-84.8145Q56.0547-83.9844 53.9062-82.0312L50.1465-78.5156Q48.0469-76.6113 46.5088-76.0986Q44.9707-75.5859 42.1387-75.5859L30.7129-75.5859Q21.9727-75.5859 17.2119-70.8252Q12.4512-66.0645 12.4512-57.373L12.4512-5.76172Q12.4512 2.92969 17.2119 7.66602Q21.9727 12.4023 30.7129 12.4023ZM32.7148-2.68555Q30.1758-2.68555 28.8574-3.93066Q27.5391-5.17578 27.5391-7.91016L27.5391-55.2246Q27.5391-58.0078 28.8574-59.2529Q30.1758-60.498 32.7148-60.498L47.5586-60.498Q50.8301-60.498 52.6611-61.1328Q54.4922-61.7676 56.3965-63.7207L59.8145-67.2363Q61.7188-69.1895 63.4033-69.873Q65.0879-70.5566 68.1641-70.5566L79.7852-70.5566Q82.9102-70.5566 84.5703-69.873Q86.2305-69.1895 87.9883-67.334L91.6016-63.7207Q93.5059-61.8164 95.3125-61.1572Q97.1191-60.498 100.391-60.498L115.283-60.498Q117.871-60.498 119.189-59.2529Q120.508-58.0078 120.508-55.2246L120.508-7.91016Q120.508-5.17578 119.189-3.93066Q117.871-2.68555 115.283-2.68555ZM74.0234-7.4707Q79.3457-7.4707 83.96-9.44824Q88.5742-11.4258 92.0654-14.917Q95.5566-18.4082 97.5342-23.0469Q99.5117-27.6855 99.5117-33.0078Q99.5117-40.1367 96.0938-45.9229Q92.6758-51.709 86.8896-55.127Q81.1035-58.5449 74.0234-58.5449Q68.75-58.5449 64.1113-56.5918Q59.4727-54.6387 55.9814-51.123Q52.4902-47.6074 50.5127-42.9688Q48.5352-38.3301 48.5352-33.0078Q48.5352-27.6855 50.5127-23.0469Q52.4902-18.4082 55.9814-14.917Q59.4727-11.4258 64.1113-9.44824Q68.75-7.4707 74.0234-7.4707ZM74.0234-20.4102Q70.5566-20.4102 67.7246-22.1191Q64.8926-23.8281 63.1836-26.6846Q61.4746-29.541 61.4746-33.0078Q61.4746-36.5234 63.1836-39.3555Q64.8926-42.1875 67.7246-43.8965Q70.5566-45.6055 74.0234-45.6055Q77.4902-45.6055 80.3467-43.8965Q83.2031-42.1875 84.8877-39.3555Q86.5723-36.5234 86.5723-33.0078Q86.5723-29.541 84.8877-26.6846Q83.2031-23.8281 80.3467-22.1191Q77.4902-20.4102 74.0234-20.4102ZM100.195-49.1211Q100.195-46.1426 102.271-44.0674Q104.346-41.9922 107.324-42.041Q110.254-42.0898 112.305-44.1406Q114.355-46.1914 114.355-49.1211Q114.355-51.9531 112.28-54.0771Q110.205-56.2012 107.324-56.2012Q104.395-56.2012 102.295-54.0771Q100.195-51.9531 100.195-49.1211Z"/>
  </g>
  <g id="Bold-M" transform="matrix(1 0 0 1 2266.49 1126)">
   <path d="M29.6875 11.5234L117.236 11.5234Q125.586 11.5234 130.054 7.10449Q134.521 2.68555 134.521-5.66406L134.521-57.0801Q134.521-65.3809 130.054-69.7998Q125.586-74.2188 117.236-74.2188L104.883-74.2188Q102.979-74.2188 101.758-74.4385Q100.537-74.6582 99.4873-75.3174Q98.4375-75.9766 97.1191-77.2461L93.3594-81.0547Q91.3086-83.0566 89.0137-83.96Q86.7188-84.8633 83.0566-84.8633L63.7207-84.8633Q60.0586-84.8633 57.7881-83.96Q55.5176-83.0566 53.4668-81.0547L49.6582-77.2461Q47.7051-75.3906 46.2158-74.8047Q44.7266-74.2188 41.8945-74.2188L29.6875-74.2188Q21.3379-74.2188 16.8945-69.7998Q12.4512-65.3809 12.4512-57.0801L12.4512-5.66406Q12.4512 2.68555 16.8945 7.10449Q21.3379 11.5234 29.6875 11.5234ZM31.0547-1.12305Q28.125-1.12305 26.5869-2.58789Q25.0488-4.05273 25.0488-7.17773L25.0488-55.5176Q25.0488-58.6426 26.5869-60.1318Q28.125-61.6211 31.0547-61.6211L46.0938-61.6211Q49.4141-61.6211 51.3184-62.3047Q53.2227-62.9883 55.0781-64.9414L58.6426-68.75Q60.6445-70.8496 62.2803-71.5576Q63.916-72.2656 67.041-72.2656L79.7363-72.2656Q82.8613-72.2656 84.4971-71.5576Q86.1328-70.8496 88.0371-68.7988L91.6992-64.9414Q93.6035-62.9883 95.4834-62.3047Q97.3633-61.6211 100.684-61.6211L115.869-61.6211Q118.799-61.6211 120.361-60.1318Q121.924-58.6426 121.924-55.5176L121.924-7.17773Q121.924-4.05273 120.361-2.58789Q118.799-1.12305 115.869-1.12305ZM73.4863-6.68945Q78.8574-6.68945 83.5449-8.69141Q88.2324-10.6934 91.7969-14.2334Q95.3613-17.7734 97.3633-22.4854Q99.3652-27.1973 99.3652-32.6172Q99.3652-39.8438 95.8984-45.7275Q92.4316-51.6113 86.5479-55.0781Q80.6641-58.5449 73.4863-58.5449Q68.1152-58.5449 63.4033-56.543Q58.6914-54.541 55.1514-50.9766Q51.6113-47.4121 49.6094-42.7246Q47.6074-38.0371 47.6074-32.6172Q47.6074-27.1973 49.6094-22.4854Q51.6113-17.7734 55.1514-14.2334Q58.6914-10.6934 63.4033-8.69141Q68.1152-6.68945 73.4863-6.68945ZM73.4863-17.7246Q69.3848-17.7246 66.0156-19.7266Q62.6465-21.7285 60.6201-25.0977Q58.5938-28.4668 58.5938-32.6172Q58.5938-36.7676 60.6201-40.1367Q62.6465-43.5059 66.0156-45.5078Q69.3848-47.5098 73.4863-47.5098Q77.5879-47.5098 80.957-45.5078Q84.3262-43.5059 86.3281-40.1367Q88.3301-36.7676 88.3301-32.6172Q88.3301-28.4668 86.3281-25.0977Q84.3262-21.7285 80.957-19.7266Q77.5879-17.7246 73.4863-17.7246ZM100.488-49.3652Q100.488-46.5332 102.49-44.5801Q104.492-42.627 107.275-42.6758Q110.059-42.6758 112.036-44.6289Q114.014-46.582 114.014-49.3652Q114.014-52.0996 112.012-54.1016Q110.01-56.1035 107.275-56.1035Q104.492-56.1035 102.49-54.1016Q100.488-52.0996 100.488-49.3652Z"/>
  </g>
  <g id="Semibold-M" transform="matrix(1 0 0 1 1970.17 1126)">
   <path d="M29.0039 10.8887L117.188 10.8887Q125.244 10.8887 129.492 6.68945Q133.74 2.49023 133.74-5.51758L133.74-56.8848Q133.74-64.8438 129.492-69.043Q125.244-73.2422 117.188-73.2422L104.248-73.2422Q102.295-73.2422 101.099-73.4863Q99.9023-73.7305 98.9014-74.4141Q97.9004-75.0977 96.6797-76.3672L92.8223-80.3711Q90.8691-82.373 88.623-83.3496Q86.377-84.3262 82.666-84.3262L63.2812-84.3262Q59.5703-84.3262 57.3242-83.3496Q55.0781-82.373 53.125-80.3711L49.2676-76.3672Q47.4609-74.5117 46.0205-73.877Q44.5801-73.2422 41.6992-73.2422L29.0039-73.2422Q20.8984-73.2422 16.6748-69.043Q12.4512-64.8438 12.4512-56.8848L12.4512-5.51758Q12.4512 2.49023 16.6748 6.68945Q20.8984 10.8887 29.0039 10.8887ZM29.8828 0Q26.709 0 25.0244-1.63574Q23.3398-3.27148 23.3398-6.64062L23.3398-55.7129Q23.3398-59.082 25.0244-60.7178Q26.709-62.3535 29.8828-62.3535L45.1172-62.3535Q48.3887-62.3535 50.3418-63.0615Q52.2949-63.7695 54.1504-65.7715L57.8125-69.7754Q59.8633-71.9727 61.499-72.7051Q63.1348-73.4375 66.2598-73.4375L79.6387-73.4375Q82.8125-73.4375 84.4482-72.7051Q86.084-71.9727 88.0371-69.8242L91.748-65.7715Q93.6523-63.8184 95.5811-63.0859Q97.5098-62.3535 100.83-62.3535L116.211-62.3535Q119.385-62.3535 121.118-60.7178Q122.852-59.082 122.852-55.7129L122.852-6.64062Q122.852-3.27148 121.118-1.63574Q119.385 0 116.211 0ZM73.0957-6.10352Q78.5156-6.10352 83.252-8.12988Q87.9883-10.1562 91.5771-13.7451Q95.166-17.334 97.1924-22.0703Q99.2188-26.8066 99.2188-32.3242Q99.2188-39.5996 95.7275-45.5566Q92.2363-51.5137 86.2793-55.0049Q80.3223-58.4961 73.0957-58.4961Q67.627-58.4961 62.8906-56.4941Q58.1543-54.4922 54.5654-50.8789Q50.9766-47.2656 48.9502-42.5293Q46.9238-37.793 46.9238-32.3242Q46.9238-26.8066 48.9502-22.0703Q50.9766-17.334 54.5654-13.7451Q58.1543-10.1562 62.8906-8.12988Q67.627-6.10352 73.0957-6.10352ZM73.0957-15.8203Q68.5547-15.8203 64.8193-18.042Q61.084-20.2637 58.8379-23.999Q56.5918-27.7344 56.5918-32.3242Q56.5918-36.9141 58.8379-40.6494Q61.084-44.3848 64.8193-46.6064Q68.5547-48.8281 73.0957-48.8281Q77.6367-48.8281 81.3721-46.6064Q85.1074-44.3848 87.3291-40.6494Q89.5508-36.9141 89.5508-32.3242Q89.5508-27.7344 87.3291-23.999Q85.1074-20.2637 81.3721-18.042Q77.6367-15.8203 73.0957-15.8203ZM100.684-49.5117Q100.684-46.7773 102.612-44.873Q104.541-42.9688 107.227-43.0176Q109.863-43.0664 111.792-44.9463Q113.721-46.8262 113.721-49.5117Q113.721-52.0996 111.792-54.0527Q109.863-56.0059 107.227-56.0059Q104.541-56.0059 102.612-54.0527Q100.684-52.0996 100.684-49.5117Z"/>
  </g>
  <g id="Medium-M" transform="matrix(1 0 0 1 1673.75 1126)">
   <path d="M28.4668 10.4004L117.09 10.4004Q125 10.4004 129.077 6.37207Q133.154 2.34375 133.154-5.46875L133.154-56.6895Q133.154-64.502 129.077-68.5059Q125-72.5098 117.09-72.5098L103.711-72.5098Q101.807-72.5098 100.61-72.7783Q99.4141-73.0469 98.4619-73.7549Q97.5098-74.4629 96.2891-75.6836L92.4316-79.8828Q90.5762-81.8359 88.3301-82.8613Q86.084-83.8867 82.373-83.8867L62.9395-83.8867Q59.2285-83.8867 57.0068-82.8613Q54.7852-81.8359 52.8809-79.8828L48.9746-75.6836Q47.2656-73.8281 45.8496-73.1689Q44.4336-72.5098 41.5527-72.5098L28.4668-72.5098Q20.5566-72.5098 16.5039-68.5059Q12.4512-64.502 12.4512-56.6895L12.4512-5.46875Q12.4512 2.34375 16.5039 6.37207Q20.5566 10.4004 28.4668 10.4004ZM29.0039 0.830078Q25.6348 0.830078 23.8281-0.927734Q22.0215-2.68555 22.0215-6.25L22.0215-55.8594Q22.0215-59.4238 23.8281-61.1816Q25.6348-62.9395 29.0039-62.9395L44.3359-62.9395Q47.6562-62.9395 49.6338-63.6719Q51.6113-64.4043 53.4668-66.4551L57.1777-70.5566Q59.2773-72.8027 60.8887-73.5596Q62.5-74.3164 65.6738-74.3164L79.5898-74.3164Q82.8125-74.3164 84.4238-73.5596Q86.0352-72.8027 88.0859-70.5566L91.8457-66.4551Q93.7012-64.4043 95.6787-63.6719Q97.6562-62.9395 100.977-62.9395L116.504-62.9395Q119.873-62.9395 121.729-61.1816Q123.584-59.4238 123.584-55.8594L123.584-6.25Q123.584-2.68555 121.729-0.927734Q119.873 0.830078 116.504 0.830078ZM72.8027-5.66406Q78.2715-5.66406 83.0566-7.71484Q87.8418-9.76562 91.4551-13.3789Q95.0684-16.9922 97.0947-21.7773Q99.1211-26.5625 99.1211-32.1289Q99.1211-39.4531 95.6055-45.459Q92.0898-51.4648 86.084-54.9805Q80.0781-58.4961 72.8027-58.4961Q67.2852-58.4961 62.5-56.4697Q57.7148-54.4434 54.126-50.8301Q50.5371-47.2168 48.4619-42.4072Q46.3867-37.5977 46.3867-32.1289Q46.3867-26.5625 48.4619-21.7773Q50.5371-16.9922 54.126-13.3789Q57.7148-9.76562 62.5-7.71484Q67.2852-5.66406 72.8027-5.66406ZM72.8027-14.4043Q67.9199-14.4043 63.8916-16.7725Q59.8633-19.1406 57.4707-23.1689Q55.0781-27.1973 55.0781-32.1289Q55.0781-37.0117 57.4707-41.0156Q59.8633-45.0195 63.8916-47.4121Q67.9199-49.8047 72.8027-49.8047Q77.6855-49.8047 81.6895-47.4121Q85.6934-45.0195 88.0859-41.0156Q90.4785-37.0117 90.4785-32.1289Q90.4785-27.1973 88.0859-23.1689Q85.6934-19.1406 81.6895-16.7725Q77.6855-14.4043 72.8027-14.4043ZM100.83-49.6582Q100.83-46.9727 102.71-45.1416Q104.59-43.3105 107.227-43.3594Q109.766-43.3594 111.646-45.1904Q113.525-47.0215 113.525-49.6582Q113.525-52.1973 111.646-54.0771Q109.766-55.957 107.227-55.957Q104.59-55.957 102.71-54.0771Q100.83-52.1973 100.83-49.6582Z"/>
  </g>
  <g id="Regular-M" transform="matrix(1 0 0 1 1377.43 1126)">
   <path d="M27.7832 9.76562L117.041 9.76562Q124.658 9.76562 128.516 5.98145Q132.373 2.19727 132.373-5.37109L132.373-56.4941Q132.373-64.0137 128.516-67.7979Q124.658-71.582 117.041-71.582L103.076-71.582Q101.123-71.582 99.9512-71.875Q98.7793-72.168 97.876-72.876Q96.9727-73.584 95.8496-74.8047L91.9434-79.1992Q90.1367-81.2012 87.9395-82.2754Q85.7422-83.3496 81.9824-83.3496L62.5-83.3496Q58.7402-83.3496 56.5674-82.2754Q54.3945-81.2012 52.5391-79.1992L48.6328-74.8047Q47.0215-72.998 45.6543-72.29Q44.2871-71.582 41.4062-71.582L27.7832-71.582Q20.1172-71.582 16.2842-67.7979Q12.4512-64.0137 12.4512-56.4941L12.4512-5.37109Q12.4512 2.19727 16.2842 5.98145Q20.1172 9.76562 27.7832 9.76562ZM27.8809 1.9043Q24.2676 1.9043 22.29-0.0244141Q20.3125-1.95312 20.3125-5.76172L20.3125-56.0547Q20.3125-59.8633 22.29-61.792Q24.2676-63.7207 27.8809-63.7207L43.3594-63.7207Q46.6797-63.7207 48.7061-64.4775Q50.7324-65.2344 52.5879-67.2852L56.3965-71.582Q58.4961-73.9258 60.1074-74.707Q61.7188-75.4883 64.9414-75.4883L79.541-75.4883Q82.7637-75.4883 84.375-74.707Q85.9863-73.9258 88.0859-71.582L91.8945-67.2852Q93.75-65.2344 95.7764-64.4775Q97.8027-63.7207 101.123-63.7207L116.895-63.7207Q120.508-63.7207 122.51-61.792Q124.512-59.8633 124.512-56.0547L124.512-5.76172Q124.512-1.95312 122.51-0.0244141Q120.508 1.9043 116.895 1.9043ZM72.4121-5.12695Q77.9297-5.12695 82.7637-7.17773Q87.5977-9.22852 91.2598-12.8906Q94.9219-16.5527 96.9727-21.3867Q99.0234-26.2207 99.0234-31.8359Q99.0234-39.2578 95.459-45.3125Q91.8945-51.3672 85.8398-54.9316Q79.7852-58.4961 72.4121-58.4961Q66.8457-58.4961 62.0117-56.4453Q57.1777-54.3945 53.54-50.7324Q49.9023-47.0703 47.8271-42.2363Q45.752-37.4023 45.752-31.8359Q45.752-26.2207 47.8271-21.3867Q49.9023-16.5527 53.54-12.8906Q57.1777-9.22852 62.0117-7.17773Q66.8457-5.12695 72.4121-5.12695ZM72.4121-12.5488Q67.0898-12.5488 62.7197-15.1367Q58.3496-17.7246 55.7373-22.0947Q53.125-26.4648 53.125-31.8359Q53.125-37.1582 55.7373-41.5283Q58.3496-45.8984 62.7197-48.5107Q67.0898-51.123 72.4121-51.123Q77.7344-51.123 82.1045-48.5107Q86.4746-45.8984 89.0625-41.5283Q91.6504-37.1582 91.6504-31.8359Q91.6504-26.4648 89.0625-22.0947Q86.4746-17.7246 82.1045-15.1367Q77.7344-12.5488 72.4121-12.5488ZM101.025-49.8047Q101.025-47.2168 102.832-45.459Q104.639-43.7012 107.178-43.75Q109.619-43.75 111.426-45.5078Q113.232-47.2656 113.232-49.8047Q113.232-52.2461 111.426-54.0527Q109.619-55.8594 107.178-55.8594Q104.639-55.8594 102.832-54.0527Q101.025-52.2461 101.025-49.8047Z"/>
  </g>
  <g id="Light-M" transform="matrix(1 0 0 1 1081.72 1126)">
   <path d="M26.8555 9.0332L115.967 9.0332Q123.096 9.0332 126.733 5.44434Q130.371 1.85547 130.371-5.22461L130.371-56.543Q130.371-63.5254 126.733-67.1387Q123.096-70.752 115.967-70.752L101.66-70.752Q99.707-70.752 98.5107-70.9961Q97.3145-71.2402 96.3867-71.9238Q95.459-72.6074 94.2871-73.9258L90.2344-78.5156Q88.3301-80.5664 86.2793-81.5186Q84.2285-82.4707 80.5664-82.4707L61.5234-82.4707Q57.8613-82.4707 55.835-81.5186Q53.8086-80.5664 51.8555-78.5156L47.8027-73.9258Q46.0938-72.0215 44.7266-71.3867Q43.3594-70.752 40.4297-70.752L26.8555-70.752Q19.6777-70.752 16.0645-67.1387Q12.4512-63.5254 12.4512-56.543L12.4512-5.22461Q12.4512 1.85547 16.0645 5.44434Q19.6777 9.0332 26.8555 9.0332ZM26.9531 2.97852Q22.9004 2.97852 20.7031 0.830078Q18.5059-1.31836 18.5059-5.51758L18.5059-56.2012Q18.5059-60.4004 20.7031-62.5488Q22.9004-64.6973 26.9531-64.6973L41.6992-64.6973Q45.0684-64.6973 47.0215-65.4053Q48.9746-66.1133 50.8789-68.2129L54.8828-72.7051Q56.9824-75.0488 58.5449-75.7324Q60.1074-76.416 63.1348-76.416L78.9551-76.416Q81.9824-76.416 83.5449-75.7324Q85.1074-75.0488 87.207-72.7051L91.2109-68.2129Q93.1152-66.1133 95.0928-65.4053Q97.0703-64.6973 100.391-64.6973L115.82-64.6973Q119.873-64.6973 122.119-62.5488Q124.365-60.4004 124.365-56.2012L124.365-5.51758Q124.365-1.31836 122.119 0.830078Q119.873 2.97852 115.82 2.97852ZM71.4355-4.83398Q76.9531-4.83398 81.8359-6.90918Q86.7188-8.98438 90.4053-12.6709Q94.0918-16.3574 96.167-21.2158Q98.2422-26.0742 98.2422-31.7383Q98.2422-39.209 94.6289-45.3125Q91.0156-51.416 84.9365-55.0049Q78.8574-58.5938 71.4355-58.5938Q65.8203-58.5938 60.9619-56.5186Q56.1035-54.4434 52.417-50.7568Q48.7305-47.0703 46.6553-42.2119Q44.5801-37.3535 44.5801-31.7383Q44.5801-26.0742 46.6553-21.2158Q48.7305-16.3574 52.417-12.6709Q56.1035-8.98438 60.9619-6.90918Q65.8203-4.83398 71.4355-4.83398ZM71.4355-10.6445Q65.625-10.6445 60.8398-13.4766Q56.0547-16.3086 53.2227-21.0938Q50.3906-25.8789 50.3906-31.7383Q50.3906-37.5488 53.2227-42.334Q56.0547-47.1191 60.8398-49.9512Q65.625-52.7832 71.4355-52.7832Q77.1973-52.7832 81.9824-49.9512Q86.7676-47.1191 89.5996-42.334Q92.4316-37.5488 92.4316-31.7383Q92.4316-25.8789 89.5996-21.0938Q86.7676-16.3086 81.9824-13.4766Q77.1973-10.6445 71.4355-10.6445ZM100.586-49.6094Q100.586-47.0703 102.344-45.4102Q104.102-43.75 106.543-43.75Q108.887-43.7012 110.645-45.4346Q112.402-47.168 112.402-49.6094Q112.402-51.9531 110.645-53.7109Q108.887-55.4688 106.543-55.4688Q104.102-55.4688 102.344-53.7109Q100.586-51.9531 100.586-49.6094Z"/>
  </g>
  <g id="Thin-M" transform="matrix(1 0 0 1 786.329 1126)">
   <path d="M25.5859 8.05664L114.6 8.05664Q121.045 8.05664 124.39 4.71191Q127.734 1.36719 127.734-5.07812L127.734-56.543Q127.734-62.9395 124.39-66.3086Q121.045-69.6777 114.6-69.6777L99.8535-69.6777Q97.8027-69.6777 96.6064-69.873Q95.4102-70.0684 94.458-70.7275Q93.5059-71.3867 92.1875-72.8027L87.9395-77.5879Q85.9863-79.7363 84.082-80.5176Q82.1777-81.2988 78.7109-81.2988L60.2539-81.2988Q56.7383-81.2988 54.8584-80.5176Q52.9785-79.7363 50.9766-77.5879L46.7285-72.8027Q44.873-70.752 43.4814-70.2148Q42.0898-69.6777 39.1113-69.6777L25.5859-69.6777Q19.1406-69.6777 15.7959-66.3086Q12.4512-62.9395 12.4512-56.543L12.4512-5.07812Q12.4512 1.36719 15.7959 4.71191Q19.1406 8.05664 25.5859 8.05664ZM25.7324 4.44336Q21.1426 4.44336 18.6279 2.00195Q16.1133-0.439453 16.1133-5.22461L16.1133-56.3477Q16.1133-61.1816 18.6279-63.623Q21.1426-66.0645 25.7324-66.0645L39.5508-66.0645Q42.8711-66.0645 44.7754-66.6504Q46.6797-67.2363 48.6328-69.4824L52.9297-74.1699Q54.9805-76.5137 56.4941-77.0996Q58.0078-77.6855 60.7422-77.6855L78.2227-77.6855Q80.957-77.6855 82.4707-77.0996Q83.9844-76.5137 86.0352-74.1699L90.2832-69.4824Q92.2852-67.2363 94.165-66.6504Q96.0449-66.0645 99.4141-66.0645L114.453-66.0645Q119.043-66.0645 121.582-63.623Q124.121-61.1816 124.121-56.3477L124.121-5.22461Q124.121-0.439453 121.582 2.00195Q119.043 4.44336 114.453 4.44336ZM70.0684-4.44336Q75.7324-4.44336 80.6396-6.54297Q85.5469-8.64258 89.2578-12.3779Q92.9688-16.1133 95.0684-21.0205Q97.168-25.9277 97.168-31.5918Q97.168-39.1113 93.5303-45.2637Q89.8926-51.416 83.7646-55.0537Q77.6367-58.6914 70.0684-58.6914Q64.502-58.6914 59.5947-56.6162Q54.6875-54.541 50.9521-50.8057Q47.2168-47.0703 45.1416-42.1631Q43.0664-37.2559 43.0664-31.5918Q43.0664-25.9277 45.1416-21.0205Q47.2168-16.1133 50.9521-12.3779Q54.6875-8.64258 59.5947-6.54297Q64.502-4.44336 70.0684-4.44336ZM70.0684-8.1543Q63.623-8.1543 58.3252-11.3037Q53.0273-14.4531 49.9023-19.7754Q46.7773-25.0977 46.7773-31.5918Q46.7773-38.0859 49.9023-43.4082Q53.0273-48.7305 58.3252-51.8799Q63.623-55.0293 70.0684-55.0293Q76.5625-55.0293 81.8604-51.8799Q87.1582-48.7305 90.3076-43.4082Q93.457-38.0859 93.457-31.5918Q93.457-25.0977 90.3076-19.7754Q87.1582-14.4531 81.8604-11.3037Q76.5625-8.1543 70.0684-8.1543ZM99.9512-49.3164Q99.9512-46.875 101.636-45.3369Q103.32-43.7988 105.664-43.75Q107.861-43.6035 109.546-45.3125Q111.23-47.0215 111.23-49.3164Q111.23-51.5137 109.546-53.2227Q107.861-54.9316 105.664-54.9316Q103.32-54.9316 101.636-53.2227Q99.9512-51.5137 99.9512-49.3164Z"/>
  </g>
  <g id="Ultralight-M" transform="matrix(1 0 0 1 490.302 1126)">
   <path d="M24.9512 7.56836L113.867 7.56836Q119.971 7.56836 123.169 4.3457Q126.367 1.12305 126.367-4.98047L126.367-56.5918Q126.367-62.5977 123.169-65.8691Q119.971-69.1406 113.867-69.1406L98.877-69.1406Q96.8262-69.1406 95.6299-69.2871Q94.4336-69.4336 93.457-70.0684Q92.4805-70.7031 91.1133-72.2168L86.7676-77.0996Q84.7656-79.2969 82.959-80.0049Q81.1523-80.7129 77.7832-80.7129L59.5703-80.7129Q56.1523-80.7129 54.3701-80.0049Q52.5879-79.2969 50.5371-77.0996L46.1914-72.2168Q44.2383-70.0684 42.8467-69.6045Q41.4551-69.1406 38.4766-69.1406L24.9512-69.1406Q18.8477-69.1406 15.6494-65.8691Q12.4512-62.5977 12.4512-56.5918L12.4512-4.98047Q12.4512 1.12305 15.6494 4.3457Q18.8477 7.56836 24.9512 7.56836ZM25.0977 5.17578Q20.2148 5.17578 17.5293 2.58789Q14.8438 0 14.8438-5.07812L14.8438-56.4453Q14.8438-61.5234 17.5293-64.1113Q20.2148-66.6992 25.0977-66.6992L38.4277-66.6992Q41.7969-66.6992 43.6523-67.2607Q45.5078-67.8223 47.5098-70.1172L51.9043-74.9512Q53.9551-77.2461 55.4199-77.7832Q56.8848-78.3203 59.5215-78.3203L77.832-78.3203Q80.4199-78.3203 81.9092-77.7832Q83.3984-77.2461 85.4492-74.9512L89.7949-70.1172Q91.8457-67.8223 93.7012-67.2607Q95.5566-66.6992 98.877-66.6992L113.721-66.6992Q118.604-66.6992 121.313-64.1113Q124.023-61.5234 124.023-56.4453L124.023-5.07812Q124.023 0 121.313 2.58789Q118.604 5.17578 113.721 5.17578ZM69.4336-4.24805Q75.0488-4.24805 79.9805-6.34766Q84.9121-8.44727 88.6475-12.207Q92.3828-15.9668 94.5068-20.8984Q96.6309-25.8301 96.6309-31.4941Q96.6309-39.0625 92.9688-45.2637Q89.3066-51.4648 83.1543-55.127Q77.002-58.7891 69.4336-58.7891Q63.8184-58.7891 58.8867-56.6895Q53.9551-54.5898 50.1953-50.8301Q46.4355-47.0703 44.3359-42.1387Q42.2363-37.207 42.2363-31.4941Q42.2363-25.8301 44.3359-20.8984Q46.4355-15.9668 50.1953-12.207Q53.9551-8.44727 58.8867-6.34766Q63.8184-4.24805 69.4336-4.24805ZM69.4336-6.88477Q62.6465-6.88477 57.0801-10.2051Q51.5137-13.5254 48.2178-19.1162Q44.9219-24.707 44.9219-31.4941Q44.9219-38.3301 48.2178-43.9209Q51.5137-49.5117 57.0801-52.832Q62.6465-56.1523 69.4336-56.1523Q76.1719-56.1523 81.7627-52.832Q87.3535-49.5117 90.6494-43.9209Q93.9453-38.3301 93.9453-31.4941Q93.9453-24.707 90.6494-19.1162Q87.3535-13.5254 81.7627-10.2051Q76.1719-6.88477 69.4336-6.88477ZM99.6582-49.1699Q99.6582-46.7773 101.294-45.2881Q102.93-43.7988 105.273-43.7012Q107.373-43.5547 109.033-45.2393Q110.693-46.9238 110.693-49.1699Q110.693-51.3184 109.033-52.9785Q107.373-54.6387 105.273-54.6387Q102.93-54.6387 101.294-52.9785Q99.6582-51.3184 99.6582-49.1699Z"/>
  </g>
  <g id="Black-S" transform="matrix(1 0 0 1 2874.9 696)">
   <path d="M25 2.92969L91.9922 2.92969Q99.1699 2.92969 103.198-1.09863Q107.227-5.12695 107.227-12.3047L107.227-52.8809Q107.227-60.0586 103.198-64.0869Q99.1699-68.1152 91.9922-68.1152L83.7891-68.1152Q81.5918-68.1152 80.3223-68.4814Q79.0527-68.8477 77.1973-70.3613L74.3164-72.8027Q72.5098-74.3652 70.6299-74.9268Q68.75-75.4883 66.0156-75.4883L50.9766-75.4883Q48.2422-75.4883 46.3623-74.9268Q44.4824-74.3652 42.6758-72.8027L39.7949-70.3613Q37.9883-68.8477 36.6943-68.4814Q35.4004-68.1152 33.2031-68.1152L25-68.1152Q17.8223-68.1152 13.7939-64.0869Q9.76562-60.0586 9.76562-52.8809L9.76562-12.3047Q9.76562-5.12695 13.7939-1.09863Q17.8223 2.92969 25 2.92969ZM27.2461-11.2305Q25.5859-11.2305 24.7559-11.9873Q23.9258-12.7441 23.9258-14.5508L23.9258-50.6348Q23.9258-52.4902 24.7559-53.2227Q25.5859-53.9551 27.2461-53.9551L38.5742-53.9551Q41.1621-53.9551 42.5049-54.4189Q43.8477-54.8828 45.3613-56.3965L47.9004-58.8867Q49.3652-60.3027 50.6836-60.8154Q52.002-61.3281 54.3945-61.3281L62.5977-61.3281Q64.9902-61.3281 66.2842-60.8154Q67.5781-60.3027 68.8965-59.0332L71.6309-56.3965Q73.1445-54.9316 74.5117-54.4434Q75.8789-53.9551 78.418-53.9551L89.7461-53.9551Q91.4551-53.9551 92.2607-53.2227Q93.0664-52.4902 93.0664-50.6348L93.0664-14.5508Q93.0664-12.7441 92.2607-11.9873Q91.4551-11.2305 89.7461-11.2305ZM58.4961-14.2578Q63.9648-14.2578 68.3838-16.8945Q72.8027-19.5312 75.4395-23.999Q78.0762-28.4668 78.0762-33.8867Q78.0762-39.3555 75.4395-43.7988Q72.8027-48.2422 68.3838-50.8789Q63.9648-53.5156 58.4961-53.5156Q53.0762-53.5156 48.6328-50.8789Q44.1895-48.2422 41.5527-43.7988Q38.916-39.3555 38.916-33.8867Q38.916-28.4668 41.5527-23.999Q44.1895-19.5312 48.6328-16.8945Q53.0762-14.2578 58.4961-14.2578ZM58.4961-26.1719Q56.3965-26.1719 54.6387-27.2217Q52.8809-28.2715 51.8555-30.0293Q50.8301-31.7871 50.8301-33.8867Q50.8301-36.0352 51.8555-37.793Q52.8809-39.5508 54.6387-40.5762Q56.3965-41.6016 58.4961-41.6016Q60.6445-41.6016 62.3779-40.5762Q64.1113-39.5508 65.1367-37.793Q66.1621-36.0352 66.1621-33.8867Q66.1621-31.7871 65.1367-30.0293Q64.1113-28.2715 62.3779-27.2217Q60.6445-26.1719 58.4961-26.1719ZM78.1738-45.8984Q78.1738-43.457 79.9072-41.7236Q81.6406-39.9902 84.082-40.0391Q86.5234-40.0879 88.2324-41.7725Q89.9414-43.457 89.9414-45.8984Q89.9414-48.291 88.208-50.0244Q86.4746-51.7578 84.082-51.7578Q81.6895-51.7578 79.9316-50.0244Q78.1738-48.291 78.1738-45.8984Z"/>
  </g>
  <g id="Heavy-S" transform="matrix(1 0 0 1 2578.49 696)">
   <path d="M24.3652 2.34375L92.041 2.34375Q98.9746 2.34375 102.808-1.46484Q106.641-5.27344 106.641-12.207L106.641-52.6367Q106.641-59.5703 102.808-63.3789Q98.9746-67.1875 92.041-67.1875L83.252-67.1875Q81.0059-67.1875 79.8096-67.6025Q78.6133-68.0176 76.9043-69.4824L73.9746-72.168Q72.2656-73.6816 70.4102-74.3408Q68.5547-75 65.7715-75L50.6348-75Q47.8027-75 45.9473-74.3408Q44.0918-73.6816 42.3828-72.168L39.502-69.4824Q37.793-68.0176 36.5723-67.6025Q35.3516-67.1875 33.1543-67.1875L24.3652-67.1875Q17.3828-67.1875 13.5742-63.3789Q9.76562-59.5703 9.76562-52.6367L9.76562-12.207Q9.76562-5.27344 13.5742-1.46484Q17.3828 2.34375 24.3652 2.34375ZM26.0742-10.1562Q24.1699-10.1562 23.2178-11.0596Q22.2656-11.9629 22.2656-14.0137L22.2656-50.8301Q22.2656-52.8809 23.2178-53.7842Q24.1699-54.6875 26.0742-54.6875L37.6953-54.6875Q40.2832-54.6875 41.6748-55.2002Q43.0664-55.7129 44.5801-57.2266L47.2168-59.9121Q48.7305-61.4258 50.0244-61.9629Q51.3184-62.5 53.7598-62.5L62.5977-62.5Q65.0391-62.5 66.333-61.9629Q67.627-61.4258 69.043-60.0098L71.8262-57.2266Q73.291-55.7617 74.707-55.2246Q76.123-54.6875 78.7109-54.6875L90.332-54.6875Q92.2363-54.6875 93.1885-53.7842Q94.1406-52.8809 94.1406-50.8301L94.1406-14.0137Q94.1406-11.9629 93.1885-11.0596Q92.2363-10.1562 90.332-10.1562ZM58.2031-13.6719Q63.7207-13.6719 68.2129-16.3574Q72.7051-19.043 75.3906-23.5596Q78.0762-28.0762 78.0762-33.5938Q78.0762-39.1113 75.3906-43.6279Q72.7051-48.1445 68.2129-50.8301Q63.7207-53.5156 58.2031-53.5156Q52.6855-53.5156 48.1934-50.8301Q43.7012-48.1445 41.0156-43.6279Q38.3301-39.1113 38.3301-33.5938Q38.3301-28.0762 41.0156-23.5596Q43.7012-19.043 48.1934-16.3574Q52.6855-13.6719 58.2031-13.6719ZM58.2031-24.3164Q55.6641-24.3164 53.5645-25.5615Q51.4648-26.8066 50.2197-28.9307Q48.9746-31.0547 48.9746-33.5938Q48.9746-36.1816 50.2197-38.2812Q51.4648-40.3809 53.5645-41.6016Q55.6641-42.8223 58.2031-42.8223Q60.7422-42.8223 62.8418-41.6016Q64.9414-40.3809 66.1621-38.2812Q67.3828-36.1816 67.3828-33.5938Q67.3828-31.0547 66.1621-28.9307Q64.9414-26.8066 62.8418-25.5615Q60.7422-24.3164 58.2031-24.3164ZM78.4668-46.0938Q78.4668-43.75 80.127-42.0898Q81.7871-40.4297 84.1309-40.4785Q86.4746-40.5273 88.1104-42.1387Q89.7461-43.75 89.7461-46.0938Q89.7461-48.3887 88.0859-50.0488Q86.4258-51.709 84.1309-51.709Q81.8359-51.709 80.1514-50.0488Q78.4668-48.3887 78.4668-46.0938Z"/>
  </g>
  <g id="Bold-S" transform="matrix(1 0 0 1 2282.12 696)">
   <path d="M23.6328 1.66016L92.1387 1.66016Q98.8281 1.66016 102.393-1.9043Q105.957-5.46875 105.957-12.1094L105.957-52.3926Q105.957-59.0332 102.393-62.5732Q98.8281-66.1133 92.1387-66.1133L82.6172-66.1133Q80.4199-66.1133 79.248-66.6016Q78.0762-67.0898 76.5625-68.5059L73.6328-71.4355Q72.0215-72.9492 70.1904-73.6816Q68.3594-74.4141 65.4785-74.4141L50.2441-74.4141Q47.3633-74.4141 45.5322-73.6816Q43.7012-72.9492 42.0898-71.4355L39.1602-68.5059Q37.6465-67.0898 36.4746-66.6016Q35.3027-66.1133 33.1055-66.1133L23.6328-66.1133Q16.9434-66.1133 13.3545-62.5732Q9.76562-59.0332 9.76562-52.3926L9.76562-12.1094Q9.76562-5.46875 13.3545-1.9043Q16.9434 1.66016 23.6328 1.66016ZM24.8047-8.98438Q22.6562-8.98438 21.5088-10.0586Q20.3613-11.1328 20.3613-13.4277L20.3613-51.0742Q20.3613-53.3691 21.5088-54.4434Q22.6562-55.5176 24.8047-55.5176L36.7188-55.5176Q39.2578-55.5176 40.7471-56.0791Q42.2363-56.6406 43.7012-58.1543L46.4355-61.0352Q47.998-62.6465 49.292-63.2324Q50.5859-63.8184 53.0762-63.8184L62.5977-63.8184Q65.1367-63.8184 66.4307-63.2324Q67.7246-62.6465 69.1895-61.1328L72.0215-58.1543Q73.4375-56.6406 74.9512-56.0791Q76.4648-55.5176 79.0039-55.5176L90.9668-55.5176Q93.1152-55.5176 94.2383-54.4434Q95.3613-53.3691 95.3613-51.0742L95.3613-13.4277Q95.3613-11.1328 94.2383-10.0586Q93.1152-8.98438 90.9668-8.98438ZM57.8613-13.0371Q63.4766-13.0371 68.042-15.7471Q72.6074-18.457 75.3174-23.0469Q78.0273-27.6367 78.0273-33.252Q78.0273-38.8672 75.3174-43.457Q72.6074-48.0469 68.042-50.7568Q63.4766-53.4668 57.8613-53.4668Q52.2949-53.4668 47.7051-50.7568Q43.1152-48.0469 40.4053-43.457Q37.6953-38.8672 37.6953-33.252Q37.6953-27.6367 40.4053-23.0469Q43.1152-18.457 47.7051-15.7471Q52.2949-13.0371 57.8613-13.0371ZM57.8613-22.2656Q54.8828-22.2656 52.3682-23.7549Q49.8535-25.2441 48.3887-27.7344Q46.9238-30.2246 46.9238-33.252Q46.9238-36.3281 48.3887-38.8184Q49.8535-41.3086 52.3438-42.7734Q54.834-44.2383 57.8613-44.2383Q60.8887-44.2383 63.3789-42.7734Q65.8691-41.3086 67.334-38.8184Q68.7988-36.3281 68.7988-33.252Q68.7988-30.2246 67.334-27.7344Q65.8691-25.2441 63.3789-23.7549Q60.8887-22.2656 57.8613-22.2656ZM78.7598-46.2891Q78.7598-44.043 80.3467-42.4805Q81.9336-40.918 84.1797-40.9668Q86.377-40.9668 87.9639-42.5049Q89.5508-44.043 89.5508-46.2891Q89.5508-48.4863 87.9639-50.0732Q86.377-51.6602 84.1797-51.6602Q81.9824-51.6602 80.3711-50.0732Q78.7598-48.4863 78.7598-46.2891Z"/>
  </g>
  <g id="Semibold-S" transform="matrix(1 0 0 1 1985.63 696)">
   <path d="M23.0957 1.2207L92.1387 1.2207Q98.6816 1.2207 102.1-2.17285Q105.518-5.56641 105.518-12.0605L105.518-52.1973Q105.518-58.6426 102.1-62.0117Q98.6816-65.3809 92.1387-65.3809L82.1777-65.3809Q79.9805-65.3809 78.8574-65.8936Q77.7344-66.4062 76.3184-67.8223L73.3398-70.8984Q71.8262-72.4121 69.9951-73.2178Q68.1641-74.0234 65.2832-74.0234L49.9512-74.0234Q47.0215-74.0234 45.2148-73.2178Q43.4082-72.4121 41.8945-70.8984L38.916-67.8223Q37.5-66.4062 36.377-65.8936Q35.2539-65.3809 33.0566-65.3809L23.0957-65.3809Q16.6016-65.3809 13.1836-62.0117Q9.76562-58.6426 9.76562-52.1973L9.76562-12.0605Q9.76562-5.56641 13.1836-2.17285Q16.6016 1.2207 23.0957 1.2207ZM23.877-8.1543Q21.5332-8.1543 20.2881-9.32617Q19.043-10.498 19.043-12.9883L19.043-51.2207Q19.043-53.7109 20.2881-54.9072Q21.5332-56.1035 23.877-56.1035L35.9863-56.1035Q38.5742-56.1035 40.1123-56.665Q41.6504-57.2266 43.1152-58.7891L45.8496-61.8164Q47.4609-63.4766 48.7549-64.1113Q50.0488-64.7461 52.5879-64.7461L62.5977-64.7461Q65.1367-64.7461 66.4307-64.1113Q67.7246-63.4766 69.2871-61.8652L72.1191-58.7891Q73.5352-57.2754 75.0977-56.6895Q76.6602-56.1035 79.1992-56.1035L91.3574-56.1035Q93.7012-56.1035 94.9219-54.9072Q96.1426-53.7109 96.1426-51.2207L96.1426-12.9883Q96.1426-10.498 94.9219-9.32617Q93.7012-8.1543 91.3574-8.1543ZM57.6172-12.5488Q63.2812-12.5488 67.9199-15.3076Q72.5586-18.0664 75.293-22.7051Q78.0273-27.3438 78.0273-33.0078Q78.0273-38.6719 75.293-43.335Q72.5586-47.998 67.9199-50.7324Q63.2812-53.4668 57.6172-53.4668Q51.9531-53.4668 47.3389-50.7324Q42.7246-47.998 39.9658-43.335Q37.207-38.6719 37.207-33.0078Q37.207-27.3438 39.9658-22.7051Q42.7246-18.0664 47.3389-15.3076Q51.9531-12.5488 57.6172-12.5488ZM57.6172-20.8496Q54.2969-20.8496 51.5137-22.4854Q48.7305-24.1211 47.0947-26.8799Q45.459-29.6387 45.459-33.0078Q45.459-36.4258 47.0947-39.1602Q48.7305-41.8945 51.4893-43.5303Q54.248-45.166 57.6172-45.166Q60.9863-45.166 63.7451-43.5303Q66.5039-41.8945 68.1396-39.1602Q69.7754-36.4258 69.7754-33.0078Q69.7754-29.6387 68.1396-26.8799Q66.5039-24.1211 63.7451-22.4854Q60.9863-20.8496 57.6172-20.8496ZM79.0039-46.4844Q79.0039-44.2871 80.542-42.7734Q82.0801-41.2598 84.2285-41.3086Q86.377-41.3574 87.8906-42.8223Q89.4043-44.2871 89.4043-46.4844Q89.4043-48.584 87.8662-50.1221Q86.3281-51.6602 84.2285-51.6602Q82.0801-51.6602 80.542-50.1221Q79.0039-48.584 79.0039-46.4844Z"/>
  </g>
  <g id="Medium-S" transform="matrix(1 0 0 1 1689.11 696)">
   <path d="M22.7051 0.830078L92.1875 0.830078Q98.584 0.830078 101.855-2.41699Q105.127-5.66406 105.127-11.9629L105.127-52.0508Q105.127-58.3984 101.855-61.6211Q98.584-64.8438 92.1875-64.8438L81.8848-64.8438Q79.6387-64.8438 78.54-65.3809Q77.4414-65.918 76.123-67.334L73.1445-70.5078Q71.6797-72.0215 69.873-72.876Q68.0664-73.7305 65.1367-73.7305L49.7559-73.7305Q46.7773-73.7305 44.9951-72.876Q43.2129-72.0215 41.6992-70.5078L38.7207-67.334Q37.4023-65.918 36.3037-65.3809Q35.2051-64.8438 33.0078-64.8438L22.7051-64.8438Q16.3574-64.8438 13.0615-61.6211Q9.76562-58.3984 9.76562-52.0508L9.76562-11.9629Q9.76562-5.66406 13.0615-2.41699Q16.3574 0.830078 22.7051 0.830078ZM23.1934-7.51953Q20.752-7.51953 19.4092-8.78906Q18.0664-10.0586 18.0664-12.6465L18.0664-51.3184Q18.0664-53.9551 19.4092-55.2246Q20.752-56.4941 23.1934-56.4941L35.498-56.4941Q38.0371-56.4941 39.624-57.1045Q41.2109-57.7148 42.627-59.2773L45.459-62.4023Q47.0703-64.1602 48.3643-64.7949Q49.6582-65.4297 52.2461-65.4297L62.5977-65.4297Q65.1855-65.4297 66.4795-64.7949Q67.7734-64.1602 69.3359-62.4512L72.2168-59.2773Q73.6328-57.7148 75.2197-57.1045Q76.8066-56.4941 79.3945-56.4941L91.6992-56.4941Q94.1406-56.4941 95.459-55.2246Q96.7773-53.9551 96.7773-51.3184L96.7773-12.6465Q96.7773-10.0586 95.459-8.78906Q94.1406-7.51953 91.6992-7.51953ZM57.4707-12.207Q63.1836-12.207 67.8223-14.9902Q72.4609-17.7734 75.2197-22.4365Q77.9785-27.0996 77.9785-32.8613Q77.9785-38.5742 75.2197-43.2373Q72.4609-47.9004 67.8223-50.6592Q63.1836-53.418 57.4707-53.418Q51.7578-53.418 47.0947-50.6592Q42.4316-47.9004 39.6484-43.2373Q36.8652-38.5742 36.8652-32.8613Q36.8652-27.0996 39.6484-22.4365Q42.4316-17.7734 47.0947-14.9902Q51.7578-12.207 57.4707-12.207ZM57.4707-19.7754Q53.8574-19.7754 50.8789-21.5088Q47.9004-23.2422 46.1426-26.2451Q44.3848-29.248 44.3848-32.8613Q44.3848-36.4746 46.1426-39.4287Q47.9004-42.3828 50.8789-44.1406Q53.8574-45.8984 57.4707-45.8984Q61.0352-45.8984 64.0137-44.1406Q66.9922-42.3828 68.75-39.4287Q70.5078-36.4746 70.5078-32.8613Q70.5078-29.248 68.75-26.2451Q66.9922-23.2422 64.0137-21.5088Q61.0352-19.7754 57.4707-19.7754ZM79.1992-46.582Q79.1992-44.4824 80.6885-42.9932Q82.1777-41.5039 84.2773-41.5527Q86.3281-41.5527 87.8174-43.0176Q89.3066-44.4824 89.3066-46.582Q89.3066-48.6328 87.8174-50.1221Q86.3281-51.6113 84.2773-51.6113Q82.1777-51.6113 80.6885-50.1221Q79.1992-48.6328 79.1992-46.582Z"/>
  </g>
  <g id="Regular-S" transform="matrix(1 0 0 1 1392.62 696)">
   <path d="M22.2168 0.390625L92.2363 0.390625Q98.4375 0.390625 101.562-2.68555Q104.688-5.76172 104.688-11.9141L104.688-51.8555Q104.688-58.0078 101.562-61.0596Q98.4375-64.1113 92.2363-64.1113L81.4453-64.1113Q79.1992-64.1113 78.1494-64.6973Q77.0996-65.2832 75.8789-66.6504L72.9004-70.0195Q71.4844-71.5332 69.7021-72.4365Q67.9199-73.3398 64.9414-73.3398L49.4629-73.3398Q46.4355-73.3398 44.6777-72.4365Q42.9199-71.5332 41.5039-70.0195L38.4766-66.6504Q37.2559-65.2832 36.2061-64.6973Q35.1562-64.1113 32.959-64.1113L22.2168-64.1113Q16.0156-64.1113 12.8906-61.0596Q9.76562-58.0078 9.76562-51.8555L9.76562-11.9141Q9.76562-5.76172 12.8906-2.68555Q16.0156 0.390625 22.2168 0.390625ZM22.3145-6.68945Q19.6777-6.68945 18.2373-8.08105Q16.7969-9.47266 16.7969-12.2559L16.7969-51.4648Q16.7969-54.248 18.2373-55.6641Q19.6777-57.0801 22.3145-57.0801L34.8145-57.0801Q37.3535-57.0801 38.9893-57.7148Q40.625-58.3496 42.041-59.9121L44.9219-63.1836Q46.582-64.9902 47.8516-65.6494Q49.1211-66.3086 51.7578-66.3086L62.5977-66.3086Q65.2344-66.3086 66.5283-65.6494Q67.8223-64.9902 69.4336-63.1836L72.3633-59.9121Q73.7305-58.3496 75.3662-57.7148Q77.002-57.0801 79.5898-57.0801L92.1387-57.0801Q94.7266-57.0801 96.167-55.6641Q97.6074-54.248 97.6074-51.4648L97.6074-12.2559Q97.6074-9.47266 96.167-8.08105Q94.7266-6.68945 92.1387-6.68945ZM57.2266-11.7676Q62.9883-11.7676 67.7002-14.5752Q72.4121-17.3828 75.1953-22.0947Q77.9785-26.8066 77.9785-32.6172Q77.9785-38.3789 75.1953-43.1152Q72.4121-47.8516 67.7002-50.6348Q62.9883-53.418 57.2266-53.418Q51.4648-53.418 46.7529-50.6348Q42.041-47.8516 39.2334-43.1152Q36.4258-38.3789 36.4258-32.6172Q36.4258-26.8066 39.2334-22.0947Q42.041-17.3828 46.7529-14.5752Q51.4648-11.7676 57.2266-11.7676ZM57.2266-18.3594Q53.3203-18.3594 50.0732-20.2637Q46.8262-22.168 44.8975-25.415Q42.9688-28.6621 42.9688-32.6172Q42.9688-36.5723 44.8975-39.7949Q46.8262-43.0176 50.0488-44.9219Q53.2715-46.8262 57.2266-46.8262Q61.1328-46.8262 64.3799-44.9219Q67.627-43.0176 69.5312-39.7949Q71.4355-36.5723 71.4355-32.6172Q71.4355-28.6621 69.5312-25.415Q67.627-22.168 64.3799-20.2637Q61.1328-18.3594 57.2266-18.3594ZM79.3945-46.7285Q79.3945-44.6777 80.835-43.2617Q82.2754-41.8457 84.2773-41.8945Q86.2793-41.8945 87.7197-43.2861Q89.1602-44.6777 89.1602-46.7285Q89.1602-48.6816 87.7197-50.1221Q86.2793-51.5625 84.2773-51.5625Q82.2754-51.5625 80.835-50.1221Q79.3945-48.6816 79.3945-46.7285Z"/>
  </g>
  <g id="Light-S" transform="matrix(1 0 0 1 1096.79 696)">
   <path d="M21.3867-0.244141L91.3086-0.244141Q97.0703-0.244141 100-3.17383Q102.93-6.10352 102.93-11.8164L102.93-51.9043Q102.93-57.6172 100-60.498Q97.0703-63.3789 91.3086-63.3789L80.2246-63.3789Q77.9297-63.3789 76.8799-63.8916Q75.8301-64.4043 74.4629-65.918L71.3867-69.3848Q69.873-70.9961 68.2129-71.7773Q66.5527-72.5586 63.6719-72.5586L48.584-72.5586Q45.7031-72.5586 44.043-71.7773Q42.3828-70.9961 40.918-69.3848L37.7441-65.918Q36.4746-64.4043 35.4004-63.8916Q34.3262-63.3789 32.0801-63.3789L21.3867-63.3789Q15.625-63.3789 12.6953-60.498Q9.76562-57.6172 9.76562-51.9043L9.76562-11.8164Q9.76562-6.10352 12.6953-3.17383Q15.625-0.244141 21.3867-0.244141ZM21.4844-5.71289Q18.5059-5.71289 16.8457-7.2998Q15.1855-8.88672 15.1855-12.0605L15.1855-51.5625Q15.1855-54.7363 16.8457-56.3477Q18.5059-57.959 21.4844-57.959L33.3496-57.959Q35.9375-57.959 37.5-58.5205Q39.0625-59.082 40.5273-60.7422L43.6035-64.1602Q45.2148-65.9668 46.46-66.5527Q47.7051-67.1387 50.1465-67.1387L62.0605-67.1387Q64.5508-67.1387 65.7959-66.5527Q67.041-65.9668 68.6523-64.1602L71.7285-60.7422Q73.1934-59.082 74.7559-58.5205Q76.3184-57.959 78.9551-57.959L91.2109-57.959Q94.1895-57.959 95.8252-56.3477Q97.4609-54.7363 97.4609-51.5625L97.4609-12.0605Q97.4609-8.88672 95.8252-7.2998Q94.1895-5.71289 91.2109-5.71289ZM56.3477-11.5234Q62.1582-11.5234 66.8945-14.3555Q71.6309-17.1875 74.4385-21.9238Q77.2461-26.6602 77.2461-32.5195Q77.2461-38.3301 74.4629-43.1152Q71.6797-47.9004 66.9189-50.708Q62.1582-53.5156 56.3477-53.5156Q50.5371-53.5156 45.8008-50.708Q41.0645-47.9004 38.2324-43.1152Q35.4004-38.3301 35.4004-32.5195Q35.4004-26.6602 38.2324-21.9238Q41.0645-17.1875 45.8008-14.3555Q50.5371-11.5234 56.3477-11.5234ZM56.3477-16.6992Q52.002-16.6992 48.4131-18.8232Q44.8242-20.9473 42.6758-24.5361Q40.5273-28.125 40.5273-32.5195Q40.5273-36.9141 42.6758-40.5029Q44.8242-44.0918 48.3887-46.2158Q51.9531-48.3398 56.3477-48.3398Q60.6934-48.3398 64.2822-46.2158Q67.8711-44.0918 69.9951-40.5029Q72.1191-36.9141 72.1191-32.5195Q72.1191-28.125 69.9951-24.5361Q67.8711-20.9473 64.2822-18.8232Q60.6934-16.6992 56.3477-16.6992ZM78.9551-46.582Q78.9551-44.5801 80.3467-43.2373Q81.7383-41.8945 83.6914-41.8945Q85.5957-41.8945 86.9873-43.2617Q88.3789-44.6289 88.3789-46.582Q88.3789-48.4375 86.9873-49.8291Q85.5957-51.2207 83.6914-51.2207Q81.7383-51.2207 80.3467-49.8291Q78.9551-48.4375 78.9551-46.582Z"/>
  </g>
  <g id="Thin-S" transform="matrix(1 0 0 1 801.246 696)">
   <path d="M20.3125-1.12305L90.0391-1.12305Q95.2148-1.12305 97.9004-3.80859Q100.586-6.49414 100.586-11.6211L100.586-51.9043Q100.586-57.0801 97.9004-59.7412Q95.2148-62.4023 90.0391-62.4023L78.5645-62.4023Q76.2207-62.4023 75.1709-62.8174Q74.1211-63.2324 72.6562-64.8926L69.3359-68.5547Q67.7734-70.2148 66.2842-70.874Q64.7949-71.5332 62.0117-71.5332L47.4609-71.5332Q44.6777-71.5332 43.1641-70.874Q41.6504-70.2148 40.1367-68.5547L36.8164-64.8926Q35.4004-63.2812 34.3262-62.8418Q33.252-62.4023 30.9082-62.4023L20.3125-62.4023Q15.0879-62.4023 12.4268-59.7412Q9.76562-57.0801 9.76562-51.9043L9.76562-11.6211Q9.76562-6.49414 12.4268-3.80859Q15.0879-1.12305 20.3125-1.12305ZM20.4102-4.44336Q16.8945-4.44336 14.9902-6.29883Q13.0859-8.1543 13.0859-11.8164L13.0859-51.7578Q13.0859-55.4199 14.9902-57.2754Q16.8945-59.1309 20.4102-59.1309L31.3965-59.1309Q34.0332-59.1309 35.5469-59.6191Q37.0605-60.1074 38.5742-61.8164L41.8457-65.4785Q43.457-67.2852 44.6533-67.7734Q45.8496-68.2617 48.0469-68.2617L61.4258-68.2617Q63.623-68.2617 64.8193-67.7734Q66.0156-67.2852 67.627-65.4785L70.8984-61.8164Q72.4121-60.1074 73.9258-59.6191Q75.4395-59.1309 78.0762-59.1309L89.9414-59.1309Q93.4082-59.1309 95.3613-57.2754Q97.3145-55.4199 97.3145-51.7578L97.3145-11.8164Q97.3145-8.1543 95.3613-6.29883Q93.4082-4.44336 89.9414-4.44336ZM55.1758-11.1816Q61.0352-11.1816 65.8203-14.0381Q70.6055-16.8945 73.4619-21.7041Q76.3184-26.5137 76.3184-32.4219Q76.3184-38.2812 73.4863-43.0908Q70.6543-47.9004 65.8447-50.7568Q61.0352-53.6133 55.1758-53.6133Q49.3164-53.6133 44.5068-50.7568Q39.6973-47.9004 36.8652-43.0908Q34.0332-38.2812 34.0332-32.4219Q34.0332-26.5137 36.8652-21.7041Q39.6973-16.8945 44.5068-14.0381Q49.3164-11.1816 55.1758-11.1816ZM55.1758-14.502Q50.2441-14.502 46.1914-16.8945Q42.1387-19.2871 39.7461-23.3643Q37.3535-27.4414 37.3535-32.4219Q37.3535-37.3535 39.7461-41.4062Q42.1387-45.459 46.1914-47.876Q50.2441-50.293 55.1758-50.293Q60.1074-50.293 64.1602-47.876Q68.2129-45.459 70.6055-41.4062Q72.998-37.3535 72.998-32.4219Q72.998-27.4414 70.6055-23.3643Q68.2129-19.2871 64.1602-16.8945Q60.1074-14.502 55.1758-14.502ZM78.418-46.2891Q78.418-44.3848 79.7607-43.1396Q81.1035-41.8945 82.959-41.8457Q84.7168-41.7969 86.0352-43.1396Q87.3535-44.4824 87.3535-46.2891Q87.3535-48.0469 86.0352-49.3896Q84.7168-50.7324 82.959-50.7324Q81.1035-50.7324 79.7607-49.3896Q78.418-48.0469 78.418-46.2891Z"/>
  </g>
  <g id="Ultralight-S" transform="matrix(1 0 0 1 505.146 696)">
   <path d="M19.7754-1.5625L89.4043-1.5625Q94.2871-1.5625 96.8262-4.15039Q99.3652-6.73828 99.3652-11.5723L99.3652-51.9531Q99.3652-56.7871 96.8262-59.3506Q94.2871-61.9141 89.4043-61.9141L77.7344-61.9141Q75.3418-61.9141 74.292-62.2803Q73.2422-62.6465 71.6797-64.4043L68.3105-68.1641Q66.6992-69.873 65.2832-70.459Q63.8672-71.0449 61.1816-71.0449L46.875-71.0449Q44.1895-71.0449 42.749-70.459Q41.3086-69.873 39.7461-68.1641L36.3281-64.4043Q34.8633-62.6953 33.7891-62.3047Q32.7148-61.9141 30.3223-61.9141L19.7754-61.9141Q14.8438-61.9141 12.3047-59.3506Q9.76562-56.7871 9.76562-51.9531L9.76562-11.5723Q9.76562-6.73828 12.3047-4.15039Q14.8438-1.5625 19.7754-1.5625ZM19.873-3.75977Q16.1133-3.75977 14.0381-5.76172Q11.9629-7.76367 11.9629-11.6699L11.9629-51.8066Q11.9629-55.7617 14.0381-57.7393Q16.1133-59.7168 19.873-59.7168L30.4199-59.7168Q33.0566-59.7168 34.5215-60.1562Q35.9863-60.5957 37.5488-62.3535L40.918-66.1133Q42.5293-67.9199 43.7256-68.3594Q44.9219-68.7988 46.9727-68.7988L61.0352-68.7988Q63.1348-68.7988 64.3311-68.3594Q65.5273-67.9199 67.1387-66.1133L70.5078-62.3535Q72.0703-60.5957 73.5352-60.1562Q75-59.7168 77.6367-59.7168L89.3066-59.7168Q93.0664-59.7168 95.1416-57.7393Q97.2168-55.7617 97.2168-51.8066L97.2168-11.6699Q97.2168-7.76367 95.1416-5.76172Q93.0664-3.75977 89.3066-3.75977ZM54.5898-11.0352Q60.4492-11.0352 65.2832-13.8916Q70.1172-16.748 72.9736-21.582Q75.8301-26.416 75.8301-32.3242Q75.8301-38.2324 72.998-43.0908Q70.166-47.9492 65.332-50.8057Q60.498-53.6621 54.5898-53.6621Q48.6816-53.6621 43.8721-50.8057Q39.0625-47.9492 36.2061-43.0908Q33.3496-38.2324 33.3496-32.3242Q33.3496-26.416 36.2061-21.582Q39.0625-16.748 43.8721-13.8916Q48.6816-11.0352 54.5898-11.0352ZM54.5898-13.3789Q49.3652-13.3789 45.0684-15.918Q40.7715-18.457 38.2324-22.7539Q35.6934-27.0508 35.6934-32.3242Q35.6934-37.5488 38.2324-41.8701Q40.7715-46.1914 45.0684-48.7549Q49.3652-51.3184 54.5898-51.3184Q59.8145-51.3184 64.1113-48.7549Q68.4082-46.1914 70.9473-41.8701Q73.4863-37.5488 73.4863-32.3242Q73.4863-27.0508 70.9473-22.7539Q68.4082-18.457 64.1113-15.918Q59.8145-13.3789 54.5898-13.3789ZM78.125-46.1914Q78.125-44.3359 79.4189-43.1396Q80.7129-41.9434 82.5684-41.8457Q84.2285-41.7969 85.5225-43.1152Q86.8164-44.4336 86.8164-46.1914Q86.8164-47.8516 85.5225-49.1943Q84.2285-50.5371 82.5684-50.5371Q80.7129-50.5371 79.4189-49.1943Q78.125-47.8516 78.125-46.1914Z"/>
  </g>
 </g>
</svg>
