<?xml version="1.0" encoding="UTF-8"?>
<!--Generator: Apple Native CoreSVG 149-->
<!DOCTYPE svg
PUBLIC "-//W3C//DTD SVG 1.1//EN"
       "http://www.w3.org/Graphics/SVG/1.1/DTD/svg11.dtd">
<svg version="1.1" xmlns="http://www.w3.org/2000/svg" xmlns:xlink="http://www.w3.org/1999/xlink" width="3300" height="2200">
 <!--glyph: "uni1006EF.medium", point size: 100.0, font version: "17.0d9e1", template writer version: "59"-->
 <g id="Notes">
  <rect height="2200" id="artboard" style="fill:white;opacity:1" width="3300" x="0" y="0"/>
  <line style="fill:none;stroke:black;opacity:1;stroke-width:0.5;" x1="263" x2="3036" y1="292" y2="292"/>
  <text style="stroke:none;fill:black;font-family:sans-serif;font-size:13;font-weight:bold;" transform="matrix(1 0 0 1 263 322)">Weight/Scale Variations</text>
  <text style="stroke:none;fill:black;font-family:sans-serif;font-size:13;text-anchor:middle;" transform="matrix(1 0 0 1 559.711 322)">Ultralight</text>
  <text style="stroke:none;fill:black;font-family:sans-serif;font-size:13;text-anchor:middle;" transform="matrix(1 0 0 1 856.422 322)">Thin</text>
  <text style="stroke:none;fill:black;font-family:sans-serif;font-size:13;text-anchor:middle;" transform="matrix(1 0 0 1 1153.13 322)">Light</text>
  <text style="stroke:none;fill:black;font-family:sans-serif;font-size:13;text-anchor:middle;" transform="matrix(1 0 0 1 1449.84 322)">Regular</text>
  <text style="stroke:none;fill:black;font-family:sans-serif;font-size:13;text-anchor:middle;" transform="matrix(1 0 0 1 1746.56 322)">Medium</text>
  <text style="stroke:none;fill:black;font-family:sans-serif;font-size:13;text-anchor:middle;" transform="matrix(1 0 0 1 2043.27 322)">Semibold</text>
  <text style="stroke:none;fill:black;font-family:sans-serif;font-size:13;text-anchor:middle;" transform="matrix(1 0 0 1 2339.98 322)">Bold</text>
  <text style="stroke:none;fill:black;font-family:sans-serif;font-size:13;text-anchor:middle;" transform="matrix(1 0 0 1 2636.69 322)">Heavy</text>
  <text style="stroke:none;fill:black;font-family:sans-serif;font-size:13;text-anchor:middle;" transform="matrix(1 0 0 1 2933.4 322)">Black</text>
  <line style="fill:none;stroke:black;opacity:1;stroke-width:0.5;" x1="263" x2="3036" y1="1903" y2="1903"/>
  <g transform="matrix(1 0 0 1 263 1933)">
   <path d="M9.24805 0.830078Q10.8691 0.830078 12.2949 0.214844Q13.7207-0.400391 14.8096-1.49414Q15.8984-2.58789 16.5186-4.01367Q17.1387-5.43945 17.1387-7.05078Q17.1387-8.66211 16.5186-10.0879Q15.8984-11.5137 14.8047-12.6074Q13.7109-13.7012 12.2852-14.3164Q10.8594-14.9316 9.23828-14.9316Q7.62695-14.9316 6.20117-14.3164Q4.77539-13.7012 3.69141-12.6074Q2.60742-11.5137 1.9873-10.0879Q1.36719-8.66211 1.36719-7.05078Q1.36719-5.43945 1.9873-4.01367Q2.60742-2.58789 3.69629-1.49414Q4.78516-0.400391 6.21094 0.214844Q7.63672 0.830078 9.24805 0.830078ZM9.24805-0.654297Q7.91992-0.654297 6.7627-1.14746Q5.60547-1.64062 4.73145-2.51953Q3.85742-3.39844 3.36426-4.56055Q2.87109-5.72266 2.87109-7.05078Q2.87109-8.37891 3.35938-9.54102Q3.84766-10.7031 4.72168-11.582Q5.5957-12.4609 6.75293-12.9541Q7.91016-13.4473 9.23828-13.4473Q10.5762-13.4473 11.7334-12.9541Q12.8906-12.4609 13.7695-11.582Q14.6484-10.7031 15.1465-9.54102Q15.6445-8.37891 15.6445-7.05078Q15.6445-5.72266 15.1514-4.56055Q14.6582-3.39844 13.7842-2.51953Q12.9102-1.64062 11.748-1.14746Q10.5859-0.654297 9.24805-0.654297ZM5.83984-7.04102Q5.83984-6.71875 6.04492-6.51855Q6.25-6.31836 6.5918-6.31836L8.50586-6.31836L8.50586-4.39453Q8.50586-4.0625 8.70605-3.85742Q8.90625-3.65234 9.22852-3.65234Q9.56055-3.65234 9.76562-3.85742Q9.9707-4.0625 9.9707-4.39453L9.9707-6.31836L11.8945-6.31836Q12.2266-6.31836 12.4316-6.51855Q12.6367-6.71875 12.6367-7.04102Q12.6367-7.37305 12.4316-7.57812Q12.2266-7.7832 11.8945-7.7832L9.9707-7.7832L9.9707-9.69727Q9.9707-10.0391 9.76562-10.2441Q9.56055-10.4492 9.22852-10.4492Q8.90625-10.4492 8.70605-10.2441Q8.50586-10.0391 8.50586-9.69727L8.50586-7.7832L6.5918-7.7832Q6.25-7.7832 6.04492-7.57812Q5.83984-7.37305 5.83984-7.04102Z"/>
  </g>
  <g transform="matrix(1 0 0 1 281.867 1933)">
   <path d="M11.709 2.91016Q13.75 2.91016 15.5518 2.12891Q17.3535 1.34766 18.7305-0.0292969Q20.1074-1.40625 20.8887-3.20801Q21.6699-5.00977 21.6699-7.05078Q21.6699-9.0918 20.8887-10.8936Q20.1074-12.6953 18.7305-14.0723Q17.3535-15.4492 15.5469-16.2305Q13.7402-17.0117 11.6992-17.0117Q9.6582-17.0117 7.85645-16.2305Q6.05469-15.4492 4.68262-14.0723Q3.31055-12.6953 2.5293-10.8936Q1.74805-9.0918 1.74805-7.05078Q1.74805-5.00977 2.5293-3.20801Q3.31055-1.40625 4.6875-0.0292969Q6.06445 1.34766 7.86621 2.12891Q9.66797 2.91016 11.709 2.91016ZM11.709 1.25Q9.98047 1.25 8.47656 0.605469Q6.97266-0.0390625 5.83496-1.17676Q4.69727-2.31445 4.05762-3.81836Q3.41797-5.32227 3.41797-7.05078Q3.41797-8.7793 4.05762-10.2832Q4.69727-11.7871 5.83008-12.9297Q6.96289-14.0723 8.4668-14.7119Q9.9707-15.3516 11.6992-15.3516Q13.4277-15.3516 14.9316-14.7119Q16.4355-14.0723 17.5781-12.9297Q18.7207-11.7871 19.3652-10.2832Q20.0098-8.7793 20.0098-7.05078Q20.0098-5.32227 19.3701-3.81836Q18.7305-2.31445 17.5928-1.17676Q16.4551-0.0390625 14.9463 0.605469Q13.4375 1.25 11.709 1.25ZM7.39258-7.04102Q7.39258-6.68945 7.62695-6.46484Q7.86133-6.24023 8.23242-6.24023L10.8789-6.24023L10.8789-3.57422Q10.8789-3.21289 11.1035-2.9834Q11.3281-2.75391 11.6797-2.75391Q12.0508-2.75391 12.2852-2.9834Q12.5195-3.21289 12.5195-3.57422L12.5195-6.24023L15.1758-6.24023Q15.5371-6.24023 15.7715-6.46484Q16.0059-6.68945 16.0059-7.04102Q16.0059-7.41211 15.7715-7.6416Q15.5371-7.87109 15.1758-7.87109L12.5195-7.87109L12.5195-10.5176Q12.5195-10.8984 12.2852-11.1279Q12.0508-11.3574 11.6797-11.3574Q11.3281-11.3574 11.1035-11.1279Q10.8789-10.8984 10.8789-10.5176L10.8789-7.87109L8.23242-7.87109Q7.85156-7.87109 7.62207-7.6416Q7.39258-7.41211 7.39258-7.04102Z"/>
  </g>
  <g transform="matrix(1 0 0 1 305.646 1933)">
   <path d="M14.9707 5.66406Q17.0605 5.66406 18.96 5.01465Q20.8594 4.36523 22.4512 3.19336Q24.043 2.02148 25.2197 0.429688Q26.3965-1.16211 27.0459-3.06641Q27.6953-4.9707 27.6953-7.05078Q27.6953-9.14062 27.0459-11.04Q26.3965-12.9395 25.2197-14.5312Q24.043-16.123 22.4512-17.2998Q20.8594-18.4766 18.9551-19.126Q17.0508-19.7754 14.9609-19.7754Q12.8711-19.7754 10.9717-19.126Q9.07227-18.4766 7.48535-17.2998Q5.89844-16.123 4.72168-14.5312Q3.54492-12.9395 2.90039-11.04Q2.25586-9.14062 2.25586-7.05078Q2.25586-4.9707 2.90527-3.06641Q3.55469-1.16211 4.72656 0.429688Q5.89844 2.02148 7.49023 3.19336Q9.08203 4.36523 10.9814 5.01465Q12.8809 5.66406 14.9707 5.66406ZM14.9707 3.84766Q13.1641 3.84766 11.5283 3.2959Q9.89258 2.74414 8.53516 1.74805Q7.17773 0.751953 6.17676-0.610352Q5.17578-1.97266 4.62891-3.6084Q4.08203-5.24414 4.08203-7.05078Q4.08203-8.86719 4.62891-10.5029Q5.17578-12.1387 6.17188-13.501Q7.16797-14.8633 8.52539-15.8594Q9.88281-16.8555 11.5186-17.4023Q13.1543-17.9492 14.9609-17.9492Q16.7773-17.9492 18.4131-17.4023Q20.0488-16.8555 21.4111-15.8594Q22.7734-14.8633 23.7695-13.501Q24.7656-12.1387 25.3174-10.5029Q25.8691-8.86719 25.8691-7.05078Q25.8789-5.24414 25.332-3.6084Q24.7852-1.97266 23.7842-0.610352Q22.7832 0.751953 21.4209 1.74805Q20.0586 2.74414 18.4229 3.2959Q16.7871 3.84766 14.9707 3.84766ZM9.45312-7.04102Q9.45312-6.66016 9.71191-6.41113Q9.9707-6.16211 10.3711-6.16211L14.0625-6.16211L14.0625-2.46094Q14.0625-2.06055 14.3115-1.80664Q14.5605-1.55273 14.9414-1.55273Q15.3516-1.55273 15.6055-1.80664Q15.8594-2.06055 15.8594-2.46094L15.8594-6.16211L19.5605-6.16211Q19.9609-6.16211 20.2148-6.41113Q20.4688-6.66016 20.4688-7.04102Q20.4688-7.45117 20.2148-7.70508Q19.9609-7.95898 19.5605-7.95898L15.8594-7.95898L15.8594-11.6504Q15.8594-12.0605 15.6055-12.3145Q15.3516-12.5684 14.9414-12.5684Q14.5605-12.5684 14.3115-12.3096Q14.0625-12.0508 14.0625-11.6504L14.0625-7.95898L10.3711-7.95898Q9.96094-7.95898 9.70703-7.70508Q9.45312-7.45117 9.45312-7.04102Z"/>
  </g>
  <text style="stroke:none;fill:black;font-family:sans-serif;font-size:13;font-weight:bold;" transform="matrix(1 0 0 1 263 1953)">Design Variations</text>
  <text style="stroke:none;fill:black;font-family:sans-serif;font-size:13;" transform="matrix(1 0 0 1 263 1971)">Symbols are supported in up to nine weights and three scales.</text>
  <text style="stroke:none;fill:black;font-family:sans-serif;font-size:13;" transform="matrix(1 0 0 1 263 1989)">For optimal layout with text and other symbols, vertically align</text>
  <text style="stroke:none;fill:black;font-family:sans-serif;font-size:13;" transform="matrix(1 0 0 1 263 2007)">symbols with the adjacent text.</text>
  <line style="fill:none;stroke:#00AEEF;stroke-width:0.5;opacity:1.0;" x1="776" x2="776" y1="1919" y2="1933"/>
  <g transform="matrix(1 0 0 1 776 1933)">
   <path d="M3.31055 0.15625Q3.70117 0.15625 3.91602-0.00976562Q4.13086-0.175781 4.26758-0.585938L5.52734-4.0332L11.2891-4.0332L12.5488-0.585938Q12.6855-0.175781 12.9004-0.00976562Q13.1152 0.15625 13.4961 0.15625Q13.8867 0.15625 14.1162-0.0585938Q14.3457-0.273438 14.3457-0.644531Q14.3457-0.869141 14.2383-1.17188L9.6582-13.3691Q9.48242-13.8184 9.17969-14.043Q8.87695-14.2676 8.4082-14.2676Q7.5-14.2676 7.17773-13.3789L2.59766-1.16211Q2.49023-0.859375 2.49023-0.634766Q2.49023-0.263672 2.70996-0.0537109Q2.92969 0.15625 3.31055 0.15625ZM6.00586-5.51758L8.37891-12.0898L8.42773-12.0898L10.8008-5.51758Z"/>
  </g>
  <line style="fill:none;stroke:#00AEEF;stroke-width:0.5;opacity:1.0;" x1="793.197" x2="793.197" y1="1919" y2="1933"/>
  <text style="stroke:none;fill:black;font-family:sans-serif;font-size:13;font-weight:bold;" transform="matrix(1 0 0 1 776 1953)">Margins</text>
  <text style="stroke:none;fill:black;font-family:sans-serif;font-size:13;" transform="matrix(1 0 0 1 776 1971)">Leading and trailing margins on the left and right side of each symbol</text>
  <text style="stroke:none;fill:black;font-family:sans-serif;font-size:13;" transform="matrix(1 0 0 1 776 1989)">can be adjusted by modifying the x-location of the margin guidelines.</text>
  <text style="stroke:none;fill:black;font-family:sans-serif;font-size:13;" transform="matrix(1 0 0 1 776 2007)">Modifications are automatically applied proportionally to all</text>
  <text style="stroke:none;fill:black;font-family:sans-serif;font-size:13;" transform="matrix(1 0 0 1 776 2025)">scales and weights.</text>
  <g transform="matrix(1 0 0 1 1289 1933)">
   <path d="M2.8418 1.86523L4.54102 3.57422Q5.18555 4.22852 5.90332 4.17969Q6.62109 4.13086 7.31445 3.35938L18.0078-8.42773L17.041-9.4043L6.42578 2.27539Q6.16211 2.57812 5.89355 2.61719Q5.625 2.65625 5.27344 2.30469L4.10156 1.14258Q3.75 0.791016 3.79395 0.522461Q3.83789 0.253906 4.14062-0.0195312L15.6152-10.8203L14.6387-11.7871L3.04688-0.898438Q2.30469-0.214844 2.25098 0.498047Q2.19727 1.21094 2.8418 1.86523ZM9.25781-16.3281Q8.94531-16.0254 8.90625-15.6348Q8.86719-15.2441 9.04297-14.9512Q9.21875-14.6777 9.55566-14.541Q9.89258-14.4043 10.3809-14.5215Q11.4746-14.7754 12.5977-14.7314Q13.7207-14.6875 14.7949-13.9844L14.209-12.5293Q13.9551-11.9043 14.0674-11.4404Q14.1797-10.9766 14.5801-10.5664L16.875-8.25195Q17.2363-7.88086 17.5781-7.82227Q17.9199-7.76367 18.3398-7.8418L19.4043-8.03711L20.0684-7.36328L20.0293-6.80664Q20-6.43555 20.1221-6.12305Q20.2441-5.81055 20.6055-5.44922L21.3672-4.70703Q21.7285-4.3457 22.1533-4.33105Q22.5781-4.31641 22.9297-4.66797L25.8398-7.58789Q26.1914-7.93945 26.1816-8.35449Q26.1719-8.76953 25.8105-9.13086L25.0391-9.89258Q24.6875-10.2539 24.3799-10.3857Q24.0723-10.5176 23.7109-10.4883L23.1348-10.4395L22.4902-11.0742L22.7344-12.1973Q22.832-12.6172 22.6953-12.9834Q22.5586-13.3496 22.1191-13.7891L19.9219-15.9766Q18.6719-17.2168 17.2607-17.8369Q15.8496-18.457 14.4189-18.4814Q12.9883-18.5059 11.665-17.959Q10.3418-17.4121 9.25781-16.3281ZM10.752-15.957Q11.6602-16.6211 12.7002-16.9043Q13.7402-17.1875 14.8047-17.085Q15.8691-16.9824 16.8701-16.5137Q17.8711-16.0449 18.7012-15.2051L21.1328-12.793Q21.3086-12.6172 21.3525-12.4512Q21.3965-12.2852 21.3379-12.0312L21.0156-10.5469L22.5195-9.0625L23.5059-9.12109Q23.6914-9.13086 23.7891-9.09668Q23.8867-9.0625 24.0332-8.91602L24.6094-8.33984L22.168-5.89844L21.5918-6.47461Q21.4453-6.62109 21.4062-6.71875Q21.3672-6.81641 21.377-7.01172L21.4453-7.98828L19.9512-9.47266L18.4277-9.21875Q18.1836-9.16992 18.042-9.2041Q17.9004-9.23828 17.7148-9.41406L15.7129-11.416Q15.5176-11.5918 15.4932-11.7529Q15.4688-11.9141 15.5859-12.1875L16.4648-14.2773Q15.293-15.3711 13.8281-15.791Q12.3633-16.2109 10.8398-15.7617Q10.7227-15.7324 10.6885-15.8057Q10.6543-15.8789 10.752-15.957Z"/>
  </g>
  <text style="stroke:none;fill:black;font-family:sans-serif;font-size:13;font-weight:bold;" transform="matrix(1 0 0 1 1289 1953)">Exporting</text>
  <text style="stroke:none;fill:black;font-family:sans-serif;font-size:13;" transform="matrix(1 0 0 1 1289 1971)">Symbols should be outlined when exporting to ensure the</text>
  <text style="stroke:none;fill:black;font-family:sans-serif;font-size:13;" transform="matrix(1 0 0 1 1289 1989)">design is preserved when submitting to Xcode.</text>
  <text id="template-version" style="stroke:none;fill:black;font-family:sans-serif;font-size:13;text-anchor:end;" transform="matrix(1 0 0 1 3036 1933)">Template v.2.0</text>
  <text style="stroke:none;fill:black;font-family:sans-serif;font-size:13;text-anchor:end;" transform="matrix(1 0 0 1 3036 1951)">Requires Xcode 13 or greater</text>
  <text id="descriptive-name" style="stroke:none;fill:black;font-family:sans-serif;font-size:13;text-anchor:end;" transform="matrix(1 0 0 1 3036 1969)">Generated from rosette</text>
  <text style="stroke:none;fill:black;font-family:sans-serif;font-size:13;text-anchor:end;" transform="matrix(1 0 0 1 3036 1987)">Typeset at 100 points</text>
  <text style="stroke:none;fill:black;font-family:sans-serif;font-size:13;" transform="matrix(1 0 0 1 263 726)">Small</text>
  <text style="stroke:none;fill:black;font-family:sans-serif;font-size:13;" transform="matrix(1 0 0 1 263 1156)">Medium</text>
  <text style="stroke:none;fill:black;font-family:sans-serif;font-size:13;" transform="matrix(1 0 0 1 263 1586)">Large</text>
 </g>
 <g id="Guides">
  <g id="H-reference" style="fill:#27AAE1;stroke:none;" transform="matrix(1 0 0 1 339 696)">
   <path d="M0.976562 0L3.66211 0L29.3457-67.1387L30.0293-67.1387L30.0293-70.459L28.125-70.459ZM11.6699-24.4629L46.9727-24.4629L46.2402-26.709L12.4512-26.709ZM55.127 0L57.7637 0L30.6152-70.459L29.4434-70.459L29.4434-67.1387Z"/>
  </g>
  <line id="Baseline-S" style="fill:none;stroke:#27AAE1;opacity:1;stroke-width:0.5;" x1="263" x2="3036" y1="696" y2="696"/>
  <line id="Capline-S" style="fill:none;stroke:#27AAE1;opacity:1;stroke-width:0.5;" x1="263" x2="3036" y1="625.541" y2="625.541"/>
  <g id="H-reference" style="fill:#27AAE1;stroke:none;" transform="matrix(1 0 0 1 339 1126)">
   <path d="M0.976562 0L3.66211 0L29.3457-67.1387L30.0293-67.1387L30.0293-70.459L28.125-70.459ZM11.6699-24.4629L46.9727-24.4629L46.2402-26.709L12.4512-26.709ZM55.127 0L57.7637 0L30.6152-70.459L29.4434-70.459L29.4434-67.1387Z"/>
  </g>
  <line id="Baseline-M" style="fill:none;stroke:#27AAE1;opacity:1;stroke-width:0.5;" x1="263" x2="3036" y1="1126" y2="1126"/>
  <line id="Capline-M" style="fill:none;stroke:#27AAE1;opacity:1;stroke-width:0.5;" x1="263" x2="3036" y1="1055.54" y2="1055.54"/>
  <g id="H-reference" style="fill:#27AAE1;stroke:none;" transform="matrix(1 0 0 1 339 1556)">
   <path d="M0.976562 0L3.66211 0L29.3457-67.1387L30.0293-67.1387L30.0293-70.459L28.125-70.459ZM11.6699-24.4629L46.9727-24.4629L46.2402-26.709L12.4512-26.709ZM55.127 0L57.7637 0L30.6152-70.459L29.4434-70.459L29.4434-67.1387Z"/>
  </g>
  <line id="Baseline-L" style="fill:none;stroke:#27AAE1;opacity:1;stroke-width:0.5;" x1="263" x2="3036" y1="1556" y2="1556"/>
  <line id="Capline-L" style="fill:none;stroke:#27AAE1;opacity:1;stroke-width:0.5;" x1="263" x2="3036" y1="1485.54" y2="1485.54"/>
  <line id="left-margin" style="fill:none;stroke:#00AEEF;stroke-width:0.5;opacity:1.0;" x1="1398.57" x2="1398.57" y1="1030.79" y2="1150.12"/>
  <line id="right-margin" style="fill:none;stroke:#00AEEF;stroke-width:0.5;opacity:1.0;" x1="1501.11" x2="1501.11" y1="1030.79" y2="1150.12"/>
 </g>
 <g id="Symbols">
  <g id="Black-L" transform="matrix(1 0 0 1 2860.5 1556)">
   <path d="M16.0645-53.7109Q16.0645-40.2832 21.6309-28.833Q27.1973-17.3828 36.6699-9.57031L36.7188 30.5176Q36.7188 35.4492 39.5264 37.8418Q42.334 40.2344 46.0938 40.2344Q48.6328 40.2344 50.5371 39.2578Q52.4414 38.2812 54.3945 36.377L72.3633 18.5059Q72.7539 18.1641 73.1689 17.9443Q73.584 17.7246 74.0234 17.7246Q74.5117 17.7246 74.9023 17.9443Q75.293 18.1641 75.6836 18.5059L93.75 36.377Q95.6543 38.1836 97.583 39.209Q99.5117 40.2344 102.002 40.2344Q105.762 40.2344 108.545 37.8418Q111.328 35.4492 111.328 30.5176L111.328-11.5723Q119.824-19.3359 124.756-30.2246Q129.688-41.1133 129.736-53.7109Q129.736-65.6738 125.366-76.0254Q120.996-86.377 113.232-94.165Q105.469-101.953 95.1416-106.323Q84.8145-110.693 72.9004-110.693Q60.9863-110.693 50.6592-106.323Q40.332-101.953 32.5684-94.165Q24.8047-86.377 20.4346-76.0254Q16.0645-65.6738 16.0645-53.7109ZM36.6211-53.7109Q36.6211-61.2793 39.4043-67.8955Q42.1875-74.5117 47.1436-79.541Q52.0996-84.5703 58.6914-87.4023Q65.2832-90.2344 72.9004-90.2344Q80.5176-90.2344 87.1094-87.4023Q93.7012-84.5703 98.6816-79.541Q103.662-74.5117 106.445-67.8955Q109.229-61.2793 109.229-53.7109Q109.277-46.1914 106.47-39.5996Q103.662-33.0078 98.7061-27.9785Q93.75-22.9492 87.1338-20.1172Q80.5176-17.2852 72.9004-17.2852Q65.2832-17.2852 58.6914-20.1416Q52.0996-22.998 47.1436-28.0029Q42.1875-33.0078 39.4043-39.5996Q36.6211-46.1914 36.6211-53.7109Z"/>
  </g>
  <g id="Heavy-L" transform="matrix(1 0 0 1 2565.55 1556)">
   <path d="M16.0645-54.3945Q16.0645-41.6016 21.3379-30.6152Q26.6113-19.6289 35.5957-12.0605L35.6445 30.0781Q35.6445 34.4238 38.0615 36.5234Q40.4785 38.623 43.75 38.623Q46.0938 38.623 47.8271 37.6953Q49.5605 36.7676 51.3184 35.0586L70.0195 16.4551Q70.5566 15.9668 71.0449 15.6982Q71.5332 15.4297 72.0215 15.4297Q72.5586 15.4297 73.0225 15.6982Q73.4863 15.9668 74.0234 16.4551L92.7734 35.0586Q94.5312 36.7188 96.2891 37.6709Q98.0469 38.623 100.293 38.623Q103.613 38.623 106.006 36.5234Q108.398 34.4238 108.398 30.0781L108.398-13.623Q116.602-21.1914 121.387-31.7139Q126.172-42.2363 126.221-54.3945Q126.221-65.918 121.973-75.9521Q117.725-85.9863 110.181-93.5547Q102.637-101.123 92.6514-105.371Q82.666-109.619 71.1426-109.619Q59.6191-109.619 49.6338-105.371Q39.6484-101.123 32.1045-93.5547Q24.5605-85.9863 20.3125-75.9521Q16.0645-65.918 16.0645-54.3945ZM33.8379-54.3945Q33.8379-62.1582 36.6943-68.9697Q39.5508-75.7812 44.6533-80.957Q49.7559-86.1328 56.543-89.0381Q63.3301-91.9434 71.1426-91.9434Q79.0039-91.9434 85.7666-89.0381Q92.5293-86.1328 97.6562-80.957Q102.783-75.7812 105.64-68.9697Q108.496-62.1582 108.496-54.3945Q108.545-46.6309 105.664-39.8193Q102.783-33.0078 97.6807-27.8564Q92.5781-22.7051 85.791-19.7998Q79.0039-16.8945 71.1426-16.8945Q63.3301-16.8945 56.543-19.8242Q49.7559-22.7539 44.6533-27.9053Q39.5508-33.0566 36.6943-39.8438Q33.8379-46.6309 33.8379-54.3945Z"/>
  </g>
  <g id="Bold-L" transform="matrix(1 0 0 1 2270.79 1556)">
   <path d="M16.0645-55.127Q16.0645-43.0664 21.0205-32.6172Q25.9766-22.168 34.4238-14.8926L34.4727 29.6387Q34.4727 33.3496 36.4502 35.1074Q38.4277 36.8652 41.1621 36.8652Q43.2129 36.8652 44.7754 35.9863Q46.3379 35.1074 47.9004 33.5938L67.3828 14.209Q68.0664 13.5254 68.6523 13.208Q69.2383 12.8906 69.7754 12.8906Q70.3613 12.8906 70.9229 13.208Q71.4844 13.5254 72.2168 14.209L91.6992 33.5938Q93.2617 35.1074 94.8486 35.9863Q96.4355 36.8652 98.3887 36.8652Q101.221 36.8652 103.174 35.1074Q105.127 33.3496 105.127 29.6387L105.127-15.9668Q113.037-23.2422 117.651-33.374Q122.266-43.5059 122.314-55.127Q122.314-66.2109 118.213-75.8789Q114.111-85.5469 106.812-92.8711Q99.5117-100.195 89.8682-104.297Q80.2246-108.398 69.1895-108.398Q58.1543-108.398 48.5107-104.297Q38.8672-100.195 31.5918-92.8711Q24.3164-85.5469 20.1904-75.8789Q16.0645-66.2109 16.0645-55.127ZM30.7129-55.127Q30.7129-63.1836 33.667-70.2148Q36.6211-77.2461 41.8945-82.5684Q47.168-87.8906 54.1504-90.8936Q61.1328-93.8965 69.2383-93.8965Q77.2949-93.8965 84.2773-90.8936Q91.2598-87.8906 96.5332-82.5684Q101.807-77.2461 104.761-70.2148Q107.715-63.1836 107.715-55.127Q107.764-47.1191 104.81-40.0879Q101.855-33.0566 96.582-27.7344Q91.3086-22.4121 84.3018-19.4092Q77.2949-16.4062 69.2383-16.4062Q61.1328-16.4062 54.1504-19.4336Q47.168-22.4609 41.8945-27.7832Q36.6211-33.1055 33.667-40.1123Q30.7129-47.1191 30.7129-55.127Z"/>
  </g>
  <g id="Semibold-L" transform="matrix(1 0 0 1 1975.42 1556)">
   <path d="M16.0645-55.6641Q16.0645-44.043 20.8008-33.9844Q25.5371-23.9258 33.5938-16.7969L33.6426 29.2969Q33.6426 32.5684 35.3027 34.1064Q36.9629 35.6445 39.3555 35.6445Q41.2598 35.6445 42.6758 34.79Q44.0918 33.9355 45.5078 32.5684L65.5273 12.5977Q66.3574 11.8164 67.0166 11.4746Q67.6758 11.1328 68.2129 11.1328Q68.7988 11.1328 69.458 11.4746Q70.1172 11.8164 70.8984 12.5977L90.9668 32.5684Q92.3828 33.9355 93.8232 34.79Q95.2637 35.6445 97.0703 35.6445Q99.5117 35.6445 101.196 34.1064Q102.881 32.5684 102.881 29.2969L102.881-17.5781Q110.547-24.6094 115.063-34.4727Q119.58-44.3359 119.629-55.6641Q119.629-66.4062 115.601-75.8301Q111.572-85.2539 104.468-92.3828Q97.3633-99.5117 87.9639-103.54Q78.5645-107.568 67.8223-107.568Q57.0801-107.568 47.7051-103.54Q38.3301-99.5117 31.2256-92.3828Q24.1211-85.2539 20.0928-75.8301Q16.0645-66.4062 16.0645-55.6641ZM28.5645-55.6641Q28.5645-63.8672 31.5918-71.0449Q34.6191-78.2227 39.9902-83.667Q45.3613-89.1113 52.4902-92.1631Q59.6191-95.2148 67.8711-95.2148Q76.0742-95.2148 83.2275-92.1631Q90.3809-89.1113 95.752-83.667Q101.123-78.2227 104.15-71.0449Q107.178-63.8672 107.178-55.6641Q107.227-47.4121 104.199-40.2344Q101.172-33.0566 95.8008-27.6367Q90.4297-22.2168 83.252-19.1406Q76.0742-16.0645 67.8711-16.0645Q59.6191-16.0645 52.4902-19.165Q45.3613-22.2656 39.9902-27.6855Q34.6191-33.1055 31.5918-40.2588Q28.5645-47.4121 28.5645-55.6641Z"/>
  </g>
  <g id="Medium-L" transform="matrix(1 0 0 1 1679.73 1556)">
   <path d="M16.0645-56.0547Q16.0645-44.8242 20.6299-35.0342Q25.1953-25.2441 32.959-18.2617L33.0078 29.0527Q33.0078 31.9824 34.4482 33.3496Q35.8887 34.7168 37.9883 34.7168Q39.7461 34.7168 41.0645 33.8867Q42.3828 33.0566 43.7012 31.7871L64.1602 11.4258Q65.0879 10.5469 65.7715 10.1807Q66.4551 9.81445 67.041 9.81445Q67.6758 9.81445 68.3594 10.1807Q69.043 10.5469 69.9707 11.4258L90.3809 31.7871Q91.748 33.1055 93.0908 33.9111Q94.4336 34.7168 96.0938 34.7168Q98.291 34.7168 99.7314 33.3496Q101.172 31.9824 101.172 29.0527L101.172-18.7988Q108.691-25.6836 113.11-35.3516Q117.529-45.0195 117.578-56.0547Q117.578-66.5527 113.623-75.7812Q109.668-85.0098 102.686-92.0166Q95.7031-99.0234 86.499-102.979Q77.2949-106.934 66.7969-106.934Q56.2988-106.934 47.1191-102.979Q37.9395-99.0234 30.957-92.0166Q23.9746-85.0098 20.0195-75.7812Q16.0645-66.5527 16.0645-56.0547ZM26.9531-56.0547Q26.9531-64.4043 30.0049-71.7041Q33.0566-79.0039 38.5254-84.5215Q43.9941-90.0391 51.2451-93.1396Q58.4961-96.2402 66.8457-96.2402Q75.1953-96.2402 82.4463-93.1396Q89.6973-90.0391 95.166-84.5215Q100.635-79.0039 103.687-71.7041Q106.738-64.4043 106.738-56.0547Q106.787-47.6562 103.711-40.3809Q100.635-33.1055 95.1904-27.5879Q89.7461-22.0703 82.4707-18.9453Q75.1953-15.8203 66.8457-15.8203Q58.4961-15.8203 51.2451-18.9697Q43.9941-22.1191 38.5254-27.6123Q33.0566-33.1055 30.0049-40.3809Q26.9531-47.6562 26.9531-56.0547Z"/>
  </g>
  <g id="Regular-L" transform="matrix(1 0 0 1 1384.37 1556)">
   <path d="M16.0645-56.543Q16.0645-45.8008 20.4102-36.377Q24.7559-26.9531 32.1289-20.166L32.1777 28.7109Q32.1777 31.2012 33.3252 32.3486Q34.4727 33.4961 36.2305 33.4961Q37.793 33.4961 38.9893 32.6904Q40.1855 31.8848 41.3574 30.7617L62.3535 9.86328Q63.3789 8.88672 64.1357 8.47168Q64.8926 8.05664 65.5273 8.05664Q66.1621 8.05664 66.9189 8.47168Q67.6758 8.88672 68.7012 9.86328L89.6484 30.7617Q90.8691 31.9824 92.0898 32.7393Q93.3105 33.4961 94.7754 33.4961Q96.6309 33.4961 97.7783 32.3486Q98.9258 31.2012 98.9258 28.7109L98.9258-20.3613Q106.25-27.0996 110.547-36.4746Q114.844-45.8496 114.893-56.543Q114.893-66.748 111.035-75.7324Q107.178-84.7168 100.366-91.5527Q93.5547-98.3887 84.5947-102.246Q75.6348-106.104 65.4785-106.104Q55.2734-106.104 46.3379-102.246Q37.4023-98.3887 30.5908-91.5527Q23.7793-84.7168 19.9219-75.7324Q16.0645-66.748 16.0645-56.543ZM24.8047-56.543Q24.8047-65.0879 27.9297-72.5342Q31.0547-79.9805 36.6211-85.5957Q42.1875-91.2109 49.585-94.3848Q56.9824-97.5586 65.5273-97.5586Q74.0234-97.5586 81.4209-94.3848Q88.8184-91.2109 94.3848-85.5957Q99.9512-79.9805 103.076-72.5342Q106.201-65.0879 106.201-56.543Q106.25-47.998 103.125-40.5518Q100-33.1055 94.4336-27.4902Q88.8672-21.875 81.4453-18.7012Q74.0234-15.5273 65.5273-15.5273Q56.9824-15.5273 49.585-18.7256Q42.1875-21.9238 36.6211-27.5391Q31.0547-33.1543 27.9297-40.5762Q24.8047-47.998 24.8047-56.543Z"/>
  </g>
  <g id="Light-L" transform="matrix(1 0 0 1 1088.61 1556)">
   <path d="M16.0645-57.5195Q16.0645-47.2656 20.0928-38.2568Q24.1211-29.248 31.0059-22.6562L31.0059 28.0273Q31.0059 30.0293 31.9824 31.0547Q32.959 32.0801 34.4727 32.0801Q35.8887 32.0801 36.9385 31.3232Q37.9883 30.5664 39.0137 29.5898L60.6445 8.05664Q61.9629 6.78711 62.8906 6.25Q63.8184 5.71289 64.5996 5.71289Q65.332 5.71289 66.2598 6.25Q67.1875 6.78711 68.5059 8.05664L90.0879 29.5898Q91.1621 30.7129 92.2363 31.3965Q93.3105 32.0801 94.6289 32.0801Q96.2402 32.0801 97.2168 31.0547Q98.1934 30.0293 98.1934 28.0273L98.1934-22.8027Q105.029-29.3457 109.009-38.3301Q112.988-47.3145 112.988-57.5195Q112.988-67.5293 109.204-76.3428Q105.42-85.1562 98.7549-91.8457Q92.0898-98.5352 83.3008-102.319Q74.5117-106.104 64.5508-106.104Q54.541-106.104 45.752-102.319Q36.9629-98.5352 30.2979-91.8457Q23.6328-85.1562 19.8486-76.3428Q16.0645-67.5293 16.0645-57.5195ZM22.7539-57.5195Q22.7539-66.2598 25.9766-73.9014Q29.1992-81.543 34.9121-87.3047Q40.625-93.0664 48.2178-96.3135Q55.8105-99.5605 64.5508-99.5605Q73.291-99.5605 80.8594-96.3135Q88.4277-93.0664 94.165-87.3047Q99.9023-81.543 103.125-73.9014Q106.348-66.2598 106.348-57.5195Q106.396-48.7793 103.174-41.1377Q99.9512-33.4961 94.2139-27.7344Q88.4766-21.9727 80.8838-18.7012Q73.291-15.4297 64.5508-15.4297Q55.8105-15.4297 48.2178-18.7256Q40.625-22.0215 34.9121-27.7832Q29.1992-33.5449 25.9766-41.1621Q22.7539-48.7793 22.7539-57.5195Z"/>
  </g>
  <g id="Thin-L" transform="matrix(1 0 0 1 793.141 1556)">
   <path d="M16.0645-58.8379Q16.0645-49.2676 19.6777-40.7715Q23.291-32.2754 29.4922-25.8789L29.4922 27.1484Q29.4922 28.5156 30.2246 29.3457Q30.957 30.1758 32.1289 30.1758Q33.3496 30.1758 34.2285 29.5166Q35.1074 28.8574 35.8887 28.0762L58.3984 5.66406Q60.1074 3.95508 61.2793 3.27148Q62.4512 2.58789 63.3301 2.58789Q64.2578 2.58789 65.4053 3.27148Q66.5527 3.95508 68.2617 5.66406L90.7227 28.0762Q91.5527 29.0039 92.4316 29.5898Q93.3105 30.1758 94.4824 30.1758Q95.752 30.1758 96.46 29.3457Q97.168 28.5156 97.168 27.1484L97.168-25.9766Q103.369-32.373 106.934-40.8447Q110.498-49.3164 110.498-58.8379Q110.498-68.5547 106.812-77.124Q103.125-85.6934 96.6309-92.2119Q90.1367-98.7305 81.5918-102.417Q73.0469-106.104 63.2812-106.104Q53.5156-106.104 44.9707-102.417Q36.4258-98.7305 29.9316-92.2119Q23.4375-85.6934 19.751-77.124Q16.0645-68.5547 16.0645-58.8379ZM19.9707-58.8379Q19.9707-67.8223 23.3398-75.6836Q26.709-83.5449 32.666-89.502Q38.623-95.459 46.46-98.8281Q54.2969-102.197 63.2812-102.197Q72.2656-102.197 80.1025-98.8281Q87.9395-95.459 93.8965-89.502Q99.8535-83.5449 103.198-75.6836Q106.543-67.8223 106.543-58.8379Q106.543-49.8047 103.198-41.9189Q99.8535-34.0332 93.8965-28.0762Q87.9395-22.1191 80.1025-18.7256Q72.2656-15.332 63.2812-15.332Q54.2969-15.332 46.46-18.7256Q38.623-22.1191 32.666-28.1006Q26.709-34.082 23.3398-41.9434Q19.9707-49.8047 19.9707-58.8379Z"/>
  </g>
  <g id="Ultralight-L" transform="matrix(1 0 0 1 497.065 1556)">
   <path d="M16.0645-59.4727Q16.0645-50.2441 19.458-42.0166Q22.8516-33.7891 28.7109-27.5879L28.7109 26.6602Q28.7109 27.6855 29.3213 28.4668Q29.9316 29.248 30.9082 29.248Q32.0801 29.248 32.8369 28.6133Q33.5938 27.9785 34.2773 27.2949L57.2754 4.39453Q59.1797 2.53906 60.4492 1.78223Q61.7188 1.02539 62.6953 1.02539Q63.7207 1.02539 64.9658 1.78223Q66.2109 2.53906 68.1152 4.39453L91.0156 27.2949Q91.7969 28.125 92.5537 28.6865Q93.3105 29.248 94.3848 29.248Q95.5078 29.248 96.0938 28.4668Q96.6797 27.6855 96.6797 26.6602L96.6797-27.6367Q102.539-33.8867 105.884-42.0898Q109.229-50.293 109.229-59.4727Q109.229-69.043 105.591-77.5146Q101.953-85.9863 95.5566-92.4072Q89.1602-98.8281 80.7129-102.466Q72.2656-106.104 62.6465-106.104Q53.0273-106.104 44.5801-102.466Q36.1328-98.8281 29.7363-92.4072Q23.3398-85.9863 19.7021-77.5146Q16.0645-69.043 16.0645-59.4727ZM18.6035-59.4727Q18.6035-68.6523 22.0459-76.6357Q25.4883-84.6191 31.5186-90.6738Q37.5488-96.7285 45.5322-100.146Q53.5156-103.564 62.5977-103.564Q71.7773-103.564 79.7363-100.146Q87.6953-96.7285 93.75-90.6738Q99.8047-84.6191 103.223-76.6357Q106.641-68.6523 106.641-59.4727Q106.641-50.293 103.223-42.3096Q99.8047-34.3262 93.75-28.2715Q87.6953-22.2168 79.7363-18.75Q71.7773-15.2832 62.5977-15.2832Q53.5156-15.2832 45.5322-18.7256Q37.5488-22.168 31.5186-28.2471Q25.4883-34.3262 22.0459-42.3096Q18.6035-50.293 18.6035-59.4727Z"/>
  </g>
  <g id="Black-M" transform="matrix(1 0 0 1 2875.73 1126)">
   <path d="M12.4512-49.3164Q12.4512-38.5254 16.9189-29.3701Q21.3867-20.2148 28.9551-14.0137L29.0039 15.8691Q29.0039 20.0195 31.4453 22.0703Q33.8867 24.1211 37.1582 24.1211Q39.209 24.1211 40.7959 23.3643Q42.3828 22.6074 43.9941 20.9961L57.5684 7.56836Q57.8125 7.32422 58.1299 7.15332Q58.4473 6.98242 58.7402 6.98242Q59.1309 6.98242 59.4238 7.15332Q59.7168 7.32422 59.9609 7.56836L73.6328 20.9961Q75.1953 22.5098 76.7822 23.3154Q78.3691 24.1211 80.4688 24.1211Q83.6914 24.1211 86.1084 22.0703Q88.5254 20.0195 88.5254 15.8691L88.5254-15.918Q95.2148-22.1191 99.0479-30.7129Q102.881-39.3066 102.881-49.3164Q102.881-58.8379 99.4385-67.0898Q95.9961-75.3418 89.8193-81.5186Q83.6426-87.6953 75.415-91.1621Q67.1875-94.6289 57.666-94.6289Q48.1445-94.6289 39.917-91.1621Q31.6895-87.6953 25.5371-81.5186Q19.3848-75.3418 15.918-67.0898Q12.4512-58.8379 12.4512-49.3164ZM30.0781-49.3164Q30.0781-55.0293 32.1777-60.0586Q34.2773-65.0879 38.0615-68.9209Q41.8457-72.7539 46.875-74.9023Q51.9043-77.0508 57.666-77.0508Q63.4766-77.0508 68.4814-74.9023Q73.4863-72.7539 77.2705-68.9209Q81.0547-65.0879 83.1787-60.0586Q85.3027-55.0293 85.3027-49.3164Q85.3516-43.6523 83.2031-38.623Q81.0547-33.5938 77.2705-29.7852Q73.4863-25.9766 68.4814-23.8037Q63.4766-21.6309 57.666-21.6309Q51.9043-21.6309 46.875-23.8037Q41.8457-25.9766 38.0615-29.7852Q34.2773-33.5938 32.1777-38.623Q30.0781-43.6523 30.0781-49.3164Z"/>
  </g>
  <g id="Heavy-M" transform="matrix(1 0 0 1 2580.54 1126)">
   <path d="M12.4512-49.7559Q12.4512-39.502 16.6992-30.7129Q20.9473-21.9238 28.125-15.918L28.1738 15.5762Q28.1738 19.2871 30.2979 21.0938Q32.4219 22.9004 35.2539 22.9004Q37.1094 22.9004 38.5742 22.1436Q40.0391 21.3867 41.5039 19.9707L55.6152 5.95703Q55.957 5.61523 56.2988 5.44434Q56.6406 5.27344 56.9824 5.27344Q57.373 5.27344 57.7148 5.44434Q58.0566 5.61523 58.3984 5.95703L72.6074 19.9707Q74.0234 21.3379 75.4883 22.1191Q76.9531 22.9004 78.8086 22.9004Q81.6406 22.9004 83.7402 21.0938Q85.8398 19.2871 85.8398 15.5762L85.8398-17.4316Q92.334-23.4375 96.0938-31.7627Q99.8535-40.0879 99.8535-49.7559Q99.8535-58.9355 96.5088-66.8945Q93.1641-74.8535 87.1826-80.8594Q81.2012-86.8652 73.2666-90.2344Q65.332-93.6035 56.1523-93.6035Q46.9727-93.6035 39.0381-90.2344Q31.1035-86.8652 25.1465-80.8594Q19.1895-74.8535 15.8203-66.8945Q12.4512-58.9355 12.4512-49.7559ZM27.7832-49.7559Q27.7832-55.6641 29.9561-60.8398Q32.1289-66.0156 36.0107-69.9463Q39.8926-73.877 45.0684-76.0986Q50.2441-78.3203 56.1523-78.3203Q62.1582-78.3203 67.3096-76.0986Q72.4609-73.877 76.3428-69.9463Q80.2246-66.0156 82.3975-60.8398Q84.5703-55.6641 84.5703-49.7559Q84.6191-43.8965 82.4219-38.7207Q80.2246-33.5449 76.3428-29.6143Q72.4609-25.6836 67.3096-23.4619Q62.1582-21.2402 56.1523-21.2402Q50.2441-21.2402 45.0684-23.4863Q39.8926-25.7324 36.0107-29.6387Q32.1289-33.5449 29.9561-38.7207Q27.7832-43.8965 27.7832-49.7559Z"/>
  </g>
  <g id="Bold-M" transform="matrix(1 0 0 1 2285.51 1126)">
   <path d="M12.4512-50.2441Q12.4512-40.5762 16.4551-32.2266Q20.459-23.877 27.2461-18.1152L27.2949 15.2832Q27.2949 18.457 29.0283 19.9707Q30.7617 21.4844 33.1543 21.4844Q34.8145 21.4844 36.1084 20.7764Q37.4023 20.0684 38.7207 18.7988L53.418 4.15039Q53.8574 3.75977 54.2725 3.54004Q54.6875 3.32031 55.0293 3.32031Q55.4688 3.32031 55.8594 3.54004Q56.25 3.75977 56.6895 4.15039L71.4355 18.7988Q72.7539 20.0684 74.0479 20.7764Q75.3418 21.4844 77.002 21.4844Q79.3945 21.4844 81.1035 19.9707Q82.8125 18.457 82.8125 15.2832L82.8125-19.1406Q89.1602-24.9023 92.8223-32.9346Q96.4844-40.9668 96.4844-50.2441Q96.5332-59.0332 93.2861-66.6992Q90.0391-74.3652 84.2773-80.127Q78.5156-85.8887 70.874-89.1602Q63.2324-92.4316 54.4922-92.4316Q45.7031-92.4316 38.0859-89.1602Q30.4688-85.8887 24.707-80.127Q18.9453-74.3652 15.6982-66.6992Q12.4512-59.0332 12.4512-50.2441ZM25.2441-50.2441Q25.2441-56.3477 27.4902-61.6943Q29.7363-67.041 33.7158-71.1182Q37.6953-75.1953 43.042-77.4658Q48.3887-79.7363 54.4922-79.7363Q60.6445-79.7363 65.9668-77.4658Q71.2891-75.1953 75.293-71.1182Q79.2969-67.041 81.543-61.6943Q83.7891-56.3477 83.7891-50.2441Q83.8379-44.1895 81.5674-38.8428Q79.2969-33.4961 75.293-29.4434Q71.2891-25.3906 65.9668-23.0957Q60.6445-20.8008 54.4922-20.8496Q48.3887-20.8496 43.042-23.1445Q37.6953-25.4395 33.7158-29.4678Q29.7363-33.4961 27.4902-38.8428Q25.2441-44.1895 25.2441-50.2441Z"/>
  </g>
  <g id="Semibold-M" transform="matrix(1 0 0 1 1989.97 1126)">
   <path d="M12.4512-50.5859Q12.4512-41.3086 16.2842-33.252Q20.1172-25.1953 26.6113-19.5801L26.6602 15.0879Q26.6602 17.8711 28.125 19.1895Q29.5898 20.5078 31.6406 20.5078Q33.2031 20.5078 34.3994 19.8242Q35.5957 19.1406 36.7676 17.9688L51.9043 2.92969Q52.4414 2.44141 52.8564 2.22168Q53.2715 2.00195 53.6621 2.00195Q54.1016 2.00195 54.5166 2.22168Q54.9316 2.44141 55.4688 2.92969L70.6543 17.9688Q71.8262 19.1406 73.0225 19.8242Q74.2188 20.5078 75.7324 20.5078Q77.832 20.5078 79.2725 19.1895Q80.7129 17.8711 80.7129 15.0879L80.7129-20.2637Q86.9141-25.8789 90.5273-33.7158Q94.1406-41.5527 94.1406-50.5859Q94.1895-59.082 91.0156-66.5283Q87.8418-73.9746 82.2266-79.6143Q76.6113-85.2539 69.2139-88.4277Q61.8164-91.6016 53.3203-91.6016Q44.8242-91.6016 37.4023-88.4277Q29.9805-85.2539 24.3896-79.6143Q18.7988-73.9746 15.625-66.5283Q12.4512-59.082 12.4512-50.5859ZM23.4863-50.5859Q23.4863-56.8359 25.7568-62.3047Q28.0273-67.7734 32.1045-71.9238Q36.1816-76.0742 41.626-78.3936Q47.0703-80.7129 53.3203-80.7129Q59.6191-80.7129 65.0391-78.3936Q70.459-76.0742 74.5361-71.9238Q78.6133-67.7734 80.9082-62.3047Q83.2031-56.8359 83.2031-50.5859Q83.252-44.3359 80.957-38.8916Q78.6621-33.4473 74.585-29.3213Q70.5078-25.1953 65.0635-22.8516Q59.6191-20.5078 53.3203-20.5078Q47.0703-20.5078 41.626-22.8516Q36.1816-25.1953 32.1045-29.3213Q28.0273-33.4473 25.7568-38.8916Q23.4863-44.3359 23.4863-50.5859Z"/>
  </g>
  <g id="Medium-M" transform="matrix(1 0 0 1 1694.14 1126)">
   <path d="M12.4512-50.8301Q12.4512-41.8457 16.1621-34.0088Q19.873-26.1719 26.1719-20.7031L26.2207 14.8926Q26.2207 17.4805 27.4658 18.6279Q28.7109 19.7754 30.5664 19.7754Q31.9824 19.7754 33.1055 19.1162Q34.2285 18.457 35.3027 17.334L50.7812 1.95312Q51.3184 1.41602 51.7822 1.19629Q52.2461 0.976562 52.6367 0.976562Q53.0762 0.976562 53.54 1.19629Q54.0039 1.41602 54.541 1.95312L70.0195 17.334Q71.1426 18.457 72.2656 19.1162Q73.3887 19.7754 74.8047 19.7754Q76.6602 19.7754 77.9053 18.6279Q79.1504 17.4805 79.1504 14.8926L79.1504-21.1426Q85.2539-26.6602 88.7939-34.3506Q92.334-42.041 92.3828-50.8301Q92.4316-59.1797 89.3066-66.4307Q86.1816-73.6816 80.6885-79.1992Q75.1953-84.7168 67.9443-87.8418Q60.6934-90.9668 52.4414-90.9668Q44.1406-90.9668 36.8896-87.8418Q29.6387-84.7168 24.1455-79.1992Q18.6523-73.6816 15.5518-66.4307Q12.4512-59.1797 12.4512-50.8301ZM22.168-50.8301Q22.168-57.1777 24.4873-62.7441Q26.8066-68.3105 30.9326-72.5098Q35.0586-76.709 40.5762-79.0771Q46.0938-81.4453 52.4414-81.4453Q58.8379-81.4453 64.3311-79.0771Q69.8242-76.709 73.9746-72.5098Q78.125-68.3105 80.4443-62.7441Q82.7637-57.1777 82.7637-50.8301Q82.8125-44.4824 80.4932-38.9404Q78.1738-33.3984 74.0234-29.1992Q69.873-25 64.3555-22.6318Q58.8379-20.2637 52.4414-20.3125Q46.0938-20.3125 40.5762-22.6807Q35.0586-25.0488 30.9326-29.248Q26.8066-33.4473 24.4873-38.9648Q22.168-44.4824 22.168-50.8301Z"/>
  </g>
  <g id="Regular-M" transform="matrix(1 0 0 1 1398.57 1126)">
   <path d="M12.4512-51.1719Q12.4512-42.5781 15.9912-35.0342Q19.5312-27.4902 25.5371-22.168L25.5859 14.6973Q25.5859 16.8945 26.5869 17.8711Q27.5879 18.8477 29.1016 18.8477Q30.3711 18.8477 31.3965 18.1885Q32.4219 17.5293 33.3984 16.5527L49.2676 0.732422Q49.9023 0.146484 50.3906-0.0976562Q50.8789-0.341797 51.3184-0.341797Q51.7578-0.341797 52.2461-0.0976562Q52.7344 0.146484 53.3691 0.732422L69.2383 16.5527Q70.2637 17.5781 71.2891 18.2129Q72.3145 18.8477 73.5352 18.8477Q75.0977 18.8477 76.0986 17.8711Q77.0996 16.8945 77.0996 14.6973L77.0996-22.3145Q83.0566-27.6367 86.5479-35.1318Q90.0391-42.627 90.0879-51.1719Q90.1367-59.2285 87.085-66.2842Q84.0332-73.3398 78.6865-78.7109Q73.3398-84.082 66.3086-87.1338Q59.2773-90.1855 51.2695-90.1855Q43.2617-90.1855 36.2305-87.1338Q29.1992-84.082 23.8525-78.7109Q18.5059-73.3398 15.4785-66.2842Q12.4512-59.2285 12.4512-51.1719ZM20.4102-51.1719Q20.4102-57.666 22.7783-63.3301Q25.1465-68.9941 29.3457-73.291Q33.5449-77.5879 39.1846-80.0049Q44.8242-82.4219 51.3184-82.4219Q57.8125-82.4219 63.4277-80.0049Q69.043-77.5879 73.2666-73.291Q77.4902-68.9941 79.8584-63.3301Q82.2266-57.666 82.2266-51.1719Q82.2754-44.6777 79.9072-39.0137Q77.5391-33.3496 73.3154-29.0771Q69.0918-24.8047 63.4521-22.3877Q57.8125-19.9707 51.3184-20.0195Q44.8242-20.0195 39.1846-22.4365Q33.5449-24.8535 29.3457-29.126Q25.1465-33.3984 22.7783-39.0381Q20.4102-44.6777 20.4102-51.1719Z"/>
  </g>
  <g id="Light-M" transform="matrix(1 0 0 1 1102.69 1126)">
   <path d="M12.4512-52.0508Q12.4512-43.8965 15.7227-36.7188Q18.9941-29.541 24.5117-24.3652L24.5605 14.1113Q24.5605 15.8691 25.3906 16.7236Q26.2207 17.5781 27.4902 17.5781Q28.6621 17.5781 29.541 16.9678Q30.4199 16.3574 31.2988 15.5273L47.7539-0.878906Q48.6328-1.75781 49.292-2.09961Q49.9512-2.44141 50.4883-2.44141Q51.0254-2.44141 51.6602-2.09961Q52.2949-1.75781 53.1738-0.878906L69.6289 15.5273Q70.5566 16.4062 71.4355 16.9922Q72.3145 17.5781 73.3887 17.5781Q74.7559 17.5781 75.5859 16.7236Q76.416 15.8691 76.416 14.1113L76.416-24.5117Q81.9336-29.6875 85.1562-36.8164Q88.3789-43.9453 88.4277-52.0508Q88.4277-59.9121 85.4492-66.8213Q82.4707-73.7305 77.2461-78.9795Q72.0215-84.2285 65.1367-87.207Q58.252-90.1855 50.4395-90.1855Q42.5781-90.1855 35.7178-87.207Q28.8574-84.2285 23.6084-78.9795Q18.3594-73.7305 15.4053-66.8213Q12.4512-59.9121 12.4512-52.0508ZM18.5547-52.0508Q18.5547-58.7402 21.0205-64.5752Q23.4863-70.4102 27.832-74.8047Q32.1777-79.1992 37.9883-81.7139Q43.7988-84.2285 50.4395-84.2285Q57.1289-84.2285 62.915-81.7139Q68.7012-79.1992 73.0713-74.8047Q77.4414-70.4102 79.9072-64.5752Q82.373-58.7402 82.373-52.0508Q82.373-45.3613 79.9316-39.5264Q77.4902-33.6914 73.1201-29.2969Q68.75-24.9023 62.9395-22.4121Q57.1289-19.9219 50.4395-19.9219Q43.7988-19.9219 37.9883-22.4365Q32.1777-24.9512 27.832-29.3457Q23.4863-33.7402 21.0205-39.5508Q18.5547-45.3613 18.5547-52.0508Z"/>
  </g>
  <g id="Thin-M" transform="matrix(1 0 0 1 807.106 1126)">
   <path d="M12.4512-53.2227Q12.4512-45.6543 15.332-38.9648Q18.2129-32.2754 23.1934-27.2949L23.1934 13.2812Q23.1934 14.502 23.8037 15.21Q24.4141 15.918 25.3906 15.918Q26.416 15.918 27.124 15.3809Q27.832 14.8438 28.4668 14.1602L45.752-3.02734Q46.9727-4.24805 47.8271-4.73633Q48.6816-5.22461 49.3652-5.22461Q50.0488-5.22461 50.8789-4.73633Q51.709-4.24805 52.9297-3.02734L70.166 14.1602Q70.8984 14.8926 71.6064 15.4053Q72.3145 15.918 73.2422 15.918Q74.2676 15.918 74.9023 15.21Q75.5371 14.502 75.5371 13.2812L75.5371-27.3926Q80.4688-32.3242 83.3252-39.0137Q86.1816-45.7031 86.1816-53.2227Q86.1816-60.8398 83.3008-67.5293Q80.4199-74.2188 75.3418-79.2969Q70.2637-84.375 63.5986-87.2803Q56.9336-90.1855 49.3164-90.1855Q41.6992-90.1855 35.0342-87.2803Q28.3691-84.375 23.291-79.2969Q18.2129-74.2188 15.332-67.5293Q12.4512-60.8398 12.4512-53.2227ZM16.0645-53.2227Q16.0645-60.1074 18.6523-66.1621Q21.2402-72.2168 25.7812-76.8066Q30.3223-81.3965 36.377-83.9844Q42.4316-86.5723 49.3164-86.5723Q56.25-86.5723 62.2559-83.9844Q68.2617-81.3965 72.8271-76.8066Q77.3926-72.2168 79.9561-66.1621Q82.5195-60.1074 82.5195-53.2227Q82.5684-46.2891 79.9805-40.2344Q77.3926-34.1797 72.8271-29.5898Q68.2617-25 62.2559-22.4121Q56.25-19.8242 49.3164-19.8242Q42.4316-19.8242 36.377-22.4365Q30.3223-25.0488 25.7812-29.6387Q21.2402-34.2285 18.6523-40.2588Q16.0645-46.2891 16.0645-53.2227Z"/>
  </g>
  <g id="Ultralight-M" transform="matrix(1 0 0 1 510.956 1126)">
   <path d="M12.4512-53.8086Q12.4512-46.582 15.1611-40.1123Q17.8711-33.6426 22.5098-28.8086L22.5098 12.8906Q22.5098 13.8184 22.998 14.4287Q23.4863 15.0391 24.3164 15.0391Q25.2441 15.0391 25.8545 14.5264Q26.4648 14.0137 27.0508 13.4766L44.7266-4.15039Q46.1426-5.51758 47.0947-6.0791Q48.0469-6.64062 48.8281-6.64062Q49.5605-6.64062 50.4883-6.0791Q51.416-5.51758 52.832-4.15039L70.4102 13.4766Q71.0938 14.1113 71.7041 14.5752Q72.3145 15.0391 73.1445 15.0391Q74.0723 15.0391 74.5605 14.4287Q75.0488 13.8184 75.0488 12.8906L75.0488-28.8574Q79.6875-33.7402 82.373-40.1611Q85.0586-46.582 85.0586-53.8086Q85.0586-61.3281 82.2021-67.8955Q79.3457-74.4629 74.3652-79.4678Q69.3848-84.4727 62.8174-87.3291Q56.25-90.1855 48.7305-90.1855Q41.2598-90.1855 34.6924-87.3291Q28.125-84.4727 23.1201-79.4678Q18.1152-74.4629 15.2832-67.8955Q12.4512-61.3281 12.4512-53.8086ZM14.8438-53.8086Q14.8438-60.8398 17.4805-67.0166Q20.1172-73.1934 24.7559-77.832Q29.3945-82.4707 35.5713-85.1318Q41.748-87.793 48.7305-87.793Q55.7617-87.793 61.9141-85.1318Q68.0664-82.4707 72.7051-77.832Q77.3438-73.1934 79.9805-67.0166Q82.6172-60.8398 82.6172-53.8086Q82.6172-46.7773 79.9805-40.6006Q77.3438-34.4238 72.7051-29.7607Q68.0664-25.0977 61.9141-22.4365Q55.7617-19.7754 48.7305-19.7754Q41.748-19.7754 35.5713-22.4365Q29.3945-25.0977 24.7559-29.7607Q20.1172-34.4238 17.4805-40.6006Q14.8438-46.7773 14.8438-53.8086Z"/>
  </g>
  <g id="Black-S" transform="matrix(1 0 0 1 2887.79 696)">
   <path d="M9.76562-46.1914Q9.76562-37.5977 13.3057-30.3467Q16.8457-23.0957 22.9004-18.1641L22.9004 4.83398Q22.9004 8.20312 24.9023 9.8877Q26.9043 11.5723 29.5898 11.5723Q31.2988 11.5723 32.5684 10.9619Q33.8379 10.3516 35.1074 9.08203L45.6055-1.31836Q45.8008-1.51367 46.0449-1.63574Q46.2891-1.75781 46.5332-1.75781Q46.8262-1.75781 47.0459-1.63574Q47.2656-1.51367 47.4609-1.31836L58.0566 9.08203Q59.3262 10.3027 60.5957 10.9375Q61.8652 11.5723 63.5254 11.5723Q66.1621 11.5723 68.1641 9.8877Q70.166 8.20312 70.166 4.83398L70.166-19.7754Q75.3906-24.707 78.418-31.4941Q81.4453-38.2812 81.4453-46.1914Q81.4453-53.7598 78.7109-60.2783Q75.9766-66.7969 71.0938-71.7041Q66.2109-76.6113 59.6924-79.3457Q53.1738-82.0801 45.6055-82.0801Q38.0371-82.0801 31.5186-79.3457Q25-76.6113 20.1172-71.7041Q15.2344-66.7969 12.5-60.2783Q9.76562-53.7598 9.76562-46.1914ZM24.1699-46.1914Q24.1699-50.6348 25.8057-54.5166Q27.4414-58.3984 30.3711-61.377Q33.3008-64.3555 37.207-66.04Q41.1133-67.7246 45.6055-67.7246Q50.0977-67.7246 54.0039-66.04Q57.9102-64.3555 60.8398-61.377Q63.7695-58.3984 65.4297-54.5166Q67.0898-50.6348 67.0898-46.1914Q67.0898-41.7969 65.4297-37.8906Q63.7695-33.9844 60.8398-31.0303Q57.9102-28.0762 54.0039-26.3916Q50.0977-24.707 45.6055-24.707Q41.1133-24.707 37.207-26.3916Q33.3008-28.0762 30.3711-31.0303Q27.4414-33.9844 25.8057-37.8906Q24.1699-41.7969 24.1699-46.1914Z"/>
  </g>
  <g id="Heavy-S" transform="matrix(1 0 0 1 2592.26 696)">
   <path d="M9.76562-46.4355Q9.76562-38.2324 13.1592-31.2744Q16.5527-24.3164 22.3145-19.5312L22.3633 4.6875Q22.3633 7.71484 24.0967 9.2041Q25.8301 10.6934 28.1738 10.6934Q29.7363 10.6934 30.9082 10.083Q32.0801 9.47266 33.252 8.30078L44.1406-2.49023Q44.3848-2.73438 44.6289-2.85645Q44.873-2.97852 45.1172-2.97852Q45.4102-2.97852 45.6543-2.85645Q45.8984-2.73438 46.1426-2.49023L57.1289 8.30078Q58.3008 9.47266 59.4727 10.083Q60.6445 10.6934 62.1582 10.6934Q64.502 10.6934 66.2109 9.2041Q67.9199 7.71484 67.9199 4.6875L67.9199-20.8008Q73.0957-25.5371 76.0742-32.1533Q79.0527-38.7695 79.1016-46.4355Q79.1016-53.7598 76.4404-60.0586Q73.7793-66.3574 69.043-71.1182Q64.3066-75.8789 58.0078-78.54Q51.709-81.2012 44.4336-81.2012Q37.1582-81.2012 30.8594-78.54Q24.5605-75.8789 19.8242-71.1182Q15.0879-66.3574 12.4268-60.0586Q9.76562-53.7598 9.76562-46.4355ZM22.4609-46.4355Q22.4609-51.0254 24.1211-55.0293Q25.7812-59.0332 28.7842-62.085Q31.7871-65.1367 35.791-66.8457Q39.7949-68.5547 44.4336-68.5547Q49.0723-68.5547 53.0518-66.8457Q57.0312-65.1367 60.0342-62.085Q63.0371-59.0332 64.7461-55.0293Q66.4551-51.0254 66.4551-46.4355Q66.4551-41.9434 64.7705-37.915Q63.0859-33.8867 60.083-30.8594Q57.0801-27.832 53.0762-26.0986Q49.0723-24.3652 44.4336-24.3652Q39.7949-24.3652 35.791-26.0986Q31.7871-27.832 28.7842-30.8594Q25.7812-33.8867 24.1211-37.915Q22.4609-41.9434 22.4609-46.4355Z"/>
  </g>
  <g id="Bold-S" transform="matrix(1 0 0 1 2296.86 696)">
   <path d="M9.76562-46.7773Q9.76562-38.9648 12.9883-32.2998Q16.2109-25.6348 21.7285-21.0449L21.7285 4.54102Q21.7285 7.17773 23.1689 8.42285Q24.6094 9.66797 26.6113 9.66797Q27.9785 9.66797 29.0527 9.10645Q30.127 8.54492 31.1523 7.4707L42.4805-3.80859Q42.7734-4.05273 43.042-4.19922Q43.3105-4.3457 43.6035-4.3457Q43.8965-4.3457 44.165-4.19922Q44.4336-4.05273 44.6777-3.80859L56.0547 7.4707Q57.1289 8.49609 58.2031 9.08203Q59.2773 9.66797 60.6445 9.66797Q62.5977 9.66797 64.0381 8.42285Q65.4785 7.17773 65.4785 4.54102L65.4785-21.9238Q70.5078-26.5137 73.4619-32.9346Q76.416-39.3555 76.4648-46.7773Q76.4648-53.7598 73.877-59.8145Q71.2891-65.8691 66.7236-70.459Q62.1582-75.0488 56.1035-77.6123Q50.0488-80.1758 43.1152-80.1758Q36.1328-80.1758 30.1025-77.6123Q24.0723-75.0488 19.5068-70.459Q14.9414-65.8691 12.3535-59.8145Q9.76562-53.7598 9.76562-46.7773ZM20.5566-46.7773Q20.5566-51.4648 22.2656-55.5908Q23.9746-59.7168 27.0508-62.8662Q30.127-66.0156 34.2529-67.7734Q38.3789-69.5312 43.1152-69.5312Q47.9004-69.5312 52.002-67.7734Q56.1035-66.0156 59.1797-62.8662Q62.2559-59.7168 63.9893-55.5908Q65.7227-51.4648 65.7227-46.7773Q65.7715-42.0898 64.0381-37.9395Q62.3047-33.7891 59.2041-30.6641Q56.1035-27.5391 52.002-25.7812Q47.9004-24.0234 43.1152-24.0234Q38.3789-24.0234 34.2529-25.8057Q30.127-27.5879 27.0508-30.7129Q23.9746-33.8379 22.2656-37.9639Q20.5566-42.0898 20.5566-46.7773Z"/>
  </g>
  <g id="Semibold-S" transform="matrix(1 0 0 1 2001.08 696)">
   <path d="M9.76562-46.9727Q9.76562-39.4531 12.8662-33.0078Q15.9668-26.5625 21.2891-22.0703L21.2891 4.39453Q21.2891 6.78711 22.5342 7.88574Q23.7793 8.98438 25.4883 8.98438Q26.7578 8.98438 27.7588 8.42285Q28.7598 7.86133 29.7363 6.88477L41.3574-4.6875Q41.6504-4.98047 41.9434-5.12695Q42.2363-5.27344 42.4805-5.27344Q42.7734-5.27344 43.0664-5.12695Q43.3594-4.98047 43.6523-4.6875L55.3223 6.88477Q56.3477 7.86133 57.3486 8.42285Q58.3496 8.98438 59.5703 8.98438Q61.2793 8.98438 62.5 7.88574Q63.7207 6.78711 63.7207 4.39453L63.7207-22.7051Q68.75-27.1484 71.6797-33.4229Q74.6094-39.6973 74.6094-46.9727Q74.6094-53.7109 72.0947-59.6191Q69.5801-65.5273 65.1367-69.9951Q60.6934-74.4629 54.8096-76.9775Q48.9258-79.4922 42.1875-79.4922Q35.4492-79.4922 29.5654-76.9775Q23.6816-74.4629 19.2383-69.9951Q14.7949-65.5273 12.2803-59.6191Q9.76562-53.7109 9.76562-46.9727ZM19.1895-46.9727Q19.1895-51.7578 20.9473-55.9814Q22.7051-60.2051 25.8301-63.4033Q28.9551-66.6016 33.1543-68.3838Q37.3535-70.166 42.1875-70.166Q47.0703-70.166 51.2451-68.3838Q55.4199-66.6016 58.5693-63.4033Q61.7188-60.2051 63.4766-55.9814Q65.2344-51.7578 65.2344-46.9727Q65.2344-42.1875 63.4766-37.9639Q61.7188-33.7402 58.5938-30.542Q55.4688-27.3438 51.2695-25.5371Q47.0703-23.7305 42.1875-23.7793Q37.3535-23.7793 33.1543-25.5859Q28.9551-27.3926 25.8301-30.5664Q22.7051-33.7402 20.9473-37.9639Q19.1895-42.1875 19.1895-46.9727Z"/>
  </g>
  <g id="Medium-S" transform="matrix(1 0 0 1 1705.05 696)">
   <path d="M9.76562-47.1191Q9.76562-39.8438 12.793-33.5449Q15.8203-27.2461 20.9473-22.9004L20.9961 4.29688Q20.9961 6.49414 22.0703 7.4707Q23.1445 8.44727 24.6582 8.44727Q25.8301 8.44727 26.7822 7.88574Q27.7344 7.32422 28.6133 6.44531L40.4785-5.37109Q40.8203-5.66406 41.1133-5.81055Q41.4062-5.95703 41.6992-5.95703Q41.9922-5.95703 42.2852-5.81055Q42.5781-5.66406 42.9199-5.37109L54.7852 6.44531Q55.7129 7.32422 56.665 7.88574Q57.6172 8.44727 58.7402 8.44727Q60.3027 8.44727 61.377 7.4707Q62.4512 6.49414 62.4512 4.29688L62.4512-23.291Q67.3828-27.6367 70.2881-33.8135Q73.1934-39.9902 73.2422-47.1191Q73.2422-53.7109 70.7764-59.4971Q68.3105-65.2832 63.9404-69.6533Q59.5703-74.0234 53.8086-76.4893Q48.0469-78.9551 41.5039-78.9551Q34.9121-78.9551 29.1748-76.4893Q23.4375-74.0234 19.0674-69.6533Q14.6973-65.2832 12.2314-59.4971Q9.76562-53.7109 9.76562-47.1191ZM18.2129-47.1191Q18.2129-52.002 19.9951-56.2744Q21.7773-60.5469 24.9268-63.7939Q28.0762-67.041 32.3242-68.8721Q36.5723-70.7031 41.5039-70.7031Q46.4355-70.7031 50.6592-68.8721Q54.8828-67.041 58.0811-63.7939Q61.2793-60.5469 63.0615-56.2744Q64.8438-52.002 64.8438-47.1191Q64.8926-42.2363 63.1104-37.9395Q61.3281-33.6426 58.1299-30.4199Q54.9316-27.1973 50.6836-25.3662Q46.4355-23.5352 41.5039-23.584Q36.5723-23.584 32.3242-25.415Q28.0762-27.2461 24.9268-30.4688Q21.7773-33.6914 19.9951-37.9639Q18.2129-42.2363 18.2129-47.1191Z"/>
  </g>
  <g id="Regular-S" transform="matrix(1 0 0 1 1409.24 696)">
   <path d="M9.76562-47.3145Q9.76562-40.332 12.6709-34.2529Q15.5762-28.1738 20.5078-23.9258L20.5566 4.19922Q20.5566 6.10352 21.4355 6.93359Q22.3145 7.76367 23.584 7.76367Q24.6094 7.76367 25.4883 7.22656Q26.3672 6.68945 27.1973 5.85938L39.3555-6.25Q39.7461-6.5918 40.0391-6.73828Q40.332-6.88477 40.625-6.88477Q40.918-6.88477 41.2354-6.73828Q41.5527-6.5918 41.8945-6.25L54.0527 5.85938Q54.9316 6.68945 55.8105 7.22656Q56.6895 7.76367 57.7148 7.76367Q59.0332 7.76367 59.8877 6.93359Q60.7422 6.10352 60.7422 4.19922L60.7422-24.0723Q65.625-28.2715 68.5059-34.3262Q71.3867-40.3809 71.4355-47.3145Q71.4355-53.7109 69.0186-59.3262Q66.6016-64.9414 62.3535-69.1895Q58.1055-73.4375 52.5146-75.8545Q46.9238-78.2715 40.5762-78.2715Q34.2285-78.2715 28.6621-75.8545Q23.0957-73.4375 18.8477-69.1895Q14.5996-64.9414 12.1826-59.3262Q9.76562-53.7109 9.76562-47.3145ZM16.8945-47.3145Q16.8945-52.2949 18.7012-56.665Q20.5078-61.0352 23.7305-64.3311Q26.9531-67.627 31.2744-69.4824Q35.5957-71.3379 40.625-71.3379Q45.6543-71.3379 49.9512-69.4824Q54.248-67.627 57.4951-64.3311Q60.7422-61.0352 62.5488-56.665Q64.3555-52.2949 64.3555-47.3145Q64.4043-42.334 62.5977-37.9639Q60.791-33.5938 57.5439-30.2979Q54.2969-27.002 49.9756-25.1465Q45.6543-23.291 40.625-23.3398Q35.5957-23.3398 31.2744-25.1953Q26.9531-27.0508 23.7305-30.3467Q20.5078-33.6426 18.7012-37.9883Q16.8945-42.334 16.8945-47.3145Z"/>
  </g>
  <g id="Light-S" transform="matrix(1 0 0 1 1113.29 696)">
   <path d="M9.76562-48.0957Q9.76562-41.5039 12.4268-35.7422Q15.0879-29.9805 19.6289-25.8789L19.6289 3.66211Q19.6289 5.17578 20.3613 5.9082Q21.0938 6.64062 22.168 6.64062Q23.0957 6.64062 23.8525 6.15234Q24.6094 5.66406 25.3418 4.93164L37.9883-7.66602Q38.623-8.25195 39.0625-8.49609Q39.502-8.74023 39.8926-8.74023Q40.2832-8.74023 40.7227-8.49609Q41.1621-8.25195 41.748-7.66602L54.3945 4.93164Q55.1758 5.66406 55.9326 6.15234Q56.6895 6.64062 57.6172 6.64062Q58.7402 6.64062 59.4482 5.9082Q60.1562 5.17578 60.1562 3.66211L60.1562-25.9766Q64.6484-30.0781 67.2852-35.8154Q69.9219-41.5527 69.9219-48.0957Q69.9219-54.2969 67.5781-59.79Q65.2344-65.2832 61.084-69.4092Q56.9336-73.5352 51.4893-75.9033Q46.0449-78.2715 39.8438-78.2715Q33.6426-78.2715 28.1982-75.9033Q22.7539-73.5352 18.6279-69.4092Q14.502-65.2832 12.1338-59.79Q9.76562-54.2969 9.76562-48.0957ZM15.2832-48.0957Q15.2832-53.2227 17.1631-57.7393Q19.043-62.2559 22.3877-65.6738Q25.7324-69.0918 30.2002-70.9961Q34.668-72.9004 39.8926-72.9004Q45.0684-72.9004 49.5117-70.9961Q53.9551-69.0918 57.3242-65.6738Q60.6934-62.2559 62.5732-57.7393Q64.4531-53.2227 64.4531-48.0957Q64.502-42.9199 62.6221-38.4277Q60.7422-33.9355 57.373-30.5176Q54.0039-27.0996 49.5361-25.1709Q45.0684-23.2422 39.8926-23.291Q34.668-23.291 30.2002-25.2197Q25.7324-27.1484 22.3877-30.542Q19.043-33.9355 17.1631-38.4277Q15.2832-42.9199 15.2832-48.0957Z"/>
  </g>
  <g id="Thin-S" transform="matrix(1 0 0 1 817.555 696)">
   <path d="M9.76562-49.1211Q9.76562-43.0664 12.085-37.7197Q14.4043-32.373 18.457-28.4668L18.457 2.92969Q18.457 4.00391 18.9697 4.56543Q19.4824 5.12695 20.3125 5.12695Q21.1426 5.12695 21.7041 4.71191Q22.2656 4.29688 22.8516 3.75977L36.2305-9.57031Q37.1582-10.498 37.7686-10.8643Q38.3789-11.2305 38.916-11.2305Q39.4043-11.2305 40.0146-10.8643Q40.625-10.498 41.5527-9.57031L54.8828 3.75977Q55.5176 4.3457 56.0791 4.73633Q56.6406 5.12695 57.4219 5.12695Q58.3496 5.12695 58.8379 4.56543Q59.3262 4.00391 59.3262 2.92969L59.3262-28.5156Q63.3301-32.4707 65.625-37.7686Q67.9199-43.0664 67.9688-49.1211Q67.9688-55.127 65.6738-60.4004Q63.3789-65.6738 59.3994-69.7021Q55.4199-73.7305 50.1465-76.001Q44.873-78.2715 38.8672-78.2715Q32.8613-78.2715 27.5879-76.001Q22.3145-73.7305 18.3105-69.7021Q14.3066-65.6738 12.0361-60.4004Q9.76562-55.127 9.76562-49.1211ZM13.0859-49.1211Q13.0859-54.4922 15.0635-59.1797Q17.041-63.8672 20.5811-67.4316Q24.1211-70.9961 28.8086-72.998Q33.4961-75 38.8672-75Q44.2383-75 48.9014-72.998Q53.5645-70.9961 57.1289-67.4316Q60.6934-63.8672 62.6709-59.1797Q64.6484-54.4922 64.6484-49.1211Q64.6484-43.75 62.6709-39.0381Q60.6934-34.3262 57.1533-30.7617Q53.6133-27.1973 48.9258-25.1953Q44.2383-23.1934 38.8672-23.1934Q33.4961-23.1934 28.8086-25.2197Q24.1211-27.2461 20.5811-30.7861Q17.041-34.3262 15.0635-39.0381Q13.0859-43.75 13.0859-49.1211Z"/>
  </g>
  <g id="Ultralight-S" transform="matrix(1 0 0 1 521.357 696)">
   <path d="M9.76562-49.6094Q9.76562-43.8965 11.9141-38.7695Q14.0625-33.6426 17.8223-29.7852L17.8223 2.58789Q17.8223 3.36914 18.2617 3.85742Q18.7012 4.3457 19.3848 4.3457Q20.1172 4.3457 20.6055 3.97949Q21.0938 3.61328 21.582 3.125L35.3027-10.5469Q36.377-11.6211 37.1094-12.0361Q37.8418-12.4512 38.3789-12.4512Q38.9648-12.4512 39.6729-12.0361Q40.3809-11.6211 41.4551-10.5469L55.127 3.125Q55.6641 3.66211 56.1523 4.00391Q56.6406 4.3457 57.373 4.3457Q58.1055 4.3457 58.5205 3.85742Q58.9355 3.36914 58.9355 2.58789L58.9355-29.834Q62.6953-33.6914 64.8193-38.7939Q66.9434-43.8965 66.9434-49.6094Q66.9434-55.5176 64.6973-60.7178Q62.4512-65.918 58.5205-69.8486Q54.5898-73.7793 49.4141-76.0254Q44.2383-78.2715 38.3301-78.2715Q32.4707-78.2715 27.2949-76.0254Q22.1191-73.7793 18.1885-69.8486Q14.2578-65.918 12.0117-60.7178Q9.76562-55.5176 9.76562-49.6094ZM12.0117-49.6094Q12.0117-55.127 14.0381-59.9121Q16.0645-64.6973 19.7021-68.335Q23.3398-71.9727 28.1006-74.0234Q32.8613-76.0742 38.3789-76.0742Q43.8477-76.0742 48.6084-74.0234Q53.3691-71.9727 57.0068-68.335Q60.6445-64.6973 62.6709-59.9121Q64.6973-55.127 64.6973-49.6094Q64.7461-44.1406 62.6953-39.3555Q60.6445-34.5703 57.0068-30.9326Q53.3691-27.2949 48.6084-25.2197Q43.8477-23.1445 38.3789-23.1445Q32.8613-23.1445 28.1006-25.2197Q23.3398-27.2949 19.7021-30.9326Q16.0645-34.5703 14.0381-39.3555Q12.0117-44.1406 12.0117-49.6094Z"/>
  </g>
 </g>
</svg>
