<?xml version="1.0" encoding="UTF-8"?>
<!--Generator: Apple Native CoreSVG 149-->
<!DOCTYPE svg
PUBLIC "-//W3C//DTD SVG 1.1//EN"
       "http://www.w3.org/Graphics/SVG/1.1/DTD/svg11.dtd">
<svg version="1.1" xmlns="http://www.w3.org/2000/svg" xmlns:xlink="http://www.w3.org/1999/xlink" width="3300" height="2200">
 <!--glyph: "uni10023F.medium", point size: 100.0, font version: "17.0d9e1", template writer version: "59"-->
 <g id="Notes">
  <rect height="2200" id="artboard" style="fill:white;opacity:1" width="3300" x="0" y="0"/>
  <line style="fill:none;stroke:black;opacity:1;stroke-width:0.5;" x1="263" x2="3036" y1="292" y2="292"/>
  <text style="stroke:none;fill:black;font-family:sans-serif;font-size:13;font-weight:bold;" transform="matrix(1 0 0 1 263 322)">Weight/Scale Variations</text>
  <text style="stroke:none;fill:black;font-family:sans-serif;font-size:13;text-anchor:middle;" transform="matrix(1 0 0 1 559.711 322)">Ultralight</text>
  <text style="stroke:none;fill:black;font-family:sans-serif;font-size:13;text-anchor:middle;" transform="matrix(1 0 0 1 856.422 322)">Thin</text>
  <text style="stroke:none;fill:black;font-family:sans-serif;font-size:13;text-anchor:middle;" transform="matrix(1 0 0 1 1153.13 322)">Light</text>
  <text style="stroke:none;fill:black;font-family:sans-serif;font-size:13;text-anchor:middle;" transform="matrix(1 0 0 1 1449.84 322)">Regular</text>
  <text style="stroke:none;fill:black;font-family:sans-serif;font-size:13;text-anchor:middle;" transform="matrix(1 0 0 1 1746.56 322)">Medium</text>
  <text style="stroke:none;fill:black;font-family:sans-serif;font-size:13;text-anchor:middle;" transform="matrix(1 0 0 1 2043.27 322)">Semibold</text>
  <text style="stroke:none;fill:black;font-family:sans-serif;font-size:13;text-anchor:middle;" transform="matrix(1 0 0 1 2339.98 322)">Bold</text>
  <text style="stroke:none;fill:black;font-family:sans-serif;font-size:13;text-anchor:middle;" transform="matrix(1 0 0 1 2636.69 322)">Heavy</text>
  <text style="stroke:none;fill:black;font-family:sans-serif;font-size:13;text-anchor:middle;" transform="matrix(1 0 0 1 2933.4 322)">Black</text>
  <line style="fill:none;stroke:black;opacity:1;stroke-width:0.5;" x1="263" x2="3036" y1="1903" y2="1903"/>
  <g transform="matrix(1 0 0 1 263 1933)">
   <path d="M9.24805 0.830078Q10.8691 0.830078 12.2949 0.214844Q13.7207-0.400391 14.8096-1.49414Q15.8984-2.58789 16.5186-4.01367Q17.1387-5.43945 17.1387-7.05078Q17.1387-8.66211 16.5186-10.0879Q15.8984-11.5137 14.8047-12.6074Q13.7109-13.7012 12.2852-14.3164Q10.8594-14.9316 9.23828-14.9316Q7.62695-14.9316 6.20117-14.3164Q4.77539-13.7012 3.69141-12.6074Q2.60742-11.5137 1.9873-10.0879Q1.36719-8.66211 1.36719-7.05078Q1.36719-5.43945 1.9873-4.01367Q2.60742-2.58789 3.69629-1.49414Q4.78516-0.400391 6.21094 0.214844Q7.63672 0.830078 9.24805 0.830078ZM9.24805-0.654297Q7.91992-0.654297 6.7627-1.14746Q5.60547-1.64062 4.73145-2.51953Q3.85742-3.39844 3.36426-4.56055Q2.87109-5.72266 2.87109-7.05078Q2.87109-8.37891 3.35938-9.54102Q3.84766-10.7031 4.72168-11.582Q5.5957-12.4609 6.75293-12.9541Q7.91016-13.4473 9.23828-13.4473Q10.5762-13.4473 11.7334-12.9541Q12.8906-12.4609 13.7695-11.582Q14.6484-10.7031 15.1465-9.54102Q15.6445-8.37891 15.6445-7.05078Q15.6445-5.72266 15.1514-4.56055Q14.6582-3.39844 13.7842-2.51953Q12.9102-1.64062 11.748-1.14746Q10.5859-0.654297 9.24805-0.654297ZM5.83984-7.04102Q5.83984-6.71875 6.04492-6.51855Q6.25-6.31836 6.5918-6.31836L8.50586-6.31836L8.50586-4.39453Q8.50586-4.0625 8.70605-3.85742Q8.90625-3.65234 9.22852-3.65234Q9.56055-3.65234 9.76562-3.85742Q9.9707-4.0625 9.9707-4.39453L9.9707-6.31836L11.8945-6.31836Q12.2266-6.31836 12.4316-6.51855Q12.6367-6.71875 12.6367-7.04102Q12.6367-7.37305 12.4316-7.57812Q12.2266-7.7832 11.8945-7.7832L9.9707-7.7832L9.9707-9.69727Q9.9707-10.0391 9.76562-10.2441Q9.56055-10.4492 9.22852-10.4492Q8.90625-10.4492 8.70605-10.2441Q8.50586-10.0391 8.50586-9.69727L8.50586-7.7832L6.5918-7.7832Q6.25-7.7832 6.04492-7.57812Q5.83984-7.37305 5.83984-7.04102Z"/>
  </g>
  <g transform="matrix(1 0 0 1 281.867 1933)">
   <path d="M11.709 2.91016Q13.75 2.91016 15.5518 2.12891Q17.3535 1.34766 18.7305-0.0292969Q20.1074-1.40625 20.8887-3.20801Q21.6699-5.00977 21.6699-7.05078Q21.6699-9.0918 20.8887-10.8936Q20.1074-12.6953 18.7305-14.0723Q17.3535-15.4492 15.5469-16.2305Q13.7402-17.0117 11.6992-17.0117Q9.6582-17.0117 7.85645-16.2305Q6.05469-15.4492 4.68262-14.0723Q3.31055-12.6953 2.5293-10.8936Q1.74805-9.0918 1.74805-7.05078Q1.74805-5.00977 2.5293-3.20801Q3.31055-1.40625 4.6875-0.0292969Q6.06445 1.34766 7.86621 2.12891Q9.66797 2.91016 11.709 2.91016ZM11.709 1.25Q9.98047 1.25 8.47656 0.605469Q6.97266-0.0390625 5.83496-1.17676Q4.69727-2.31445 4.05762-3.81836Q3.41797-5.32227 3.41797-7.05078Q3.41797-8.7793 4.05762-10.2832Q4.69727-11.7871 5.83008-12.9297Q6.96289-14.0723 8.4668-14.7119Q9.9707-15.3516 11.6992-15.3516Q13.4277-15.3516 14.9316-14.7119Q16.4355-14.0723 17.5781-12.9297Q18.7207-11.7871 19.3652-10.2832Q20.0098-8.7793 20.0098-7.05078Q20.0098-5.32227 19.3701-3.81836Q18.7305-2.31445 17.5928-1.17676Q16.4551-0.0390625 14.9463 0.605469Q13.4375 1.25 11.709 1.25ZM7.39258-7.04102Q7.39258-6.68945 7.62695-6.46484Q7.86133-6.24023 8.23242-6.24023L10.8789-6.24023L10.8789-3.57422Q10.8789-3.21289 11.1035-2.9834Q11.3281-2.75391 11.6797-2.75391Q12.0508-2.75391 12.2852-2.9834Q12.5195-3.21289 12.5195-3.57422L12.5195-6.24023L15.1758-6.24023Q15.5371-6.24023 15.7715-6.46484Q16.0059-6.68945 16.0059-7.04102Q16.0059-7.41211 15.7715-7.6416Q15.5371-7.87109 15.1758-7.87109L12.5195-7.87109L12.5195-10.5176Q12.5195-10.8984 12.2852-11.1279Q12.0508-11.3574 11.6797-11.3574Q11.3281-11.3574 11.1035-11.1279Q10.8789-10.8984 10.8789-10.5176L10.8789-7.87109L8.23242-7.87109Q7.85156-7.87109 7.62207-7.6416Q7.39258-7.41211 7.39258-7.04102Z"/>
  </g>
  <g transform="matrix(1 0 0 1 305.646 1933)">
   <path d="M14.9707 5.66406Q17.0605 5.66406 18.96 5.01465Q20.8594 4.36523 22.4512 3.19336Q24.043 2.02148 25.2197 0.429688Q26.3965-1.16211 27.0459-3.06641Q27.6953-4.9707 27.6953-7.05078Q27.6953-9.14062 27.0459-11.04Q26.3965-12.9395 25.2197-14.5312Q24.043-16.123 22.4512-17.2998Q20.8594-18.4766 18.9551-19.126Q17.0508-19.7754 14.9609-19.7754Q12.8711-19.7754 10.9717-19.126Q9.07227-18.4766 7.48535-17.2998Q5.89844-16.123 4.72168-14.5312Q3.54492-12.9395 2.90039-11.04Q2.25586-9.14062 2.25586-7.05078Q2.25586-4.9707 2.90527-3.06641Q3.55469-1.16211 4.72656 0.429688Q5.89844 2.02148 7.49023 3.19336Q9.08203 4.36523 10.9814 5.01465Q12.8809 5.66406 14.9707 5.66406ZM14.9707 3.84766Q13.1641 3.84766 11.5283 3.2959Q9.89258 2.74414 8.53516 1.74805Q7.17773 0.751953 6.17676-0.610352Q5.17578-1.97266 4.62891-3.6084Q4.08203-5.24414 4.08203-7.05078Q4.08203-8.86719 4.62891-10.5029Q5.17578-12.1387 6.17188-13.501Q7.16797-14.8633 8.52539-15.8594Q9.88281-16.8555 11.5186-17.4023Q13.1543-17.9492 14.9609-17.9492Q16.7773-17.9492 18.4131-17.4023Q20.0488-16.8555 21.4111-15.8594Q22.7734-14.8633 23.7695-13.501Q24.7656-12.1387 25.3174-10.5029Q25.8691-8.86719 25.8691-7.05078Q25.8789-5.24414 25.332-3.6084Q24.7852-1.97266 23.7842-0.610352Q22.7832 0.751953 21.4209 1.74805Q20.0586 2.74414 18.4229 3.2959Q16.7871 3.84766 14.9707 3.84766ZM9.45312-7.04102Q9.45312-6.66016 9.71191-6.41113Q9.9707-6.16211 10.3711-6.16211L14.0625-6.16211L14.0625-2.46094Q14.0625-2.06055 14.3115-1.80664Q14.5605-1.55273 14.9414-1.55273Q15.3516-1.55273 15.6055-1.80664Q15.8594-2.06055 15.8594-2.46094L15.8594-6.16211L19.5605-6.16211Q19.9609-6.16211 20.2148-6.41113Q20.4688-6.66016 20.4688-7.04102Q20.4688-7.45117 20.2148-7.70508Q19.9609-7.95898 19.5605-7.95898L15.8594-7.95898L15.8594-11.6504Q15.8594-12.0605 15.6055-12.3145Q15.3516-12.5684 14.9414-12.5684Q14.5605-12.5684 14.3115-12.3096Q14.0625-12.0508 14.0625-11.6504L14.0625-7.95898L10.3711-7.95898Q9.96094-7.95898 9.70703-7.70508Q9.45312-7.45117 9.45312-7.04102Z"/>
  </g>
  <text style="stroke:none;fill:black;font-family:sans-serif;font-size:13;font-weight:bold;" transform="matrix(1 0 0 1 263 1953)">Design Variations</text>
  <text style="stroke:none;fill:black;font-family:sans-serif;font-size:13;" transform="matrix(1 0 0 1 263 1971)">Symbols are supported in up to nine weights and three scales.</text>
  <text style="stroke:none;fill:black;font-family:sans-serif;font-size:13;" transform="matrix(1 0 0 1 263 1989)">For optimal layout with text and other symbols, vertically align</text>
  <text style="stroke:none;fill:black;font-family:sans-serif;font-size:13;" transform="matrix(1 0 0 1 263 2007)">symbols with the adjacent text.</text>
  <line style="fill:none;stroke:#00AEEF;stroke-width:0.5;opacity:1.0;" x1="776" x2="776" y1="1919" y2="1933"/>
  <g transform="matrix(1 0 0 1 776 1933)">
   <path d="M3.31055 0.15625Q3.70117 0.15625 3.91602-0.00976562Q4.13086-0.175781 4.26758-0.585938L5.52734-4.0332L11.2891-4.0332L12.5488-0.585938Q12.6855-0.175781 12.9004-0.00976562Q13.1152 0.15625 13.4961 0.15625Q13.8867 0.15625 14.1162-0.0585938Q14.3457-0.273438 14.3457-0.644531Q14.3457-0.869141 14.2383-1.17188L9.6582-13.3691Q9.48242-13.8184 9.17969-14.043Q8.87695-14.2676 8.4082-14.2676Q7.5-14.2676 7.17773-13.3789L2.59766-1.16211Q2.49023-0.859375 2.49023-0.634766Q2.49023-0.263672 2.70996-0.0537109Q2.92969 0.15625 3.31055 0.15625ZM6.00586-5.51758L8.37891-12.0898L8.42773-12.0898L10.8008-5.51758Z"/>
  </g>
  <line style="fill:none;stroke:#00AEEF;stroke-width:0.5;opacity:1.0;" x1="793.197" x2="793.197" y1="1919" y2="1933"/>
  <text style="stroke:none;fill:black;font-family:sans-serif;font-size:13;font-weight:bold;" transform="matrix(1 0 0 1 776 1953)">Margins</text>
  <text style="stroke:none;fill:black;font-family:sans-serif;font-size:13;" transform="matrix(1 0 0 1 776 1971)">Leading and trailing margins on the left and right side of each symbol</text>
  <text style="stroke:none;fill:black;font-family:sans-serif;font-size:13;" transform="matrix(1 0 0 1 776 1989)">can be adjusted by modifying the x-location of the margin guidelines.</text>
  <text style="stroke:none;fill:black;font-family:sans-serif;font-size:13;" transform="matrix(1 0 0 1 776 2007)">Modifications are automatically applied proportionally to all</text>
  <text style="stroke:none;fill:black;font-family:sans-serif;font-size:13;" transform="matrix(1 0 0 1 776 2025)">scales and weights.</text>
  <g transform="matrix(1 0 0 1 1289 1933)">
   <path d="M2.8418 1.86523L4.54102 3.57422Q5.18555 4.22852 5.90332 4.17969Q6.62109 4.13086 7.31445 3.35938L18.0078-8.42773L17.041-9.4043L6.42578 2.27539Q6.16211 2.57812 5.89355 2.61719Q5.625 2.65625 5.27344 2.30469L4.10156 1.14258Q3.75 0.791016 3.79395 0.522461Q3.83789 0.253906 4.14062-0.0195312L15.6152-10.8203L14.6387-11.7871L3.04688-0.898438Q2.30469-0.214844 2.25098 0.498047Q2.19727 1.21094 2.8418 1.86523ZM9.25781-16.3281Q8.94531-16.0254 8.90625-15.6348Q8.86719-15.2441 9.04297-14.9512Q9.21875-14.6777 9.55566-14.541Q9.89258-14.4043 10.3809-14.5215Q11.4746-14.7754 12.5977-14.7314Q13.7207-14.6875 14.7949-13.9844L14.209-12.5293Q13.9551-11.9043 14.0674-11.4404Q14.1797-10.9766 14.5801-10.5664L16.875-8.25195Q17.2363-7.88086 17.5781-7.82227Q17.9199-7.76367 18.3398-7.8418L19.4043-8.03711L20.0684-7.36328L20.0293-6.80664Q20-6.43555 20.1221-6.12305Q20.2441-5.81055 20.6055-5.44922L21.3672-4.70703Q21.7285-4.3457 22.1533-4.33105Q22.5781-4.31641 22.9297-4.66797L25.8398-7.58789Q26.1914-7.93945 26.1816-8.35449Q26.1719-8.76953 25.8105-9.13086L25.0391-9.89258Q24.6875-10.2539 24.3799-10.3857Q24.0723-10.5176 23.7109-10.4883L23.1348-10.4395L22.4902-11.0742L22.7344-12.1973Q22.832-12.6172 22.6953-12.9834Q22.5586-13.3496 22.1191-13.7891L19.9219-15.9766Q18.6719-17.2168 17.2607-17.8369Q15.8496-18.457 14.4189-18.4814Q12.9883-18.5059 11.665-17.959Q10.3418-17.4121 9.25781-16.3281ZM10.752-15.957Q11.6602-16.6211 12.7002-16.9043Q13.7402-17.1875 14.8047-17.085Q15.8691-16.9824 16.8701-16.5137Q17.8711-16.0449 18.7012-15.2051L21.1328-12.793Q21.3086-12.6172 21.3525-12.4512Q21.3965-12.2852 21.3379-12.0312L21.0156-10.5469L22.5195-9.0625L23.5059-9.12109Q23.6914-9.13086 23.7891-9.09668Q23.8867-9.0625 24.0332-8.91602L24.6094-8.33984L22.168-5.89844L21.5918-6.47461Q21.4453-6.62109 21.4062-6.71875Q21.3672-6.81641 21.377-7.01172L21.4453-7.98828L19.9512-9.47266L18.4277-9.21875Q18.1836-9.16992 18.042-9.2041Q17.9004-9.23828 17.7148-9.41406L15.7129-11.416Q15.5176-11.5918 15.4932-11.7529Q15.4688-11.9141 15.5859-12.1875L16.4648-14.2773Q15.293-15.3711 13.8281-15.791Q12.3633-16.2109 10.8398-15.7617Q10.7227-15.7324 10.6885-15.8057Q10.6543-15.8789 10.752-15.957Z"/>
  </g>
  <text style="stroke:none;fill:black;font-family:sans-serif;font-size:13;font-weight:bold;" transform="matrix(1 0 0 1 1289 1953)">Exporting</text>
  <text style="stroke:none;fill:black;font-family:sans-serif;font-size:13;" transform="matrix(1 0 0 1 1289 1971)">Symbols should be outlined when exporting to ensure the</text>
  <text style="stroke:none;fill:black;font-family:sans-serif;font-size:13;" transform="matrix(1 0 0 1 1289 1989)">design is preserved when submitting to Xcode.</text>
  <text id="template-version" style="stroke:none;fill:black;font-family:sans-serif;font-size:13;text-anchor:end;" transform="matrix(1 0 0 1 3036 1933)">Template v.2.0</text>
  <text style="stroke:none;fill:black;font-family:sans-serif;font-size:13;text-anchor:end;" transform="matrix(1 0 0 1 3036 1951)">Requires Xcode 13 or greater</text>
  <text id="descriptive-name" style="stroke:none;fill:black;font-family:sans-serif;font-size:13;text-anchor:end;" transform="matrix(1 0 0 1 3036 1969)">Generated from doc.text</text>
  <text style="stroke:none;fill:black;font-family:sans-serif;font-size:13;text-anchor:end;" transform="matrix(1 0 0 1 3036 1987)">Typeset at 100 points</text>
  <text style="stroke:none;fill:black;font-family:sans-serif;font-size:13;" transform="matrix(1 0 0 1 263 726)">Small</text>
  <text style="stroke:none;fill:black;font-family:sans-serif;font-size:13;" transform="matrix(1 0 0 1 263 1156)">Medium</text>
  <text style="stroke:none;fill:black;font-family:sans-serif;font-size:13;" transform="matrix(1 0 0 1 263 1586)">Large</text>
 </g>
 <g id="Guides">
  <g id="H-reference" style="fill:#27AAE1;stroke:none;" transform="matrix(1 0 0 1 339 696)">
   <path d="M0.976562 0L3.66211 0L29.3457-67.1387L30.0293-67.1387L30.0293-70.459L28.125-70.459ZM11.6699-24.4629L46.9727-24.4629L46.2402-26.709L12.4512-26.709ZM55.127 0L57.7637 0L30.6152-70.459L29.4434-70.459L29.4434-67.1387Z"/>
  </g>
  <line id="Baseline-S" style="fill:none;stroke:#27AAE1;opacity:1;stroke-width:0.5;" x1="263" x2="3036" y1="696" y2="696"/>
  <line id="Capline-S" style="fill:none;stroke:#27AAE1;opacity:1;stroke-width:0.5;" x1="263" x2="3036" y1="625.541" y2="625.541"/>
  <g id="H-reference" style="fill:#27AAE1;stroke:none;" transform="matrix(1 0 0 1 339 1126)">
   <path d="M0.976562 0L3.66211 0L29.3457-67.1387L30.0293-67.1387L30.0293-70.459L28.125-70.459ZM11.6699-24.4629L46.9727-24.4629L46.2402-26.709L12.4512-26.709ZM55.127 0L57.7637 0L30.6152-70.459L29.4434-70.459L29.4434-67.1387Z"/>
  </g>
  <line id="Baseline-M" style="fill:none;stroke:#27AAE1;opacity:1;stroke-width:0.5;" x1="263" x2="3036" y1="1126" y2="1126"/>
  <line id="Capline-M" style="fill:none;stroke:#27AAE1;opacity:1;stroke-width:0.5;" x1="263" x2="3036" y1="1055.54" y2="1055.54"/>
  <g id="H-reference" style="fill:#27AAE1;stroke:none;" transform="matrix(1 0 0 1 339 1556)">
   <path d="M0.976562 0L3.66211 0L29.3457-67.1387L30.0293-67.1387L30.0293-70.459L28.125-70.459ZM11.6699-24.4629L46.9727-24.4629L46.2402-26.709L12.4512-26.709ZM55.127 0L57.7637 0L30.6152-70.459L29.4434-70.459L29.4434-67.1387Z"/>
  </g>
  <line id="Baseline-L" style="fill:none;stroke:#27AAE1;opacity:1;stroke-width:0.5;" x1="263" x2="3036" y1="1556" y2="1556"/>
  <line id="Capline-L" style="fill:none;stroke:#27AAE1;opacity:1;stroke-width:0.5;" x1="263" x2="3036" y1="1485.54" y2="1485.54"/>
  <line id="left-margin" style="fill:none;stroke:#00AEEF;stroke-width:0.5;opacity:1.0;" x1="1396.33" x2="1396.33" y1="1030.79" y2="1150.12"/>
  <line id="right-margin" style="fill:none;stroke:#00AEEF;stroke-width:0.5;opacity:1.0;" x1="1503.36" x2="1503.36" y1="1030.79" y2="1150.12"/>
 </g>
 <g id="Symbols">
  <g id="Black-L" transform="matrix(1 0 0 1 2859.65 1556)">
   <path d="M93.6035-26.123L53.418-26.123Q51.416-26.123 50.1221-24.8291Q48.8281-23.5352 48.8281-21.6797Q48.8281-19.7266 50.1221-18.4082Q51.416-17.0898 53.418-17.0898L93.6035-17.0898Q95.5566-17.0898 96.8262-18.4082Q98.0957-19.7266 98.0957-21.6797Q98.0957-23.5352 96.8262-24.8291Q95.5566-26.123 93.6035-26.123ZM93.6035-7.86133L53.418-7.86133Q51.416-7.86133 50.1221-6.51855Q48.8281-5.17578 48.8281-3.27148Q48.8281-1.41602 50.1221-0.12207Q51.416 1.17188 53.418 1.17188L93.6035 1.17188Q95.5566 1.17188 96.8262-0.12207Q98.0957-1.41602 98.0957-3.27148Q98.0957-5.17578 96.8262-6.51855Q95.5566-7.86133 93.6035-7.86133ZM39.8926 35.2539L107.617 35.2539Q119.043 35.2539 125.244 29.0039Q131.445 22.7539 131.445 11.3281L131.445-45.3613Q131.445-50.9277 130.713-54.9805Q129.98-59.0332 128.052-62.4023Q126.123-65.7715 122.559-69.3848L95.4102-96.7773Q91.8945-100.293 88.501-102.222Q85.1074-104.15 81.1035-104.907Q77.0996-105.664 71.7285-105.664L39.8926-105.664Q28.4668-105.664 22.2656-99.4141Q16.0645-93.1641 16.0645-81.7383L16.0645 11.3281Q16.0645 22.7539 22.2656 29.0039Q28.4668 35.2539 39.8926 35.2539ZM42.7246 14.9902Q39.3066 14.9902 37.8174 13.3789Q36.3281 11.7676 36.3281 8.59375L36.3281-79.0039Q36.3281-82.1777 37.8174-83.7891Q39.3066-85.4004 42.7246-85.4004L65.332-85.4004L65.332-58.1055Q65.332-48.4863 69.9219-43.8965Q74.5117-39.3066 84.1309-39.3066L111.23-39.3066L111.23 8.59375Q111.23 11.7676 109.717 13.3789Q108.203 14.9902 104.785 14.9902ZM85.4492-55.2246Q83.3496-55.2246 82.2998-56.2744Q81.25-57.3242 81.25-59.4727L81.25-84.4727L110.254-55.2246Z"/>
  </g>
  <g id="Heavy-L" transform="matrix(1 0 0 1 2564.18 1556)">
   <path d="M93.3105-26.1719L51.0742-26.1719Q49.2188-26.1719 47.998-24.9512Q46.7773-23.7305 46.7773-21.9727Q46.7773-20.166 47.998-18.9209Q49.2188-17.6758 51.0742-17.6758L93.3105-17.6758Q95.166-17.6758 96.3623-18.9209Q97.5586-20.166 97.5586-21.9727Q97.5586-23.7305 96.3623-24.9512Q95.166-26.1719 93.3105-26.1719ZM93.3105-7.03125L51.0742-7.03125Q49.2188-7.03125 47.998-5.76172Q46.7773-4.49219 46.7773-2.68555Q46.7773-0.927734 47.998 0.268555Q49.2188 1.46484 51.0742 1.46484L93.3105 1.46484Q95.166 1.46484 96.3623 0.268555Q97.5586-0.927734 97.5586-2.68555Q97.5586-4.49219 96.3623-5.76172Q95.166-7.03125 93.3105-7.03125ZM38.7207 34.5215L106.299 34.5215Q117.236 34.5215 123.096 28.6133Q128.955 22.7051 128.955 11.7188L128.955-45.3613Q128.955-50.4883 128.296-54.1748Q127.637-57.8613 125.879-60.9131Q124.121-63.9648 120.898-67.2852L91.6016-96.8262Q88.4277-100.049 85.3516-101.807Q82.2754-103.564 78.6377-104.248Q75-104.932 70.1172-104.932L38.7207-104.932Q27.7832-104.932 21.9238-99.0234Q16.0645-93.1152 16.0645-82.1289L16.0645 11.7188Q16.0645 22.7051 21.9238 28.6133Q27.7832 34.5215 38.7207 34.5215ZM40.9668 16.9922Q37.1094 16.9922 35.3516 15.1123Q33.5938 13.2324 33.5938 9.61914L33.5938-80.0293Q33.5938-83.6426 35.3516-85.5225Q37.1094-87.4023 40.9668-87.4023L65.0879-87.4023L65.0879-57.7148Q65.0879-49.0234 69.2627-44.873Q73.4375-40.7227 82.0801-40.7227L111.475-40.7227L111.475 9.61914Q111.475 13.2324 109.692 15.1123Q107.91 16.9922 104.053 16.9922ZM83.3008-54.834Q81.2012-54.834 80.1758-55.835Q79.1504-56.8359 79.1504-58.9844L79.1504-86.2793L110.303-54.834Z"/>
  </g>
  <g id="Bold-L" transform="matrix(1 0 0 1 2268.86 1556)">
   <path d="M93.0176-26.2207L48.4863-26.2207Q46.7285-26.2207 45.6055-25.0977Q44.4824-23.9746 44.4824-22.3633Q44.4824-20.6543 45.6055-19.5068Q46.7285-18.3594 48.4863-18.3594L93.0176-18.3594Q94.7266-18.3594 95.8496-19.5068Q96.9727-20.6543 96.9727-22.3633Q96.9727-23.9746 95.8496-25.0977Q94.7266-26.2207 93.0176-26.2207ZM93.0176-6.10352L48.4863-6.10352Q46.7285-6.10352 45.6055-4.93164Q44.4824-3.75977 44.4824-2.05078Q44.4824-0.439453 45.6055 0.708008Q46.7285 1.85547 48.4863 1.85547L93.0176 1.85547Q94.7266 1.85547 95.8496 0.708008Q96.9727-0.439453 96.9727-2.05078Q96.9727-3.75977 95.8496-4.93164Q94.7266-6.10352 93.0176-6.10352ZM37.4023 33.6914L104.883 33.6914Q115.283 33.6914 120.728 28.1738Q126.172 22.6562 126.172 12.207L126.172-45.3613Q126.172-49.9512 125.61-53.2471Q125.049-56.543 123.486-59.2529Q121.924-61.9629 119.043-64.8926L87.3535-96.9238Q84.5215-99.8047 81.8115-101.343Q79.1016-102.881 75.8789-103.491Q72.6562-104.102 68.3594-104.102L37.4023-104.102Q27.002-104.102 21.5332-98.584Q16.0645-93.0664 16.0645-82.6172L16.0645 12.207Q16.0645 22.6562 21.5332 28.1738Q27.002 33.6914 37.4023 33.6914ZM39.0137 19.2383Q34.7168 19.2383 32.6172 17.0654Q30.5176 14.8926 30.5176 10.7422L30.5176-81.1523Q30.5176-85.2539 32.6172-87.4512Q34.7168-89.6484 39.0625-89.6484L64.7949-89.6484L64.7949-57.2754Q64.7949-49.6582 68.5059-45.9961Q72.2168-42.334 79.7363-42.334L111.768-42.334L111.768 10.7422Q111.768 14.8926 109.668 17.0654Q107.568 19.2383 103.223 19.2383ZM80.8594-54.3945Q78.8086-54.3945 77.832-55.3711Q76.8555-56.3477 76.8555-58.4473L76.8555-88.3301L110.4-54.3945Z"/>
  </g>
  <g id="Semibold-L" transform="matrix(1 0 0 1 1973.1 1556)">
   <path d="M92.7734-26.2695L46.6797-26.2695Q45.0195-26.2695 43.9453-25.1953Q42.8711-24.1211 42.8711-22.5586Q42.8711-20.9473 43.9453-19.873Q45.0195-18.7988 46.6797-18.7988L92.7734-18.7988Q94.3848-18.7988 95.459-19.873Q96.5332-20.9473 96.5332-22.5586Q96.5332-24.1211 95.459-25.1953Q94.3848-26.2695 92.7734-26.2695ZM92.7734-5.41992L46.6797-5.41992Q45.0195-5.41992 43.9453-4.32129Q42.8711-3.22266 42.8711-1.61133Q42.8711-0.0488281 43.9453 1.00098Q45.0195 2.05078 46.6797 2.05078L92.7734 2.05078Q94.3848 2.05078 95.459 1.00098Q96.5332-0.0488281 96.5332-1.61133Q96.5332-3.22266 95.459-4.32129Q94.3848-5.41992 92.7734-5.41992ZM36.4746 33.1055L103.857 33.1055Q113.867 33.1055 119.067 27.8564Q124.268 22.6074 124.268 12.5488L124.268-45.3613Q124.268-49.6094 123.755-52.6123Q123.242-55.6152 121.826-58.0811Q120.41-60.5469 117.725-63.2812L84.4238-96.9727Q81.8359-99.6094 79.3701-101.025Q76.9043-102.441 73.9746-102.979Q71.0449-103.516 67.1387-103.516L36.4746-103.516Q26.4648-103.516 21.2646-98.2666Q16.0645-93.0176 16.0645-82.959L16.0645 12.5488Q16.0645 22.6074 21.2402 27.8564Q26.416 33.1055 36.4746 33.1055ZM37.6465 20.752Q33.0078 20.752 30.7129 18.3838Q28.418 16.0156 28.418 11.5234L28.418-81.9336Q28.418-86.377 30.7129-88.7695Q33.0078-91.1621 37.6953-91.1621L64.5996-91.1621L64.5996-56.9824Q64.5996-50.0977 67.9688-46.7773Q71.3379-43.457 78.125-43.457L111.914-43.457L111.914 11.5234Q111.914 16.0156 109.619 18.3838Q107.324 20.752 102.637 20.752ZM79.1992-54.0527Q77.0996-54.0527 76.1719-55.0049Q75.2441-55.957 75.2441-58.0566L75.2441-89.6973L110.449-54.0527Z"/>
  </g>
  <g id="Medium-L" transform="matrix(1 0 0 1 1677.12 1556)">
   <path d="M92.5781-26.2695L45.3125-26.2695Q43.75-26.2695 42.7002-25.2686Q41.6504-24.2676 41.6504-22.7539Q41.6504-21.1914 42.7002-20.166Q43.75-19.1406 45.3125-19.1406L92.5781-19.1406Q94.1406-19.1406 95.166-20.166Q96.1914-21.1914 96.1914-22.7539Q96.1914-24.2676 95.166-25.2686Q94.1406-26.2695 92.5781-26.2695ZM92.5781-4.93164L45.3125-4.93164Q43.75-4.93164 42.7002-3.88184Q41.6504-2.83203 41.6504-1.26953Q41.6504 0.244141 42.7002 1.24512Q43.75 2.24609 45.3125 2.24609L92.5781 2.24609Q94.1406 2.24609 95.166 1.24512Q96.1914 0.244141 96.1914-1.26953Q96.1914-2.83203 95.166-3.88184Q94.1406-4.93164 92.5781-4.93164ZM35.791 32.666L103.076 32.666Q112.842 32.666 117.822 27.6123Q122.803 22.5586 122.803 12.793L122.803-45.3613Q122.803-49.3164 122.339-52.124Q121.875-54.9316 120.557-57.2021Q119.238-59.4727 116.748-62.0117L82.1777-97.0215Q79.7852-99.4629 77.4902-100.757Q75.1953-102.051 72.5098-102.563Q69.8242-103.076 66.2109-103.076L35.791-103.076Q26.0742-103.076 21.0693-98.0225Q16.0645-92.9688 16.0645-83.2031L16.0645 12.793Q16.0645 22.6074 21.0449 27.6367Q26.0254 32.666 35.791 32.666ZM36.6211 21.9238Q31.7383 21.9238 29.2725 19.4092Q26.8066 16.8945 26.8066 12.1094L26.8066-82.5195Q26.8066-87.207 29.2725-89.7705Q31.7383-92.334 36.6699-92.334L64.4531-92.334L64.4531-56.7383Q64.4531-50.3906 67.5781-47.3389Q70.7031-44.2871 76.9043-44.2871L112.061-44.2871L112.061 12.1094Q112.061 16.8945 109.595 19.4092Q107.129 21.9238 102.197 21.9238ZM77.9297-53.8086Q75.8789-53.8086 74.9512-54.7363Q74.0234-55.6641 74.0234-57.7637L74.0234-90.7715L110.498-53.8086Z"/>
  </g>
  <g id="Regular-L" transform="matrix(1 0 0 1 1381.36 1556)">
   <path d="M92.3828-26.3184L43.5547-26.3184Q42.041-26.3184 41.0645-25.3662Q40.0879-24.4141 40.0879-22.998Q40.0879-21.5332 41.0645-20.5566Q42.041-19.5801 43.5547-19.5801L92.3828-19.5801Q93.8477-19.5801 94.8242-20.5566Q95.8008-21.5332 95.8008-22.998Q95.8008-24.4141 94.8242-25.3662Q93.8477-26.3184 92.3828-26.3184ZM92.3828-4.29688L43.5547-4.29688Q42.041-4.29688 41.0645-3.2959Q40.0879-2.29492 40.0879-0.830078Q40.0879 0.585938 41.0645 1.53809Q42.041 2.49023 43.5547 2.49023L92.3828 2.49023Q93.8477 2.49023 94.8242 1.53809Q95.8008 0.585938 95.8008-0.830078Q95.8008-2.29492 94.8242-3.2959Q93.8477-4.29688 92.3828-4.29688ZM34.8633 32.0801L102.1 32.0801Q111.475 32.0801 116.187 27.2949Q120.898 22.5098 120.898 13.0859L120.898-45.3613Q120.898-48.9746 120.483-51.4893Q120.068-54.0039 118.896-56.0547Q117.725-58.1055 115.479-60.4004L79.2969-97.0703Q77.1484-99.2676 75.0977-100.439Q73.0469-101.611 70.6299-102.051Q68.2129-102.49 64.9902-102.49L34.8633-102.49Q25.5371-102.49 20.8008-97.7051Q16.0645-92.9199 16.0645-83.4961L16.0645 13.0859Q16.0645 22.5586 20.7764 27.3193Q25.4883 32.0801 34.8633 32.0801ZM35.3027 23.4375Q30.0781 23.4375 27.3926 20.7275Q24.707 18.0176 24.707 12.8906L24.707-83.3008Q24.707-88.3301 27.3926-91.0889Q30.0781-93.8477 35.3516-93.8477L64.2578-93.8477L64.2578-56.4453Q64.2578-50.8301 67.0654-48.0957Q69.873-45.3613 75.3418-45.3613L112.256-45.3613L112.256 12.8906Q112.256 18.0176 109.57 20.7275Q106.885 23.4375 101.611 23.4375ZM76.2695-53.5156Q74.2188-53.5156 73.3154-54.4189Q72.4121-55.3223 72.4121-57.373L72.4121-92.1387L110.547-53.5156Z"/>
  </g>
  <g id="Light-L" transform="matrix(1 0 0 1 1085.43 1556)">
   <path d="M92.627-25.6836L42.334-25.6836Q41.1133-25.6836 40.332-24.9268Q39.5508-24.1699 39.5508-22.998Q39.5508-21.875 40.332-21.0693Q41.1133-20.2637 42.334-20.2637L92.627-20.2637Q93.7988-20.2637 94.6045-21.0693Q95.4102-21.875 95.4102-22.998Q95.4102-24.1699 94.6045-24.9268Q93.7988-25.6836 92.627-25.6836ZM92.627-3.56445L42.334-3.56445Q41.1133-3.56445 40.332-2.75879Q39.5508-1.95312 39.5508-0.78125Q39.5508 0.341797 40.332 1.12305Q41.1133 1.9043 42.334 1.9043L92.627 1.9043Q93.7988 1.9043 94.6045 1.12305Q95.4102 0.341797 95.4102-0.78125Q95.4102-1.95312 94.6045-2.75879Q93.7988-3.56445 92.627-3.56445ZM33.8867 31.7383L101.514 31.7383Q110.352 31.7383 114.844 27.1973Q119.336 22.6562 119.336 13.8184L119.336-46.2891Q119.336-49.3164 118.97-51.4648Q118.604-53.6133 117.578-55.3467Q116.553-57.0801 114.697-58.9844L76.5625-97.4609Q74.707-99.3164 72.9736-100.317Q71.2402-101.318 69.165-101.709Q67.0898-102.1 64.3066-102.1L33.8867-102.1Q25.1465-102.1 20.6055-97.5586Q16.0645-93.0176 16.0645-84.1309L16.0645 13.8184Q16.0645 22.7051 20.5566 27.2217Q25.0488 31.7383 33.8867 31.7383ZM34.2285 25.1465Q28.5156 25.1465 25.5859 22.1924Q22.6562 19.2383 22.6562 13.623L22.6562-83.9355Q22.6562-89.4531 25.5859-92.4805Q28.5156-95.5078 34.2773-95.5078L64.4531-95.5078L64.4531-56.9336Q64.4531-51.8066 66.9922-49.3652Q69.5312-46.9238 74.4629-46.9238L112.744-46.9238L112.744 13.623Q112.744 19.2383 109.814 22.1924Q106.885 25.1465 101.123 25.1465ZM75.0977-53.2227Q72.8027-53.2227 71.7773-54.2236Q70.752-55.2246 70.752-57.5684L70.752-94.0918L111.328-53.2227Z"/>
  </g>
  <g id="Thin-L" transform="matrix(1 0 0 1 789.747 1556)">
   <path d="M92.9688-24.8535L40.7227-24.8535Q39.8438-24.8535 39.3066-24.3408Q38.7695-23.8281 38.7695-23.0469Q38.7695-22.2656 39.3066-21.7285Q39.8438-21.1914 40.7227-21.1914L92.9688-21.1914Q93.7988-21.1914 94.3359-21.7285Q94.873-22.2656 94.873-23.0469Q94.873-23.8281 94.3359-24.3408Q93.7988-24.8535 92.9688-24.8535ZM92.9688-2.58789L40.7227-2.58789Q39.8438-2.58789 39.3066-2.02637Q38.7695-1.46484 38.7695-0.683594Q38.7695 0.0488281 39.3066 0.585938Q39.8438 1.12305 40.7227 1.12305L92.9688 1.12305Q93.7988 1.12305 94.3359 0.585938Q94.873 0.0488281 94.873-0.683594Q94.873-1.46484 94.3359-2.02637Q93.7988-2.58789 92.9688-2.58789ZM32.666 31.3477L100.732 31.3477Q108.887 31.3477 113.086 27.124Q117.285 22.9004 117.285 14.7461L117.285-47.5098Q117.285-49.8047 116.968-51.4404Q116.65-53.0762 115.845-54.3945Q115.039-55.7129 113.672-57.1777L72.9004-97.9492Q71.5332-99.3164 70.1904-100.122Q68.8477-100.928 67.2363-101.245Q65.625-101.562 63.3789-101.562L32.666-101.562Q24.6094-101.562 20.3369-97.3389Q16.0645-93.1152 16.0645-84.9609L16.0645 14.7461Q16.0645 22.9004 20.2881 27.124Q24.5117 31.3477 32.666 31.3477ZM32.8613 27.3926Q26.5137 27.3926 23.2666 24.1455Q20.0195 20.8984 20.0195 14.5996L20.0195-84.8145Q20.0195-90.918 23.2666-94.2871Q26.5137-97.6562 32.8613-97.6562L64.6973-97.6562L64.6973-57.5195Q64.6973-53.0273 66.9189-50.9766Q69.1406-48.9258 73.291-48.9258L113.379-48.9258L113.379 14.5996Q113.379 20.8984 110.107 24.1455Q106.836 27.3926 100.537 27.3926ZM73.584-52.832Q70.8984-52.832 69.751-53.9795Q68.6035-55.127 68.6035-57.8125L68.6035-96.6797L112.354-52.832Z"/>
  </g>
  <g id="Ultralight-L" transform="matrix(1 0 0 1 493.573 1556)">
   <path d="M93.1152-24.4629L39.8926-24.4629Q39.209-24.4629 38.8184-24.0479Q38.4277-23.6328 38.4277-23.0469Q38.4277-22.5098 38.8184-22.0947Q39.209-21.6797 39.8926-21.6797L93.1152-21.6797Q93.75-21.6797 94.165-22.0947Q94.5801-22.5098 94.5801-23.0469Q94.5801-23.6328 94.165-24.0479Q93.75-24.4629 93.1152-24.4629ZM93.1152-2.05078L39.8926-2.05078Q39.209-2.05078 38.8184-1.66016Q38.4277-1.26953 38.4277-0.634766Q38.4277-0.0976562 38.8184 0.317383Q39.209 0.732422 39.8926 0.732422L93.1152 0.732422Q93.75 0.732422 94.165 0.317383Q94.5801-0.0976562 94.5801-0.634766Q94.5801-1.26953 94.165-1.66016Q93.75-2.05078 93.1152-2.05078ZM31.9824 31.1035L100.342 31.1035Q108.105 31.1035 112.158 27.0508Q116.211 22.998 116.211 15.2344L116.211-48.1445Q116.211-50.0488 115.942-51.4404Q115.674-52.832 114.966-53.9307Q114.258-55.0293 113.135-56.2012L71.0449-98.1934Q69.873-99.3652 68.75-100.049Q67.627-100.732 66.2354-101.025Q64.8438-101.318 62.8906-101.318L31.9824-101.318Q24.3652-101.318 20.2148-97.2656Q16.0645-93.2129 16.0645-85.4004L16.0645 15.2344Q16.0645 22.998 20.1416 27.0508Q24.2188 31.1035 31.9824 31.1035ZM32.1289 28.5645Q25.4395 28.5645 22.0215 25.1465Q18.6035 21.7285 18.6035 15.0879L18.6035-85.2539Q18.6035-91.6992 22.0215-95.2393Q25.4395-98.7793 32.1289-98.7793L64.8438-98.7793L64.8438-57.8613Q64.8438-53.7109 66.8701-51.8555Q68.8965-50 72.7051-50L113.721-50L113.721 15.0879Q113.721 21.7285 110.278 25.1465Q106.836 28.5645 100.195 28.5645ZM72.7539-52.5879Q69.9219-52.5879 68.7012-53.8086Q67.4805-55.0293 67.4805-57.9102L67.4805-97.998L112.891-52.5879Z"/>
  </g>
  <g id="Black-M" transform="matrix(1 0 0 1 2875.44 1126)">
   <path d="M72.9004-27.8809L42.9688-27.8809Q41.4062-27.8809 40.4053-26.9043Q39.4043-25.9277 39.4043-24.4629Q39.4043-22.998 40.4053-21.9482Q41.4062-20.8984 42.9688-20.8984L72.9004-20.8984Q74.3652-20.8984 75.3662-21.9482Q76.3672-22.998 76.3672-24.4629Q76.3672-25.9277 75.3662-26.9043Q74.3652-27.8809 72.9004-27.8809ZM72.9004-14.502L42.9688-14.502Q41.4062-14.502 40.4053-13.4521Q39.4043-12.4023 39.4043-10.9375Q39.4043-9.47266 40.4053-8.49609Q41.4062-7.51953 42.9688-7.51953L72.9004-7.51953Q74.3652-7.51953 75.3662-8.49609Q76.3672-9.47266 76.3672-10.9375Q76.3672-12.4023 75.3662-13.4521Q74.3652-14.502 72.9004-14.502ZM31.5918 19.9219L84.3262 19.9219Q93.4082 19.9219 98.4375 14.8682Q103.467 9.81445 103.467 0.732422L103.467-43.4082Q103.467-47.9004 102.832-51.2207Q102.197-54.541 100.61-57.3242Q99.0234-60.1074 96.1426-63.0371L76.2207-82.959Q73.3398-85.8887 70.5566-87.4756Q67.7734-89.0625 64.4531-89.6973Q61.1328-90.332 56.6895-90.332L31.5918-90.332Q22.5098-90.332 17.4805-85.2783Q12.4512-80.2246 12.4512-71.1426L12.4512 0.732422Q12.4512 9.81445 17.4805 14.8682Q22.5098 19.9219 31.5918 19.9219ZM34.2773 2.58789Q31.8359 2.58789 30.8105 1.46484Q29.7852 0.341797 29.7852-1.9043L29.7852-68.5059Q29.7852-70.752 30.8105-71.875Q31.8359-72.998 34.2773-72.998L50.9277-72.998L50.9277-53.4668Q50.9277-45.3613 54.7607-41.5283Q58.5938-37.6953 66.6992-37.6953L86.1328-37.6953L86.1328-1.9043Q86.1328 0.341797 85.1074 1.46484Q84.082 2.58789 81.6895 2.58789ZM67.7246-50.9766Q65.9668-50.9766 65.0879-51.8555Q64.209-52.7344 64.209-54.4922L64.209-72.5098L85.6445-50.9766Z"/>
  </g>
  <g id="Heavy-M" transform="matrix(1 0 0 1 2579.78 1126)">
   <path d="M72.5586-28.0762L40.9668-28.0762Q39.4531-28.0762 38.4766-27.124Q37.5-26.1719 37.5-24.7559Q37.5-23.3398 38.4766-22.3389Q39.4531-21.3379 40.9668-21.3379L72.5586-21.3379Q73.9746-21.3379 74.9512-22.3389Q75.9277-23.3398 75.9277-24.7559Q75.9277-26.1719 74.9512-27.124Q73.9746-28.0762 72.5586-28.0762ZM72.5586-13.8184L40.9668-13.8184Q39.4531-13.8184 38.4766-12.8174Q37.5-11.8164 37.5-10.4004Q37.5-8.98438 38.4766-8.03223Q39.4531-7.08008 40.9668-7.08008L72.5586-7.08008Q73.9746-7.08008 74.9512-8.03223Q75.9277-8.98438 75.9277-10.4004Q75.9277-11.8164 74.9512-12.8174Q73.9746-13.8184 72.5586-13.8184ZM30.6641 19.2383L83.1543 19.2383Q91.8945 19.2383 96.6309 14.4775Q101.367 9.7168 101.367 0.976562L101.367-43.2129Q101.367-47.3633 100.806-50.415Q100.244-53.4668 98.8037-56.0059Q97.3633-58.5449 94.6777-61.2793L73.0957-82.959Q70.459-85.6445 67.9199-87.085Q65.3809-88.5254 62.3535-89.1113Q59.3262-89.6973 55.2734-89.6973L30.6641-89.6973Q21.9238-89.6973 17.1875-84.9121Q12.4512-80.127 12.4512-71.3867L12.4512 0.976562Q12.4512 9.7168 17.1875 14.4775Q21.9238 19.2383 30.6641 19.2383ZM32.7637 4.15039Q30.0293 4.15039 28.7842 2.83203Q27.5391 1.51367 27.5391-1.07422L27.5391-69.3359Q27.5391-71.9238 28.7842-73.2666Q30.0293-74.6094 32.8125-74.6094L50.6348-74.6094L50.6348-52.9785Q50.6348-45.7031 54.1016-42.2363Q57.5684-38.7695 64.8438-38.7695L86.2793-38.7695L86.2793-1.07422Q86.2793 1.51367 85.0342 2.83203Q83.7891 4.15039 81.0547 4.15039ZM65.8691-50.6348Q64.1602-50.6348 63.3545-51.4648Q62.5488-52.2949 62.5488-53.9551L62.5488-73.877L85.5469-50.6348Z"/>
  </g>
  <g id="Bold-M" transform="matrix(1 0 0 1 2284.24 1126)">
   <path d="M72.2168-28.3203L38.7207-28.3203Q37.2559-28.3203 36.3281-27.3926Q35.4004-26.4648 35.4004-25.0977Q35.4004-23.7305 36.3281-22.7783Q37.2559-21.8262 38.7207-21.8262L72.2168-21.8262Q73.584-21.8262 74.5117-22.7783Q75.4395-23.7305 75.4395-25.0977Q75.4395-26.4648 74.5117-27.3926Q73.584-28.3203 72.2168-28.3203ZM72.2168-13.0859L38.7207-13.0859Q37.2559-13.0859 36.3281-12.1338Q35.4004-11.1816 35.4004-9.76562Q35.4004-8.44727 36.3281-7.51953Q37.2559-6.5918 38.7207-6.5918L72.2168-6.5918Q73.584-6.5918 74.5117-7.51953Q75.4395-8.44727 75.4395-9.76562Q75.4395-11.1816 74.5117-12.1338Q73.584-13.0859 72.2168-13.0859ZM29.5898 18.5059L81.8848 18.5059Q90.2344 18.5059 94.6289 14.0625Q99.0234 9.61914 99.0234 1.26953L99.0234-42.9688Q99.0234-46.8262 98.5352-49.5605Q98.0469-52.2949 96.7529-54.5654Q95.459-56.8359 93.0664-59.3262L69.6289-82.959Q67.2852-85.4004 65.0146-86.6943Q62.7441-87.9883 60.0342-88.4766Q57.3242-88.9648 53.7598-88.9648L29.5898-88.9648Q21.2891-88.9648 16.8701-84.5215Q12.4512-80.0781 12.4512-71.7285L12.4512 1.26953Q12.4512 9.66797 16.8701 14.0869Q21.2891 18.5059 29.5898 18.5059ZM31.1035 5.9082Q28.0273 5.9082 26.5381 4.37012Q25.0488 2.83203 25.0488-0.146484L25.0488-70.3125Q25.0488-73.2422 26.5381-74.8047Q28.0273-76.3672 31.1523-76.3672L50.3418-76.3672L50.3418-52.4414Q50.3418-46.0938 53.3936-43.0176Q56.4453-39.9414 62.793-39.9414L86.4258-39.9414L86.4258-0.146484Q86.4258 2.83203 84.9609 4.37012Q83.4961 5.9082 80.3711 5.9082ZM63.7695-50.293Q62.1582-50.293 61.4014-51.0498Q60.6445-51.8066 60.6445-53.418L60.6445-75.3906L85.4492-50.293Z"/>
  </g>
  <g id="Semibold-M" transform="matrix(1 0 0 1 1988.34 1126)">
   <path d="M71.9238-28.4668L37.1582-28.4668Q35.7422-28.4668 34.8145-27.5635Q33.8867-26.6602 33.8867-25.3418Q33.8867-23.9746 34.8145-23.0469Q35.7422-22.1191 37.1582-22.1191L71.9238-22.1191Q73.2422-22.1191 74.1455-23.0469Q75.0488-23.9746 75.0488-25.3418Q75.0488-26.6602 74.1455-27.5635Q73.2422-28.4668 71.9238-28.4668ZM71.9238-12.5488L37.1582-12.5488Q35.7422-12.5488 34.8145-11.6211Q33.8867-10.6934 33.8867-9.32617Q33.8867-8.05664 34.8145-7.15332Q35.7422-6.25 37.1582-6.25L71.9238-6.25Q73.2422-6.25 74.1455-7.15332Q75.0488-8.05664 75.0488-9.32617Q75.0488-10.6934 74.1455-11.6211Q73.2422-12.5488 71.9238-12.5488ZM28.8574 17.9688L81.0059 17.9688Q89.0625 17.9688 93.2373 13.7695Q97.4121 9.57031 97.4121 1.46484L97.4121-42.8223Q97.4121-46.3867 96.9727-48.9258Q96.5332-51.4648 95.3369-53.5645Q94.1406-55.6641 91.8945-57.959L67.2363-82.959Q65.0391-85.2051 62.9639-86.377Q60.8887-87.5488 58.4229-88.0127Q55.957-88.4766 52.6367-88.4766L28.8574-88.4766Q20.8008-88.4766 16.626-84.2285Q12.4512-79.9805 12.4512-71.9238L12.4512 1.46484Q12.4512 9.57031 16.626 13.7695Q20.8008 17.9688 28.8574 17.9688ZM29.9316 7.12891Q26.6113 7.12891 24.9756 5.44434Q23.3398 3.75977 23.3398 0.537109L23.3398-70.9473Q23.3398-74.1699 24.9756-75.8789Q26.6113-77.5879 29.9805-77.5879L50.0977-77.5879L50.0977-52.0508Q50.0977-46.3379 52.8809-43.5547Q55.6641-40.7715 61.377-40.7715L86.5234-40.7715L86.5234 0.537109Q86.5234 3.75977 84.8877 5.44434Q83.252 7.12891 79.8828 7.12891ZM62.3047-50Q60.7422-50 60.0342-50.708Q59.3262-51.416 59.3262-52.9785L59.3262-76.416L85.3516-50Z"/>
  </g>
  <g id="Medium-M" transform="matrix(1 0 0 1 1692.23 1126)">
   <path d="M71.7285-28.5645L35.9375-28.5645Q34.6191-28.5645 33.7158-27.6855Q32.8125-26.8066 32.8125-25.4883Q32.8125-24.2188 33.7158-23.291Q34.6191-22.3633 35.9375-22.3633L71.7285-22.3633Q73.0469-22.3633 73.9258-23.291Q74.8047-24.2188 74.8047-25.4883Q74.8047-26.8066 73.9258-27.6855Q73.0469-28.5645 71.7285-28.5645ZM71.7285-12.1582L35.9375-12.1582Q34.6191-12.1582 33.7158-11.2549Q32.8125-10.3516 32.8125-9.0332Q32.8125-7.76367 33.7158-6.88477Q34.6191-6.00586 35.9375-6.00586L71.7285-6.00586Q73.0469-6.00586 73.9258-6.88477Q74.8047-7.76367 74.8047-9.0332Q74.8047-10.3516 73.9258-11.2549Q73.0469-12.1582 71.7285-12.1582ZM28.3203 17.5781L80.3223 17.5781Q88.1836 17.5781 92.1875 13.5254Q96.1914 9.47266 96.1914 1.61133L96.1914-42.6758Q96.1914-46.0938 95.8008-48.4619Q95.4102-50.8301 94.2871-52.7832Q93.1641-54.7363 91.0645-56.9336L65.4297-82.959Q63.3789-85.0586 61.4258-86.1572Q59.4727-87.2559 57.1777-87.6709Q54.8828-88.0859 51.8555-88.0859L28.3203-88.0859Q20.459-88.0859 16.4551-84.0088Q12.4512-79.9316 12.4512-72.0703L12.4512 1.61133Q12.4512 9.52148 16.4551 13.5498Q20.459 17.5781 28.3203 17.5781ZM29.0527 8.05664Q25.5371 8.05664 23.7793 6.25Q22.0215 4.44336 22.0215 1.02539L22.0215-71.4844Q22.0215-74.8535 23.7793-76.6846Q25.5371-78.5156 29.1016-78.5156L49.9023-78.5156L49.9023-51.7578Q49.9023-46.5332 52.4902-43.9453Q55.0781-41.3574 60.3027-41.3574L86.6211-41.3574L86.6211 1.02539Q86.6211 4.44336 84.8389 6.25Q83.0566 8.05664 79.541 8.05664ZM61.1816-49.8047Q59.668-49.8047 59.0088-50.4883Q58.3496-51.1719 58.3496-52.6855L58.3496-77.1973L85.3027-49.8047Z"/>
  </g>
  <g id="Regular-M" transform="matrix(1 0 0 1 1396.33 1126)">
   <path d="M71.4844-28.7109L34.4238-28.7109Q33.1055-28.7109 32.2266-27.8564Q31.3477-27.002 31.3477-25.7324Q31.3477-24.4629 32.2266-23.584Q33.1055-22.7051 34.4238-22.7051L71.4844-22.7051Q72.7539-22.7051 73.6084-23.584Q74.4629-24.4629 74.4629-25.7324Q74.4629-27.002 73.6084-27.8564Q72.7539-28.7109 71.4844-28.7109ZM71.4844-11.6699L34.4238-11.6699Q33.1055-11.6699 32.2266-10.791Q31.3477-9.91211 31.3477-8.59375Q31.3477-7.37305 32.2266-6.51855Q33.1055-5.66406 34.4238-5.66406L71.4844-5.66406Q72.7539-5.66406 73.6084-6.51855Q74.4629-7.37305 74.4629-8.59375Q74.4629-9.91211 73.6084-10.791Q72.7539-11.6699 71.4844-11.6699ZM27.5879 17.0898L79.4434 17.0898Q87.0117 17.0898 90.7959 13.2568Q94.5801 9.42383 94.5801 1.80664L94.5801-42.5293Q94.5801-45.7031 94.2383-47.8516Q93.8965-50 92.8955-51.7822Q91.8945-53.5645 89.9414-55.5664L63.0371-82.959Q61.1816-84.8633 59.4238-85.8643Q57.666-86.8652 55.5908-87.2314Q53.5156-87.5977 50.7812-87.5977L27.5879-87.5977Q20.0195-87.5977 16.2354-83.7402Q12.4512-79.8828 12.4512-72.2656L12.4512 1.80664Q12.4512 9.47266 16.2354 13.2812Q20.0195 17.0898 27.5879 17.0898ZM27.9297 9.22852Q24.1699 9.22852 22.2412 7.27539Q20.3125 5.32227 20.3125 1.66016L20.3125-72.1191Q20.3125-75.7324 22.2412-77.7344Q24.1699-79.7363 27.9785-79.7363L49.707-79.7363L49.707-51.3672Q49.707-46.7773 52.002-44.4824Q54.2969-42.1875 58.8867-42.1875L86.7188-42.1875L86.7188 1.66016Q86.7188 5.32227 84.79 7.27539Q82.8613 9.22852 79.0527 9.22852ZM59.7656-49.5605Q58.3008-49.5605 57.6904-50.1953Q57.0801-50.8301 57.0801-52.2949L57.0801-78.2227L85.2051-49.5605Z"/>
  </g>
  <g id="Light-M" transform="matrix(1 0 0 1 1100.33 1126)">
   <path d="M71.6797-28.125L33.3496-28.125Q32.2754-28.125 31.5674-27.4414Q30.8594-26.7578 30.8594-25.7324Q30.8594-24.7559 31.5674-24.0479Q32.2754-23.3398 33.3496-23.3398L71.6797-23.3398Q72.7051-23.3398 73.4131-24.0479Q74.1211-24.7559 74.1211-25.7324Q74.1211-26.7578 73.4131-27.4414Q72.7051-28.125 71.6797-28.125ZM71.6797-10.9863L33.3496-10.9863Q32.2754-10.9863 31.5674-10.2783Q30.8594-9.57031 30.8594-8.54492Q30.8594-7.56836 31.5674-6.88477Q32.2754-6.20117 33.3496-6.20117L71.6797-6.20117Q72.7051-6.20117 73.4131-6.88477Q74.1211-7.56836 74.1211-8.54492Q74.1211-9.57031 73.4131-10.2783Q72.7051-10.9863 71.6797-10.9863ZM26.709 16.7969L78.9062 16.7969Q86.0352 16.7969 89.5996 13.1836Q93.1641 9.57031 93.1641 2.44141L93.1641-43.3594Q93.1641-46.0449 92.8711-47.8516Q92.5781-49.6582 91.7236-51.1475Q90.8691-52.6367 89.209-54.2969L60.5469-83.3008Q58.9844-84.9121 57.5195-85.7422Q56.0547-86.5723 54.2969-86.9141Q52.5391-87.2559 50.1465-87.2559L26.709-87.2559Q19.6777-87.2559 16.0645-83.6182Q12.4512-79.9805 12.4512-72.8516L12.4512 2.44141Q12.4512 9.61914 16.04 13.208Q19.6289 16.7969 26.709 16.7969ZM27.002 10.791Q22.8027 10.791 20.6543 8.61816Q18.5059 6.44531 18.5059 2.29492L18.5059-72.7051Q18.5059-76.7578 20.6543-78.9795Q22.8027-81.2012 27.002-81.2012L49.9023-81.2012L49.9023-51.8066Q49.9023-47.6074 51.9531-45.6055Q54.0039-43.6035 58.1055-43.6035L87.1582-43.6035L87.1582 2.29492Q87.1582 6.44531 85.0098 8.61816Q82.8613 10.791 78.6133 10.791ZM58.7402-49.3164Q57.0312-49.3164 56.3232-50.0244Q55.6152-50.7324 55.6152-52.4414L55.6152-79.9805L85.9375-49.3164Z"/>
  </g>
  <g id="Thin-M" transform="matrix(1 0 0 1 804.518 1126)">
   <path d="M71.9727-27.3926L31.8848-27.3926Q31.1523-27.3926 30.6885-26.9043Q30.2246-26.416 30.2246-25.7812Q30.2246-25.0977 30.6885-24.6338Q31.1523-24.1699 31.8848-24.1699L71.9727-24.1699Q72.7051-24.1699 73.1689-24.6338Q73.6328-25.0977 73.6328-25.7812Q73.6328-26.416 73.1689-26.9043Q72.7051-27.3926 71.9727-27.3926ZM71.9727-10.1074L31.8848-10.1074Q31.1523-10.1074 30.6885-9.64355Q30.2246-9.17969 30.2246-8.49609Q30.2246-7.8125 30.6885-7.34863Q31.1523-6.88477 31.8848-6.88477L71.9727-6.88477Q72.7051-6.88477 73.1689-7.34863Q73.6328-7.8125 73.6328-8.49609Q73.6328-9.17969 73.1689-9.64355Q72.7051-10.1074 71.9727-10.1074ZM25.5859 16.4551L78.2227 16.4551Q84.668 16.4551 88.0127 13.1104Q91.3574 9.76562 91.3574 3.27148L91.3574-44.4824Q91.3574-46.4355 91.0889-47.8027Q90.8203-49.1699 90.1611-50.293Q89.502-51.416 88.2812-52.6367L57.3242-83.7402Q56.1035-84.9121 55.0049-85.5713Q53.9062-86.2305 52.5391-86.499Q51.1719-86.7676 49.3164-86.7676L25.5859-86.7676Q19.1895-86.7676 15.8203-83.4229Q12.4512-80.0781 12.4512-73.584L12.4512 3.27148Q12.4512 9.76562 15.7715 13.1104Q19.0918 16.4551 25.5859 16.4551ZM25.7324 12.793Q20.9473 12.793 18.5303 10.3516Q16.1133 7.91016 16.1133 3.17383L16.1133-73.4863Q16.1133-78.0762 18.5303-80.6152Q20.9473-83.1543 25.7812-83.1543L50.1465-83.1543L50.1465-52.3926Q50.1465-48.7305 51.9043-47.0703Q53.6621-45.4102 57.0801-45.4102L87.6953-45.4102L87.6953 3.17383Q87.6953 7.91016 85.2539 10.3516Q82.8125 12.793 78.0273 12.793ZM57.3242-48.9746Q55.3711-48.9746 54.4922-49.8047Q53.6133-50.6348 53.6133-52.6855L53.6133-82.3242L86.8652-48.9746Z"/>
  </g>
  <g id="Ultralight-M" transform="matrix(1 0 0 1 508.295 1126)">
   <path d="M72.1191-27.002L31.1523-27.002Q30.6152-27.002 30.249-26.6357Q29.8828-26.2695 29.8828-25.7812Q29.8828-25.293 30.249-24.9268Q30.6152-24.5605 31.1523-24.5605L72.1191-24.5605Q72.6562-24.5605 73.0225-24.9268Q73.3887-25.293 73.3887-25.7812Q73.3887-26.2695 73.0225-26.6357Q72.6562-27.002 72.1191-27.002ZM72.1191-9.66797L31.1523-9.66797Q30.6152-9.66797 30.249-9.30176Q29.8828-8.93555 29.8828-8.44727Q29.8828-7.95898 30.249-7.61719Q30.6152-7.27539 31.1523-7.27539L72.1191-7.27539Q72.6562-7.27539 73.0225-7.61719Q73.3887-7.95898 73.3887-8.44727Q73.3887-8.93555 73.0225-9.30176Q72.6562-9.66797 72.1191-9.66797ZM25 16.2598L77.832 16.2598Q84.0332 16.2598 87.207 13.0615Q90.3809 9.86328 90.3809 3.71094L90.3809-45.0195Q90.3809-46.6797 90.1611-47.8271Q89.9414-48.9746 89.3799-49.8779Q88.8184-50.7812 87.793-51.7578L55.6152-83.9355Q54.6387-84.9609 53.7109-85.498Q52.7832-86.0352 51.6602-86.3037Q50.5371-86.5723 48.877-86.5723L25-86.5723Q18.9453-86.5723 15.6982-83.374Q12.4512-80.1758 12.4512-73.9746L12.4512 3.71094Q12.4512 9.86328 15.6494 13.0615Q18.8477 16.2598 25 16.2598ZM25.0977 13.8672Q20.0195 13.8672 17.4316 11.2793Q14.8438 8.69141 14.8438 3.61328L14.8438-73.877Q14.8438-78.7598 17.4316-81.4453Q20.0195-84.1309 25.0977-84.1309L50.2441-84.1309L50.2441-52.6855Q50.2441-49.3164 51.8555-47.8516Q53.4668-46.3867 56.543-46.3867L87.9883-46.3867L87.9883 3.61328Q87.9883 8.69141 85.4004 11.2793Q82.8125 13.8672 77.7344 13.8672ZM56.6406-48.7793Q54.4922-48.7793 53.5645-49.6826Q52.6367-50.5859 52.6367-52.7832L52.6367-83.4961L87.3535-48.7793Z"/>
  </g>
  <g id="Black-S" transform="matrix(1 0 0 1 2887.7 696)">
   <path d="M57.2266-29.3945L34.2285-29.3945Q33.0078-29.3945 32.2266-28.6133Q31.4453-27.832 31.4453-26.709Q31.4453-25.5371 32.2266-24.7314Q33.0078-23.9258 34.2285-23.9258L57.2266-23.9258Q58.3984-23.9258 59.1797-24.7314Q59.9609-25.5371 59.9609-26.709Q59.9609-27.832 59.1797-28.6133Q58.3984-29.3945 57.2266-29.3945ZM57.2266-19.1406L34.2285-19.1406Q33.0078-19.1406 32.2266-18.335Q31.4453-17.5293 31.4453-16.3574Q31.4453-15.2344 32.2266-14.4531Q33.0078-13.6719 34.2285-13.6719L57.2266-13.6719Q58.3984-13.6719 59.1797-14.4531Q59.9609-15.2344 59.9609-16.3574Q59.9609-17.5293 59.1797-18.335Q58.3984-19.1406 57.2266-19.1406ZM25 8.1543L66.4062 8.1543Q73.584 8.1543 77.6123 4.12598Q81.6406 0.0976562 81.6406-7.08008L81.6406-41.748Q81.6406-47.1191 80.4199-50.5615Q79.1992-54.0039 75.7324-57.4707L60.5469-72.6562Q57.0801-76.123 53.6377-77.3438Q50.1953-78.5645 44.8242-78.5645L25-78.5645Q17.8223-78.5645 13.7939-74.5361Q9.76562-70.5078 9.76562-63.3301L9.76562-7.08008Q9.76562 0.0976562 13.7939 4.12598Q17.8223 8.1543 25 8.1543ZM27.2461-6.00586Q25.4395-6.00586 24.6826-6.83594Q23.9258-7.66602 23.9258-9.32617L23.9258-61.084Q23.9258-62.793 24.6826-63.5986Q25.4395-64.4043 27.2461-64.4043L39.9902-64.4043L39.9902-49.707Q39.9902-43.1152 43.0908-40.0146Q46.1914-36.9141 52.7832-36.9141L67.4805-36.9141L67.4805-9.32617Q67.4805-7.66602 66.748-6.83594Q66.0156-6.00586 64.1602-6.00586ZM53.5645-47.6562Q50.7324-47.6562 50.7324-50.4883L50.7324-64.1113L67.1875-47.6562Z"/>
  </g>
  <g id="Heavy-S" transform="matrix(1 0 0 1 2591.79 696)">
   <path d="M56.9336-29.6387L32.666-29.6387Q31.4453-29.6387 30.6641-28.8574Q29.8828-28.0762 29.8828-26.9531Q29.8828-25.7812 30.6641-25Q31.4453-24.2188 32.666-24.2188L56.9336-24.2188Q58.0566-24.2188 58.8379-25Q59.6191-25.7812 59.6191-26.9531Q59.6191-28.0762 58.8379-28.8574Q58.0566-29.6387 56.9336-29.6387ZM56.9336-18.6523L32.666-18.6523Q31.4453-18.6523 30.6641-17.8467Q29.8828-17.041 29.8828-15.918Q29.8828-14.7949 30.6641-14.0137Q31.4453-13.2324 32.666-13.2324L56.9336-13.2324Q58.0566-13.2324 58.8379-14.0137Q59.6191-14.7949 59.6191-15.918Q59.6191-17.041 58.8379-17.8467Q58.0566-18.6523 56.9336-18.6523ZM24.3164 7.61719L65.4785 7.61719Q72.4121 7.61719 76.2207 3.80859Q80.0293 0 80.0293-6.93359L80.0293-41.4551Q80.0293-46.5332 78.9307-49.707Q77.832-52.8809 74.5605-56.1035L58.2031-72.6074Q54.9805-75.8301 51.8066-76.9531Q48.6328-78.0762 43.7012-78.0762L24.3164-78.0762Q17.3828-78.0762 13.5742-74.2432Q9.76562-70.4102 9.76562-63.4766L9.76562-6.93359Q9.76562 0 13.5742 3.80859Q17.3828 7.61719 24.3164 7.61719ZM26.0742-4.83398Q24.0723-4.83398 23.1689-5.81055Q22.2656-6.78711 22.2656-8.69141L22.2656-61.7188Q22.2656-63.6719 23.1689-64.624Q24.0723-65.5762 26.123-65.5762L39.7461-65.5762L39.7461-49.2188Q39.7461-43.3105 42.5537-40.4785Q45.3613-37.6465 51.3184-37.6465L67.5293-37.6465L67.5293-8.69141Q67.5293-6.78711 66.6504-5.81055Q65.7715-4.83398 63.6719-4.83398ZM52.0996-47.4121Q49.4629-47.4121 49.4629-50.0488L49.4629-65.0391L66.9922-47.4121Z"/>
  </g>
  <g id="Bold-S" transform="matrix(1 0 0 1 2295.98 696)">
   <path d="M56.5918-29.8828L30.9082-29.8828Q29.6875-29.8828 28.9062-29.126Q28.125-28.3691 28.125-27.2461Q28.125-26.123 28.9062-25.3174Q29.6875-24.5117 30.9082-24.5117L56.5918-24.5117Q57.7148-24.5117 58.4961-25.3174Q59.2773-26.123 59.2773-27.2461Q59.2773-28.3691 58.4961-29.126Q57.7148-29.8828 56.5918-29.8828ZM56.5918-18.1152L30.9082-18.1152Q29.6875-18.1152 28.9062-17.334Q28.125-16.5527 28.125-15.3809Q28.125-14.2578 28.9062-13.501Q29.6875-12.7441 30.9082-12.7441L56.5918-12.7441Q57.7148-12.7441 58.4961-13.501Q59.2773-14.2578 59.2773-15.3809Q59.2773-16.5527 58.4961-17.334Q57.7148-18.1152 56.5918-18.1152ZM23.5352 7.03125L64.4531 7.03125Q71.1426 7.03125 74.6826 3.44238Q78.2227-0.146484 78.2227-6.83594L78.2227-41.1621Q78.2227-45.8984 77.2461-48.7549Q76.2695-51.6113 73.291-54.6387L55.5664-72.5586Q52.6367-75.5371 49.7803-76.5137Q46.9238-77.4902 42.4805-77.4902L23.5352-77.4902Q16.8457-77.4902 13.3057-73.9258Q9.76562-70.3613 9.76562-63.6719L9.76562-6.83594Q9.76562-0.0976562 13.3057 3.4668Q16.8457 7.03125 23.5352 7.03125ZM24.8047-3.56445Q22.5586-3.56445 21.46-4.71191Q20.3613-5.85938 20.3613-8.00781L20.3613-62.5Q20.3613-64.6484 21.46-65.7715Q22.5586-66.8945 24.8535-66.8945L39.4531-66.8945L39.4531-48.6816Q39.4531-43.5059 41.9678-40.9912Q44.4824-38.4766 49.6582-38.4766L67.627-38.4766L67.627-8.00781Q67.627-5.85938 66.5527-4.71191Q65.4785-3.56445 63.1836-3.56445ZM50.4883-47.1191Q48.0957-47.1191 48.0957-49.5117L48.0957-66.1133L66.7969-47.1191Z"/>
  </g>
  <g id="Semibold-S" transform="matrix(1 0 0 1 1999.88 696)">
   <path d="M56.3477-30.0781L29.6875-30.0781Q28.4668-30.0781 27.6855-29.3213Q26.9043-28.5645 26.9043-27.4414Q26.9043-26.3184 27.6855-25.5127Q28.4668-24.707 29.6875-24.707L56.3477-24.707Q57.4707-24.707 58.2275-25.5127Q58.9844-26.3184 58.9844-27.4414Q58.9844-28.5645 58.2275-29.3213Q57.4707-30.0781 56.3477-30.0781ZM56.3477-17.7246L29.6875-17.7246Q28.4668-17.7246 27.6855-16.9434Q26.9043-16.1621 26.9043-15.0391Q26.9043-13.916 27.6855-13.1592Q28.4668-12.4023 29.6875-12.4023L56.3477-12.4023Q57.4707-12.4023 58.2275-13.1592Q58.9844-13.916 58.9844-15.0391Q58.9844-16.1621 58.2275-16.9434Q57.4707-17.7246 56.3477-17.7246ZM22.9492 6.64062L63.7207 6.64062Q70.2148 6.64062 73.6084 3.22266Q77.002-0.195312 77.002-6.68945L77.002-40.9668Q77.002-45.4102 76.0986-48.0469Q75.1953-50.6836 72.4121-53.5645L53.7598-72.5098Q51.0254-75.293 48.3643-76.1963Q45.7031-77.0996 41.6016-77.0996L22.9492-77.0996Q16.5039-77.0996 13.1348-73.6816Q9.76562-70.2637 9.76562-63.7695L9.76562-6.68945Q9.76562-0.146484 13.1348 3.24707Q16.5039 6.64062 22.9492 6.64062ZM23.9258-2.68555Q21.4844-2.68555 20.2637-3.93066Q19.043-5.17578 19.043-7.4707L19.043-62.9883Q19.043-65.332 20.2637-66.5771Q21.4844-67.8223 23.9258-67.8223L39.209-67.8223L39.209-48.291Q39.209-43.6035 41.5283-41.3086Q43.8477-39.0137 48.5352-39.0137L67.627-39.0137L67.627-7.4707Q67.627-5.17578 66.4307-3.93066Q65.2344-2.68555 62.793-2.68555ZM49.3164-46.9238Q47.1191-46.9238 47.1191-49.1699L47.1191-66.7969L66.6504-46.9238Z"/>
  </g>
  <g id="Medium-S" transform="matrix(1 0 0 1 1703.66 696)">
   <path d="M56.1523-30.1758L28.7598-30.1758Q27.5391-30.1758 26.7578-29.4434Q25.9766-28.7109 25.9766-27.5879Q25.9766-26.4648 26.7578-25.6836Q27.5391-24.9023 28.7598-24.9023L56.1523-24.9023Q57.2754-24.9023 58.0322-25.6836Q58.7891-26.4648 58.7891-27.5879Q58.7891-28.7109 58.0322-29.4434Q57.2754-30.1758 56.1523-30.1758ZM56.1523-17.4805L28.7598-17.4805Q27.5391-17.4805 26.7578-16.6748Q25.9766-15.8691 25.9766-14.7461Q25.9766-13.623 26.7578-12.8906Q27.5391-12.1582 28.7598-12.1582L56.1523-12.1582Q57.2754-12.1582 58.0322-12.8906Q58.7891-13.623 58.7891-14.7461Q58.7891-15.8691 58.0322-16.6748Q57.2754-17.4805 56.1523-17.4805ZM22.5586 6.29883L63.1836 6.29883Q69.5312 6.29883 72.7783 3.02734Q76.0254-0.244141 76.0254-6.64062L76.0254-40.7715Q76.0254-45.0684 75.2197-47.5586Q74.4141-50.0488 71.7285-52.7832L52.3926-72.5098Q49.8047-75.0977 47.29-75.9521Q44.7754-76.8066 40.918-76.8066L22.5586-76.8066Q16.2109-76.8066 12.9883-73.5107Q9.76562-70.2148 9.76562-63.8672L9.76562-6.64062Q9.76562-0.244141 12.9883 3.02734Q16.2109 6.29883 22.5586 6.29883ZM23.2422-2.00195Q20.6543-2.00195 19.3604-3.32031Q18.0664-4.63867 18.0664-7.12891L18.0664-63.3789Q18.0664-65.8203 19.3604-67.1631Q20.6543-68.5059 23.291-68.5059L39.0625-68.5059L39.0625-48.0469Q39.0625-43.7012 41.2109-41.5771Q43.3594-39.4531 47.6562-39.4531L67.6758-39.4531L67.6758-7.12891Q67.6758-4.63867 66.3818-3.32031Q65.0879-2.00195 62.5-2.00195ZM48.4863-46.7773Q46.3867-46.7773 46.3867-48.877L46.3867-67.334L66.5527-46.7773Z"/>
  </g>
  <g id="Regular-S" transform="matrix(1 0 0 1 1407.56 696)">
   <path d="M55.9082-30.3711L27.5391-30.3711Q26.3672-30.3711 25.5859-29.6387Q24.8047-28.9062 24.8047-27.7832Q24.8047-26.6602 25.5859-25.8789Q26.3672-25.0977 27.5391-25.0977L55.9082-25.0977Q57.0312-25.0977 57.7881-25.8789Q58.5449-26.6602 58.5449-27.7832Q58.5449-28.9062 57.7881-29.6387Q57.0312-30.3711 55.9082-30.3711ZM55.9082-17.0898L27.5391-17.0898Q26.3672-17.0898 25.5859-16.3086Q24.8047-15.5273 24.8047-14.4043Q24.8047-13.2812 25.5859-12.5488Q26.3672-11.8164 27.5391-11.8164L55.9082-11.8164Q57.0312-11.8164 57.7881-12.5488Q58.5449-13.2812 58.5449-14.4043Q58.5449-15.5273 57.7881-16.3086Q57.0312-17.0898 55.9082-17.0898ZM22.0215 5.9082L62.5 5.9082Q68.6523 5.9082 71.7285 2.7832Q74.8047-0.341797 74.8047-6.54297L74.8047-40.5762Q74.8047-44.6289 74.0723-46.8994Q73.3398-49.1699 70.8496-51.7578L50.5859-72.4609Q48.1934-74.9023 45.8984-75.6592Q43.6035-76.416 40.0879-76.416L22.0215-76.416Q15.8691-76.416 12.8174-73.291Q9.76562-70.166 9.76562-63.9648L9.76562-6.54297Q9.76562-0.292969 12.8174 2.80762Q15.8691 5.9082 22.0215 5.9082ZM22.3633-1.12305Q19.6289-1.12305 18.2129-2.56348Q16.7969-4.00391 16.7969-6.64062L16.7969-63.8672Q16.7969-66.5039 18.2129-67.9443Q19.6289-69.3848 22.4121-69.3848L38.8672-69.3848L38.8672-47.6562Q38.8672-43.8477 40.7959-41.9189Q42.7246-39.9902 46.5332-39.9902L67.7246-39.9902L67.7246-6.64062Q67.7246-4.00391 66.3086-2.56348Q64.8926-1.12305 62.1582-1.12305ZM47.3633-46.582Q45.4102-46.582 45.4102-48.5352L45.4102-68.0664L66.4062-46.582Z"/>
  </g>
  <g id="Light-S" transform="matrix(1 0 0 1 1111.46 696)">
   <path d="M56.1035-29.8828L26.5625-29.8828Q25.6348-29.8828 25-29.2969Q24.3652-28.7109 24.3652-27.7832Q24.3652-26.9043 25-26.2695Q25.6348-25.6348 26.5625-25.6348L56.1035-25.6348Q56.9824-25.6348 57.5928-26.2695Q58.2031-26.9043 58.2031-27.7832Q58.2031-28.7109 57.5928-29.2969Q56.9824-29.8828 56.1035-29.8828ZM56.1035-16.5039L26.5625-16.5039Q25.6348-16.5039 25-15.8691Q24.3652-15.2344 24.3652-14.3555Q24.3652-13.4766 25-12.8906Q25.6348-12.3047 26.5625-12.3047L56.1035-12.3047Q56.9824-12.3047 57.5928-12.8906Q58.2031-13.4766 58.2031-14.3555Q58.2031-15.2344 57.5928-15.8691Q56.9824-16.5039 56.1035-16.5039ZM21.2891 5.66406L62.0117 5.66406Q67.7734 5.66406 70.6787 2.73438Q73.584-0.195312 73.584-5.95703L73.584-41.3086Q73.584-44.6777 72.9248-46.582Q72.2656-48.4863 70.2148-50.6348L48.3887-72.7539Q46.3867-74.8047 44.458-75.4639Q42.5293-76.123 39.5508-76.123L21.2891-76.123Q15.5273-76.123 12.6465-73.1934Q9.76562-70.2637 9.76562-64.502L9.76562-5.95703Q9.76562-0.195312 12.6465 2.73438Q15.5273 5.66406 21.2891 5.66406ZM21.5332 0.244141Q18.4082 0.244141 16.7969-1.3916Q15.1855-3.02734 15.1855-6.05469L15.1855-64.4043Q15.1855-67.3828 16.7969-69.043Q18.4082-70.7031 21.582-70.7031L39.0137-70.7031L39.0137-48.0469Q39.0137-44.5801 40.7471-42.8955Q42.4805-41.2109 45.8496-41.2109L68.1152-41.2109L68.1152-6.05469Q68.1152-3.02734 66.5039-1.3916Q64.8926 0.244141 61.7676 0.244141ZM46.4355-46.3379Q44.0918-46.3379 44.0918-48.6816L44.0918-69.6289L67.041-46.3379Z"/>
  </g>
  <g id="Thin-S" transform="matrix(1 0 0 1 815.577 696)">
   <path d="M56.3477-29.1992L25.293-29.1992Q24.6582-29.1992 24.2188-28.8086Q23.7793-28.418 23.7793-27.832Q23.7793-27.2461 24.2188-26.8311Q24.6582-26.416 25.293-26.416L56.3477-26.416Q56.9824-26.416 57.3975-26.8311Q57.8125-27.2461 57.8125-27.832Q57.8125-28.418 57.3975-28.8086Q56.9824-29.1992 56.3477-29.1992ZM56.3477-15.7227L25.293-15.7227Q24.6582-15.7227 24.2188-15.3076Q23.7793-14.8926 23.7793-14.3066Q23.7793-13.7207 24.2188-13.3057Q24.6582-12.8906 25.293-12.8906L56.3477-12.8906Q56.9824-12.8906 57.3975-13.3057Q57.8125-13.7207 57.8125-14.3066Q57.8125-14.8926 57.3975-15.3076Q56.9824-15.7227 56.3477-15.7227ZM20.2637 5.32227L61.4258 5.32227Q66.6016 5.32227 69.2627 2.63672Q71.9238-0.0488281 71.9238-5.22461L71.9238-42.2852Q71.9238-44.7754 71.4111-46.1914Q70.8984-47.6074 69.3848-49.1699L45.5078-73.1445Q43.9941-74.6582 42.5781-75.1953Q41.1621-75.7324 38.7695-75.7324L20.2637-75.7324Q15.1367-75.7324 12.4512-73.0469Q9.76562-70.3613 9.76562-65.1367L9.76562-5.22461Q9.76562 0 12.4268 2.66113Q15.0879 5.32227 20.2637 5.32227ZM20.4102 2.05078Q16.7969 2.05078 14.9414 0.170898Q13.0859-1.70898 13.0859-5.32227L13.0859-65.0391Q13.0859-68.5547 14.9414-70.4834Q16.7969-72.4121 20.459-72.4121L39.209-72.4121L39.209-48.584Q39.209-45.6055 40.6738-44.2383Q42.1387-42.8711 44.9219-42.8711L68.6523-42.8711L68.6523-5.32227Q68.6523-1.70898 66.7725 0.170898Q64.8926 2.05078 61.2305 2.05078ZM45.2148-46.0449Q42.3828-46.0449 42.3828-48.8281L42.3828-71.6309L67.8711-46.0449Z"/>
  </g>
  <g id="Ultralight-S" transform="matrix(1 0 0 1 519.281 696)">
   <path d="M56.4453-28.8574L24.6094-28.8574Q24.1211-28.8574 23.8037-28.5645Q23.4863-28.2715 23.4863-27.832Q23.4863-27.3926 23.8037-27.0752Q24.1211-26.7578 24.6094-26.7578L56.4453-26.7578Q56.9336-26.7578 57.251-27.0752Q57.5684-27.3926 57.5684-27.832Q57.5684-28.2715 57.251-28.5645Q56.9336-28.8574 56.4453-28.8574ZM56.4453-15.332L24.6094-15.332Q24.1211-15.332 23.8037-15.0146Q23.4863-14.6973 23.4863-14.2578Q23.4863-13.8184 23.8037-13.5254Q24.1211-13.2324 24.6094-13.2324L56.4453-13.2324Q56.9336-13.2324 57.251-13.5254Q57.5684-13.8184 57.5684-14.2578Q57.5684-14.6973 57.251-15.0146Q56.9336-15.332 56.4453-15.332ZM19.7754 5.17578L61.084 5.17578Q66.0156 5.17578 68.5547 2.6123Q71.0938 0.0488281 71.0938-4.83398L71.0938-42.7734Q71.0938-44.8242 70.6299-45.9961Q70.166-47.168 68.9453-48.3887L44.043-73.3398Q42.7734-74.5605 41.6016-75.0244Q40.4297-75.4883 38.4277-75.4883L19.7754-75.4883Q14.8926-75.4883 12.3291-72.9492Q9.76562-70.4102 9.76562-65.5273L9.76562-4.83398Q9.76562 0.0488281 12.3291 2.6123Q14.8926 5.17578 19.7754 5.17578ZM19.873 2.97852Q15.9668 2.97852 13.9648 0.952148Q11.9629-1.07422 11.9629-4.93164L11.9629-65.4297Q11.9629-69.1406 13.9648-71.2158Q15.9668-73.291 19.873-73.291L39.3066-73.291L39.3066-48.8281Q39.3066-46.0938 40.625-44.8975Q41.9434-43.7012 44.4336-43.7012L68.8965-43.7012L68.8965-4.93164Q68.8965-1.07422 66.8945 0.952148Q64.8926 2.97852 60.9863 2.97852ZM44.5801-45.8984Q41.5039-45.8984 41.5039-48.9258L41.5039-72.7051L68.3105-45.8984Z"/>
  </g>
 </g>
</svg>
