<?xml version="1.0" encoding="UTF-8"?>
<!--Generator: Apple Native CoreSVG 149-->
<!DOCTYPE svg
PUBLIC "-//W3C//DTD SVG 1.1//EN"
       "http://www.w3.org/Graphics/SVG/1.1/DTD/svg11.dtd">
<svg version="1.1" xmlns="http://www.w3.org/2000/svg" xmlns:xlink="http://www.w3.org/1999/xlink" width="3300" height="2200">
 <!--glyph: "uni100336.medium", point size: 100.0, font version: "17.0d9e1", template writer version: "59"-->
 <g id="Notes">
  <rect height="2200" id="artboard" style="fill:white;opacity:1" width="3300" x="0" y="0"/>
  <line style="fill:none;stroke:black;opacity:1;stroke-width:0.5;" x1="263" x2="3036" y1="292" y2="292"/>
  <text style="stroke:none;fill:black;font-family:sans-serif;font-size:13;font-weight:bold;" transform="matrix(1 0 0 1 263 322)">Weight/Scale Variations</text>
  <text style="stroke:none;fill:black;font-family:sans-serif;font-size:13;text-anchor:middle;" transform="matrix(1 0 0 1 559.711 322)">Ultralight</text>
  <text style="stroke:none;fill:black;font-family:sans-serif;font-size:13;text-anchor:middle;" transform="matrix(1 0 0 1 856.422 322)">Thin</text>
  <text style="stroke:none;fill:black;font-family:sans-serif;font-size:13;text-anchor:middle;" transform="matrix(1 0 0 1 1153.13 322)">Light</text>
  <text style="stroke:none;fill:black;font-family:sans-serif;font-size:13;text-anchor:middle;" transform="matrix(1 0 0 1 1449.84 322)">Regular</text>
  <text style="stroke:none;fill:black;font-family:sans-serif;font-size:13;text-anchor:middle;" transform="matrix(1 0 0 1 1746.56 322)">Medium</text>
  <text style="stroke:none;fill:black;font-family:sans-serif;font-size:13;text-anchor:middle;" transform="matrix(1 0 0 1 2043.27 322)">Semibold</text>
  <text style="stroke:none;fill:black;font-family:sans-serif;font-size:13;text-anchor:middle;" transform="matrix(1 0 0 1 2339.98 322)">Bold</text>
  <text style="stroke:none;fill:black;font-family:sans-serif;font-size:13;text-anchor:middle;" transform="matrix(1 0 0 1 2636.69 322)">Heavy</text>
  <text style="stroke:none;fill:black;font-family:sans-serif;font-size:13;text-anchor:middle;" transform="matrix(1 0 0 1 2933.4 322)">Black</text>
  <line style="fill:none;stroke:black;opacity:1;stroke-width:0.5;" x1="263" x2="3036" y1="1903" y2="1903"/>
  <g transform="matrix(1 0 0 1 263 1933)">
   <path d="M9.24805 0.830078Q10.8691 0.830078 12.2949 0.214844Q13.7207-0.400391 14.8096-1.49414Q15.8984-2.58789 16.5186-4.01367Q17.1387-5.43945 17.1387-7.05078Q17.1387-8.66211 16.5186-10.0879Q15.8984-11.5137 14.8047-12.6074Q13.7109-13.7012 12.2852-14.3164Q10.8594-14.9316 9.23828-14.9316Q7.62695-14.9316 6.20117-14.3164Q4.77539-13.7012 3.69141-12.6074Q2.60742-11.5137 1.9873-10.0879Q1.36719-8.66211 1.36719-7.05078Q1.36719-5.43945 1.9873-4.01367Q2.60742-2.58789 3.69629-1.49414Q4.78516-0.400391 6.21094 0.214844Q7.63672 0.830078 9.24805 0.830078ZM9.24805-0.654297Q7.91992-0.654297 6.7627-1.14746Q5.60547-1.64062 4.73145-2.51953Q3.85742-3.39844 3.36426-4.56055Q2.87109-5.72266 2.87109-7.05078Q2.87109-8.37891 3.35938-9.54102Q3.84766-10.7031 4.72168-11.582Q5.5957-12.4609 6.75293-12.9541Q7.91016-13.4473 9.23828-13.4473Q10.5762-13.4473 11.7334-12.9541Q12.8906-12.4609 13.7695-11.582Q14.6484-10.7031 15.1465-9.54102Q15.6445-8.37891 15.6445-7.05078Q15.6445-5.72266 15.1514-4.56055Q14.6582-3.39844 13.7842-2.51953Q12.9102-1.64062 11.748-1.14746Q10.5859-0.654297 9.24805-0.654297ZM5.83984-7.04102Q5.83984-6.71875 6.04492-6.51855Q6.25-6.31836 6.5918-6.31836L8.50586-6.31836L8.50586-4.39453Q8.50586-4.0625 8.70605-3.85742Q8.90625-3.65234 9.22852-3.65234Q9.56055-3.65234 9.76562-3.85742Q9.9707-4.0625 9.9707-4.39453L9.9707-6.31836L11.8945-6.31836Q12.2266-6.31836 12.4316-6.51855Q12.6367-6.71875 12.6367-7.04102Q12.6367-7.37305 12.4316-7.57812Q12.2266-7.7832 11.8945-7.7832L9.9707-7.7832L9.9707-9.69727Q9.9707-10.0391 9.76562-10.2441Q9.56055-10.4492 9.22852-10.4492Q8.90625-10.4492 8.70605-10.2441Q8.50586-10.0391 8.50586-9.69727L8.50586-7.7832L6.5918-7.7832Q6.25-7.7832 6.04492-7.57812Q5.83984-7.37305 5.83984-7.04102Z"/>
  </g>
  <g transform="matrix(1 0 0 1 281.867 1933)">
   <path d="M11.709 2.91016Q13.75 2.91016 15.5518 2.12891Q17.3535 1.34766 18.7305-0.0292969Q20.1074-1.40625 20.8887-3.20801Q21.6699-5.00977 21.6699-7.05078Q21.6699-9.0918 20.8887-10.8936Q20.1074-12.6953 18.7305-14.0723Q17.3535-15.4492 15.5469-16.2305Q13.7402-17.0117 11.6992-17.0117Q9.6582-17.0117 7.85645-16.2305Q6.05469-15.4492 4.68262-14.0723Q3.31055-12.6953 2.5293-10.8936Q1.74805-9.0918 1.74805-7.05078Q1.74805-5.00977 2.5293-3.20801Q3.31055-1.40625 4.6875-0.0292969Q6.06445 1.34766 7.86621 2.12891Q9.66797 2.91016 11.709 2.91016ZM11.709 1.25Q9.98047 1.25 8.47656 0.605469Q6.97266-0.0390625 5.83496-1.17676Q4.69727-2.31445 4.05762-3.81836Q3.41797-5.32227 3.41797-7.05078Q3.41797-8.7793 4.05762-10.2832Q4.69727-11.7871 5.83008-12.9297Q6.96289-14.0723 8.4668-14.7119Q9.9707-15.3516 11.6992-15.3516Q13.4277-15.3516 14.9316-14.7119Q16.4355-14.0723 17.5781-12.9297Q18.7207-11.7871 19.3652-10.2832Q20.0098-8.7793 20.0098-7.05078Q20.0098-5.32227 19.3701-3.81836Q18.7305-2.31445 17.5928-1.17676Q16.4551-0.0390625 14.9463 0.605469Q13.4375 1.25 11.709 1.25ZM7.39258-7.04102Q7.39258-6.68945 7.62695-6.46484Q7.86133-6.24023 8.23242-6.24023L10.8789-6.24023L10.8789-3.57422Q10.8789-3.21289 11.1035-2.9834Q11.3281-2.75391 11.6797-2.75391Q12.0508-2.75391 12.2852-2.9834Q12.5195-3.21289 12.5195-3.57422L12.5195-6.24023L15.1758-6.24023Q15.5371-6.24023 15.7715-6.46484Q16.0059-6.68945 16.0059-7.04102Q16.0059-7.41211 15.7715-7.6416Q15.5371-7.87109 15.1758-7.87109L12.5195-7.87109L12.5195-10.5176Q12.5195-10.8984 12.2852-11.1279Q12.0508-11.3574 11.6797-11.3574Q11.3281-11.3574 11.1035-11.1279Q10.8789-10.8984 10.8789-10.5176L10.8789-7.87109L8.23242-7.87109Q7.85156-7.87109 7.62207-7.6416Q7.39258-7.41211 7.39258-7.04102Z"/>
  </g>
  <g transform="matrix(1 0 0 1 305.646 1933)">
   <path d="M14.9707 5.66406Q17.0605 5.66406 18.96 5.01465Q20.8594 4.36523 22.4512 3.19336Q24.043 2.02148 25.2197 0.429688Q26.3965-1.16211 27.0459-3.06641Q27.6953-4.9707 27.6953-7.05078Q27.6953-9.14062 27.0459-11.04Q26.3965-12.9395 25.2197-14.5312Q24.043-16.123 22.4512-17.2998Q20.8594-18.4766 18.9551-19.126Q17.0508-19.7754 14.9609-19.7754Q12.8711-19.7754 10.9717-19.126Q9.07227-18.4766 7.48535-17.2998Q5.89844-16.123 4.72168-14.5312Q3.54492-12.9395 2.90039-11.04Q2.25586-9.14062 2.25586-7.05078Q2.25586-4.9707 2.90527-3.06641Q3.55469-1.16211 4.72656 0.429688Q5.89844 2.02148 7.49023 3.19336Q9.08203 4.36523 10.9814 5.01465Q12.8809 5.66406 14.9707 5.66406ZM14.9707 3.84766Q13.1641 3.84766 11.5283 3.2959Q9.89258 2.74414 8.53516 1.74805Q7.17773 0.751953 6.17676-0.610352Q5.17578-1.97266 4.62891-3.6084Q4.08203-5.24414 4.08203-7.05078Q4.08203-8.86719 4.62891-10.5029Q5.17578-12.1387 6.17188-13.501Q7.16797-14.8633 8.52539-15.8594Q9.88281-16.8555 11.5186-17.4023Q13.1543-17.9492 14.9609-17.9492Q16.7773-17.9492 18.4131-17.4023Q20.0488-16.8555 21.4111-15.8594Q22.7734-14.8633 23.7695-13.501Q24.7656-12.1387 25.3174-10.5029Q25.8691-8.86719 25.8691-7.05078Q25.8789-5.24414 25.332-3.6084Q24.7852-1.97266 23.7842-0.610352Q22.7832 0.751953 21.4209 1.74805Q20.0586 2.74414 18.4229 3.2959Q16.7871 3.84766 14.9707 3.84766ZM9.45312-7.04102Q9.45312-6.66016 9.71191-6.41113Q9.9707-6.16211 10.3711-6.16211L14.0625-6.16211L14.0625-2.46094Q14.0625-2.06055 14.3115-1.80664Q14.5605-1.55273 14.9414-1.55273Q15.3516-1.55273 15.6055-1.80664Q15.8594-2.06055 15.8594-2.46094L15.8594-6.16211L19.5605-6.16211Q19.9609-6.16211 20.2148-6.41113Q20.4688-6.66016 20.4688-7.04102Q20.4688-7.45117 20.2148-7.70508Q19.9609-7.95898 19.5605-7.95898L15.8594-7.95898L15.8594-11.6504Q15.8594-12.0605 15.6055-12.3145Q15.3516-12.5684 14.9414-12.5684Q14.5605-12.5684 14.3115-12.3096Q14.0625-12.0508 14.0625-11.6504L14.0625-7.95898L10.3711-7.95898Q9.96094-7.95898 9.70703-7.70508Q9.45312-7.45117 9.45312-7.04102Z"/>
  </g>
  <text style="stroke:none;fill:black;font-family:sans-serif;font-size:13;font-weight:bold;" transform="matrix(1 0 0 1 263 1953)">Design Variations</text>
  <text style="stroke:none;fill:black;font-family:sans-serif;font-size:13;" transform="matrix(1 0 0 1 263 1971)">Symbols are supported in up to nine weights and three scales.</text>
  <text style="stroke:none;fill:black;font-family:sans-serif;font-size:13;" transform="matrix(1 0 0 1 263 1989)">For optimal layout with text and other symbols, vertically align</text>
  <text style="stroke:none;fill:black;font-family:sans-serif;font-size:13;" transform="matrix(1 0 0 1 263 2007)">symbols with the adjacent text.</text>
  <line style="fill:none;stroke:#00AEEF;stroke-width:0.5;opacity:1.0;" x1="776" x2="776" y1="1919" y2="1933"/>
  <g transform="matrix(1 0 0 1 776 1933)">
   <path d="M3.31055 0.15625Q3.70117 0.15625 3.91602-0.00976562Q4.13086-0.175781 4.26758-0.585938L5.52734-4.0332L11.2891-4.0332L12.5488-0.585938Q12.6855-0.175781 12.9004-0.00976562Q13.1152 0.15625 13.4961 0.15625Q13.8867 0.15625 14.1162-0.0585938Q14.3457-0.273438 14.3457-0.644531Q14.3457-0.869141 14.2383-1.17188L9.6582-13.3691Q9.48242-13.8184 9.17969-14.043Q8.87695-14.2676 8.4082-14.2676Q7.5-14.2676 7.17773-13.3789L2.59766-1.16211Q2.49023-0.859375 2.49023-0.634766Q2.49023-0.263672 2.70996-0.0537109Q2.92969 0.15625 3.31055 0.15625ZM6.00586-5.51758L8.37891-12.0898L8.42773-12.0898L10.8008-5.51758Z"/>
  </g>
  <line style="fill:none;stroke:#00AEEF;stroke-width:0.5;opacity:1.0;" x1="793.197" x2="793.197" y1="1919" y2="1933"/>
  <text style="stroke:none;fill:black;font-family:sans-serif;font-size:13;font-weight:bold;" transform="matrix(1 0 0 1 776 1953)">Margins</text>
  <text style="stroke:none;fill:black;font-family:sans-serif;font-size:13;" transform="matrix(1 0 0 1 776 1971)">Leading and trailing margins on the left and right side of each symbol</text>
  <text style="stroke:none;fill:black;font-family:sans-serif;font-size:13;" transform="matrix(1 0 0 1 776 1989)">can be adjusted by modifying the x-location of the margin guidelines.</text>
  <text style="stroke:none;fill:black;font-family:sans-serif;font-size:13;" transform="matrix(1 0 0 1 776 2007)">Modifications are automatically applied proportionally to all</text>
  <text style="stroke:none;fill:black;font-family:sans-serif;font-size:13;" transform="matrix(1 0 0 1 776 2025)">scales and weights.</text>
  <g transform="matrix(1 0 0 1 1289 1933)">
   <path d="M2.8418 1.86523L4.54102 3.57422Q5.18555 4.22852 5.90332 4.17969Q6.62109 4.13086 7.31445 3.35938L18.0078-8.42773L17.041-9.4043L6.42578 2.27539Q6.16211 2.57812 5.89355 2.61719Q5.625 2.65625 5.27344 2.30469L4.10156 1.14258Q3.75 0.791016 3.79395 0.522461Q3.83789 0.253906 4.14062-0.0195312L15.6152-10.8203L14.6387-11.7871L3.04688-0.898438Q2.30469-0.214844 2.25098 0.498047Q2.19727 1.21094 2.8418 1.86523ZM9.25781-16.3281Q8.94531-16.0254 8.90625-15.6348Q8.86719-15.2441 9.04297-14.9512Q9.21875-14.6777 9.55566-14.541Q9.89258-14.4043 10.3809-14.5215Q11.4746-14.7754 12.5977-14.7314Q13.7207-14.6875 14.7949-13.9844L14.209-12.5293Q13.9551-11.9043 14.0674-11.4404Q14.1797-10.9766 14.5801-10.5664L16.875-8.25195Q17.2363-7.88086 17.5781-7.82227Q17.9199-7.76367 18.3398-7.8418L19.4043-8.03711L20.0684-7.36328L20.0293-6.80664Q20-6.43555 20.1221-6.12305Q20.2441-5.81055 20.6055-5.44922L21.3672-4.70703Q21.7285-4.3457 22.1533-4.33105Q22.5781-4.31641 22.9297-4.66797L25.8398-7.58789Q26.1914-7.93945 26.1816-8.35449Q26.1719-8.76953 25.8105-9.13086L25.0391-9.89258Q24.6875-10.2539 24.3799-10.3857Q24.0723-10.5176 23.7109-10.4883L23.1348-10.4395L22.4902-11.0742L22.7344-12.1973Q22.832-12.6172 22.6953-12.9834Q22.5586-13.3496 22.1191-13.7891L19.9219-15.9766Q18.6719-17.2168 17.2607-17.8369Q15.8496-18.457 14.4189-18.4814Q12.9883-18.5059 11.665-17.959Q10.3418-17.4121 9.25781-16.3281ZM10.752-15.957Q11.6602-16.6211 12.7002-16.9043Q13.7402-17.1875 14.8047-17.085Q15.8691-16.9824 16.8701-16.5137Q17.8711-16.0449 18.7012-15.2051L21.1328-12.793Q21.3086-12.6172 21.3525-12.4512Q21.3965-12.2852 21.3379-12.0312L21.0156-10.5469L22.5195-9.0625L23.5059-9.12109Q23.6914-9.13086 23.7891-9.09668Q23.8867-9.0625 24.0332-8.91602L24.6094-8.33984L22.168-5.89844L21.5918-6.47461Q21.4453-6.62109 21.4062-6.71875Q21.3672-6.81641 21.377-7.01172L21.4453-7.98828L19.9512-9.47266L18.4277-9.21875Q18.1836-9.16992 18.042-9.2041Q17.9004-9.23828 17.7148-9.41406L15.7129-11.416Q15.5176-11.5918 15.4932-11.7529Q15.4688-11.9141 15.5859-12.1875L16.4648-14.2773Q15.293-15.3711 13.8281-15.791Q12.3633-16.2109 10.8398-15.7617Q10.7227-15.7324 10.6885-15.8057Q10.6543-15.8789 10.752-15.957Z"/>
  </g>
  <text style="stroke:none;fill:black;font-family:sans-serif;font-size:13;font-weight:bold;" transform="matrix(1 0 0 1 1289 1953)">Exporting</text>
  <text style="stroke:none;fill:black;font-family:sans-serif;font-size:13;" transform="matrix(1 0 0 1 1289 1971)">Symbols should be outlined when exporting to ensure the</text>
  <text style="stroke:none;fill:black;font-family:sans-serif;font-size:13;" transform="matrix(1 0 0 1 1289 1989)">design is preserved when submitting to Xcode.</text>
  <text id="template-version" style="stroke:none;fill:black;font-family:sans-serif;font-size:13;text-anchor:end;" transform="matrix(1 0 0 1 3036 1933)">Template v.2.0</text>
  <text style="stroke:none;fill:black;font-family:sans-serif;font-size:13;text-anchor:end;" transform="matrix(1 0 0 1 3036 1951)">Requires Xcode 13 or greater</text>
  <text id="descriptive-name" style="stroke:none;fill:black;font-family:sans-serif;font-size:13;text-anchor:end;" transform="matrix(1 0 0 1 3036 1969)">Generated from plus.bubble</text>
  <text style="stroke:none;fill:black;font-family:sans-serif;font-size:13;text-anchor:end;" transform="matrix(1 0 0 1 3036 1987)">Typeset at 100 points</text>
  <text style="stroke:none;fill:black;font-family:sans-serif;font-size:13;" transform="matrix(1 0 0 1 263 726)">Small</text>
  <text style="stroke:none;fill:black;font-family:sans-serif;font-size:13;" transform="matrix(1 0 0 1 263 1156)">Medium</text>
  <text style="stroke:none;fill:black;font-family:sans-serif;font-size:13;" transform="matrix(1 0 0 1 263 1586)">Large</text>
 </g>
 <g id="Guides">
  <g id="H-reference" style="fill:#27AAE1;stroke:none;" transform="matrix(1 0 0 1 339 696)">
   <path d="M0.976562 0L3.66211 0L29.3457-67.1387L30.0293-67.1387L30.0293-70.459L28.125-70.459ZM11.6699-24.4629L46.9727-24.4629L46.2402-26.709L12.4512-26.709ZM55.127 0L57.7637 0L30.6152-70.459L29.4434-70.459L29.4434-67.1387Z"/>
  </g>
  <line id="Baseline-S" style="fill:none;stroke:#27AAE1;opacity:1;stroke-width:0.5;" x1="263" x2="3036" y1="696" y2="696"/>
  <line id="Capline-S" style="fill:none;stroke:#27AAE1;opacity:1;stroke-width:0.5;" x1="263" x2="3036" y1="625.541" y2="625.541"/>
  <g id="H-reference" style="fill:#27AAE1;stroke:none;" transform="matrix(1 0 0 1 339 1126)">
   <path d="M0.976562 0L3.66211 0L29.3457-67.1387L30.0293-67.1387L30.0293-70.459L28.125-70.459ZM11.6699-24.4629L46.9727-24.4629L46.2402-26.709L12.4512-26.709ZM55.127 0L57.7637 0L30.6152-70.459L29.4434-70.459L29.4434-67.1387Z"/>
  </g>
  <line id="Baseline-M" style="fill:none;stroke:#27AAE1;opacity:1;stroke-width:0.5;" x1="263" x2="3036" y1="1126" y2="1126"/>
  <line id="Capline-M" style="fill:none;stroke:#27AAE1;opacity:1;stroke-width:0.5;" x1="263" x2="3036" y1="1055.54" y2="1055.54"/>
  <g id="H-reference" style="fill:#27AAE1;stroke:none;" transform="matrix(1 0 0 1 339 1556)">
   <path d="M0.976562 0L3.66211 0L29.3457-67.1387L30.0293-67.1387L30.0293-70.459L28.125-70.459ZM11.6699-24.4629L46.9727-24.4629L46.2402-26.709L12.4512-26.709ZM55.127 0L57.7637 0L30.6152-70.459L29.4434-70.459L29.4434-67.1387Z"/>
  </g>
  <line id="Baseline-L" style="fill:none;stroke:#27AAE1;opacity:1;stroke-width:0.5;" x1="263" x2="3036" y1="1556" y2="1556"/>
  <line id="Capline-L" style="fill:none;stroke:#27AAE1;opacity:1;stroke-width:0.5;" x1="263" x2="3036" y1="1485.54" y2="1485.54"/>
  <line id="left-margin" style="fill:none;stroke:#00AEEF;stroke-width:0.5;opacity:1.0;" x1="1383.58" x2="1383.58" y1="1030.79" y2="1150.12"/>
  <line id="right-margin" style="fill:none;stroke:#00AEEF;stroke-width:0.5;opacity:1.0;" x1="1516.1" x2="1516.1" y1="1030.79" y2="1150.12"/>
 </g>
 <g id="Symbols">
  <g id="Black-L" transform="matrix(1 0 0 1 2846.24 1556)">
   <path d="M59.7168 38.5742Q63.5254 38.5742 67.0898 36.8652Q70.6543 35.1562 75.3418 31.1035L96.2891 12.8418L125.83 12.8418Q135.791 12.8418 143.066 8.8623Q150.342 4.88281 154.297-2.39258Q158.252-9.66797 158.252-19.5801L158.252-70.1172Q158.252-79.9805 154.297-87.2803Q150.342-94.5801 143.066-98.5596Q135.791-102.539 125.83-102.539L48.4863-102.539Q38.5742-102.539 31.2744-98.5596Q23.9746-94.5801 20.0195-87.2803Q16.0645-79.9805 16.0645-70.1172L16.0645-19.5801Q16.0645-9.66797 20.1904-2.39258Q24.3164 4.88281 31.2988 8.8623Q38.2812 12.8418 46.7285 12.8418L47.7051 12.8418L47.7051 25.3906Q47.7051 31.543 50.9277 35.0586Q54.1504 38.5742 59.7168 38.5742ZM64.5508 16.2598L64.5508-0.732422Q64.5508-4.3457 62.7686-5.85938Q60.9863-7.37305 57.8613-7.37305L50-7.37305Q45.4102-7.37305 42.3828-8.88672Q39.3555-10.4004 37.8418-13.4521Q36.3281-16.5039 36.3281-21.0938L36.3281-68.6035Q36.3281-73.1934 37.8418-76.2451Q39.3555-79.2969 42.3828-80.7861Q45.4102-82.2754 50-82.2754L124.316-82.2754Q128.906-82.2754 131.958-80.7861Q135.01-79.2969 136.523-76.2451Q138.037-73.1934 138.037-68.6035L138.037-21.0938Q138.037-16.5039 136.523-13.4521Q135.01-10.4004 131.958-8.88672Q128.906-7.37305 124.316-7.37305L94.5801-7.37305Q90.8691-7.37305 88.7451-6.4209Q86.6211-5.46875 83.8867-2.7832ZM60.498-44.8242Q60.498-41.3086 62.7686-38.9893Q65.0391-36.6699 68.5059-36.6699L79.0039-36.6699L79.0039-26.123Q79.0039-22.6562 81.3477-20.3857Q83.6914-18.1152 87.207-18.1152Q90.7227-18.1152 93.0664-20.3857Q95.4102-22.6562 95.4102-26.123L95.4102-36.6699L105.957-36.6699Q109.424-36.6699 111.694-38.9893Q113.965-41.3086 113.965-44.8242Q113.965-48.3887 111.694-50.7324Q109.424-53.0762 105.957-53.0762L95.4102-53.0762L95.4102-63.5742Q95.4102-67.041 93.0664-69.3115Q90.7227-71.582 87.207-71.582Q83.6914-71.582 81.3477-69.3115Q79.0039-67.041 79.0039-63.5742L79.0039-53.0762L68.5059-53.0762Q65.0391-53.0762 62.7686-50.7324Q60.498-48.3887 60.498-44.8242Z"/>
  </g>
  <g id="Heavy-L" transform="matrix(1 0 0 1 2550.07 1556)">
   <path d="M58.1543 37.2559Q61.5723 37.2559 64.6729 35.6934Q67.7734 34.1309 71.9238 30.5176L93.1152 12.0117L125.879 12.0117Q135.596 12.0117 142.603 8.20312Q149.609 4.39453 153.394-2.6123Q157.178-9.61914 157.178-19.2383L157.178-69.6289Q157.178-79.1992 153.394-86.2305Q149.609-93.2617 142.603-97.0703Q135.596-100.879 125.879-100.879L47.3145-100.879Q37.6953-100.879 30.6641-97.0703Q23.6328-93.2617 19.8486-86.2305Q16.0645-79.1992 16.0645-69.6289L16.0645-19.2383Q16.0645-9.61914 19.9707-2.6123Q23.877 4.39453 30.6641 8.20312Q37.4512 12.0117 45.9961 12.0117L47.6074 12.0117L47.6074 25.5859Q47.6074 31.0059 50.4395 34.1309Q53.2715 37.2559 58.1543 37.2559ZM62.3535 17.8711L62.3535 0.585938Q62.3535-2.73438 60.791-4.10156Q59.2285-5.46875 56.2988-5.46875L48.4863-5.46875Q43.5059-5.46875 40.21-7.15332Q36.9141-8.83789 35.2539-12.1582Q33.5938-15.4785 33.5938-20.4102L33.5938-68.457Q33.5938-73.3887 35.2539-76.709Q36.9141-80.0293 40.21-81.6895Q43.5059-83.3496 48.4863-83.3496L124.707-83.3496Q129.688-83.3496 133.008-81.6895Q136.328-80.0293 138.013-76.709Q139.697-73.3887 139.697-68.457L139.697-20.4102Q139.697-15.4785 138.013-12.1582Q136.328-8.83789 133.008-7.15332Q129.688-5.46875 124.707-5.46875L91.7969-5.46875Q88.3789-5.46875 86.4258-4.61426Q84.4727-3.75977 81.9824-1.31836ZM59.7656-44.3848Q59.7656-41.2598 61.8164-39.1846Q63.8672-37.1094 66.9434-37.1094L79.3457-37.1094L79.3457-24.707Q79.3457-21.582 81.4209-19.5312Q83.4961-17.4805 86.6699-17.4805Q89.7949-17.4805 91.8945-19.5312Q93.9941-21.582 93.9941-24.707L93.9941-37.1094L106.445-37.1094Q109.521-37.1094 111.572-39.1846Q113.623-41.2598 113.623-44.3848Q113.623-47.6074 111.572-49.6826Q109.521-51.7578 106.445-51.7578L93.9941-51.7578L93.9941-64.1602Q93.9941-67.2852 91.8945-69.3115Q89.7949-71.3379 86.6699-71.3379Q83.4961-71.3379 81.4209-69.3115Q79.3457-67.2852 79.3457-64.1602L79.3457-51.7578L66.9434-51.7578Q63.8184-51.7578 61.792-49.6826Q59.7656-47.6074 59.7656-44.3848Z"/>
  </g>
  <g id="Bold-L" transform="matrix(1 0 0 1 2253.97 1556)">
   <path d="M56.4453 35.791Q59.375 35.791 61.9873 34.3994Q64.5996 33.0078 68.1152 29.9316L89.5996 11.084L125.977 11.084Q135.352 11.084 142.065 7.4707Q148.779 3.85742 152.368-2.85645Q155.957-9.57031 155.957-18.8965L155.957-69.043Q155.957-78.3691 152.368-85.083Q148.779-91.7969 142.065-95.4102Q135.352-99.0234 125.977-99.0234L46.0449-99.0234Q36.6699-99.0234 29.9561-95.4102Q23.2422-91.7969 19.6533-85.083Q16.0645-78.3691 16.0645-69.043L16.0645-18.8965Q16.0645-9.57031 19.7266-2.83203Q23.3887 3.90625 29.9561 7.49512Q36.5234 11.084 45.166 11.084L47.5098 11.084L47.5098 25.7812Q47.5098 30.4199 49.8779 33.1055Q52.2461 35.791 56.4453 35.791ZM59.9609 19.7266L59.9609 2.05078Q59.9609-0.927734 58.5938-2.14844Q57.2266-3.36914 54.5898-3.36914L46.8262-3.36914Q41.4062-3.36914 37.793-5.22461Q34.1797-7.08008 32.3486-10.7178Q30.5176-14.3555 30.5176-19.6777L30.5176-68.2617Q30.5176-73.6328 32.3486-77.2705Q34.1797-80.9082 37.793-82.7393Q41.4062-84.5703 46.8262-84.5703L125.195-84.5703Q130.615-84.5703 134.229-82.7393Q137.842-80.9082 139.673-77.2705Q141.504-73.6328 141.504-68.2617L141.504-19.6777Q141.504-14.3555 139.673-10.7178Q137.842-7.08008 134.229-5.22461Q130.615-3.36914 125.195-3.36914L88.6719-3.36914Q85.6445-3.36914 83.8623-2.63672Q82.0801-1.9043 79.8828 0.292969ZM58.9355-43.9453Q58.9355-41.2598 60.7178-39.4775Q62.5-37.6953 65.2344-37.6953L79.7363-37.6953L79.7363-23.1445Q79.7363-20.4102 81.5186-18.6523Q83.3008-16.8945 86.0352-16.8945Q88.8184-16.8945 90.625-18.6523Q92.4316-20.4102 92.4316-23.1445L92.4316-37.6953L106.934-37.6953Q109.668-37.6953 111.45-39.4775Q113.232-41.2598 113.232-43.9453Q113.232-46.7773 111.45-48.584Q109.668-50.3906 106.934-50.3906L92.4316-50.3906L92.4316-64.8438Q92.4316-67.627 90.625-69.3848Q88.8184-71.1426 86.0352-71.1426Q83.3008-71.1426 81.5186-69.3604Q79.7363-67.5781 79.7363-64.8438L79.7363-50.3906L65.2344-50.3906Q62.5-50.3906 60.7178-48.584Q58.9355-46.7773 58.9355-43.9453Z"/>
  </g>
  <g id="Semibold-L" transform="matrix(1 0 0 1 1957.7 1556)">
   <path d="M55.2734 34.7656Q57.8125 34.7656 60.083 33.4717Q62.3535 32.1777 65.4785 29.4922L87.1582 10.4492L125.977 10.4492Q135.205 10.4492 141.699 6.95801Q148.193 3.4668 151.636-3.02734Q155.078-9.52148 155.078-18.6035L155.078-68.6523Q155.078-77.7344 151.636-84.2529Q148.193-90.7715 141.699-94.2627Q135.205-97.7539 125.977-97.7539L45.166-97.7539Q35.9863-97.7539 29.4678-94.2627Q22.9492-90.7715 19.5068-84.2529Q16.0645-77.7344 16.0645-68.6523L16.0645-18.6035Q16.0645-9.52148 19.5557-3.00293Q23.0469 3.51562 29.4678 6.98242Q35.8887 10.4492 44.5801 10.4492L47.4121 10.4492L47.4121 25.8789Q47.4121 29.9805 49.4873 32.373Q51.5625 34.7656 55.2734 34.7656ZM58.252 20.9473L58.252 3.02734Q58.252 0.341797 57.0557-0.756836Q55.8594-1.85547 53.3691-1.85547L45.6543-1.85547Q39.8926-1.85547 36.084-3.85742Q32.2754-5.85938 30.3467-9.69238Q28.418-13.5254 28.418-19.1406L28.418-68.1152Q28.418-73.7793 30.3467-77.6123Q32.2754-81.4453 36.084-83.4229Q39.8926-85.4004 45.6543-85.4004L125.488-85.4004Q131.201-85.4004 135.034-83.4229Q138.867-81.4453 140.82-77.6123Q142.773-73.7793 142.773-68.1152L142.773-19.1406Q142.773-13.5254 140.82-9.69238Q138.867-5.85938 135.034-3.85742Q131.201-1.85547 125.488-1.85547L86.4746-1.85547Q83.7402-1.85547 82.0557-1.2207Q80.3711-0.585938 78.418 1.41602ZM58.3496-43.6035Q58.3496-41.2109 59.9609-39.624Q61.5723-38.0371 64.0137-38.0371L79.9316-38.0371L79.9316-22.0215Q79.9316-19.5801 81.543-17.9932Q83.1543-16.4062 85.5469-16.4062Q88.0859-16.4062 89.6973-17.9932Q91.3086-19.5801 91.3086-22.0215L91.3086-38.0371L107.275-38.0371Q109.717-38.0371 111.328-39.624Q112.939-41.2109 112.939-43.6035Q112.939-46.1426 111.328-47.7539Q109.717-49.3652 107.275-49.3652L91.3086-49.3652L91.3086-65.2832Q91.3086-67.7734 89.6973-69.3604Q88.0859-70.9473 85.5469-70.9473Q83.1543-70.9473 81.543-69.3604Q79.9316-67.7734 79.9316-65.2832L79.9316-49.3652L64.0137-49.3652Q61.5234-49.3652 59.9365-47.7539Q58.3496-46.1426 58.3496-43.6035Z"/>
  </g>
  <g id="Medium-L" transform="matrix(1 0 0 1 1661.3 1556)">
   <path d="M54.3457 33.9844Q56.6895 33.9844 58.6914 32.7881Q60.6934 31.5918 63.4766 29.1504L85.3027 9.96094L126.025 9.96094Q135.059 9.96094 141.431 6.5918Q147.803 3.22266 151.123-3.14941Q154.443-9.52148 154.443-18.4082L154.443-68.3594Q154.443-77.2949 151.123-83.667Q147.803-90.0391 141.431-93.4082Q135.059-96.7773 126.025-96.7773L44.4824-96.7773Q35.4492-96.7773 29.1016-93.4082Q22.7539-90.0391 19.4092-83.667Q16.0645-77.2949 16.0645-68.3594L16.0645-18.4082Q16.0645-9.47266 19.4336-3.125Q22.8027 3.22266 29.1016 6.5918Q35.4004 9.96094 44.1895 9.96094L47.3633 9.96094L47.3633 25.9766Q47.3633 29.6387 49.1943 31.8115Q51.0254 33.9844 54.3457 33.9844ZM56.9824 21.9238L56.9824 3.80859Q56.9824 1.31836 55.9082 0.268555Q54.834-0.78125 52.4414-0.78125L44.7754-0.78125Q38.8184-0.78125 34.8145-2.85645Q30.8105-4.93164 28.8086-8.93555Q26.8066-12.9395 26.8066-18.75L26.8066-68.0664Q26.8066-73.877 28.8086-77.8809Q30.8105-81.8848 34.8145-83.96Q38.8184-86.0352 44.7754-86.0352L125.732-86.0352Q131.689-86.0352 135.669-83.96Q139.648-81.8848 141.675-77.8809Q143.701-73.877 143.701-68.0664L143.701-18.75Q143.701-12.9395 141.675-8.93555Q139.648-4.93164 135.669-2.85645Q131.689-0.78125 125.732-0.78125L84.8633-0.78125Q82.3242-0.78125 80.7373-0.170898Q79.1504 0.439453 77.3438 2.24609ZM57.9102-43.3594Q57.9102-41.1621 59.375-39.7217Q60.8398-38.2812 63.1348-38.2812L80.127-38.2812L80.127-21.1914Q80.127-18.9453 81.5674-17.5049Q83.0078-16.0645 85.2051-16.0645Q87.5488-16.0645 89.0137-17.5049Q90.4785-18.9453 90.4785-21.1914L90.4785-38.2812L107.52-38.2812Q109.814-38.2812 111.255-39.7217Q112.695-41.1621 112.695-43.3594Q112.695-45.7031 111.255-47.1436Q109.814-48.584 107.52-48.584L90.4785-48.584L90.4785-65.625Q90.4785-67.9199 89.0137-69.3848Q87.5488-70.8496 85.2051-70.8496Q83.0078-70.8496 81.5674-69.3848Q80.127-67.9199 80.127-65.625L80.127-48.584L63.1348-48.584Q60.791-48.584 59.3506-47.1436Q57.9102-45.7031 57.9102-43.3594Z"/>
  </g>
  <g id="Regular-L" transform="matrix(1 0 0 1 1365.01 1556)">
   <path d="M53.1738 32.959Q55.1758 32.959 56.8359 31.8848Q58.4961 30.8105 60.8887 28.7109L82.9102 9.32617L126.074 9.32617Q134.912 9.32617 141.064 6.0791Q147.217 2.83203 150.415-3.32031Q153.613-9.47266 153.613-18.1641L153.613-67.9688Q153.613-76.709 150.415-82.8613Q147.217-89.0137 141.064-92.2607Q134.912-95.5078 126.074-95.5078L43.6035-95.5078Q34.7656-95.5078 28.6133-92.2607Q22.4609-89.0137 19.2627-82.8613Q16.0645-76.709 16.0645-67.9688L16.0645-18.1641Q16.0645-9.42383 19.2627-3.27148Q22.4609 2.88086 28.6133 6.10352Q34.7656 9.32617 43.6035 9.32617L47.2656 9.32617L47.2656 26.123Q47.2656 29.248 48.8037 31.1035Q50.3418 32.959 53.1738 32.959ZM55.3223 23.1445L55.3223 4.78516Q55.3223 2.53906 54.3945 1.61133Q53.4668 0.683594 51.2695 0.683594L43.6523 0.683594Q37.3535 0.683594 33.1543-1.51367Q28.9551-3.71094 26.8311-7.93457Q24.707-12.1582 24.707-18.2617L24.707-67.9199Q24.707-74.0234 26.8311-78.2471Q28.9551-82.4707 33.1543-84.668Q37.3535-86.8652 43.6523-86.8652L126.025-86.8652Q132.275-86.8652 136.475-84.668Q140.674-82.4707 142.822-78.2471Q144.971-74.0234 144.971-67.9199L144.971-18.2617Q144.971-12.1582 142.822-7.93457Q140.674-3.71094 136.475-1.51367Q132.275 0.683594 126.025 0.683594L82.7148 0.683594Q80.4199 0.683594 78.9551 1.19629Q77.4902 1.70898 75.8789 3.36914ZM57.3242-43.0176Q57.3242-41.1133 58.6182-39.8682Q59.9121-38.623 61.9141-38.623L80.3711-38.623L80.3711-20.1172Q80.3711-18.1152 81.6162-16.8457Q82.8613-15.5762 84.7656-15.5762Q86.8164-15.5762 88.0859-16.8457Q89.3555-18.1152 89.3555-20.1172L89.3555-38.623L107.861-38.623Q109.863-38.623 111.133-39.8682Q112.402-41.1133 112.402-43.0176Q112.402-45.0684 111.133-46.3379Q109.863-47.6074 107.861-47.6074L89.3555-47.6074L89.3555-66.0645Q89.3555-68.1152 88.0859-69.3848Q86.8164-70.6543 84.7656-70.6543Q82.8613-70.6543 81.6162-69.3604Q80.3711-68.0664 80.3711-66.0645L80.3711-47.6074L61.9141-47.6074Q59.8633-47.6074 58.5938-46.3379Q57.3242-45.0684 57.3242-43.0176Z"/>
  </g>
  <g id="Light-L" transform="matrix(1 0 0 1 1069.2 1556)">
   <path d="M50.9277 31.5918Q52.4902 31.5918 53.7842 30.7617Q55.0781 29.9316 56.8359 28.418L79.1504 8.98438L126.074 8.98438Q134.18 8.98438 139.941 5.88379Q145.703 2.7832 148.755-2.97852Q151.807-8.74023 151.807-16.6992L151.807-68.5547Q151.807-76.6113 148.755-82.373Q145.703-88.1348 139.941-91.2109Q134.18-94.2871 126.074-94.2871L41.7969-94.2871Q33.6426-94.2871 27.9053-91.2109Q22.168-88.1348 19.1162-82.373Q16.0645-76.6113 16.0645-68.5547L16.0645-16.6992Q16.0645-8.64258 19.1162-2.88086Q22.168 2.88086 27.9053 5.93262Q33.6426 8.98438 41.7969 8.98438L46.3379 8.98438L46.3379 26.2695Q46.3379 28.7109 47.5586 30.1514Q48.7793 31.5918 50.9277 31.5918ZM52.5391 24.1211L52.5391 5.51758Q52.5391 3.80859 51.8066 3.07617Q51.0742 2.34375 49.3652 2.34375L41.8945 2.34375Q35.6934 2.34375 31.4209 0.0732422Q27.1484-2.19727 24.9023-6.49414Q22.6562-10.791 22.6562-16.8457L22.6562-68.5059Q22.6562-74.5605 24.9023-78.833Q27.1484-83.1055 31.4209-85.4004Q35.6934-87.6953 41.8945-87.6953L125.977-87.6953Q132.08-87.6953 136.353-85.4004Q140.625-83.1055 142.896-78.833Q145.166-74.5605 145.166-68.5059L145.166-16.8457Q145.166-10.791 142.896-6.49414Q140.625-2.19727 136.353 0.0732422Q132.08 2.34375 125.977 2.34375L79.3457 2.34375Q77.4414 2.34375 76.2207 2.80762Q75 3.27148 73.584 4.63867ZM56.7383-42.627Q56.7383-41.2109 57.7393-40.2344Q58.7402-39.2578 60.2539-39.2578L80.5176-39.2578L80.5176-18.9941Q80.5176-17.4805 81.4941-16.5039Q82.4707-15.5273 83.8867-15.5273Q85.4492-15.5273 86.4258-16.4795Q87.4023-17.4316 87.4023-18.9941L87.4023-39.2578L107.715-39.2578Q109.229-39.2578 110.205-40.2344Q111.182-41.2109 111.182-42.627Q111.182-44.1895 110.205-45.1904Q109.229-46.1914 107.715-46.1914L87.4023-46.1914L87.4023-66.4551Q87.4023-68.0176 86.4258-68.9697Q85.4492-69.9219 83.8867-69.9219Q82.4707-69.9219 81.4941-68.9453Q80.5176-67.9688 80.5176-66.4551L80.5176-46.1914L60.2539-46.1914Q58.6914-46.1914 57.7148-45.1904Q56.7383-44.1895 56.7383-42.627Z"/>
  </g>
  <g id="Thin-L" transform="matrix(1 0 0 1 773.683 1556)">
   <path d="M47.9492 29.7852Q48.9258 29.7852 49.7314 29.2725Q50.5371 28.7598 51.416 28.0273L74.2188 8.49609L126.074 8.49609Q133.252 8.49609 138.477 5.63965Q143.701 2.7832 146.558-2.46582Q149.414-7.71484 149.414-14.7949L149.414-69.3848Q149.414-76.5137 146.558-81.7383Q143.701-86.9629 138.477-89.8193Q133.252-92.6758 126.074-92.6758L39.4043-92.6758Q32.1777-92.6758 26.9775-89.8438Q21.7773-87.0117 18.9209-81.7627Q16.0645-76.5137 16.0645-69.3848L16.0645-14.7949Q16.0645-7.61719 18.9209-2.39258Q21.7773 2.83203 26.9775 5.66406Q32.1777 8.49609 39.4043 8.49609L45.1172 8.49609L45.1172 26.5137Q45.1172 28.0273 45.9229 28.9062Q46.7285 29.7852 47.9492 29.7852ZM48.8281 25.4395L48.8281 6.54297Q48.8281 5.46875 48.3643 5.0293Q47.9004 4.58984 46.875 4.58984L39.5508 4.58984Q33.5449 4.58984 29.1504 2.19727Q24.7559-0.195312 22.3877-4.56543Q20.0195-8.93555 20.0195-14.9414L20.0195-69.2383Q20.0195-75.1953 22.3877-79.5898Q24.7559-83.9844 29.1504-86.4014Q33.5449-88.8184 39.5508-88.8184L125.928-88.8184Q131.787-88.8184 136.182-86.4014Q140.576-83.9844 143.018-79.5898Q145.459-75.1953 145.459-69.2383L145.459-14.9414Q145.459-8.93555 143.018-4.56543Q140.576-0.195312 136.182 2.19727Q131.787 4.58984 125.928 4.58984L74.8535 4.58984Q73.4863 4.58984 72.6074 4.93164Q71.7285 5.27344 70.5566 6.29883ZM55.957-42.0898Q55.957-41.3574 56.5674-40.7471Q57.1777-40.1367 58.0078-40.1367L80.7129-40.1367L80.7129-17.4316Q80.7129-16.6016 81.3232-15.9912Q81.9336-15.3809 82.7148-15.3809Q83.5938-15.3809 84.2041-15.9668Q84.8145-16.5527 84.8145-17.4316L84.8145-40.1367L107.52-40.1367Q108.35-40.1367 108.96-40.7471Q109.57-41.3574 109.57-42.0898Q109.57-43.0176 108.984-43.6279Q108.398-44.2383 107.52-44.2383L84.8145-44.2383L84.8145-66.9434Q84.8145-67.8223 84.2041-68.4082Q83.5938-68.9941 82.7148-68.9941Q81.9336-68.9941 81.3232-68.3838Q80.7129-67.7734 80.7129-66.9434L80.7129-44.2383L58.0078-44.2383Q57.1289-44.2383 56.543-43.6279Q55.957-43.0176 55.957-42.0898Z"/>
  </g>
  <g id="Ultralight-L" transform="matrix(1 0 0 1 477.607 1556)">
   <path d="M46.4355 28.8574Q47.0703 28.8574 47.6562 28.5156Q48.2422 28.1738 48.6816 27.832L71.6797 8.30078L126.074 8.30078Q132.764 8.30078 137.72 5.51758Q142.676 2.73438 145.41-2.24609Q148.145-7.22656 148.145-13.8184L148.145-69.7754Q148.145-76.416 145.41-81.3965Q142.676-86.377 137.72-89.1357Q132.764-91.8945 126.074-91.8945L38.1348-91.8945Q31.4453-91.8945 26.4893-89.1602Q21.5332-86.4258 18.7988-81.4453Q16.0645-76.4648 16.0645-69.7754L16.0645-13.8184Q16.0645-7.12891 18.7988-2.14844Q21.5332 2.83203 26.4893 5.56641Q31.4453 8.30078 38.1348 8.30078L44.4824 8.30078L44.4824 26.6113Q44.4824 27.6367 45.0684 28.2471Q45.6543 28.8574 46.4355 28.8574ZM46.9238 26.0742L46.9238 7.03125Q46.9238 6.34766 46.6064 6.03027Q46.2891 5.71289 45.6055 5.71289L38.3301 5.71289Q32.4219 5.71289 27.9785 3.27148Q23.5352 0.830078 21.0693-3.58887Q18.6035-8.00781 18.6035-14.0137L18.6035-69.6289Q18.6035-75.5859 21.0693-80.0049Q23.5352-84.4238 27.9785-86.8896Q32.4219-89.3555 38.3301-89.3555L125.879-89.3555Q131.641-89.3555 136.084-86.8896Q140.527-84.4238 143.066-80.0049Q145.605-75.5859 145.605-69.6289L145.605-14.0137Q145.605-8.00781 143.066-3.58887Q140.527 0.830078 136.084 3.27148Q131.641 5.71289 125.879 5.71289L72.5586 5.71289Q71.4844 5.71289 70.752 6.03027Q70.0195 6.34766 69.043 7.17773ZM55.5664-41.7969Q55.5664-41.4062 55.9814-40.9668Q56.3965-40.5273 56.8848-40.5273L80.8594-40.5273L80.8594-16.6504Q80.8594-16.1133 81.25-15.7227Q81.6406-15.332 82.0801-15.332Q82.666-15.332 83.0811-15.6982Q83.4961-16.0645 83.4961-16.6504L83.4961-40.5273L107.422-40.5273Q107.91-40.5273 108.325-40.9668Q108.74-41.4062 108.74-41.7969Q108.74-42.3828 108.35-42.8223Q107.959-43.2617 107.422-43.2617L83.4961-43.2617L83.4961-67.1387Q83.4961-67.7246 83.0811-68.0908Q82.666-68.457 82.0801-68.457Q81.6406-68.457 81.25-68.0664Q80.8594-67.6758 80.8594-67.1387L80.8594-43.2617L56.8848-43.2617Q56.3477-43.2617 55.957-42.8223Q55.5664-42.3828 55.5664-41.7969Z"/>
  </g>
  <g id="Black-M" transform="matrix(1 0 0 1 2865.68 1126)">
   <path d="M46.875 22.6562Q50.0488 22.6562 53.0518 21.2891Q56.0547 19.9219 59.9609 16.5527L76.0742 2.63672L97.4609 2.63672Q105.176 2.63672 110.913-0.561523Q116.65-3.75977 119.824-9.49707Q122.998-15.2344 122.998-22.9004L122.998-62.8906Q122.998-70.5566 119.824-76.2939Q116.65-82.0312 110.913-85.2295Q105.176-88.4277 97.4609-88.4277L37.9395-88.4277Q30.2734-88.4277 24.5361-85.2295Q18.7988-82.0312 15.625-76.2939Q12.4512-70.5566 12.4512-62.8906L12.4512-22.9004Q12.4512-15.2344 15.7959-9.49707Q19.1406-3.75977 24.5605-0.561523Q29.9805 2.63672 36.2305 2.63672L36.7188 2.63672L36.7188 11.6699Q36.7188 16.7969 39.4531 19.7266Q42.1875 22.6562 46.875 22.6562ZM50.9277 3.61328L50.9277-9.32617Q50.9277-12.2559 49.4385-13.4766Q47.9492-14.6973 45.5566-14.6973L39.4531-14.6973Q34.7168-14.6973 32.251-17.0898Q29.7852-19.4824 29.7852-24.3652L29.7852-61.4258Q29.7852-66.3086 32.251-68.7012Q34.7168-71.0938 39.4531-71.0938L95.9961-71.0938Q100.732-71.0938 103.198-68.7012Q105.664-66.3086 105.664-61.4258L105.664-24.3652Q105.664-19.4824 103.198-17.0898Q100.732-14.6973 95.9961-14.6973L74.5117-14.6973Q71.5332-14.6973 69.8242-13.8916Q68.1152-13.0859 65.8691-10.8887ZM47.3145-42.8711Q47.3145-39.9902 49.1699-38.0615Q51.0254-36.1328 53.8574-36.1328L60.9863-36.1328L60.9863-28.9551Q60.9863-26.1719 62.9395-24.3164Q64.8926-22.4609 67.7246-22.4609Q70.6055-22.4609 72.5586-24.3164Q74.5117-26.1719 74.5117-28.9551L74.5117-36.1328L81.6895-36.1328Q84.4727-36.1328 86.3281-38.0615Q88.1836-39.9902 88.1836-42.8711Q88.1836-45.752 86.3281-47.6807Q84.4727-49.6094 81.6895-49.6094L74.5117-49.6094L74.5117-56.7871Q74.5117-59.6191 72.5586-61.4746Q70.6055-63.3301 67.7246-63.3301Q64.8926-63.3301 62.9395-61.4746Q60.9863-59.6191 60.9863-56.7871L60.9863-49.6094L53.8574-49.6094Q51.0254-49.6094 49.1699-47.6807Q47.3145-45.752 47.3145-42.8711Z"/>
  </g>
  <g id="Heavy-M" transform="matrix(1 0 0 1 2569.31 1126)">
   <path d="M45.8496 21.6309Q48.6816 21.6309 51.3428 20.3613Q54.0039 19.0918 57.4707 16.0645L73.7793 1.9043L97.5098 1.9043Q105.127 1.9043 110.693-1.14746Q116.26-4.19922 119.287-9.76562Q122.314-15.332 122.314-22.9004L122.314-62.2559Q122.314-69.8242 119.287-75.3906Q116.26-80.957 110.693-84.0088Q105.127-87.0605 97.5098-87.0605L37.207-87.0605Q29.6387-87.0605 24.0723-84.0088Q18.5059-80.957 15.4785-75.3906Q12.4512-69.8242 12.4512-62.2559L12.4512-22.9004Q12.4512-15.332 15.6006-9.76562Q18.75-4.19922 24.0723-1.14746Q29.3945 1.9043 35.8887 1.9043L36.8164 1.9043L36.8164 11.8164Q36.8164 16.4062 39.2334 19.0186Q41.6504 21.6309 45.8496 21.6309ZM49.4141 4.98047L49.4141-8.25195Q49.4141-10.9375 48.0713-12.0605Q46.7285-13.1836 44.4336-13.1836L38.3789-13.1836Q33.0078-13.1836 30.2734-15.8936Q27.5391-18.6035 27.5391-24.0234L27.5391-61.1328Q27.5391-66.5527 30.2734-69.2627Q33.0078-71.9727 38.3789-71.9727L96.3867-71.9727Q101.758-71.9727 104.492-69.2627Q107.227-66.5527 107.227-61.1328L107.227-24.0234Q107.227-18.6035 104.492-15.8936Q101.758-13.1836 96.3867-13.1836L72.5098-13.1836Q69.7754-13.1836 68.1641-12.4756Q66.5527-11.7676 64.502-9.76562ZM46.7285-42.5293Q46.7285-39.8926 48.4131-38.1592Q50.0977-36.4258 52.7344-36.4258L61.2793-36.4258L61.2793-27.7832Q61.2793-25.2441 63.0371-23.5596Q64.7949-21.875 67.3828-21.875Q70.0195-21.875 71.7773-23.5596Q73.5352-25.2441 73.5352-27.7832L73.5352-36.4258L82.1777-36.4258Q84.7168-36.4258 86.4258-38.1592Q88.1348-39.8926 88.1348-42.5293Q88.1348-45.166 86.4258-46.8994Q84.7168-48.6328 82.1777-48.6328L73.5352-48.6328L73.5352-57.2754Q73.5352-59.8633 71.7773-61.5479Q70.0195-63.2324 67.3828-63.2324Q64.7949-63.2324 63.0371-61.5479Q61.2793-59.8633 61.2793-57.2754L61.2793-48.6328L52.7344-48.6328Q50.0977-48.6328 48.4131-46.8994Q46.7285-45.166 46.7285-42.5293Z"/>
  </g>
  <g id="Bold-M" transform="matrix(1 0 0 1 2272.99 1126)">
   <path d="M44.6777 20.5566Q47.168 20.5566 49.4385 19.3848Q51.709 18.2129 54.7363 15.5273L71.2402 1.07422L97.6074 1.07422Q105.078 1.07422 110.449-1.83105Q115.82-4.73633 118.677-10.1074Q121.533-15.4785 121.533-22.9004L121.533-61.5723Q121.533-68.9941 118.677-74.3652Q115.82-79.7363 110.449-82.6416Q105.078-85.5469 97.6074-85.5469L36.377-85.5469Q28.9062-85.5469 23.5596-82.6416Q18.2129-79.7363 15.332-74.3652Q12.4512-68.9941 12.4512-61.5723L12.4512-22.9004Q12.4512-15.4785 15.4053-10.1074Q18.3594-4.73633 23.5596-1.83105Q28.7598 1.07422 35.5469 1.07422L36.9629 1.07422L36.9629 11.9629Q36.9629 15.918 39.0137 18.2373Q41.0645 20.5566 44.6777 20.5566ZM47.7051 6.54297L47.7051-7.03125Q47.7051-9.47266 46.5576-10.498Q45.4102-11.5234 43.2129-11.5234L37.1582-11.5234Q31.0547-11.5234 28.0518-14.5752Q25.0488-17.627 25.0488-23.6328L25.0488-60.8398Q25.0488-66.8457 28.0518-69.8975Q31.0547-72.9492 37.1582-72.9492L96.875-72.9492Q102.93-72.9492 105.933-69.8975Q108.936-66.8457 108.936-60.8398L108.936-23.6328Q108.936-17.627 105.933-14.5752Q102.93-11.5234 96.875-11.5234L70.3125-11.5234Q67.7734-11.5234 66.2842-10.9131Q64.7949-10.3027 62.9883-8.49609ZM46.0449-42.1875Q46.0449-39.8926 47.5586-38.3545Q49.0723-36.8164 51.416-36.8164L61.6211-36.8164L61.6211-26.5625Q61.6211-24.2676 63.1592-22.7783Q64.6973-21.2891 66.9922-21.2891Q69.3359-21.2891 70.8984-22.7783Q72.4609-24.2676 72.4609-26.5625L72.4609-36.8164L82.7148-36.8164Q85.0098-36.8164 86.5234-38.3545Q88.0371-39.8926 88.0371-42.1875Q88.0371-44.5801 86.5234-46.1182Q85.0098-47.6562 82.7148-47.6562L72.4609-47.6562L72.4609-57.8613Q72.4609-60.2051 70.8984-61.7188Q69.3359-63.2324 66.9922-63.2324Q64.6973-63.2324 63.1592-61.7188Q61.6211-60.2051 61.6211-57.8613L61.6211-47.6562L51.416-47.6562Q49.0723-47.6562 47.5586-46.1182Q46.0449-44.5801 46.0449-42.1875Z"/>
  </g>
  <g id="Semibold-M" transform="matrix(1 0 0 1 1976.54 1126)">
   <path d="M43.8965 19.7754Q46.1426 19.7754 48.1201 18.6768Q50.0977 17.5781 52.832 15.1367L69.4336 0.488281L97.6074 0.488281Q105.029 0.488281 110.254-2.29492Q115.479-5.07812 118.237-10.3027Q120.996-15.5273 120.996-22.8516L120.996-61.084Q120.996-68.4082 118.237-73.6328Q115.479-78.8574 110.254-81.665Q105.029-84.4727 97.6074-84.4727L35.791-84.4727Q28.418-84.4727 23.1934-81.665Q17.9688-78.8574 15.21-73.6328Q12.4512-68.4082 12.4512-61.084L12.4512-22.8516Q12.4512-15.5273 15.2588-10.3027Q18.0664-5.07812 23.1934-2.29492Q28.3203 0.488281 35.2539 0.488281L37.0117 0.488281L37.0117 12.0605Q37.0117 15.5762 38.8428 17.6758Q40.6738 19.7754 43.8965 19.7754ZM46.5332 7.61719L46.5332-6.15234Q46.5332-8.44727 45.4834-9.39941Q44.4336-10.3516 42.334-10.3516L36.2793-10.3516Q29.7363-10.3516 26.5381-13.623Q23.3398-16.8945 23.3398-23.3887L23.3398-60.6445Q23.3398-67.041 26.5381-70.3125Q29.7363-73.584 36.2793-73.584L97.168-73.584Q103.711-73.584 106.909-70.3125Q110.107-67.041 110.107-60.6445L110.107-23.3887Q110.107-16.8945 106.909-13.623Q103.711-10.3516 97.168-10.3516L68.75-10.3516Q66.4062-10.3516 64.9902-9.81445Q63.5742-9.27734 61.9629-7.56836ZM45.6055-41.9434Q45.6055-39.8438 46.9971-38.4521Q48.3887-37.0605 50.5371-37.0605L61.8652-37.0605L61.8652-25.6836Q61.8652-23.584 63.2324-22.2168Q64.5996-20.8496 66.6992-20.8496Q68.8965-20.8496 70.3125-22.2168Q71.7285-23.584 71.7285-25.6836L71.7285-37.0605L83.0566-37.0605Q85.2051-37.0605 86.5967-38.4521Q87.9883-39.8438 87.9883-41.9434Q87.9883-44.1406 86.5967-45.5322Q85.2051-46.9238 83.0566-46.9238L71.7285-46.9238L71.7285-58.2031Q71.7285-60.4004 70.3125-61.792Q68.8965-63.1836 66.6992-63.1836Q64.5996-63.1836 63.2324-61.792Q61.8652-60.4004 61.8652-58.2031L61.8652-46.9238L50.5371-46.9238Q48.3398-46.9238 46.9727-45.5322Q45.6055-44.1406 45.6055-41.9434Z"/>
  </g>
  <g id="Medium-M" transform="matrix(1 0 0 1 1680.03 1126)">
   <path d="M43.2617 19.1895Q45.3125 19.1895 47.0947 18.1396Q48.877 17.0898 51.416 14.8926L68.1152 0.0976562L97.6562 0.0976562Q105.029 0.0976562 110.132-2.63672Q115.234-5.37109 117.92-10.4736Q120.605-15.5762 120.605-22.8516L120.605-60.7422Q120.605-68.0176 117.92-73.1201Q115.234-78.2227 110.132-80.9326Q105.029-83.6426 97.6562-83.6426L35.4004-83.6426Q28.0273-83.6426 22.9004-80.9326Q17.7734-78.2227 15.1123-73.1201Q12.4512-68.0176 12.4512-60.7422L12.4512-22.8516Q12.4512-15.5762 15.1611-10.4736Q17.8711-5.37109 22.9248-2.63672Q27.9785 0.0976562 35.0586 0.0976562L37.0605 0.0976562L37.0605 12.1094Q37.0605 15.332 38.6963 17.2607Q40.332 19.1895 43.2617 19.1895ZM45.6543 8.39844L45.6543-5.51758Q45.6543-7.71484 44.7021-8.59375Q43.75-9.47266 41.6504-9.47266L35.6445-9.47266Q28.7109-9.47266 25.3662-12.9395Q22.0215-16.4062 22.0215-23.1445L22.0215-60.4492Q22.0215-67.1875 25.3662-70.6543Q28.7109-74.1211 35.6445-74.1211L97.4121-74.1211Q104.297-74.1211 107.666-70.6543Q111.035-67.1875 111.035-60.4492L111.035-23.1445Q111.035-16.4062 107.666-12.9395Q104.297-9.47266 97.4121-9.47266L67.5781-9.47266Q65.3809-9.47266 64.0137-8.98438Q62.6465-8.49609 61.1328-6.93359ZM45.2148-41.748Q45.2148-39.7949 46.5088-38.5254Q47.8027-37.2559 49.8535-37.2559L61.9629-37.2559L61.9629-25.0488Q61.9629-23.0469 63.2324-21.7773Q64.502-20.5078 66.4551-20.5078Q68.5059-20.5078 69.8242-21.7773Q71.1426-23.0469 71.1426-25.0488L71.1426-37.2559L83.3008-37.2559Q85.3027-37.2559 86.5967-38.5254Q87.8906-39.7949 87.8906-41.748Q87.8906-43.7988 86.5967-45.0928Q85.3027-46.3867 83.3008-46.3867L71.1426-46.3867L71.1426-58.4961Q71.1426-60.5957 69.8242-61.8652Q68.5059-63.1348 66.4551-63.1348Q64.502-63.1348 63.2324-61.8652Q61.9629-60.5957 61.9629-58.4961L61.9629-46.3867L49.8535-46.3867Q47.7539-46.3867 46.4844-45.0928Q45.2148-43.7988 45.2148-41.748Z"/>
  </g>
  <g id="Regular-M" transform="matrix(1 0 0 1 1383.58 1126)">
   <path d="M42.4805 18.4082Q44.2871 18.4082 45.8008 17.4316Q47.3145 16.4551 49.5117 14.502L66.3574-0.488281L97.7051-0.488281Q104.98-0.488281 109.961-3.10059Q114.941-5.71289 117.505-10.6934Q120.068-15.6738 120.068-22.8516L120.068-60.2539Q120.068-67.4316 117.505-72.4121Q114.941-77.3926 109.961-80.0049Q104.98-82.6172 97.7051-82.6172L34.8145-82.6172Q27.5391-82.6172 22.5586-80.0049Q17.5781-77.3926 15.0146-72.4121Q12.4512-67.4316 12.4512-60.2539L12.4512-22.8516Q12.4512-15.6738 15.0146-10.6934Q17.5781-5.71289 22.5586-3.10059Q27.5391-0.488281 34.8145-0.488281L37.1582-0.488281L37.1582 12.207Q37.1582 15.0391 38.5498 16.7236Q39.9414 18.4082 42.4805 18.4082ZM44.4824 9.47266L44.4824-4.6875Q44.4824-6.68945 43.6523-7.51953Q42.8223-8.34961 40.8203-8.34961L34.8145-8.34961Q27.3926-8.34961 23.8525-12.0361Q20.3125-15.7227 20.3125-22.9004L20.3125-60.2539Q20.3125-67.3828 23.8525-71.0693Q27.3926-74.7559 34.8145-74.7559L97.7051-74.7559Q105.078-74.7559 108.643-71.0693Q112.207-67.3828 112.207-60.2539L112.207-22.9004Q112.207-15.7227 108.643-12.0361Q105.078-8.34961 97.7051-8.34961L66.0645-8.34961Q64.0137-8.34961 62.7441-7.91016Q61.4746-7.4707 60.1074-6.05469ZM44.7754-41.5039Q44.7754-39.7461 45.9473-38.623Q47.1191-37.5 48.9746-37.5L62.207-37.5L62.207-24.1699Q62.207-22.3633 63.3301-21.2158Q64.4531-20.0684 66.2109-20.0684Q68.0664-20.0684 69.2383-21.2158Q70.4102-22.3633 70.4102-24.1699L70.4102-37.5L83.6914-37.5Q85.498-37.5 86.6699-38.623Q87.8418-39.7461 87.8418-41.5039Q87.8418-43.3594 86.6699-44.5068Q85.498-45.6543 83.6914-45.6543L70.4102-45.6543L70.4102-58.8867Q70.4102-60.791 69.2383-61.9385Q68.0664-63.0859 66.2109-63.0859Q64.4531-63.0859 63.3301-61.9385Q62.207-60.791 62.207-58.8867L62.207-45.6543L48.9746-45.6543Q47.0703-45.6543 45.9229-44.5068Q44.7754-43.3594 44.7754-41.5039Z"/>
  </g>
  <g id="Light-M" transform="matrix(1 0 0 1 1087.68 1126)">
   <path d="M40.4785 17.1875Q41.8945 17.1875 43.0664 16.4307Q44.2383 15.6738 45.8496 14.2578L62.9883-0.830078L97.7051-0.830078Q104.346-0.830078 108.96-3.2959Q113.574-5.76172 116.016-10.376Q118.457-14.9902 118.457-21.5332L118.457-60.791Q118.457-67.334 116.016-71.9727Q113.574-76.6113 108.96-79.0771Q104.346-81.543 97.7051-81.543L33.2031-81.543Q26.5625-81.543 21.9238-79.0771Q17.2852-76.6113 14.8682-71.9971Q12.4512-67.3828 12.4512-60.791L12.4512-21.5332Q12.4512-14.9902 14.8682-10.3516Q17.2852-5.71289 21.9238-3.27148Q26.5625-0.830078 33.2031-0.830078L36.3281-0.830078L36.3281 12.3535Q36.3281 14.5508 37.4268 15.8691Q38.5254 17.1875 40.4785 17.1875ZM41.9922 10.3516L41.9922-4.00391Q41.9922-5.51758 41.333-6.17676Q40.6738-6.83594 39.1113-6.83594L33.2031-6.83594Q25.9766-6.83594 22.2412-10.6934Q18.5059-14.5508 18.5059-21.6309L18.5059-60.791Q18.5059-67.8223 22.2412-71.6553Q25.9766-75.4883 33.2031-75.4883L97.6562-75.4883Q104.834-75.4883 108.618-71.6553Q112.402-67.8223 112.402-60.791L112.402-21.6309Q112.402-14.5508 108.618-10.6934Q104.834-6.83594 97.6562-6.83594L62.9883-6.83594Q61.3281-6.83594 60.2783-6.46973Q59.2285-6.10352 58.0566-4.88281ZM44.2383-41.1621Q44.2383-39.8438 45.1416-38.9648Q46.0449-38.0859 47.4609-38.0859L62.3535-38.0859L62.3535-23.1445Q62.3535-21.7773 63.208-20.8984Q64.0625-20.0195 65.3809-20.0195Q66.7969-20.0195 67.7246-20.8984Q68.6523-21.7773 68.6523-23.1445L68.6523-38.0859L83.5449-38.0859Q84.9121-38.0859 85.8154-38.9648Q86.7188-39.8438 86.7188-41.1621Q86.7188-42.5781 85.8154-43.4814Q84.9121-44.3848 83.5449-44.3848L68.6523-44.3848L68.6523-59.2285Q68.6523-60.6934 67.7246-61.5723Q66.7969-62.4512 65.3809-62.4512Q64.0625-62.4512 63.208-61.5723Q62.3535-60.6934 62.3535-59.2285L62.3535-44.3848L47.4609-44.3848Q45.9961-44.3848 45.1172-43.4814Q44.2383-42.5781 44.2383-41.1621Z"/>
  </g>
  <g id="Thin-M" transform="matrix(1 0 0 1 792.042 1126)">
   <path d="M37.793 15.5762Q38.7207 15.5762 39.4287 15.1123Q40.1367 14.6484 41.0156 13.916L58.5938-1.2207L97.7051-1.2207Q103.467-1.2207 107.642-3.49121Q111.816-5.76172 114.062-9.93652Q116.309-14.1113 116.309-19.7754L116.309-61.5234Q116.309-67.2363 114.062-71.4111Q111.816-75.5859 107.642-77.8564Q103.467-80.127 97.7051-80.127L31.0547-80.127Q25.293-80.127 21.1182-77.8564Q16.9434-75.5859 14.6973-71.4355Q12.4512-67.2852 12.4512-61.5234L12.4512-19.7754Q12.4512-14.0625 14.6973-9.91211Q16.9434-5.76172 21.1182-3.49121Q25.293-1.2207 31.0547-1.2207L35.2051-1.2207L35.2051 12.5488Q35.2051 13.9648 35.9375 14.7705Q36.6699 15.5762 37.793 15.5762ZM38.623 11.5234L38.623-3.125Q38.623-4.00391 38.2324-4.41895Q37.8418-4.83398 36.8652-4.83398L31.1035-4.83398Q24.1211-4.83398 20.1172-8.88672Q16.1133-12.9395 16.1133-19.9219L16.1133-61.4258Q16.1133-68.4082 20.1172-72.4365Q24.1211-76.4648 31.1035-76.4648L97.6074-76.4648Q104.492-76.4648 108.569-72.4365Q112.646-68.4082 112.646-61.4258L112.646-19.9219Q112.646-12.9395 108.569-8.88672Q104.492-4.83398 97.6074-4.83398L58.9844-4.83398Q57.8125-4.83398 57.0557-4.54102Q56.2988-4.24805 55.3711-3.36914ZM43.5547-40.6738Q43.5547-39.9414 44.1162-39.4043Q44.6777-38.8672 45.459-38.8672L62.5488-38.8672L62.5488-21.7773Q62.5488-20.9961 63.0859-20.4346Q63.623-19.873 64.3555-19.873Q65.1855-19.873 65.7715-20.4102Q66.3574-20.9473 66.3574-21.7773L66.3574-38.8672L83.3984-38.8672Q84.1797-38.8672 84.7412-39.4043Q85.3027-39.9414 85.3027-40.6738Q85.3027-41.5039 84.7656-42.0654Q84.2285-42.627 83.3984-42.627L66.3574-42.627L66.3574-59.668Q66.3574-60.5469 65.7715-61.084Q65.1855-61.6211 64.3555-61.6211Q63.623-61.6211 63.0859-61.0596Q62.5488-60.498 62.5488-59.668L62.5488-42.627L45.459-42.627Q44.6289-42.627 44.0918-42.0654Q43.5547-41.5039 43.5547-40.6738Z"/>
  </g>
  <g id="Ultralight-M" transform="matrix(1 0 0 1 495.893 1126)">
   <path d="M36.4258 14.7461Q37.0605 14.7461 37.5488 14.4287Q38.0371 14.1113 38.5742 13.7207L56.2988-1.46484L97.7051-1.46484Q103.027-1.46484 106.958-3.6377Q110.889-5.81055 113.037-9.74121Q115.186-13.6719 115.186-18.8965L115.186-61.8652Q115.186-67.1387 113.037-71.0938Q110.889-75.0488 106.958-77.2217Q103.027-79.3945 97.7051-79.3945L29.9316-79.3945Q24.6094-79.3945 20.6787-77.2461Q16.748-75.0977 14.5996-71.167Q12.4512-67.2363 12.4512-61.8652L12.4512-18.8965Q12.4512-13.5742 14.5996-9.66797Q16.748-5.76172 20.6787-3.61328Q24.6094-1.46484 29.9316-1.46484L34.668-1.46484L34.668 12.6465Q34.668 13.623 35.2051 14.1846Q35.7422 14.7461 36.4258 14.7461ZM36.9629 12.1094L36.9629-2.63672Q36.9629-3.22266 36.6699-3.51562Q36.377-3.80859 35.7422-3.80859L30.0293-3.80859Q23.1934-3.80859 19.0186-7.9834Q14.8438-12.1582 14.8438-19.043L14.8438-61.8164Q14.8438-68.7012 19.0186-72.8516Q23.1934-77.002 30.0293-77.002L97.5586-77.002Q104.297-77.002 108.545-72.8516Q112.793-68.7012 112.793-61.8164L112.793-19.043Q112.793-12.1582 108.545-7.9834Q104.297-3.80859 97.5586-3.80859L56.8848-3.80859Q55.957-3.80859 55.3711-3.56445Q54.7852-3.32031 53.9551-2.58789ZM43.1641-40.4297Q43.1641-39.9902 43.5303-39.624Q43.8965-39.2578 44.4336-39.2578L62.5977-39.2578L62.5977-21.0938Q62.5977-20.6055 62.9639-20.2148Q63.3301-19.8242 63.7695-19.8242Q64.3066-19.8242 64.7217-20.1904Q65.1367-20.5566 65.1367-21.0938L65.1367-39.2578L83.252-39.2578Q83.7402-39.2578 84.1309-39.624Q84.5215-39.9902 84.5215-40.4297Q84.5215-40.9668 84.1553-41.3574Q83.7891-41.748 83.252-41.748L65.1367-41.748L65.1367-59.9121Q65.1367-60.4492 64.7217-60.8154Q64.3066-61.1816 63.7695-61.1816Q63.3301-61.1816 62.9639-60.791Q62.5977-60.4004 62.5977-59.9121L62.5977-41.748L44.4336-41.748Q43.8477-41.748 43.5059-41.3574Q43.1641-40.9668 43.1641-40.4297Z"/>
  </g>
  <g id="Black-S" transform="matrix(1 0 0 1 2880.28 696)">
   <path d="M36.9141 10.3516Q39.502 10.3516 41.9434 9.25293Q44.3848 8.1543 47.5098 5.46875L60.1074-5.37109L76.3672-5.37109Q82.373-5.37109 86.8896-7.91016Q91.4062-10.4492 93.9453-14.9658Q96.4844-19.4824 96.4844-25.4883L96.4844-57.1289Q96.4844-63.1348 93.9453-67.6514Q91.4062-72.168 86.8896-74.707Q82.373-77.2461 76.3672-77.2461L29.8828-77.2461Q23.877-77.2461 19.3604-74.707Q14.8438-72.168 12.3047-67.6514Q9.76562-63.1348 9.76562-57.1289L9.76562-25.4883Q9.76562-19.4824 12.4268-14.9658Q15.0879-10.4492 19.3604-7.91016Q23.6328-5.37109 28.418-5.37109L28.7109-5.37109L28.7109 1.46484Q28.7109 5.61523 30.9326 7.9834Q33.1543 10.3516 36.9141 10.3516ZM40.2344-5.17578L40.2344-15.2344Q40.2344-17.5781 39.0381-18.5547Q37.8418-19.5312 35.9375-19.5312L31.1523-19.5312Q27.6367-19.5312 25.7812-21.3135Q23.9258-23.0957 23.9258-26.7578L23.9258-55.8594Q23.9258-59.5215 25.7812-61.3037Q27.6367-63.0859 31.1523-63.0859L75.0977-63.0859Q78.6133-63.0859 80.4688-61.3037Q82.3242-59.5215 82.3242-55.8594L82.3242-26.7578Q82.3242-23.0957 80.4688-21.3135Q78.6133-19.5312 75.0977-19.5312L58.8379-19.5312Q56.4453-19.5312 55.1025-18.8721Q53.7598-18.2129 51.9043-16.4551ZM37.207-41.3086Q37.207-39.0137 38.6963-37.4512Q40.1855-35.8887 42.4316-35.8887L47.7051-35.8887L47.7051-30.6152Q47.7051-28.3691 49.2676-26.8799Q50.8301-25.3906 53.125-25.3906Q55.4199-25.3906 56.9824-26.8799Q58.5449-28.3691 58.5449-30.6152L58.5449-35.8887L63.8184-35.8887Q66.0645-35.8887 67.5537-37.4512Q69.043-39.0137 69.043-41.3086Q69.043-43.6035 67.5537-45.166Q66.0645-46.7285 63.8184-46.7285L58.5449-46.7285L58.5449-52.002Q58.5449-54.248 56.9824-55.7373Q55.4199-57.2266 53.125-57.2266Q50.8301-57.2266 49.2676-55.7373Q47.7051-54.248 47.7051-52.002L47.7051-46.7285L42.4316-46.7285Q40.1855-46.7285 38.6963-45.166Q37.207-43.6035 37.207-41.3086Z"/>
  </g>
  <g id="Heavy-S" transform="matrix(1 0 0 1 2583.76 696)">
   <path d="M36.2793 9.66797Q38.6719 9.66797 40.8447 8.61816Q43.0176 7.56836 45.8496 5.07812L58.5938-5.95703L76.416-5.95703Q82.4219-5.95703 86.8408-8.39844Q91.2598-10.8398 93.6768-15.2588Q96.0938-19.6777 96.0938-25.6348L96.0938-56.543Q96.0938-62.5 93.6768-66.9189Q91.2598-71.3379 86.8408-73.7793Q82.4219-76.2207 76.416-76.2207L29.4434-76.2207Q23.4375-76.2207 19.043-73.7793Q14.6484-71.3379 12.207-66.9189Q9.76562-62.5 9.76562-56.543L9.76562-25.6348Q9.76562-19.6777 12.2803-15.2588Q14.7949-10.8398 19.0186-8.39844Q23.2422-5.95703 28.3203-5.95703L28.9062-5.95703L28.9062 1.5625Q28.9062 5.32227 30.8838 7.49512Q32.8613 9.66797 36.2793 9.66797ZM39.2578-4.10156L39.2578-14.4043Q39.2578-16.6016 38.1592-17.5293Q37.0605-18.457 35.2051-18.457L30.4199-18.457Q26.3672-18.457 24.3164-20.4834Q22.2656-22.5098 22.2656-26.6113L22.2656-55.5664Q22.2656-59.668 24.3164-61.6943Q26.3672-63.7207 30.4199-63.7207L75.4395-63.7207Q79.541-63.7207 81.5918-61.6943Q83.6426-59.668 83.6426-55.5664L83.6426-26.6113Q83.6426-22.5098 81.5918-20.4834Q79.541-18.457 75.4395-18.457L57.5195-18.457Q55.2734-18.457 53.9795-17.8467Q52.6855-17.2363 51.0254-15.625ZM36.7676-41.0645Q36.7676-38.916 38.1592-37.5Q39.5508-36.084 41.6504-36.084L47.9492-36.084L47.9492-29.7852Q47.9492-27.6855 49.3652-26.2939Q50.7812-24.9023 52.9297-24.9023Q55.0781-24.9023 56.5186-26.2939Q57.959-27.6855 57.959-29.7852L57.959-36.084L64.2578-36.084Q66.3574-36.084 67.7246-37.5Q69.0918-38.916 69.0918-41.0645Q69.0918-43.2129 67.7246-44.6533Q66.3574-46.0938 64.2578-46.0938L57.959-46.0938L57.959-52.3926Q57.959-54.4922 56.5186-55.8594Q55.0781-57.2266 52.9297-57.2266Q50.7812-57.2266 49.3652-55.8594Q47.9492-54.4922 47.9492-52.3926L47.9492-46.0938L41.6504-46.0938Q39.5508-46.0938 38.1592-44.6533Q36.7676-43.2129 36.7676-41.0645Z"/>
  </g>
  <g id="Bold-S" transform="matrix(1 0 0 1 2287.24 696)">
   <path d="M35.5957 8.88672Q37.6953 8.88672 39.5752 7.91016Q41.4551 6.93359 44.043 4.6875L56.8848-6.64062L76.4648-6.64062Q82.4707-6.64062 86.7676-8.95996Q91.0645-11.2793 93.3838-15.5762Q95.7031-19.873 95.7031-25.8301L95.7031-55.8594Q95.7031-61.8164 93.3838-66.1133Q91.0645-70.4102 86.7676-72.7539Q82.4707-75.0977 76.4648-75.0977L29.0039-75.0977Q22.998-75.0977 18.7012-72.7539Q14.4043-70.4102 12.085-66.1133Q9.76562-61.8164 9.76562-55.8594L9.76562-25.8301Q9.76562-19.873 12.1338-15.5762Q14.502-11.2793 18.6768-8.95996Q22.8516-6.64062 28.2715-6.64062L29.1016-6.64062L29.1016 1.66016Q29.1016 5.0293 30.835 6.95801Q32.5684 8.88672 35.5957 8.88672ZM38.1836-2.92969L38.1836-13.4277Q38.1836-15.5273 37.207-16.3818Q36.2305-17.2363 34.375-17.2363L29.6387-17.2363Q24.9023-17.2363 22.6318-19.5312Q20.3613-21.8262 20.3613-26.4648L20.3613-55.2246Q20.3613-59.8633 22.6318-62.1582Q24.9023-64.4531 29.6387-64.4531L75.8301-64.4531Q80.5664-64.4531 82.8369-62.1582Q85.1074-59.8633 85.1074-55.2246L85.1074-26.4648Q85.1074-21.8262 82.8369-19.5312Q80.5664-17.2363 75.8301-17.2363L56.0547-17.2363Q53.9551-17.2363 52.7344-16.7236Q51.5137-16.2109 50-14.6973ZM36.2793-40.8203Q36.2793-38.8672 37.5488-37.5977Q38.8184-36.3281 40.7715-36.3281L48.1934-36.3281L48.1934-28.8574Q48.1934-26.9043 49.4873-25.6592Q50.7812-24.4141 52.7344-24.4141Q54.6875-24.4141 55.9814-25.6592Q57.2754-26.9043 57.2754-28.8574L57.2754-36.3281L64.7461-36.3281Q66.6992-36.3281 67.9443-37.5977Q69.1895-38.8672 69.1895-40.8203Q69.1895-42.8223 67.9443-44.1162Q66.6992-45.4102 64.7461-45.4102L57.2754-45.4102L57.2754-52.832Q57.2754-54.7852 55.9814-56.0547Q54.6875-57.3242 52.7344-57.3242Q50.7812-57.3242 49.4873-56.0547Q48.1934-54.7852 48.1934-52.832L48.1934-45.4102L40.7715-45.4102Q38.8184-45.4102 37.5488-44.1162Q36.2793-42.8223 36.2793-40.8203Z"/>
  </g>
  <g id="Semibold-S" transform="matrix(1 0 0 1 1990.7 696)">
   <path d="M35.1074 8.30078Q37.0605 8.30078 38.7207 7.37305Q40.3809 6.44531 42.7246 4.3457L55.6641-7.08008L76.5137-7.08008Q82.5195-7.08008 86.7188-9.32617Q90.918-11.5723 93.1396-15.7959Q95.3613-20.0195 95.3613-25.9766L95.3613-55.4199Q95.3613-61.3281 93.1396-65.5518Q90.918-69.7754 86.7188-72.0215Q82.5195-74.2676 76.5137-74.2676L28.6621-74.2676Q22.6562-74.2676 18.4326-72.0215Q14.209-69.7754 11.9873-65.5518Q9.76562-61.3281 9.76562-55.4199L9.76562-25.9766Q9.76562-20.0195 12.0361-15.7959Q14.3066-11.5723 18.4326-9.32617Q22.5586-7.08008 28.1738-7.08008L29.248-7.08008L29.248 1.70898Q29.248 4.78516 30.8105 6.54297Q32.373 8.30078 35.1074 8.30078ZM37.4023-2.09961L37.4023-12.793Q37.4023-14.7461 36.499-15.5518Q35.5957-16.3574 33.7891-16.3574L29.0527-16.3574Q23.9258-16.3574 21.4844-18.8721Q19.043-21.3867 19.043-26.3672L19.043-54.9805Q19.043-60.0098 21.4844-62.4756Q23.9258-64.9414 29.0527-64.9414L76.0742-64.9414Q81.25-64.9414 83.667-62.4756Q86.084-60.0098 86.084-54.9805L86.084-26.3672Q86.084-21.3867 83.667-18.8721Q81.25-16.3574 76.0742-16.3574L55.0293-16.3574Q53.0273-16.3574 51.8555-15.8936Q50.6836-15.4297 49.3164-14.0137ZM35.8887-40.625Q35.8887-38.8184 37.0605-37.6221Q38.2324-36.4258 40.1367-36.4258L48.3398-36.4258L48.3398-28.2227Q48.3398-26.3672 49.5117-25.1953Q50.6836-24.0234 52.4902-24.0234Q54.3457-24.0234 55.542-25.1953Q56.7383-26.3672 56.7383-28.2227L56.7383-36.4258L64.9902-36.4258Q66.8457-36.4258 68.0176-37.6221Q69.1895-38.8184 69.1895-40.625Q69.1895-42.4805 68.0176-43.6768Q66.8457-44.873 64.9902-44.873L56.7383-44.873L56.7383-53.0762Q56.7383-54.9805 55.542-56.1523Q54.3457-57.3242 52.4902-57.3242Q50.6836-57.3242 49.5117-56.1523Q48.3398-54.9805 48.3398-53.0762L48.3398-44.873L40.1367-44.873Q38.2324-44.873 37.0605-43.6768Q35.8887-42.4805 35.8887-40.625Z"/>
  </g>
  <g id="Medium-S" transform="matrix(1 0 0 1 1694.09 696)">
   <path d="M34.7656 7.91016Q36.5234 7.91016 38.0615 7.00684Q39.5996 6.10352 41.7969 4.15039L54.7852-7.42188L76.5137-7.42188Q82.5195-7.42188 86.6943-9.61914Q90.8691-11.8164 93.0176-15.9668Q95.166-20.1172 95.166-26.0254L95.166-55.0293Q95.166-60.9863 93.0176-65.1367Q90.8691-69.2871 86.6943-71.4844Q82.5195-73.6816 76.5137-73.6816L28.418-73.6816Q22.4121-73.6816 18.2373-71.4844Q14.0625-69.2871 11.9141-65.1367Q9.76562-60.9863 9.76562-55.0293L9.76562-26.0254Q9.76562-20.1172 11.9385-15.9668Q14.1113-11.8164 18.2373-9.61914Q22.3633-7.42188 28.125-7.42188L29.3457-7.42188L29.3457 1.80664Q29.3457 4.58984 30.7617 6.25Q32.1777 7.91016 34.7656 7.91016ZM36.8164-1.46484L36.8164-12.2559Q36.8164-14.1602 35.9863-14.9414Q35.1562-15.7227 33.3984-15.7227L28.6133-15.7227Q23.1445-15.7227 20.6055-18.3594Q18.0664-20.9961 18.0664-26.2695L18.0664-54.834Q18.0664-60.0586 20.6055-62.6953Q23.1445-65.332 28.6133-65.332L76.3184-65.332Q81.7871-65.332 84.3262-62.6953Q86.8652-60.0586 86.8652-54.834L86.8652-26.2695Q86.8652-20.9961 84.3262-18.3594Q81.7871-15.7227 76.3184-15.7227L54.248-15.7227Q52.3438-15.7227 51.2207-15.3076Q50.0977-14.8926 48.7793-13.5254ZM35.6445-40.5273Q35.6445-38.7695 36.7432-37.6709Q37.8418-36.5723 39.6484-36.5723L48.4863-36.5723L48.4863-27.7344Q48.4863-25.9766 49.585-24.8779Q50.6836-23.7793 52.3926-23.7793Q54.1992-23.7793 55.3223-24.8779Q56.4453-25.9766 56.4453-27.7344L56.4453-36.5723L65.2832-36.5723Q67.041-36.5723 68.1396-37.6709Q69.2383-38.7695 69.2383-40.5273Q69.2383-42.2852 68.1396-43.4082Q67.041-44.5312 65.2832-44.5312L56.4453-44.5312L56.4453-53.3203Q56.4453-55.127 55.3223-56.25Q54.1992-57.373 52.3926-57.373Q50.6836-57.373 49.585-56.25Q48.4863-55.127 48.4863-53.3203L48.4863-44.5312L39.6484-44.5312Q37.8418-44.5312 36.7432-43.4082Q35.6445-42.2852 35.6445-40.5273Z"/>
  </g>
  <g id="Regular-S" transform="matrix(1 0 0 1 1397.53 696)">
   <path d="M34.2773 7.37305Q35.8887 7.37305 37.207 6.51855Q38.5254 5.66406 40.5273 3.85742L53.6133-7.86133L76.5625-7.86133Q82.5684-7.86133 86.6455-9.98535Q90.7227-12.1094 92.7979-16.1865Q94.873-20.2637 94.873-26.1719L94.873-54.5898Q94.873-60.498 92.7979-64.5752Q90.7227-68.6523 86.6455-70.7764Q82.5684-72.9004 76.5625-72.9004L28.0762-72.9004Q22.0703-72.9004 17.9932-70.7764Q13.916-68.6523 11.8408-64.5752Q9.76562-60.498 9.76562-54.5898L9.76562-26.1719Q9.76562-20.2637 11.8408-16.1865Q13.916-12.1094 17.9932-9.98535Q22.0703-7.86133 28.0762-7.86133L29.4922-7.86133L29.4922 1.85547Q29.4922 4.39453 30.7373 5.88379Q31.9824 7.37305 34.2773 7.37305ZM36.084-0.634766L36.084-11.6211Q36.084-13.4277 35.3271-14.1602Q34.5703-14.8926 32.8125-14.8926L28.0762-14.8926Q22.168-14.8926 19.4824-17.7246Q16.7969-20.5566 16.7969-26.1719L16.7969-54.5898Q16.7969-60.2051 19.4824-63.0127Q22.168-65.8203 28.0762-65.8203L76.5625-65.8203Q82.4707-65.8203 85.1562-63.0127Q87.8418-60.2051 87.8418-54.5898L87.8418-26.1719Q87.8418-20.5566 85.1562-17.7246Q82.4707-14.8926 76.5625-14.8926L53.2227-14.8926Q51.4648-14.8926 50.3662-14.5264Q49.2676-14.1602 48.0957-12.8906ZM35.3027-40.332Q35.3027-38.7207 36.3281-37.7197Q37.3535-36.7188 39.0625-36.7188L48.6328-36.7188L48.6328-27.0996Q48.6328-25.4395 49.6338-24.4141Q50.6348-23.3887 52.2461-23.3887Q53.9062-23.3887 54.9316-24.4141Q55.957-25.4395 55.957-27.0996L55.957-36.7188L65.5762-36.7188Q67.2363-36.7188 68.2617-37.7197Q69.2871-38.7207 69.2871-40.332Q69.2871-41.9922 68.2617-43.0176Q67.2363-44.043 65.5762-44.043L55.957-44.043L55.957-53.6133Q55.957-55.3223 54.9316-56.3477Q53.9062-57.373 52.2461-57.373Q50.6348-57.373 49.6338-56.3477Q48.6328-55.3223 48.6328-53.6133L48.6328-44.043L39.0625-44.043Q37.3535-44.043 36.3281-43.0176Q35.3027-41.9922 35.3027-40.332Z"/>
  </g>
  <g id="Light-S" transform="matrix(1 0 0 1 1101.52 696)">
   <path d="M32.4707 6.29883Q33.7402 6.29883 34.79 5.63965Q35.8398 4.98047 37.3047 3.61328L50.6836-8.1543L76.5625-8.1543Q81.9824-8.1543 85.7666-10.1318Q89.5508-12.1094 91.5039-15.8936Q93.457-19.6777 93.457-25L93.457-55.0781Q93.457-60.4004 91.5039-64.1846Q89.5508-67.9688 85.7666-69.9463Q81.9824-71.9238 76.5625-71.9238L26.6602-71.9238Q21.1914-71.9238 17.4316-69.9463Q13.6719-67.9688 11.7188-64.209Q9.76562-60.4492 9.76562-55.0781L9.76562-25Q9.76562-19.6289 11.7188-15.8691Q13.6719-12.1094 17.4316-10.1318Q21.1914-8.1543 26.6602-8.1543L28.7598-8.1543L28.7598 2.00195Q28.7598 3.95508 29.7363 5.12695Q30.7129 6.29883 32.4707 6.29883ZM33.8379 0.146484L33.8379-11.0352Q33.8379-12.4023 33.252-12.9883Q32.666-13.5742 31.2988-13.5742L26.6602-13.5742Q20.8984-13.5742 18.042-16.5283Q15.1855-19.4824 15.1855-25.0488L15.1855-55.0293Q15.1855-60.5957 18.042-63.5498Q20.8984-66.5039 26.6602-66.5039L76.5137-66.5039Q82.2266-66.5039 85.1074-63.5498Q87.9883-60.5957 87.9883-55.0293L87.9883-25.0488Q87.9883-19.4824 85.1074-16.5283Q82.2266-13.5742 76.5137-13.5742L50.5371-13.5742Q49.1211-13.5742 48.2178-13.2568Q47.3145-12.9395 46.2891-11.9141ZM34.8145-39.9902Q34.8145-38.7695 35.6201-37.9883Q36.4258-37.207 37.6953-37.207L48.7305-37.207L48.7305-26.1719Q48.7305-24.9023 49.5117-24.0967Q50.293-23.291 51.5137-23.291Q52.7832-23.291 53.5889-24.0967Q54.3945-24.9023 54.3945-26.1719L54.3945-37.207L65.4297-37.207Q66.6992-37.207 67.5049-37.9883Q68.3105-38.7695 68.3105-39.9902Q68.3105-41.2598 67.5049-42.0654Q66.6992-42.8711 65.4297-42.8711L54.3945-42.8711L54.3945-53.9062Q54.3945-55.1758 53.5889-55.9814Q52.7832-56.7871 51.5137-56.7871Q50.293-56.7871 49.5117-55.9814Q48.7305-55.1758 48.7305-53.9062L48.7305-42.8711L37.6953-42.8711Q36.377-42.8711 35.5957-42.0654Q34.8145-41.2598 34.8145-39.9902Z"/>
  </g>
  <g id="Thin-S" transform="matrix(1 0 0 1 805.763 696)">
   <path d="M30.127 4.83398Q30.9082 4.83398 31.5674 4.44336Q32.2266 4.05273 33.0566 3.32031L46.7773-8.49609L76.5625-8.49609Q81.25-8.49609 84.5947-10.3271Q87.9395-12.1582 89.7461-15.5029Q91.5527-18.8477 91.5527-23.4863L91.5527-55.7129Q91.5527-60.3027 89.7461-63.6719Q87.9395-67.041 84.5947-68.8721Q81.25-70.7031 76.5625-70.7031L24.7559-70.7031Q20.0684-70.7031 16.6992-68.8965Q13.3301-67.0898 11.5479-63.7207Q9.76562-60.3516 9.76562-55.7129L9.76562-23.4863Q9.76562-18.7988 11.5479-15.4541Q13.3301-12.1094 16.6992-10.3027Q20.0684-8.49609 24.7559-8.49609L27.7832-8.49609L27.7832 2.14844Q27.7832 3.41797 28.418 4.12598Q29.0527 4.83398 30.127 4.83398ZM30.9082 1.17188L30.9082-10.2051Q30.9082-11.084 30.542-11.4502Q30.1758-11.8164 29.3457-11.8164L24.8047-11.8164Q19.2383-11.8164 16.1621-14.9414Q13.0859-18.0664 13.0859-23.5352L13.0859-55.6641Q13.0859-61.1328 16.1621-64.2578Q19.2383-67.3828 24.8047-67.3828L76.5137-67.3828Q81.9336-67.3828 85.083-64.2578Q88.2324-61.1328 88.2324-55.6641L88.2324-23.5352Q88.2324-18.0664 85.083-14.9414Q81.9336-11.8164 76.5137-11.8164L46.9727-11.8164Q45.9961-11.8164 45.3369-11.5723Q44.6777-11.3281 43.8965-10.5469ZM34.2285-39.5996Q34.2285-38.916 34.7168-38.4277Q35.2051-37.9395 35.9863-37.9395L48.9258-37.9395L48.9258-24.9512Q48.9258-24.2188 49.4141-23.7305Q49.9023-23.2422 50.5859-23.2422Q51.3672-23.2422 51.8555-23.7305Q52.3438-24.2188 52.3438-24.9512L52.3438-37.9395L65.332-37.9395Q66.0645-37.9395 66.5527-38.4277Q67.041-38.916 67.041-39.5996Q67.041-40.332 66.5771-40.8447Q66.1133-41.3574 65.332-41.3574L52.3438-41.3574L52.3438-54.3457Q52.3438-55.0781 51.8555-55.5664Q51.3672-56.0547 50.5859-56.0547Q49.9023-56.0547 49.4141-55.5664Q48.9258-55.0781 48.9258-54.3457L48.9258-41.3574L35.9863-41.3574Q35.2051-41.3574 34.7168-40.8447Q34.2285-40.332 34.2285-39.5996Z"/>
  </g>
  <g id="Ultralight-S" transform="matrix(1 0 0 1 509.54 696)">
   <path d="M28.9062 4.10156Q29.4922 4.10156 29.9561 3.83301Q30.4199 3.56445 30.8594 3.17383L44.7754-8.69141L76.5625-8.69141Q80.8594-8.69141 84.0088-10.4248Q87.1582-12.1582 88.8672-15.3076Q90.5762-18.457 90.5762-22.6562L90.5762-56.0547Q90.5762-60.2539 88.8672-63.4033Q87.1582-66.5527 84.0088-68.2861Q80.8594-70.0195 76.5625-70.0195L23.7793-70.0195Q19.4824-70.0195 16.333-68.3105Q13.1836-66.6016 11.4746-63.4521Q9.76562-60.3027 9.76562-56.0547L9.76562-22.6562Q9.76562-18.4082 11.4746-15.2588Q13.1836-12.1094 16.333-10.4004Q19.4824-8.69141 23.7793-8.69141L27.2949-8.69141L27.2949 2.24609Q27.2949 3.125 27.7588 3.61328Q28.2227 4.10156 28.9062 4.10156ZM29.3945 1.66016L29.3945-9.81445Q29.3945-10.4004 29.1504-10.6445Q28.9062-10.8887 28.3203-10.8887L23.877-10.8887Q18.4082-10.8887 15.1855-14.1113Q11.9629-17.334 11.9629-22.7539L11.9629-55.957Q11.9629-61.377 15.1855-64.5996Q18.4082-67.8223 23.877-67.8223L76.4648-67.8223Q81.7871-67.8223 85.0586-64.5996Q88.3301-61.377 88.3301-55.957L88.3301-22.7539Q88.3301-17.334 85.0586-14.1113Q81.7871-10.8887 76.4648-10.8887L45.1172-10.8887Q44.3848-10.8887 43.8721-10.6934Q43.3594-10.498 42.627-9.91211ZM33.8867-39.3555Q33.8867-38.916 34.2285-38.5742Q34.5703-38.2324 35.0586-38.2324L48.9746-38.2324L48.9746-24.3164Q48.9746-23.8281 49.3164-23.4863Q49.6582-23.1445 50.0977-23.1445Q50.5859-23.1445 50.9277-23.4863Q51.2695-23.8281 51.2695-24.3164L51.2695-38.2324L65.2344-38.2324Q65.6738-38.2324 66.0156-38.5742Q66.3574-38.916 66.3574-39.3555Q66.3574-39.8438 66.04-40.21Q65.7227-40.5762 65.2344-40.5762L51.2695-40.5762L51.2695-54.4922Q51.2695-54.9805 50.9277-55.3223Q50.5859-55.6641 50.0977-55.6641Q49.6582-55.6641 49.3164-55.3223Q48.9746-54.9805 48.9746-54.4922L48.9746-40.5762L35.0586-40.5762Q34.5215-40.5762 34.2041-40.21Q33.8867-39.8438 33.8867-39.3555Z"/>
  </g>
 </g>
</svg>
