<?xml version="1.0" encoding="UTF-8"?>
<!--Generator: Apple Native CoreSVG 149-->
<!DOCTYPE svg
PUBLIC "-//W3C//DTD SVG 1.1//EN"
       "http://www.w3.org/Graphics/SVG/1.1/DTD/svg11.dtd">
<svg version="1.1" xmlns="http://www.w3.org/2000/svg" xmlns:xlink="http://www.w3.org/1999/xlink" width="3300" height="2200">
 <!--glyph: "uni1010B1.medium", point size: 100.0, font version: "17.0d9e1", template writer version: "59"-->
 <g id="Notes">
  <rect height="2200" id="artboard" style="fill:white;opacity:1" width="3300" x="0" y="0"/>
  <line style="fill:none;stroke:black;opacity:1;stroke-width:0.5;" x1="263" x2="3036" y1="292" y2="292"/>
  <text style="stroke:none;fill:black;font-family:sans-serif;font-size:13;font-weight:bold;" transform="matrix(1 0 0 1 263 322)">Weight/Scale Variations</text>
  <text style="stroke:none;fill:black;font-family:sans-serif;font-size:13;text-anchor:middle;" transform="matrix(1 0 0 1 559.711 322)">Ultralight</text>
  <text style="stroke:none;fill:black;font-family:sans-serif;font-size:13;text-anchor:middle;" transform="matrix(1 0 0 1 856.422 322)">Thin</text>
  <text style="stroke:none;fill:black;font-family:sans-serif;font-size:13;text-anchor:middle;" transform="matrix(1 0 0 1 1153.13 322)">Light</text>
  <text style="stroke:none;fill:black;font-family:sans-serif;font-size:13;text-anchor:middle;" transform="matrix(1 0 0 1 1449.84 322)">Regular</text>
  <text style="stroke:none;fill:black;font-family:sans-serif;font-size:13;text-anchor:middle;" transform="matrix(1 0 0 1 1746.56 322)">Medium</text>
  <text style="stroke:none;fill:black;font-family:sans-serif;font-size:13;text-anchor:middle;" transform="matrix(1 0 0 1 2043.27 322)">Semibold</text>
  <text style="stroke:none;fill:black;font-family:sans-serif;font-size:13;text-anchor:middle;" transform="matrix(1 0 0 1 2339.98 322)">Bold</text>
  <text style="stroke:none;fill:black;font-family:sans-serif;font-size:13;text-anchor:middle;" transform="matrix(1 0 0 1 2636.69 322)">Heavy</text>
  <text style="stroke:none;fill:black;font-family:sans-serif;font-size:13;text-anchor:middle;" transform="matrix(1 0 0 1 2933.4 322)">Black</text>
  <line style="fill:none;stroke:black;opacity:1;stroke-width:0.5;" x1="263" x2="3036" y1="1903" y2="1903"/>
  <g transform="matrix(1 0 0 1 263 1933)">
   <path d="M9.24805 0.830078Q10.8691 0.830078 12.2949 0.214844Q13.7207-0.400391 14.8096-1.49414Q15.8984-2.58789 16.5186-4.01367Q17.1387-5.43945 17.1387-7.05078Q17.1387-8.66211 16.5186-10.0879Q15.8984-11.5137 14.8047-12.6074Q13.7109-13.7012 12.2852-14.3164Q10.8594-14.9316 9.23828-14.9316Q7.62695-14.9316 6.20117-14.3164Q4.77539-13.7012 3.69141-12.6074Q2.60742-11.5137 1.9873-10.0879Q1.36719-8.66211 1.36719-7.05078Q1.36719-5.43945 1.9873-4.01367Q2.60742-2.58789 3.69629-1.49414Q4.78516-0.400391 6.21094 0.214844Q7.63672 0.830078 9.24805 0.830078ZM9.24805-0.654297Q7.91992-0.654297 6.7627-1.14746Q5.60547-1.64062 4.73145-2.51953Q3.85742-3.39844 3.36426-4.56055Q2.87109-5.72266 2.87109-7.05078Q2.87109-8.37891 3.35938-9.54102Q3.84766-10.7031 4.72168-11.582Q5.5957-12.4609 6.75293-12.9541Q7.91016-13.4473 9.23828-13.4473Q10.5762-13.4473 11.7334-12.9541Q12.8906-12.4609 13.7695-11.582Q14.6484-10.7031 15.1465-9.54102Q15.6445-8.37891 15.6445-7.05078Q15.6445-5.72266 15.1514-4.56055Q14.6582-3.39844 13.7842-2.51953Q12.9102-1.64062 11.748-1.14746Q10.5859-0.654297 9.24805-0.654297ZM5.83984-7.04102Q5.83984-6.71875 6.04492-6.51855Q6.25-6.31836 6.5918-6.31836L8.50586-6.31836L8.50586-4.39453Q8.50586-4.0625 8.70605-3.85742Q8.90625-3.65234 9.22852-3.65234Q9.56055-3.65234 9.76562-3.85742Q9.9707-4.0625 9.9707-4.39453L9.9707-6.31836L11.8945-6.31836Q12.2266-6.31836 12.4316-6.51855Q12.6367-6.71875 12.6367-7.04102Q12.6367-7.37305 12.4316-7.57812Q12.2266-7.7832 11.8945-7.7832L9.9707-7.7832L9.9707-9.69727Q9.9707-10.0391 9.76562-10.2441Q9.56055-10.4492 9.22852-10.4492Q8.90625-10.4492 8.70605-10.2441Q8.50586-10.0391 8.50586-9.69727L8.50586-7.7832L6.5918-7.7832Q6.25-7.7832 6.04492-7.57812Q5.83984-7.37305 5.83984-7.04102Z"/>
  </g>
  <g transform="matrix(1 0 0 1 281.867 1933)">
   <path d="M11.709 2.91016Q13.75 2.91016 15.5518 2.12891Q17.3535 1.34766 18.7305-0.0292969Q20.1074-1.40625 20.8887-3.20801Q21.6699-5.00977 21.6699-7.05078Q21.6699-9.0918 20.8887-10.8936Q20.1074-12.6953 18.7305-14.0723Q17.3535-15.4492 15.5469-16.2305Q13.7402-17.0117 11.6992-17.0117Q9.6582-17.0117 7.85645-16.2305Q6.05469-15.4492 4.68262-14.0723Q3.31055-12.6953 2.5293-10.8936Q1.74805-9.0918 1.74805-7.05078Q1.74805-5.00977 2.5293-3.20801Q3.31055-1.40625 4.6875-0.0292969Q6.06445 1.34766 7.86621 2.12891Q9.66797 2.91016 11.709 2.91016ZM11.709 1.25Q9.98047 1.25 8.47656 0.605469Q6.97266-0.0390625 5.83496-1.17676Q4.69727-2.31445 4.05762-3.81836Q3.41797-5.32227 3.41797-7.05078Q3.41797-8.7793 4.05762-10.2832Q4.69727-11.7871 5.83008-12.9297Q6.96289-14.0723 8.4668-14.7119Q9.9707-15.3516 11.6992-15.3516Q13.4277-15.3516 14.9316-14.7119Q16.4355-14.0723 17.5781-12.9297Q18.7207-11.7871 19.3652-10.2832Q20.0098-8.7793 20.0098-7.05078Q20.0098-5.32227 19.3701-3.81836Q18.7305-2.31445 17.5928-1.17676Q16.4551-0.0390625 14.9463 0.605469Q13.4375 1.25 11.709 1.25ZM7.39258-7.04102Q7.39258-6.68945 7.62695-6.46484Q7.86133-6.24023 8.23242-6.24023L10.8789-6.24023L10.8789-3.57422Q10.8789-3.21289 11.1035-2.9834Q11.3281-2.75391 11.6797-2.75391Q12.0508-2.75391 12.2852-2.9834Q12.5195-3.21289 12.5195-3.57422L12.5195-6.24023L15.1758-6.24023Q15.5371-6.24023 15.7715-6.46484Q16.0059-6.68945 16.0059-7.04102Q16.0059-7.41211 15.7715-7.6416Q15.5371-7.87109 15.1758-7.87109L12.5195-7.87109L12.5195-10.5176Q12.5195-10.8984 12.2852-11.1279Q12.0508-11.3574 11.6797-11.3574Q11.3281-11.3574 11.1035-11.1279Q10.8789-10.8984 10.8789-10.5176L10.8789-7.87109L8.23242-7.87109Q7.85156-7.87109 7.62207-7.6416Q7.39258-7.41211 7.39258-7.04102Z"/>
  </g>
  <g transform="matrix(1 0 0 1 305.646 1933)">
   <path d="M14.9707 5.66406Q17.0605 5.66406 18.96 5.01465Q20.8594 4.36523 22.4512 3.19336Q24.043 2.02148 25.2197 0.429688Q26.3965-1.16211 27.0459-3.06641Q27.6953-4.9707 27.6953-7.05078Q27.6953-9.14062 27.0459-11.04Q26.3965-12.9395 25.2197-14.5312Q24.043-16.123 22.4512-17.2998Q20.8594-18.4766 18.9551-19.126Q17.0508-19.7754 14.9609-19.7754Q12.8711-19.7754 10.9717-19.126Q9.07227-18.4766 7.48535-17.2998Q5.89844-16.123 4.72168-14.5312Q3.54492-12.9395 2.90039-11.04Q2.25586-9.14062 2.25586-7.05078Q2.25586-4.9707 2.90527-3.06641Q3.55469-1.16211 4.72656 0.429688Q5.89844 2.02148 7.49023 3.19336Q9.08203 4.36523 10.9814 5.01465Q12.8809 5.66406 14.9707 5.66406ZM14.9707 3.84766Q13.1641 3.84766 11.5283 3.2959Q9.89258 2.74414 8.53516 1.74805Q7.17773 0.751953 6.17676-0.610352Q5.17578-1.97266 4.62891-3.6084Q4.08203-5.24414 4.08203-7.05078Q4.08203-8.86719 4.62891-10.5029Q5.17578-12.1387 6.17188-13.501Q7.16797-14.8633 8.52539-15.8594Q9.88281-16.8555 11.5186-17.4023Q13.1543-17.9492 14.9609-17.9492Q16.7773-17.9492 18.4131-17.4023Q20.0488-16.8555 21.4111-15.8594Q22.7734-14.8633 23.7695-13.501Q24.7656-12.1387 25.3174-10.5029Q25.8691-8.86719 25.8691-7.05078Q25.8789-5.24414 25.332-3.6084Q24.7852-1.97266 23.7842-0.610352Q22.7832 0.751953 21.4209 1.74805Q20.0586 2.74414 18.4229 3.2959Q16.7871 3.84766 14.9707 3.84766ZM9.45312-7.04102Q9.45312-6.66016 9.71191-6.41113Q9.9707-6.16211 10.3711-6.16211L14.0625-6.16211L14.0625-2.46094Q14.0625-2.06055 14.3115-1.80664Q14.5605-1.55273 14.9414-1.55273Q15.3516-1.55273 15.6055-1.80664Q15.8594-2.06055 15.8594-2.46094L15.8594-6.16211L19.5605-6.16211Q19.9609-6.16211 20.2148-6.41113Q20.4688-6.66016 20.4688-7.04102Q20.4688-7.45117 20.2148-7.70508Q19.9609-7.95898 19.5605-7.95898L15.8594-7.95898L15.8594-11.6504Q15.8594-12.0605 15.6055-12.3145Q15.3516-12.5684 14.9414-12.5684Q14.5605-12.5684 14.3115-12.3096Q14.0625-12.0508 14.0625-11.6504L14.0625-7.95898L10.3711-7.95898Q9.96094-7.95898 9.70703-7.70508Q9.45312-7.45117 9.45312-7.04102Z"/>
  </g>
  <text style="stroke:none;fill:black;font-family:sans-serif;font-size:13;font-weight:bold;" transform="matrix(1 0 0 1 263 1953)">Design Variations</text>
  <text style="stroke:none;fill:black;font-family:sans-serif;font-size:13;" transform="matrix(1 0 0 1 263 1971)">Symbols are supported in up to nine weights and three scales.</text>
  <text style="stroke:none;fill:black;font-family:sans-serif;font-size:13;" transform="matrix(1 0 0 1 263 1989)">For optimal layout with text and other symbols, vertically align</text>
  <text style="stroke:none;fill:black;font-family:sans-serif;font-size:13;" transform="matrix(1 0 0 1 263 2007)">symbols with the adjacent text.</text>
  <line style="fill:none;stroke:#00AEEF;stroke-width:0.5;opacity:1.0;" x1="776" x2="776" y1="1919" y2="1933"/>
  <g transform="matrix(1 0 0 1 776 1933)">
   <path d="M3.31055 0.15625Q3.70117 0.15625 3.91602-0.00976562Q4.13086-0.175781 4.26758-0.585938L5.52734-4.0332L11.2891-4.0332L12.5488-0.585938Q12.6855-0.175781 12.9004-0.00976562Q13.1152 0.15625 13.4961 0.15625Q13.8867 0.15625 14.1162-0.0585938Q14.3457-0.273438 14.3457-0.644531Q14.3457-0.869141 14.2383-1.17188L9.6582-13.3691Q9.48242-13.8184 9.17969-14.043Q8.87695-14.2676 8.4082-14.2676Q7.5-14.2676 7.17773-13.3789L2.59766-1.16211Q2.49023-0.859375 2.49023-0.634766Q2.49023-0.263672 2.70996-0.0537109Q2.92969 0.15625 3.31055 0.15625ZM6.00586-5.51758L8.37891-12.0898L8.42773-12.0898L10.8008-5.51758Z"/>
  </g>
  <line style="fill:none;stroke:#00AEEF;stroke-width:0.5;opacity:1.0;" x1="793.197" x2="793.197" y1="1919" y2="1933"/>
  <text style="stroke:none;fill:black;font-family:sans-serif;font-size:13;font-weight:bold;" transform="matrix(1 0 0 1 776 1953)">Margins</text>
  <text style="stroke:none;fill:black;font-family:sans-serif;font-size:13;" transform="matrix(1 0 0 1 776 1971)">Leading and trailing margins on the left and right side of each symbol</text>
  <text style="stroke:none;fill:black;font-family:sans-serif;font-size:13;" transform="matrix(1 0 0 1 776 1989)">can be adjusted by modifying the x-location of the margin guidelines.</text>
  <text style="stroke:none;fill:black;font-family:sans-serif;font-size:13;" transform="matrix(1 0 0 1 776 2007)">Modifications are automatically applied proportionally to all</text>
  <text style="stroke:none;fill:black;font-family:sans-serif;font-size:13;" transform="matrix(1 0 0 1 776 2025)">scales and weights.</text>
  <g transform="matrix(1 0 0 1 1289 1933)">
   <path d="M2.8418 1.86523L4.54102 3.57422Q5.18555 4.22852 5.90332 4.17969Q6.62109 4.13086 7.31445 3.35938L18.0078-8.42773L17.041-9.4043L6.42578 2.27539Q6.16211 2.57812 5.89355 2.61719Q5.625 2.65625 5.27344 2.30469L4.10156 1.14258Q3.75 0.791016 3.79395 0.522461Q3.83789 0.253906 4.14062-0.0195312L15.6152-10.8203L14.6387-11.7871L3.04688-0.898438Q2.30469-0.214844 2.25098 0.498047Q2.19727 1.21094 2.8418 1.86523ZM9.25781-16.3281Q8.94531-16.0254 8.90625-15.6348Q8.86719-15.2441 9.04297-14.9512Q9.21875-14.6777 9.55566-14.541Q9.89258-14.4043 10.3809-14.5215Q11.4746-14.7754 12.5977-14.7314Q13.7207-14.6875 14.7949-13.9844L14.209-12.5293Q13.9551-11.9043 14.0674-11.4404Q14.1797-10.9766 14.5801-10.5664L16.875-8.25195Q17.2363-7.88086 17.5781-7.82227Q17.9199-7.76367 18.3398-7.8418L19.4043-8.03711L20.0684-7.36328L20.0293-6.80664Q20-6.43555 20.1221-6.12305Q20.2441-5.81055 20.6055-5.44922L21.3672-4.70703Q21.7285-4.3457 22.1533-4.33105Q22.5781-4.31641 22.9297-4.66797L25.8398-7.58789Q26.1914-7.93945 26.1816-8.35449Q26.1719-8.76953 25.8105-9.13086L25.0391-9.89258Q24.6875-10.2539 24.3799-10.3857Q24.0723-10.5176 23.7109-10.4883L23.1348-10.4395L22.4902-11.0742L22.7344-12.1973Q22.832-12.6172 22.6953-12.9834Q22.5586-13.3496 22.1191-13.7891L19.9219-15.9766Q18.6719-17.2168 17.2607-17.8369Q15.8496-18.457 14.4189-18.4814Q12.9883-18.5059 11.665-17.959Q10.3418-17.4121 9.25781-16.3281ZM10.752-15.957Q11.6602-16.6211 12.7002-16.9043Q13.7402-17.1875 14.8047-17.085Q15.8691-16.9824 16.8701-16.5137Q17.8711-16.0449 18.7012-15.2051L21.1328-12.793Q21.3086-12.6172 21.3525-12.4512Q21.3965-12.2852 21.3379-12.0312L21.0156-10.5469L22.5195-9.0625L23.5059-9.12109Q23.6914-9.13086 23.7891-9.09668Q23.8867-9.0625 24.0332-8.91602L24.6094-8.33984L22.168-5.89844L21.5918-6.47461Q21.4453-6.62109 21.4062-6.71875Q21.3672-6.81641 21.377-7.01172L21.4453-7.98828L19.9512-9.47266L18.4277-9.21875Q18.1836-9.16992 18.042-9.2041Q17.9004-9.23828 17.7148-9.41406L15.7129-11.416Q15.5176-11.5918 15.4932-11.7529Q15.4688-11.9141 15.5859-12.1875L16.4648-14.2773Q15.293-15.3711 13.8281-15.791Q12.3633-16.2109 10.8398-15.7617Q10.7227-15.7324 10.6885-15.8057Q10.6543-15.8789 10.752-15.957Z"/>
  </g>
  <text style="stroke:none;fill:black;font-family:sans-serif;font-size:13;font-weight:bold;" transform="matrix(1 0 0 1 1289 1953)">Exporting</text>
  <text style="stroke:none;fill:black;font-family:sans-serif;font-size:13;" transform="matrix(1 0 0 1 1289 1971)">Symbols should be outlined when exporting to ensure the</text>
  <text style="stroke:none;fill:black;font-family:sans-serif;font-size:13;" transform="matrix(1 0 0 1 1289 1989)">design is preserved when submitting to Xcode.</text>
  <text id="template-version" style="stroke:none;fill:black;font-family:sans-serif;font-size:13;text-anchor:end;" transform="matrix(1 0 0 1 3036 1933)">Template v.2.0</text>
  <text style="stroke:none;fill:black;font-family:sans-serif;font-size:13;text-anchor:end;" transform="matrix(1 0 0 1 3036 1951)">Requires Xcode 13 or greater</text>
  <text id="descriptive-name" style="stroke:none;fill:black;font-family:sans-serif;font-size:13;text-anchor:end;" transform="matrix(1 0 0 1 3036 1969)">Generated from pawprint.circle.fill</text>
  <text style="stroke:none;fill:black;font-family:sans-serif;font-size:13;text-anchor:end;" transform="matrix(1 0 0 1 3036 1987)">Typeset at 100 points</text>
  <text style="stroke:none;fill:black;font-family:sans-serif;font-size:13;" transform="matrix(1 0 0 1 263 726)">Small</text>
  <text style="stroke:none;fill:black;font-family:sans-serif;font-size:13;" transform="matrix(1 0 0 1 263 1156)">Medium</text>
  <text style="stroke:none;fill:black;font-family:sans-serif;font-size:13;" transform="matrix(1 0 0 1 263 1586)">Large</text>
 </g>
 <g id="Guides">
  <g id="H-reference" style="fill:#27AAE1;stroke:none;" transform="matrix(1 0 0 1 339 696)">
   <path d="M0.976562 0L3.66211 0L29.3457-67.1387L30.0293-67.1387L30.0293-70.459L28.125-70.459ZM11.6699-24.4629L46.9727-24.4629L46.2402-26.709L12.4512-26.709ZM55.127 0L57.7637 0L30.6152-70.459L29.4434-70.459L29.4434-67.1387Z"/>
  </g>
  <line id="Baseline-S" style="fill:none;stroke:#27AAE1;opacity:1;stroke-width:0.5;" x1="263" x2="3036" y1="696" y2="696"/>
  <line id="Capline-S" style="fill:none;stroke:#27AAE1;opacity:1;stroke-width:0.5;" x1="263" x2="3036" y1="625.541" y2="625.541"/>
  <g id="H-reference" style="fill:#27AAE1;stroke:none;" transform="matrix(1 0 0 1 339 1126)">
   <path d="M0.976562 0L3.66211 0L29.3457-67.1387L30.0293-67.1387L30.0293-70.459L28.125-70.459ZM11.6699-24.4629L46.9727-24.4629L46.2402-26.709L12.4512-26.709ZM55.127 0L57.7637 0L30.6152-70.459L29.4434-70.459L29.4434-67.1387Z"/>
  </g>
  <line id="Baseline-M" style="fill:none;stroke:#27AAE1;opacity:1;stroke-width:0.5;" x1="263" x2="3036" y1="1126" y2="1126"/>
  <line id="Capline-M" style="fill:none;stroke:#27AAE1;opacity:1;stroke-width:0.5;" x1="263" x2="3036" y1="1055.54" y2="1055.54"/>
  <g id="H-reference" style="fill:#27AAE1;stroke:none;" transform="matrix(1 0 0 1 339 1556)">
   <path d="M0.976562 0L3.66211 0L29.3457-67.1387L30.0293-67.1387L30.0293-70.459L28.125-70.459ZM11.6699-24.4629L46.9727-24.4629L46.2402-26.709L12.4512-26.709ZM55.127 0L57.7637 0L30.6152-70.459L29.4434-70.459L29.4434-67.1387Z"/>
  </g>
  <line id="Baseline-L" style="fill:none;stroke:#27AAE1;opacity:1;stroke-width:0.5;" x1="263" x2="3036" y1="1556" y2="1556"/>
  <line id="Capline-L" style="fill:none;stroke:#27AAE1;opacity:1;stroke-width:0.5;" x1="263" x2="3036" y1="1485.54" y2="1485.54"/>
  <line id="left-margin" style="fill:none;stroke:#00AEEF;stroke-width:0.5;opacity:1.0;" x1="1391.3" x2="1391.3" y1="1030.79" y2="1150.12"/>
  <line id="right-margin" style="fill:none;stroke:#00AEEF;stroke-width:0.5;opacity:1.0;" x1="1508.39" x2="1508.39" y1="1030.79" y2="1150.12"/>
 </g>
 <g id="Symbols">
  <g id="Black-L" transform="matrix(1 0 0 1 2854.05 1556)">
   <path d="M79.3457 32.8613Q90.5762 32.8613 100.757 29.3945Q110.938 25.9277 119.458 19.6777Q127.979 13.4277 134.229 4.90723Q140.479-3.61328 143.945-13.7939Q147.412-23.9746 147.412-35.2051Q147.412-46.4355 143.945-56.6162Q140.479-66.7969 134.204-75.3174Q127.93-83.8379 119.434-90.1123Q110.938-96.3867 100.732-99.8291Q90.5273-103.271 79.2969-103.271Q68.1152-103.271 57.9102-99.8291Q47.7051-96.3867 39.209-90.1123Q30.7129-83.8379 24.4385-75.3174Q18.1641-66.7969 14.7217-56.6162Q11.2793-46.4355 11.2793-35.2051Q11.2793-23.9746 14.7217-13.7939Q18.1641-3.61328 24.4385 4.90723Q30.7129 13.4277 39.2334 19.6777Q47.7539 25.9277 57.9346 29.3945Q68.1152 32.8613 79.3457 32.8613ZM46.5332-39.5996Q46.5332-44.1895 48.9014-47.4854Q51.2695-50.7812 54.5898-50.7812Q57.959-50.7812 60.3027-47.4854Q62.6465-44.1895 62.6465-39.5996Q62.6465-34.9121 60.3027-31.6162Q57.959-28.3203 54.5898-28.3203Q51.2695-28.3203 48.9014-31.6162Q46.5332-34.9121 46.5332-39.5996ZM61.377-57.2754Q61.377-61.9629 63.7207-65.2344Q66.0645-68.5059 69.3848-68.5059Q72.7539-68.5059 75.1221-65.2344Q77.4902-61.9629 77.4902-57.2754Q77.4902-52.6855 75.1221-49.3896Q72.7539-46.0938 69.3848-46.0938Q66.0645-46.0938 63.7207-49.3896Q61.377-52.6855 61.377-57.2754ZM81.0547-57.2754Q81.0547-61.9629 83.4229-65.2344Q85.791-68.5059 89.1602-68.5059Q92.5293-68.5059 94.8486-65.2344Q97.168-61.9629 97.168-57.2754Q97.168-52.6855 94.8242-49.3896Q92.4805-46.0938 89.1602-46.0938Q85.791-46.0938 83.4229-49.3896Q81.0547-52.6855 81.0547-57.2754ZM95.9473-39.5996Q95.9473-44.1895 98.291-47.4854Q100.635-50.7812 104.004-50.7812Q107.324-50.7812 109.692-47.4854Q112.061-44.1895 112.061-39.5996Q112.061-34.9121 109.692-31.6162Q107.324-28.3203 104.004-28.3203Q100.635-28.3203 98.291-31.6162Q95.9473-34.9121 95.9473-39.5996ZM56.3965-16.5527Q56.3965-20.5566 58.3496-22.876Q60.3027-25.1953 62.5-26.9531Q63.623-27.8809 64.7217-28.8574Q65.8203-29.834 66.6016-31.0059Q67.1875-31.9336 67.7246-32.9346Q68.2617-33.9355 68.8477-35.0586Q69.9219-37.3535 71.0693-39.4287Q72.2168-41.5039 74.0967-42.8223Q75.9766-44.1406 79.2969-44.1406Q82.5684-44.1406 84.4727-42.8223Q86.377-41.5039 87.5244-39.4287Q88.6719-37.3535 89.7461-35.0586Q90.2832-33.9355 90.8203-32.9346Q91.3574-31.9336 91.9922-31.0059Q92.7246-29.834 93.8232-28.8574Q94.9219-27.8809 96.0938-26.9531Q98.291-25.1953 100.244-22.876Q102.197-20.5566 102.197-16.5527Q102.197-11.6211 99.2188-8.42285Q96.2402-5.22461 91.4062-5.22461Q89.1113-5.22461 87.3535-5.71289Q85.5957-6.20117 84.1309-6.73828Q82.959-7.12891 81.8115-7.39746Q80.6641-7.66602 79.2969-7.66602Q77.9297-7.66602 76.7822-7.39746Q75.6348-7.12891 74.4629-6.73828Q72.998-6.20117 71.2158-5.71289Q69.4336-5.22461 67.1387-5.22461Q62.3535-5.22461 59.375-8.42285Q56.3965-11.6211 56.3965-16.5527Z"/>
  </g>
  <g id="Heavy-L" transform="matrix(1 0 0 1 2558.39 1556)">
   <path d="M78.2715 31.7871Q89.3555 31.7871 99.3652 28.3691Q109.375 24.9512 117.749 18.7988Q126.123 12.6465 132.3 4.24805Q138.477-4.15039 141.895-14.1602Q145.312-24.1699 145.312-35.2051Q145.312-46.2402 141.895-56.2744Q138.477-66.3086 132.3-74.6826Q126.123-83.0566 117.749-89.2578Q109.375-95.459 99.3408-98.8525Q89.3066-102.246 78.2227-102.246Q67.2363-102.246 57.2021-98.8525Q47.168-95.459 38.7939-89.2578Q30.4199-83.0566 24.2432-74.6826Q18.0664-66.3086 14.6729-56.2744Q11.2793-46.2402 11.2793-35.2051Q11.2793-24.1699 14.6729-14.1602Q18.0664-4.15039 24.2432 4.24805Q30.4199 12.6465 38.8184 18.7988Q47.2168 24.9512 57.2266 28.3691Q67.2363 31.7871 78.2715 31.7871ZM45.166-39.7949Q45.166-44.4336 47.5098-47.7295Q49.8535-51.0254 53.1738-51.0254Q56.4941-51.0254 58.8135-47.7295Q61.1328-44.4336 61.1328-39.7949Q61.1328-35.0586 58.8135-31.7871Q56.4941-28.5156 53.1738-28.5156Q49.8535-28.5156 47.5098-31.7871Q45.166-35.0586 45.166-39.7949ZM60.2051-57.7148Q60.2051-62.4512 62.5244-65.6982Q64.8438-68.9453 68.1641-68.9453Q71.5332-68.9453 73.877-65.6982Q76.2207-62.4512 76.2207-57.7148Q76.2207-53.0762 73.877-49.7803Q71.5332-46.4844 68.1641-46.4844Q64.8438-46.4844 62.5244-49.7803Q60.2051-53.0762 60.2051-57.7148ZM80.2246-57.7148Q80.2246-62.4512 82.5684-65.6982Q84.9121-68.9453 88.2812-68.9453Q91.6016-68.9453 93.9209-65.6982Q96.2402-62.4512 96.2402-57.7148Q96.2402-53.0762 93.9209-49.7803Q91.6016-46.4844 88.2812-46.4844Q84.9121-46.4844 82.5684-49.7803Q80.2246-53.0762 80.2246-57.7148ZM95.3125-39.7949Q95.3125-44.4336 97.6318-47.7295Q99.9512-51.0254 103.32-51.0254Q106.641-51.0254 108.984-47.7295Q111.328-44.4336 111.328-39.7949Q111.328-35.0586 108.984-31.7871Q106.641-28.5156 103.32-28.5156Q99.9512-28.5156 97.6318-31.7871Q95.3125-35.0586 95.3125-39.7949ZM54.9805-16.2109Q54.9805-20.2637 56.958-22.6318Q58.9355-25 61.1816-26.8066Q62.3535-27.7344 63.501-28.7598Q64.6484-29.7852 65.4297-31.0059Q66.0645-31.9336 66.6016-32.959Q67.1387-33.9844 67.7246-35.1074Q68.7988-37.4512 69.9707-39.5752Q71.1426-41.6992 73.0225-43.042Q74.9023-44.3848 78.2227-44.3848Q81.4941-44.3848 83.4229-43.042Q85.3516-41.6992 86.5234-39.5752Q87.6953-37.4512 88.7695-35.1074Q89.3066-33.9844 89.8438-32.959Q90.3809-31.9336 91.0156-30.957Q91.7969-29.7363 92.9443-28.7354Q94.0918-27.7344 95.2637-26.8066Q97.5098-25 99.5117-22.6318Q101.514-20.2637 101.514-16.2109Q101.514-11.2793 98.5107-8.10547Q95.5078-4.93164 90.6738-4.93164Q88.3789-4.93164 86.5967-5.41992Q84.8145-5.9082 83.3008-6.49414Q82.0801-6.88477 80.8594-7.17773Q79.6387-7.4707 78.2227-7.4707Q76.8066-7.4707 75.6104-7.17773Q74.4141-6.88477 73.1934-6.49414Q71.6797-5.9082 69.873-5.41992Q68.0664-4.93164 65.7715-4.93164Q60.9375-4.93164 57.959-8.10547Q54.9805-11.2793 54.9805-16.2109Z"/>
  </g>
  <g id="Bold-L" transform="matrix(1 0 0 1 2262.85 1556)">
   <path d="M77.0996 30.6152Q87.9395 30.6152 97.7783 27.2461Q107.617 23.877 115.869 17.8223Q124.121 11.7676 130.176 3.51562Q136.23-4.73633 139.6-14.5752Q142.969-24.4141 142.969-35.2539Q142.969-46.0938 139.6-55.9326Q136.23-65.7715 130.151-73.999Q124.072-82.2266 115.845-88.3057Q107.617-94.3848 97.7539-97.7295Q87.8906-101.074 77.0508-101.074Q66.2598-101.074 56.3965-97.7295Q46.5332-94.3848 38.3301-88.3057Q30.127-82.2266 24.0479-73.999Q17.9688-65.7715 14.624-55.9326Q11.2793-46.0938 11.2793-35.2539Q11.2793-24.4141 14.624-14.5752Q17.9688-4.73633 24.0479 3.51562Q30.127 11.7676 38.3545 17.8223Q46.582 23.877 56.4209 27.2461Q66.2598 30.6152 77.0996 30.6152ZM43.6523-39.9902Q43.6523-44.7754 45.9473-48.0469Q48.2422-51.3184 51.5625-51.3184Q54.9316-51.3184 57.2266-48.0469Q59.5215-44.7754 59.5215-39.9902Q59.5215-35.2051 57.2266-31.958Q54.9316-28.7109 51.5625-28.7109Q48.2422-28.7109 45.9473-31.958Q43.6523-35.2051 43.6523-39.9902ZM58.9355-58.2031Q58.9355-62.9883 61.2305-66.2354Q63.5254-69.4824 66.8457-69.4824Q70.2148-69.4824 72.5098-66.2354Q74.8047-62.9883 74.8047-58.2031Q74.8047-53.5156 72.5098-50.2197Q70.2148-46.9238 66.8457-46.9238Q63.5254-46.9238 61.2305-50.2197Q58.9355-53.5156 58.9355-58.2031ZM79.3457-58.2031Q79.3457-62.9883 81.6406-66.2354Q83.9355-69.4824 87.3047-69.4824Q90.625-69.4824 92.9199-66.2354Q95.2148-62.9883 95.2148-58.2031Q95.2148-53.5156 92.9199-50.2197Q90.625-46.9238 87.3047-46.9238Q83.9355-46.9238 81.6406-50.2197Q79.3457-53.5156 79.3457-58.2031ZM94.6777-39.9902Q94.6777-44.7754 96.9727-48.0469Q99.2676-51.3184 102.588-51.3184Q105.908-51.3184 108.203-48.0469Q110.498-44.7754 110.498-39.9902Q110.498-35.2051 108.203-31.958Q105.908-28.7109 102.588-28.7109Q99.2676-28.7109 96.9727-31.958Q94.6777-35.2051 94.6777-39.9902ZM53.3691-15.8203Q53.3691-19.9219 55.4199-22.3389Q57.4707-24.7559 59.7656-26.6602Q60.9863-27.6367 62.1582-28.6621Q63.3301-29.6875 64.209-31.0059Q64.7949-31.9336 65.3564-33.0078Q65.918-34.082 66.4551-35.2051Q67.5781-37.5977 68.75-39.7461Q69.9219-41.8945 71.8506-43.2861Q73.7793-44.6777 77.0996-44.6777Q80.3711-44.6777 82.2998-43.3105Q84.2285-41.9434 85.4248-39.7705Q86.6211-37.5977 87.6953-35.2051Q88.2324-34.082 88.7939-33.0078Q89.3555-31.9336 89.9902-30.957Q90.8203-29.6875 91.9922-28.6621Q93.1641-27.6367 94.3848-26.6602Q96.6797-24.7559 98.7305-22.3389Q100.781-19.9219 100.781-15.8203Q100.781-10.8887 97.7783-7.73926Q94.7754-4.58984 89.9414-4.58984Q87.5488-4.58984 85.7422-5.10254Q83.9355-5.61523 82.373-6.20117Q81.1035-6.64062 79.834-6.98242Q78.5645-7.32422 77.0996-7.32422Q75.5859-7.32422 74.3408-6.98242Q73.0957-6.64062 71.7773-6.20117Q70.2148-5.61523 68.4082-5.10254Q66.6016-4.58984 64.209-4.58984Q59.375-4.58984 56.3721-7.73926Q53.3691-10.8887 53.3691-15.8203Z"/>
  </g>
  <g id="Semibold-L" transform="matrix(1 0 0 1 1966.97 1556)">
   <path d="M76.2695 29.7852Q86.9629 29.7852 96.6797 26.4648Q106.396 23.1445 114.551 17.1631Q122.705 11.1816 128.687 3.02734Q134.668-5.12695 137.988-14.8438Q141.309-24.5605 141.309-35.2539Q141.309-45.9473 137.988-55.6641Q134.668-65.3809 128.662-73.5107Q122.656-81.6406 114.526-87.6465Q106.396-93.6523 96.6553-96.9727Q86.9141-100.293 76.2207-100.293Q65.5273-100.293 55.8105-96.9727Q46.0938-93.6523 37.9883-87.6465Q29.8828-81.6406 23.877-73.5107Q17.8711-65.3809 14.5752-55.6641Q11.2793-45.9473 11.2793-35.2539Q11.2793-24.5605 14.5996-14.8438Q17.9199-5.12695 23.9014 3.02734Q29.8828 11.1816 38.0127 17.1631Q46.1426 23.1445 55.8594 26.4648Q65.5762 29.7852 76.2695 29.7852ZM42.627-40.1367Q42.627-44.9707 44.8975-48.2178Q47.168-51.4648 50.4883-51.4648Q53.8086-51.4648 56.0791-48.2178Q58.3496-44.9707 58.3496-40.1367Q58.3496-35.3027 56.0791-32.0557Q53.8086-28.8086 50.4883-28.8086Q47.168-28.8086 44.8975-32.0557Q42.627-35.3027 42.627-40.1367ZM58.0566-58.5449Q58.0566-63.3789 60.3516-66.6016Q62.6465-69.8242 65.9668-69.8242Q69.2871-69.8242 71.5576-66.6016Q73.8281-63.3789 73.8281-58.5449Q73.8281-53.8086 71.5576-50.5127Q69.2871-47.2168 65.9668-47.2168Q62.6465-47.2168 60.3516-50.5127Q58.0566-53.8086 58.0566-58.5449ZM78.7598-58.5449Q78.7598-63.3789 81.0303-66.6016Q83.3008-69.8242 86.6211-69.8242Q89.9414-69.8242 92.2119-66.6016Q94.4824-63.3789 94.4824-58.5449Q94.4824-53.8086 92.2119-50.5127Q89.9414-47.2168 86.6211-47.2168Q83.3008-47.2168 81.0303-50.5127Q78.7598-53.8086 78.7598-58.5449ZM94.1895-40.1367Q94.1895-44.9707 96.4844-48.2178Q98.7793-51.4648 102.1-51.4648Q105.42-51.4648 107.69-48.2178Q109.961-44.9707 109.961-40.1367Q109.961-35.3027 107.69-32.0557Q105.42-28.8086 102.1-28.8086Q98.7793-28.8086 96.4844-32.0557Q94.1895-35.3027 94.1895-40.1367ZM52.2949-15.5273Q52.2949-19.6777 54.3701-22.1191Q56.4453-24.5605 58.7891-26.5137Q60.0586-27.4902 61.2549-28.5645Q62.4512-29.6387 63.3301-30.957Q63.9648-31.9336 64.502-33.0078Q65.0391-34.082 65.625-35.2051Q66.6992-37.6465 67.8955-39.8438Q69.0918-42.041 71.0205-43.4326Q72.9492-44.8242 76.2695-44.8242Q79.541-44.8242 81.4941-43.457Q83.4473-42.0898 84.668-39.8682Q85.8887-37.6465 86.9629-35.2051Q87.5-34.082 88.0615-32.9834Q88.623-31.8848 89.3066-30.9082Q90.1367-29.5898 91.333-28.54Q92.5293-27.4902 93.75-26.5137Q96.0938-24.5605 98.1689-22.1191Q100.244-19.6777 100.244-15.5273Q100.244-10.6445 97.2412-7.49512Q94.2383-4.3457 89.4043-4.3457Q87.0117-4.3457 85.1807-4.8584Q83.3496-5.37109 81.7383-5.95703Q80.4199-6.44531 79.1016-6.81152Q77.7832-7.17773 76.2695-7.17773Q74.7559-7.17773 73.4619-6.81152Q72.168-6.44531 70.8008-5.95703Q69.1895-5.37109 67.3828-4.8584Q65.5762-4.3457 63.1836-4.3457Q58.3008-4.3457 55.2979-7.49512Q52.2949-10.6445 52.2949-15.5273Z"/>
  </g>
  <g id="Medium-L" transform="matrix(1 0 0 1 1670.87 1556)">
   <path d="M75.6836 29.1504Q86.2305 29.1504 95.8496 25.8545Q105.469 22.5586 113.55 16.626Q121.631 10.6934 127.563 2.63672Q133.496-5.41992 136.792-15.0635Q140.088-24.707 140.088-35.2539Q140.088-45.8496 136.792-55.4688Q133.496-65.0879 127.539-73.1445Q121.582-81.2012 113.525-87.1582Q105.469-93.1152 95.8252-96.3867Q86.1816-99.6582 75.6348-99.6582Q65.0391-99.6582 55.4199-96.3867Q45.8008-93.1152 37.7441-87.1582Q29.6875-81.2012 23.7549-73.1445Q17.8223-65.0879 14.5508-55.4688Q11.2793-45.8496 11.2793-35.2539Q11.2793-24.707 14.5508-15.0635Q17.8223-5.41992 23.7549 2.63672Q29.6875 10.6934 37.7686 16.626Q45.8496 22.5586 55.4688 25.8545Q65.0879 29.1504 75.6836 29.1504ZM41.7969-40.2344Q41.7969-45.1172 44.043-48.3643Q46.2891-51.6113 49.6094-51.6113Q52.9297-51.6113 55.2002-48.3643Q57.4707-45.1172 57.4707-40.2344Q57.4707-35.4004 55.2002-32.1533Q52.9297-28.9062 49.6094-28.9062Q46.2891-28.9062 44.043-32.1533Q41.7969-35.4004 41.7969-40.2344ZM57.373-58.7891Q57.373-63.623 59.6191-66.8701Q61.8652-70.1172 65.1855-70.1172Q68.5547-70.1172 70.8008-66.8701Q73.0469-63.623 73.0469-58.7891Q73.0469-54.0039 70.8008-50.708Q68.5547-47.4121 65.1855-47.4121Q61.8652-47.4121 59.6191-50.708Q57.373-54.0039 57.373-58.7891ZM78.2227-58.7891Q78.2227-63.623 80.4688-66.8701Q82.7148-70.1172 86.084-70.1172Q89.4043-70.1172 91.6504-66.8701Q93.8965-63.623 93.8965-58.7891Q93.8965-54.0039 91.6504-50.708Q89.4043-47.4121 86.084-47.4121Q82.7148-47.4121 80.4688-50.708Q78.2227-54.0039 78.2227-58.7891ZM93.7988-40.2344Q93.7988-45.1172 96.0693-48.3643Q98.3398-51.6113 101.66-51.6113Q104.98-51.6113 107.227-48.3643Q109.473-45.1172 109.473-40.2344Q109.473-35.4004 107.227-32.1533Q104.98-28.9062 101.66-28.9062Q98.3398-28.9062 96.0693-32.1533Q93.7988-35.4004 93.7988-40.2344ZM51.416-15.332Q51.416-19.4824 53.54-21.9482Q55.6641-24.4141 58.0078-26.416Q59.2773-27.4414 60.498-28.5156Q61.7188-29.5898 62.6465-30.957Q63.2324-31.9336 63.7939-33.0322Q64.3555-34.1309 64.8926-35.2539Q66.0156-37.6953 67.2363-39.917Q68.457-42.1387 70.3857-43.5547Q72.3145-44.9707 75.6348-44.9707Q78.9062-44.9707 80.8594-43.5791Q82.8125-42.1875 84.0332-39.9414Q85.2539-37.6953 86.377-35.2539Q86.9141-34.1309 87.4756-33.0078Q88.0371-31.8848 88.7207-30.9082Q89.5508-29.541 90.7715-28.4912Q91.9922-27.4414 93.2617-26.416Q95.6543-24.4141 97.7295-21.9482Q99.8047-19.4824 99.8047-15.332Q99.8047-10.4004 96.8018-7.27539Q93.7988-4.15039 88.9648-4.15039Q86.5234-4.15039 84.6924-4.66309Q82.8613-5.17578 81.25-5.81055Q79.8828-6.34766 78.5156-6.71387Q77.1484-7.08008 75.6348-7.08008Q74.0723-7.08008 72.7539-6.71387Q71.4355-6.34766 70.0684-5.81055Q68.3594-5.17578 66.5527-4.66309Q64.7461-4.15039 62.3047-4.15039Q57.4707-4.15039 54.4434-7.27539Q51.416-10.4004 51.416-15.332Z"/>
  </g>
  <g id="Regular-L" transform="matrix(1 0 0 1 1374.97 1556)">
   <path d="M74.8535 28.3203Q85.3027 28.3203 94.7998 25.0732Q104.297 21.8262 112.256 15.9668Q120.215 10.1074 126.099 2.14844Q131.982-5.81055 135.229-15.332Q138.477-24.8535 138.477-35.2539Q138.477-45.7031 135.229-55.2002Q131.982-64.6973 126.099-72.6562Q120.215-80.6152 112.256-86.499Q104.297-92.3828 94.7754-95.6299Q85.2539-98.877 74.8047-98.877Q64.3555-98.877 54.8584-95.6299Q45.3613-92.3828 37.4268-86.499Q29.4922-80.6152 23.6084-72.6562Q17.7246-64.6973 14.502-55.2002Q11.2793-45.7031 11.2793-35.2539Q11.2793-24.8535 14.5264-15.332Q17.7734-5.81055 23.6328 2.14844Q29.4922 10.1074 37.4512 15.9668Q45.4102 21.8262 54.9072 25.0732Q64.4043 28.3203 74.8535 28.3203ZM40.7715-40.3809Q40.7715-45.3125 42.9932-48.5596Q45.2148-51.8066 48.5352-51.8066Q51.8555-51.8066 54.1016-48.5596Q56.3477-45.3125 56.3477-40.3809Q56.3477-35.498 54.1016-32.2754Q51.8555-29.0527 48.5352-29.0527Q45.2148-29.0527 42.9932-32.2754Q40.7715-35.498 40.7715-40.3809ZM56.4941-59.1309Q56.4941-64.0137 58.7402-67.2363Q60.9863-70.459 64.3066-70.459Q67.627-70.459 69.8486-67.2363Q72.0703-64.0137 72.0703-59.1309Q72.0703-54.2969 69.8486-51.001Q67.627-47.7051 64.3066-47.7051Q60.9863-47.7051 58.7402-51.001Q56.4941-54.2969 56.4941-59.1309ZM77.6367-59.1309Q77.6367-64.0137 79.8584-67.2363Q82.0801-70.459 85.4004-70.459Q88.7207-70.459 90.9668-67.2363Q93.2129-64.0137 93.2129-59.1309Q93.2129-54.2969 90.9668-51.001Q88.7207-47.7051 85.4004-47.7051Q82.0801-47.7051 79.8584-51.001Q77.6367-54.2969 77.6367-59.1309ZM93.3594-40.3809Q93.3594-45.3125 95.6055-48.5596Q97.8516-51.8066 101.172-51.8066Q104.492-51.8066 106.714-48.5596Q108.936-45.3125 108.936-40.3809Q108.936-35.498 106.714-32.2754Q104.492-29.0527 101.172-29.0527Q97.8516-29.0527 95.6055-32.2754Q93.3594-35.498 93.3594-40.3809ZM50.3418-15.0391Q50.3418-19.2383 52.4902-21.7529Q54.6387-24.2676 57.0312-26.3184Q58.3496-27.3438 59.5947-28.4424Q60.8398-29.541 61.7676-30.957Q62.4023-31.9336 62.9639-33.0566Q63.5254-34.1797 64.0625-35.3027Q65.1855-37.793 66.4062-40.0391Q67.627-42.2852 69.5801-43.7256Q71.5332-45.166 74.8535-45.166Q78.125-45.166 80.0781-43.75Q82.0312-42.334 83.2764-40.0635Q84.5215-37.793 85.6445-35.3027Q86.1816-34.1797 86.7432-33.0322Q87.3047-31.8848 87.9883-30.8594Q88.8672-29.4922 90.1123-28.418Q91.3574-27.3438 92.627-26.3184Q95.0684-24.2676 97.1924-21.7529Q99.3164-19.2383 99.3164-15.0391Q99.3164-10.1562 96.2891-7.03125Q93.2617-3.90625 88.4277-3.90625Q85.9863-3.90625 84.1309-4.44336Q82.2754-4.98047 80.6152-5.61523Q79.1992-6.15234 77.8076-6.54297Q76.416-6.93359 74.8535-6.93359Q73.2422-6.93359 71.875-6.54297Q70.5078-6.15234 69.0918-5.61523Q67.3828-4.98047 65.5518-4.44336Q63.7207-3.90625 61.2793-3.90625Q56.3965-3.90625 53.3691-7.03125Q50.3418-10.1562 50.3418-15.0391Z"/>
  </g>
  <g id="Light-L" transform="matrix(1 0 0 1 1079.18 1556)">
   <path d="M73.9258 27.3926Q84.2285 27.3926 93.6035 24.1943Q102.979 20.9961 110.815 15.2344Q118.652 9.47266 124.438 1.63574Q130.225-6.20117 133.423-15.5762Q136.621-24.9512 136.621-35.2539Q136.621-45.5566 133.423-54.9316Q130.225-64.3066 124.438-72.1436Q118.652-79.9805 110.815-85.7666Q102.979-91.5527 93.6035-94.751Q84.2285-97.9492 73.877-97.9492Q63.5742-97.9492 54.2236-94.751Q44.873-91.5527 37.0361-85.7666Q29.1992-79.9805 23.4131-72.1436Q17.627-64.3066 14.4531-54.9316Q11.2793-45.5566 11.2793-35.2539Q11.2793-24.9512 14.4775-15.5762Q17.6758-6.20117 23.4375 1.63574Q29.1992 9.47266 37.0361 15.2344Q44.873 20.9961 54.248 24.1943Q63.623 27.3926 73.9258 27.3926ZM40.6738-40.6738Q40.6738-45.6055 42.8223-48.7549Q44.9707-51.9043 48.291-51.9043Q51.6113-51.9043 53.7598-48.7549Q55.9082-45.6055 55.9082-40.6738Q55.9082-35.791 53.7598-32.6416Q51.6113-29.4922 48.291-29.4922Q44.9707-29.4922 42.8223-32.6416Q40.6738-35.791 40.6738-40.6738ZM56.0547-58.9844Q56.0547-63.916 58.2031-67.0166Q60.3516-70.1172 63.6719-70.1172Q66.9922-70.1172 69.1406-66.9922Q71.2891-63.8672 71.2891-58.9844Q71.2891-54.1016 69.1406-50.9277Q66.9922-47.7539 63.6719-47.7539Q60.3516-47.7539 58.2031-50.9277Q56.0547-54.1016 56.0547-58.9844ZM76.709-58.9844Q76.709-63.8672 78.833-66.9922Q80.957-70.1172 84.2773-70.1172Q87.5977-70.1172 89.7461-67.0166Q91.8945-63.916 91.8945-58.9844Q91.8945-54.1016 89.7461-50.9277Q87.5977-47.7539 84.2773-47.7539Q80.957-47.7539 78.833-50.9277Q76.709-54.1016 76.709-58.9844ZM92.0898-40.6738Q92.0898-45.6055 94.2383-48.7549Q96.3867-51.9043 99.6582-51.9043Q102.979-51.9043 105.127-48.7549Q107.275-45.6055 107.275-40.6738Q107.275-35.791 105.127-32.6416Q102.979-29.4922 99.6582-29.4922Q96.3867-29.4922 94.2383-32.6416Q92.0898-35.791 92.0898-40.6738ZM49.7559-15.332Q49.7559-19.5801 51.9531-22.1436Q54.1504-24.707 56.5918-26.709Q57.9102-27.7832 59.082-28.833Q60.2539-29.8828 61.1328-31.25Q61.6699-32.1289 62.1826-33.2031Q62.6953-34.2773 63.2324-35.4004Q64.3066-37.793 65.5518-40.0879Q66.7969-42.3828 68.75-43.8721Q70.7031-45.3613 73.9746-45.3613Q77.1973-45.3613 79.1748-43.8965Q81.1523-42.4316 82.3975-40.1123Q83.6426-37.793 84.7168-35.4004Q85.2539-34.2773 85.7666-33.1543Q86.2793-32.0312 86.9141-31.1035Q87.6953-29.834 88.8916-28.8086Q90.0879-27.7832 91.3574-26.709Q93.75-24.707 95.9473-22.1436Q98.1445-19.5801 98.1445-15.332Q98.1445-10.6445 95.1172-7.61719Q92.0898-4.58984 87.3535-4.58984Q84.9609-4.58984 83.1299-5.15137Q81.2988-5.71289 79.6875-6.34766Q78.2227-6.93359 76.8799-7.34863Q75.5371-7.76367 73.9746-7.76367Q72.4121-7.76367 71.0449-7.34863Q69.6777-6.93359 68.2617-6.34766Q66.6016-5.71289 64.7949-5.15137Q62.9883-4.58984 60.5957-4.58984Q55.8105-4.58984 52.7832-7.61719Q49.7559-10.6445 49.7559-15.332Z"/>
  </g>
  <g id="Thin-L" transform="matrix(1 0 0 1 783.693 1556)">
   <path d="M72.7051 26.1719Q82.8613 26.1719 92.041 23.0469Q101.221 19.9219 108.911 14.2822Q116.602 8.64258 122.266 0.952148Q127.93-6.73828 131.055-15.9424Q134.18-25.1465 134.18-35.2539Q134.18-45.4102 131.055-54.5898Q127.93-63.7695 122.29-71.46Q116.65-79.1504 108.936-84.8145Q101.221-90.4785 92.0166-93.6035Q82.8125-96.7285 72.7051-96.7285Q62.5488-96.7285 53.3691-93.6035Q44.1895-90.4785 36.499-84.8145Q28.8086-79.1504 23.1689-71.46Q17.5293-63.7695 14.4043-54.5898Q11.2793-45.4102 11.2793-35.2539Q11.2793-25.1465 14.4043-15.9424Q17.5293-6.73828 23.1689 0.952148Q28.8086 8.64258 36.5234 14.2822Q44.2383 19.9219 53.418 23.0469Q62.5977 26.1719 72.7051 26.1719ZM40.4785-41.0645Q40.4785-45.9961 42.5049-49.0234Q44.5312-52.0508 47.8516-52.0508Q51.1719-52.0508 53.1982-49.0234Q55.2246-45.9961 55.2246-41.0645Q55.2246-36.1816 53.1982-33.1543Q51.1719-30.127 47.8516-30.127Q44.5312-30.127 42.5049-33.1543Q40.4785-36.1816 40.4785-41.0645ZM55.3711-58.8379Q55.3711-63.7207 57.4219-66.7236Q59.4727-69.7266 62.793-69.7266Q66.1133-69.7266 68.1396-66.7236Q70.166-63.7207 70.166-58.8379Q70.166-53.8574 68.1396-50.8301Q66.1133-47.8027 62.793-47.8027Q59.4727-47.8027 57.4219-50.8301Q55.3711-53.8574 55.3711-58.8379ZM75.3906-58.8379Q75.3906-63.7207 77.417-66.7236Q79.4434-69.7266 82.7637-69.7266Q86.084-69.7266 88.0859-66.7236Q90.0879-63.7207 90.0879-58.8379Q90.0879-53.8574 88.0859-50.8301Q86.084-47.8027 82.7637-47.8027Q79.4434-47.8027 77.417-50.8301Q75.3906-53.8574 75.3906-58.8379ZM90.2832-41.0645Q90.2832-45.9961 92.3096-49.0234Q94.3359-52.0508 97.6562-52.0508Q100.977-52.0508 103.003-49.0234Q105.029-45.9961 105.029-41.0645Q105.029-36.1816 103.003-33.1543Q100.977-30.127 97.6562-30.127Q94.3359-30.127 92.3096-33.1543Q90.2832-36.1816 90.2832-41.0645ZM48.9258-15.7227Q48.9258-20.0684 51.1963-22.6562Q53.4668-25.2441 55.9082-27.2461Q57.2266-28.3203 58.3496-29.3457Q59.4727-30.3711 60.2051-31.6406Q60.6445-32.4219 61.1084-33.3984Q61.5723-34.375 62.0605-35.498Q63.0371-37.7441 64.3066-40.1123Q65.5762-42.4805 67.5537-44.0674Q69.5312-45.6543 72.7539-45.6543Q75.8789-45.6543 77.8809-44.0918Q79.8828-42.5293 81.1523-40.1611Q82.4219-37.793 83.4473-35.498Q83.9355-34.375 84.3994-33.3252Q84.8633-32.2754 85.3516-31.4453Q86.084-30.2734 87.1826-29.2969Q88.2812-28.3203 89.5508-27.2461Q91.9434-25.2441 94.2139-22.6562Q96.4844-20.0684 96.4844-15.7227Q96.4844-11.2793 93.5059-8.39844Q90.5273-5.51758 85.9375-5.51758Q83.5449-5.51758 81.7383-6.10352Q79.9316-6.68945 78.3691-7.32422Q76.9043-7.95898 75.5859-8.39844Q74.2676-8.83789 72.7539-8.83789Q71.1914-8.83789 69.873-8.39844Q68.5547-7.95898 67.0898-7.32422Q65.5273-6.68945 63.7207-6.10352Q61.9141-5.51758 59.5703-5.51758Q54.9805-5.51758 51.9531-8.39844Q48.9258-11.2793 48.9258-15.7227Z"/>
  </g>
  <g id="Ultralight-L" transform="matrix(1 0 0 1 487.592 1556)">
   <path d="M72.0703 25.5371Q82.1289 25.5371 91.2354 22.4609Q100.342 19.3848 107.935 13.7939Q115.527 8.20312 121.143 0.585938Q126.758-7.03125 129.858-16.1133Q132.959-25.1953 132.959-35.2539Q132.959-45.3125 129.858-54.4189Q126.758-63.5254 121.167-71.1182Q115.576-78.7109 107.959-84.3262Q100.342-89.9414 91.2354-93.0176Q82.1289-96.0938 72.0703-96.0938Q62.0605-96.0938 52.9541-93.0176Q43.8477-89.9414 36.2305-84.3262Q28.6133-78.7109 23.0225-71.1182Q17.4316-63.5254 14.3555-54.4189Q11.2793-45.3125 11.2793-35.2539Q11.2793-25.1953 14.3555-16.1133Q17.4316-7.03125 23.0225 0.585938Q28.6133 8.20312 36.2305 13.7939Q43.8477 19.3848 52.9541 22.4609Q62.0605 25.5371 72.0703 25.5371ZM40.4297-41.2598Q40.4297-46.1914 42.4072-49.1699Q44.3848-52.1484 47.7051-52.1484Q51.0254-52.1484 53.0029-49.1699Q54.9805-46.1914 54.9805-41.2598Q54.9805-36.377 53.0029-33.3984Q51.0254-30.4199 47.7051-30.4199Q44.3848-30.4199 42.4072-33.3984Q40.4297-36.377 40.4297-41.2598ZM55.127-58.7402Q55.127-63.6719 57.0801-66.5771Q59.0332-69.4824 62.3535-69.4824Q65.6738-69.4824 67.6514-66.5527Q69.6289-63.623 69.6289-58.7402Q69.6289-53.7598 67.6514-50.8057Q65.6738-47.8516 62.3535-47.8516Q59.0332-47.8516 57.0801-50.8057Q55.127-53.7598 55.127-58.7402ZM74.7559-58.7402Q74.7559-63.623 76.7334-66.5527Q78.7109-69.4824 82.0312-69.4824Q85.3516-69.4824 87.3047-66.5771Q89.2578-63.6719 89.2578-58.7402Q89.2578-53.7598 87.3047-50.8057Q85.3516-47.8516 82.0312-47.8516Q78.7109-47.8516 76.7334-50.8057Q74.7559-53.7598 74.7559-58.7402ZM89.4531-41.2598Q89.4531-46.1914 91.4062-49.1699Q93.3594-52.1484 96.6309-52.1484Q99.9512-52.1484 101.929-49.1699Q103.906-46.1914 103.906-41.2598Q103.906-36.377 101.929-33.3984Q99.9512-30.4199 96.6309-30.4199Q93.3594-30.4199 91.4062-33.3984Q89.4531-36.377 89.4531-41.2598ZM48.5352-15.918Q48.5352-20.2637 50.8545-22.9004Q53.1738-25.5371 55.6152-27.5391Q56.9336-28.6133 58.0078-29.6143Q59.082-30.6152 59.8145-31.8359Q60.2051-32.5684 60.6201-33.5205Q61.0352-34.4727 61.4746-35.5469Q62.4512-37.7441 63.7451-40.1367Q65.0391-42.5293 67.0166-44.165Q68.9941-45.8008 72.2168-45.8008Q75.2441-45.8008 77.2705-44.1895Q79.2969-42.5781 80.5908-40.1855Q81.8848-37.793 82.8613-35.5469Q83.3008-34.4238 83.7402-33.3984Q84.1797-32.373 84.668-31.5918Q85.3027-30.4688 86.377-29.541Q87.4512-28.6133 88.7207-27.5391Q91.1133-25.5371 93.4082-22.9004Q95.7031-20.2637 95.7031-15.918Q95.7031-11.6211 92.7246-8.81348Q89.7461-6.00586 85.2051-6.00586Q82.8613-6.00586 81.0547-6.5918Q79.248-7.17773 77.7344-7.86133Q76.2695-8.44727 74.9756-8.91113Q73.6816-9.375 72.2168-9.375Q70.6543-9.375 69.3359-8.91113Q68.0176-8.44727 66.5527-7.86133Q64.9902-7.17773 63.208-6.5918Q61.4258-6.00586 59.1309-6.00586Q54.5898-6.00586 51.5625-8.81348Q48.5352-11.6211 48.5352-15.918Z"/>
  </g>
  <g id="Black-M" transform="matrix(1 0 0 1 2871.32 1126)">
   <path d="M62.0605 18.1152Q73.0957 18.1152 82.7637 13.9648Q92.4316 9.81445 99.7559 2.46582Q107.08-4.88281 111.255-14.5264Q115.43-24.1699 115.43-35.2051Q115.43-46.2402 111.255-55.8838Q107.08-65.5273 99.7559-72.876Q92.4316-80.2246 82.7637-84.375Q73.0957-88.5254 62.0605-88.5254Q51.0742-88.5254 41.4062-84.375Q31.7383-80.2246 24.3896-72.876Q17.041-65.5273 12.8906-55.8838Q8.74023-46.2402 8.74023-35.2051Q8.74023-24.1699 12.8906-14.5264Q17.041-4.88281 24.3896 2.46582Q31.7383 9.81445 41.4062 13.9648Q51.0742 18.1152 62.0605 18.1152ZM37.207-38.5254Q37.207-42.041 39.0381-44.5801Q40.8691-47.1191 43.457-47.1191Q46.0449-47.1191 47.8516-44.5801Q49.6582-42.041 49.6582-38.5254Q49.6582-34.9609 47.8516-32.4219Q46.0449-29.8828 43.457-29.8828Q40.8691-29.8828 39.0381-32.4219Q37.207-34.9609 37.207-38.5254ZM48.4375-51.9043Q48.4375-55.4688 50.2197-58.0078Q52.002-60.5469 54.5898-60.5469Q57.2266-60.5469 59.0576-58.0078Q60.8887-55.4688 60.8887-51.9043Q60.8887-48.3887 59.0576-45.8496Q57.2266-43.3105 54.5898-43.3105Q52.0508-43.3105 50.2441-45.8496Q48.4375-48.3887 48.4375-51.9043ZM63.2324-51.9043Q63.2324-55.4688 65.0635-58.0078Q66.8945-60.5469 69.5312-60.5469Q72.1191-60.5469 73.9014-58.0078Q75.6836-55.4688 75.6836-51.9043Q75.6836-48.3887 73.877-45.8496Q72.0703-43.3105 69.5312-43.3105Q66.8945-43.3105 65.0635-45.8496Q63.2324-48.3887 63.2324-51.9043ZM74.4629-38.5254Q74.4629-42.041 76.2695-44.5801Q78.0762-47.1191 80.6641-47.1191Q83.252-47.1191 85.083-44.5801Q86.9141-42.041 86.9141-38.5254Q86.9141-34.9609 85.083-32.4219Q83.252-29.8828 80.6641-29.8828Q78.0762-29.8828 76.2695-32.4219Q74.4629-34.9609 74.4629-38.5254ZM44.7266-21.1914Q44.7266-24.2188 46.2158-26.001Q47.7051-27.7832 49.3652-29.1016Q50.2441-29.7852 51.0498-30.4932Q51.8555-31.2012 52.3926-32.0801Q52.832-32.7148 53.2227-33.4473Q53.6133-34.1797 54.0527-35.1074Q54.834-36.7676 55.7129-38.3545Q56.5918-39.9414 58.0566-40.9668Q59.5215-41.9922 62.0605-41.9922Q64.5996-41.9922 66.0645-40.9668Q67.5293-39.9414 68.4082-38.3545Q69.2871-36.7676 70.0684-35.1074Q70.5078-34.1797 70.8984-33.4473Q71.2891-32.7148 71.7285-32.0801Q72.2656-31.2012 73.0713-30.4932Q73.877-29.7852 74.7559-29.1016Q76.416-27.7832 77.9053-26.001Q79.3945-24.2188 79.3945-21.1914Q79.3945-17.3828 77.0996-14.9414Q74.8047-12.5 71.1426-12.5Q69.3848-12.5 68.042-12.8662Q66.6992-13.2324 65.5762-13.623Q64.7461-13.916 63.916-14.1113Q63.0859-14.3066 62.0605-14.3066Q61.0352-14.3066 60.2295-14.1113Q59.4238-13.916 58.5449-13.623Q57.4219-13.2324 56.0791-12.8662Q54.7363-12.5 52.9785-12.5Q49.3164-12.5 47.0215-14.9414Q44.7266-17.3828 44.7266-21.1914Z"/>
  </g>
  <g id="Heavy-M" transform="matrix(1 0 0 1 2575.43 1126)">
   <path d="M61.2305 17.2852Q72.0703 17.2852 81.5918 13.1836Q91.1133 9.08203 98.3154 1.85547Q105.518-5.37109 109.644-14.8682Q113.77-24.3652 113.77-35.2051Q113.77-46.0449 109.644-55.542Q105.518-65.0391 98.3154-72.29Q91.1133-79.541 81.5918-83.6182Q72.0703-87.6953 61.2305-87.6953Q50.4395-87.6953 40.918-83.6182Q31.3965-79.541 24.1699-72.29Q16.9434-65.0391 12.8418-55.542Q8.74023-46.0449 8.74023-35.2051Q8.74023-24.3652 12.8418-14.8682Q16.9434-5.37109 24.1699 1.85547Q31.3965 9.08203 40.918 13.1836Q50.4395 17.2852 61.2305 17.2852ZM35.8887-38.6719Q35.8887-42.2363 37.6953-44.7754Q39.502-47.3145 42.0898-47.3145Q44.6777-47.3145 46.4844-44.7754Q48.291-42.2363 48.291-38.6719Q48.291-35.0586 46.4844-32.4951Q44.6777-29.9316 42.0898-29.9316Q39.502-29.9316 37.6953-32.4951Q35.8887-35.0586 35.8887-38.6719ZM47.4121-52.3438Q47.4121-55.957 49.1943-58.4961Q50.9766-61.0352 53.5645-61.0352Q56.1523-61.0352 57.9834-58.4961Q59.8145-55.957 59.8145-52.3438Q59.8145-48.7793 57.9834-46.2402Q56.1523-43.7012 53.5645-43.7012Q50.9766-43.7012 49.1943-46.2402Q47.4121-48.7793 47.4121-52.3438ZM62.6465-52.3438Q62.6465-55.957 64.4531-58.4961Q66.2598-61.0352 68.8965-61.0352Q71.4844-61.0352 73.2666-58.4961Q75.0488-55.957 75.0488-52.3438Q75.0488-48.7793 73.2422-46.2402Q71.4355-43.7012 68.8965-43.7012Q66.2598-43.7012 64.4531-46.2402Q62.6465-48.7793 62.6465-52.3438ZM74.1211-38.6719Q74.1211-42.2363 75.9277-44.7754Q77.7344-47.3145 80.3223-47.3145Q82.9102-47.3145 84.7168-44.7754Q86.5234-42.2363 86.5234-38.6719Q86.5234-35.0586 84.7168-32.4951Q82.9102-29.9316 80.3223-29.9316Q77.7344-29.9316 75.9277-32.4951Q74.1211-35.0586 74.1211-38.6719ZM43.457-20.752Q43.457-23.8281 44.9707-25.6592Q46.4844-27.4902 48.1934-28.8574Q49.1211-29.5898 49.9756-30.3223Q50.8301-31.0547 51.416-31.9824Q51.8555-32.666 52.2705-33.4473Q52.6855-34.2285 53.125-35.1562Q53.9062-36.8652 54.8096-38.501Q55.7129-40.1367 57.1777-41.1621Q58.6426-42.1875 61.2305-42.1875Q63.7695-42.1875 65.2344-41.1621Q66.6992-40.1367 67.6025-38.501Q68.5059-36.8652 69.3359-35.1562Q69.7754-34.2285 70.166-33.4473Q70.5566-32.666 71.0449-31.9824Q71.6309-31.0547 72.4609-30.3223Q73.291-29.5898 74.2188-28.8574Q75.9277-27.4902 77.4414-25.6592Q78.9551-23.8281 78.9551-20.752Q78.9551-16.9434 76.6602-14.502Q74.3652-12.0605 70.6543-12.0605Q68.8477-12.0605 67.4805-12.4268Q66.1133-12.793 64.9414-13.2324Q64.0625-13.5254 63.1836-13.7451Q62.3047-13.9648 61.2305-13.9648Q60.1074-13.9648 59.2529-13.7451Q58.3984-13.5254 57.4707-13.2324Q56.2988-12.793 54.9316-12.4268Q53.5645-12.0605 51.7578-12.0605Q48.0469-12.0605 45.752-14.502Q43.457-16.9434 43.457-20.752Z"/>
  </g>
  <g id="Bold-M" transform="matrix(1 0 0 1 2279.65 1126)">
   <path d="M60.3027 16.3574Q70.9473 16.3574 80.2734 12.3291Q89.5996 8.30078 96.7041 1.17188Q103.809-5.95703 107.861-15.2832Q111.914-24.6094 111.914-35.2539Q111.914-45.8496 107.861-55.1758Q103.809-64.502 96.7041-71.6309Q89.5996-78.7598 80.249-82.7881Q70.8984-86.8164 60.3027-86.8164Q49.707-86.8164 40.3564-82.7881Q31.0059-78.7598 23.9014-71.6309Q16.7969-64.502 12.7686-55.1758Q8.74023-45.8496 8.74023-35.2539Q8.74023-24.6094 12.7686-15.2832Q16.7969-5.95703 23.9258 1.17188Q31.0547 8.30078 40.3809 12.3291Q49.707 16.3574 60.3027 16.3574ZM34.4238-38.8184Q34.4238-42.4805 36.2305-45.0439Q38.0371-47.6074 40.625-47.6074Q43.2129-47.6074 44.9951-45.0439Q46.7773-42.4805 46.7773-38.8184Q46.7773-35.1562 44.9951-32.5928Q43.2129-30.0293 40.625-30.0293Q38.0371-30.0293 36.2305-32.5928Q34.4238-35.1562 34.4238-38.8184ZM46.2402-52.8809Q46.2402-56.543 48.0225-59.082Q49.8047-61.6211 52.3926-61.6211Q55.0293-61.6211 56.8115-59.082Q58.5938-56.543 58.5938-52.8809Q58.5938-49.2676 56.8115-46.6797Q55.0293-44.0918 52.3926-44.0918Q49.8535-44.0918 48.0469-46.6797Q46.2402-49.2676 46.2402-52.8809ZM61.9629-52.8809Q61.9629-56.543 63.7695-59.082Q65.5762-61.6211 68.1641-61.6211Q70.752-61.6211 72.5342-59.082Q74.3164-56.543 74.3164-52.8809Q74.3164-49.2676 72.5342-46.6797Q70.752-44.0918 68.1641-44.0918Q65.5762-44.0918 63.7695-46.6797Q61.9629-49.2676 61.9629-52.8809ZM73.7793-38.8184Q73.7793-42.4805 75.5859-45.0439Q77.3926-47.6074 79.9805-47.6074Q82.5195-47.6074 84.3262-45.0439Q86.1328-42.4805 86.1328-38.8184Q86.1328-35.1562 84.3262-32.5928Q82.5195-30.0293 79.9805-30.0293Q77.3926-30.0293 75.5859-32.5928Q73.7793-35.1562 73.7793-38.8184ZM42.041-20.3125Q42.041-23.4375 43.6035-25.293Q45.166-27.1484 46.9238-28.6133Q47.9004-29.3457 48.7793-30.127Q49.6582-30.9082 50.293-31.9336Q50.7812-32.666 51.2207-33.4717Q51.6602-34.2773 52.0996-35.2051Q52.9297-37.0117 53.833-38.6719Q54.7363-40.332 56.2256-41.3818Q57.7148-42.4316 60.3027-42.4316Q62.8418-42.4316 64.3311-41.3818Q65.8203-40.332 66.7236-38.6719Q67.627-37.0117 68.5059-35.2051Q68.9453-34.2773 69.3604-33.4473Q69.7754-32.6172 70.2637-31.8848Q70.8984-30.9082 71.8018-30.127Q72.7051-29.3457 73.6328-28.6133Q75.3906-27.1484 76.9531-25.293Q78.5156-23.4375 78.5156-20.3125Q78.5156-16.4551 76.1963-14.0137Q73.877-11.5723 70.1172-11.5723Q68.3105-11.5723 66.9189-11.9385Q65.5273-12.3047 64.3066-12.7441Q63.3301-13.0859 62.3779-13.3301Q61.4258-13.5742 60.3027-13.5742Q59.1309-13.5742 58.2031-13.3301Q57.2754-13.0859 56.2988-12.7441Q55.0293-12.3047 53.6621-11.9385Q52.2949-11.5723 50.4395-11.5723Q46.6797-11.5723 44.3604-14.0137Q42.041-16.4551 42.041-20.3125Z"/>
  </g>
  <g id="Semibold-M" transform="matrix(1 0 0 1 1983.6 1126)">
   <path d="M59.668 15.6738Q70.1172 15.6738 79.3457 11.6943Q88.5742 7.71484 95.6055 0.683594Q102.637-6.34766 106.616-15.5518Q110.596-24.7559 110.596-35.2539Q110.596-45.7031 106.616-54.9072Q102.637-64.1113 95.6055-71.1426Q88.5742-78.1738 79.3457-82.1777Q70.1172-86.1816 59.6191-86.1816Q49.1699-86.1816 39.9658-82.1777Q30.7617-78.1738 23.7305-71.1426Q16.6992-64.1113 12.7197-54.9072Q8.74023-45.7031 8.74023-35.2539Q8.74023-24.7559 12.7197-15.5518Q16.6992-6.34766 23.7305 0.683594Q30.7617 7.71484 39.9902 11.6943Q49.2188 15.6738 59.668 15.6738ZM33.3984-38.916Q33.3984-42.627 35.1807-45.1904Q36.9629-47.7539 39.5508-47.7539Q42.1387-47.7539 43.9209-45.1904Q45.7031-42.627 45.7031-38.916Q45.7031-35.2051 43.9209-32.6416Q42.1387-30.0781 39.5508-30.0781Q36.9629-30.0781 35.1807-32.6416Q33.3984-35.2051 33.3984-38.916ZM45.4102-53.2227Q45.4102-56.9336 47.1924-59.4727Q48.9746-62.0117 51.5625-62.0117Q54.1992-62.0117 55.9814-59.4727Q57.7637-56.9336 57.7637-53.2227Q57.7637-49.5605 55.9814-46.9727Q54.1992-44.3848 51.5625-44.3848Q49.0234-44.3848 47.2168-46.9727Q45.4102-49.5605 45.4102-53.2227ZM61.4746-53.2227Q61.4746-56.9336 63.2568-59.4727Q65.0391-62.0117 67.6758-62.0117Q70.2637-62.0117 72.0459-59.4727Q73.8281-56.9336 73.8281-53.2227Q73.8281-49.5605 72.0215-46.9727Q70.2148-44.3848 67.6758-44.3848Q65.0391-44.3848 63.2568-46.9727Q61.4746-49.5605 61.4746-53.2227ZM73.5352-38.916Q73.5352-42.627 75.3174-45.1904Q77.0996-47.7539 79.6875-47.7539Q82.2266-47.7539 84.0332-45.1904Q85.8398-42.627 85.8398-38.916Q85.8398-35.2051 84.0332-32.6416Q82.2266-30.0781 79.6875-30.0781Q77.0996-30.0781 75.3174-32.6416Q73.5352-35.2051 73.5352-38.916ZM41.0156-19.9707Q41.0156-23.1445 42.6025-25.0244Q44.1895-26.9043 46.0449-28.418Q47.0215-29.1992 47.9248-30.0049Q48.8281-30.8105 49.5117-31.8359Q50-32.6172 50.4639-33.4717Q50.9277-34.3262 51.3672-35.2051Q52.2461-37.0605 53.1494-38.7451Q54.0527-40.4297 55.542-41.5039Q57.0312-42.5781 59.6191-42.5781Q62.207-42.5781 63.6719-41.5039Q65.1367-40.4297 66.0645-38.7451Q66.9922-37.0605 67.8711-35.2051Q68.3105-34.3262 68.75-33.4473Q69.1895-32.5684 69.7266-31.8359Q70.4102-30.8105 71.3135-30.0049Q72.2168-29.1992 73.1934-28.418Q75-26.9043 76.5869-25.0244Q78.1738-23.1445 78.1738-19.9707Q78.1738-16.1133 75.8545-13.6475Q73.5352-11.1816 69.7266-11.1816Q67.8711-11.1816 66.4551-11.5723Q65.0391-11.9629 63.8184-12.4023Q62.793-12.793 61.792-13.0371Q60.791-13.2812 59.6191-13.2812Q58.4473-13.2812 57.4463-13.0371Q56.4453-12.793 55.4199-12.4023Q54.1504-11.9629 52.7588-11.5723Q51.3672-11.1816 49.5117-11.1816Q45.7031-11.1816 43.3594-13.6475Q41.0156-16.1133 41.0156-19.9707Z"/>
  </g>
  <g id="Medium-M" transform="matrix(1 0 0 1 1687.38 1126)">
   <path d="M59.1797 15.1855Q69.5312 15.1855 78.6621 11.2305Q87.793 7.27539 94.751 0.317383Q101.709-6.64062 105.664-15.7715Q109.619-24.9023 109.619-35.2539Q109.619-45.6055 105.664-54.7363Q101.709-63.8672 94.751-70.8252Q87.793-77.7832 78.6377-81.7383Q69.4824-85.6934 59.1309-85.6934Q48.7793-85.6934 39.6484-81.7383Q30.5176-77.7832 23.584-70.8252Q16.6504-63.8672 12.6953-54.7363Q8.74023-45.6055 8.74023-35.2539Q8.74023-24.9023 12.6953-15.7715Q16.6504-6.64062 23.6084 0.317383Q30.5664 7.27539 39.6973 11.2305Q48.8281 15.1855 59.1797 15.1855ZM32.666-38.9648Q32.666-42.7246 34.4482-45.3125Q36.2305-47.9004 38.8184-47.9004Q41.4062-47.9004 43.1885-45.3125Q44.9707-42.7246 44.9707-38.9648Q44.9707-35.2539 43.1885-32.6904Q41.4062-30.127 38.8184-30.127Q36.2305-30.127 34.4482-32.6904Q32.666-35.2539 32.666-38.9648ZM44.873-53.5156Q44.873-57.2266 46.6553-59.7656Q48.4375-62.3047 51.0254-62.3047Q53.6133-62.3047 55.3711-59.7656Q57.1289-57.2266 57.1289-53.5156Q57.1289-49.8047 55.3711-47.1924Q53.6133-44.5801 51.0254-44.5801Q48.4375-44.5801 46.6553-47.1924Q44.873-49.8047 44.873-53.5156ZM61.1816-53.5156Q61.1816-57.2266 62.9395-59.7656Q64.6973-62.3047 67.334-62.3047Q69.9219-62.3047 71.7041-59.7656Q73.4863-57.2266 73.4863-53.5156Q73.4863-49.8047 71.6797-47.1924Q69.873-44.5801 67.334-44.5801Q64.6973-44.5801 62.9395-47.1924Q61.1816-49.8047 61.1816-53.5156ZM73.3887-38.9648Q73.3887-42.7246 75.1709-45.3125Q76.9531-47.9004 79.541-47.9004Q82.0801-47.9004 83.8623-45.3125Q85.6445-42.7246 85.6445-38.9648Q85.6445-35.2539 83.8623-32.6904Q82.0801-30.127 79.541-30.127Q76.9531-30.127 75.1709-32.6904Q73.3887-35.2539 73.3887-38.9648ZM40.2832-19.7266Q40.2832-22.9492 41.8945-24.8535Q43.5059-26.7578 45.3613-28.2715Q46.3867-29.0527 47.3389-29.8828Q48.291-30.7129 48.9746-31.7871Q49.5117-32.6172 49.9512-33.4717Q50.3906-34.3262 50.8301-35.2051Q51.7578-37.1094 52.6611-38.8184Q53.5645-40.5273 55.0781-41.6016Q56.5918-42.6758 59.1797-42.6758Q61.7188-42.6758 63.208-41.6016Q64.6973-40.5273 65.6494-38.8184Q66.6016-37.1094 67.4805-35.2051Q67.9199-34.3262 68.3838-33.4473Q68.8477-32.5684 69.3359-31.7383Q70.0684-30.7129 70.9961-29.8828Q71.9238-29.0527 72.9492-28.2715Q74.7559-26.7578 76.3672-24.8535Q77.9785-22.9492 77.9785-19.7266Q77.9785-15.8691 75.6348-13.4033Q73.291-10.9375 69.4824-10.9375Q67.627-10.9375 66.1865-11.3281Q64.7461-11.7188 63.4766-12.1582Q62.4512-12.5488 61.4014-12.8174Q60.3516-13.0859 59.1797-13.0859Q57.959-13.0859 56.9336-12.8174Q55.9082-12.5488 54.834-12.1582Q53.5156-11.7188 52.124-11.3281Q50.7324-10.9375 48.8281-10.9375Q45.0195-10.9375 42.6514-13.4033Q40.2832-15.8691 40.2832-19.7266Z"/>
  </g>
  <g id="Regular-M" transform="matrix(1 0 0 1 1391.3 1126)">
   <path d="M58.5449 14.5508Q68.75 14.5508 77.7588 10.6445Q86.7676 6.73828 93.6523-0.146484Q100.537-7.03125 104.443-16.04Q108.35-25.0488 108.35-35.2539Q108.35-45.459 104.443-54.4678Q100.537-63.4766 93.6523-70.3613Q86.7676-77.2461 77.7344-81.1523Q68.7012-85.0586 58.4961-85.0586Q48.291-85.0586 39.2822-81.1523Q30.2734-77.2461 23.4131-70.3613Q16.5527-63.4766 12.6465-54.4678Q8.74023-45.459 8.74023-35.2539Q8.74023-25.0488 12.6465-16.04Q16.5527-7.03125 23.4375-0.146484Q30.3223 6.73828 39.3311 10.6445Q48.3398 14.5508 58.5449 14.5508ZM31.6406-39.0625Q31.6406-42.8711 33.3984-45.459Q35.1562-48.0469 37.7441-48.0469Q40.332-48.0469 42.1143-45.459Q43.8965-42.8711 43.8965-39.0625Q43.8965-35.3027 42.1143-32.7393Q40.332-30.1758 37.7441-30.1758Q35.1562-30.1758 33.3984-32.7393Q31.6406-35.3027 31.6406-39.0625ZM44.043-53.8574Q44.043-57.6172 45.8252-60.1562Q47.6074-62.6953 50.1953-62.6953Q52.7832-62.6953 54.541-60.1562Q56.2988-57.6172 56.2988-53.8574Q56.2988-50.0977 54.541-47.4854Q52.7832-44.873 50.1953-44.873Q47.6074-44.873 45.8252-47.4854Q44.043-50.0977 44.043-53.8574ZM60.6934-53.8574Q60.6934-57.6172 62.4512-60.1562Q64.209-62.6953 66.7969-62.6953Q69.3848-62.6953 71.167-60.1562Q72.9492-57.6172 72.9492-53.8574Q72.9492-50.0977 71.167-47.4854Q69.3848-44.873 66.7969-44.873Q64.209-44.873 62.4512-47.4854Q60.6934-50.0977 60.6934-53.8574ZM73.0957-39.0625Q73.0957-42.8711 74.8779-45.459Q76.6602-48.0469 79.248-48.0469Q81.7871-48.0469 83.5693-45.459Q85.3516-42.8711 85.3516-39.0625Q85.3516-35.3027 83.5693-32.7393Q81.7871-30.1758 79.248-30.1758Q76.6602-30.1758 74.8779-32.7393Q73.0957-35.3027 73.0957-39.0625ZM39.3066-19.3848Q39.3066-22.6562 40.9424-24.585Q42.5781-26.5137 44.4824-28.0762Q45.5078-28.9062 46.4844-29.7607Q47.4609-30.6152 48.1934-31.7383Q48.7305-32.5684 49.1943-33.4717Q49.6582-34.375 50.0977-35.2539Q51.0254-37.207 51.9531-38.9404Q52.8809-40.6738 54.3945-41.748Q55.9082-42.8223 58.4961-42.8223Q61.084-42.8223 62.5732-41.748Q64.0625-40.6738 65.0146-38.9404Q65.9668-37.207 66.8945-35.2539Q67.334-34.375 67.7979-33.4473Q68.2617-32.5195 68.7988-31.6895Q69.5312-30.6152 70.5078-29.7607Q71.4844-28.9062 72.5098-28.0762Q74.3652-26.5137 76.001-24.585Q77.6367-22.6562 77.6367-19.3848Q77.6367-15.5273 75.293-13.0615Q72.9492-10.5957 69.0918-10.5957Q67.1875-10.5957 65.7471-10.9863Q64.3066-11.377 62.9883-11.8652Q61.9141-12.2559 60.8154-12.5244Q59.7168-12.793 58.4961-12.793Q57.2266-12.793 56.1523-12.5244Q55.0781-12.2559 54.0039-11.8652Q52.6367-11.377 51.2207-10.9863Q49.8047-10.5957 47.9004-10.5957Q44.043-10.5957 41.6748-13.0615Q39.3066-15.5273 39.3066-19.3848Z"/>
  </g>
  <g id="Light-M" transform="matrix(1 0 0 1 1095.42 1126)">
   <path d="M57.7148 13.7207Q67.7734 13.7207 76.6357 9.8877Q85.498 6.05469 92.2607-0.708008Q99.0234-7.4707 102.856-16.333Q106.689-25.1953 106.689-35.2539Q106.689-45.3125 102.856-54.1748Q99.0234-63.0371 92.2607-69.7998Q85.498-76.5625 76.6113-80.3955Q67.7246-84.2285 57.666-84.2285Q47.6074-84.2285 38.7451-80.3955Q29.8828-76.5625 23.1445-69.7998Q16.4062-63.0371 12.5732-54.1748Q8.74023-45.3125 8.74023-35.2539Q8.74023-25.1953 12.5732-16.333Q16.4062-7.4707 23.1689-0.708008Q29.9316 6.05469 38.7939 9.8877Q47.6562 13.7207 57.7148 13.7207ZM31.543-39.3066Q31.543-43.1152 33.2275-45.6299Q34.9121-48.1445 37.5-48.1445Q40.0879-48.1445 41.7725-45.6299Q43.457-43.1152 43.457-39.3066Q43.457-35.5469 41.7725-33.0566Q40.0879-30.5664 37.5-30.5664Q34.9121-30.5664 33.2275-33.0566Q31.543-35.5469 31.543-39.3066ZM43.6035-53.7109Q43.6035-57.5195 45.3125-59.9609Q47.0215-62.4023 49.6094-62.4023Q52.1973-62.4023 53.8818-59.9609Q55.5664-57.5195 55.5664-53.7109Q55.5664-49.9512 53.8818-47.4365Q52.1973-44.9219 49.6094-44.9219Q47.0215-44.9219 45.3125-47.4365Q43.6035-49.9512 43.6035-53.7109ZM59.8145-53.7109Q59.8145-57.5195 61.499-59.9609Q63.1836-62.4023 65.7715-62.4023Q68.3594-62.4023 70.0684-59.9609Q71.7773-57.5195 71.7773-53.7109Q71.7773-49.9512 70.0684-47.4365Q68.3594-44.9219 65.7715-44.9219Q63.1836-44.9219 61.499-47.4365Q59.8145-49.9512 59.8145-53.7109ZM71.9238-39.3066Q71.9238-43.1152 73.6328-45.6299Q75.3418-48.1445 77.9297-48.1445Q80.4688-48.1445 82.1533-45.6299Q83.8379-43.1152 83.8379-39.3066Q83.8379-35.5469 82.1533-33.0566Q80.4688-30.5664 77.9297-30.5664Q75.3418-30.5664 73.6328-33.0566Q71.9238-35.5469 71.9238-39.3066ZM38.7695-19.6777Q38.7695-22.9492 40.4541-24.9268Q42.1387-26.9043 44.043-28.418Q45.0684-29.248 45.9961-30.1025Q46.9238-30.957 47.6074-32.0312Q48.0957-32.7637 48.5107-33.6182Q48.9258-34.4727 49.3164-35.3027Q50.1953-37.207 51.1475-38.9648Q52.0996-40.7227 53.6377-41.8701Q55.1758-43.0176 57.7148-43.0176Q60.2539-43.0176 61.7432-41.8945Q63.2324-40.7715 64.209-38.9893Q65.1855-37.207 66.0645-35.3027Q66.4551-34.4238 66.8945-33.5449Q67.334-32.666 67.8223-31.8848Q68.457-30.9082 69.3848-30.0781Q70.3125-29.248 71.3379-28.418Q73.1934-26.9043 74.8779-24.9268Q76.5625-22.9492 76.5625-19.6777Q76.5625-15.9668 74.2188-13.5742Q71.875-11.1816 68.1641-11.1816Q66.2598-11.1816 64.8438-11.5967Q63.4277-12.0117 62.1582-12.5488Q61.0352-12.9395 59.9609-13.2324Q58.8867-13.5254 57.7148-13.5254Q56.4453-13.5254 55.3955-13.2324Q54.3457-12.9395 53.2715-12.5488Q51.9531-12.0117 50.5371-11.5967Q49.1211-11.1816 47.2656-11.1816Q43.5059-11.1816 41.1377-13.5742Q38.7695-15.9668 38.7695-19.6777Z"/>
  </g>
  <g id="Thin-M" transform="matrix(1 0 0 1 799.782 1126)">
   <path d="M56.5918 12.5977Q66.5039 12.5977 75.1709 8.88672Q83.8379 5.17578 90.4297-1.44043Q97.0215-8.05664 100.781-16.7236Q104.541-25.3906 104.541-35.2539Q104.541-45.1172 100.781-53.7842Q97.0215-62.4512 90.4297-69.0674Q83.8379-75.6836 75.1709-79.3945Q66.5039-83.1055 56.5918-83.1055Q46.7285-83.1055 38.0615-79.3945Q29.3945-75.6836 22.8271-69.0674Q16.2598-62.4512 12.5-53.7842Q8.74023-45.1172 8.74023-35.2539Q8.74023-25.3906 12.4756-16.7236Q16.2109-8.05664 22.8027-1.44043Q29.3945 5.17578 38.0859 8.88672Q46.7773 12.5977 56.5918 12.5977ZM31.4453-39.6484Q31.4453-43.457 33.0566-45.8496Q34.668-48.2422 37.207-48.2422Q39.7949-48.2422 41.3818-45.8496Q42.9688-43.457 42.9688-39.6484Q42.9688-35.8887 41.3818-33.4961Q39.7949-31.1035 37.207-31.1035Q34.668-31.1035 33.0566-33.4961Q31.4453-35.8887 31.4453-39.6484ZM43.1152-53.5645Q43.1152-57.373 44.7266-59.7168Q46.3379-62.0605 48.877-62.0605Q51.4648-62.0605 53.0518-59.6924Q54.6387-57.3242 54.6387-53.5645Q54.6387-49.707 53.0518-47.3145Q51.4648-44.9219 48.877-44.9219Q46.3379-44.9219 44.7266-47.3145Q43.1152-49.707 43.1152-53.5645ZM58.6914-53.5645Q58.6914-57.3242 60.3027-59.6924Q61.9141-62.0605 64.502-62.0605Q67.041-62.0605 68.6523-59.7168Q70.2637-57.373 70.2637-53.5645Q70.2637-49.707 68.6523-47.3145Q67.041-44.9219 64.502-44.9219Q61.9141-44.9219 60.3027-47.3145Q58.6914-49.707 58.6914-53.5645ZM70.4102-39.6484Q70.4102-43.457 71.9971-45.8496Q73.584-48.2422 76.1719-48.2422Q78.7109-48.2422 80.3223-45.8496Q81.9336-43.457 81.9336-39.6484Q81.9336-35.8887 80.3223-33.4961Q78.7109-31.1035 76.1719-31.1035Q73.584-31.1035 71.9971-33.4961Q70.4102-35.8887 70.4102-39.6484ZM38.1348-20.0195Q38.1348-23.3398 39.8682-25.3662Q41.6016-27.3926 43.5059-28.9062Q44.5312-29.7363 45.4102-30.5664Q46.2891-31.3965 46.875-32.373Q47.2656-33.0078 47.6318-33.7891Q47.998-34.5703 48.3398-35.4004Q49.1211-37.207 50.1221-39.0137Q51.123-40.8203 52.6611-42.041Q54.1992-43.2617 56.6895-43.2617Q59.1309-43.2617 60.6445-42.0654Q62.1582-40.8691 63.1836-39.0381Q64.209-37.207 64.9902-35.4004Q65.332-34.5215 65.7227-33.6914Q66.1133-32.8613 66.5527-32.1777Q67.0898-31.2988 67.9688-30.5176Q68.8477-29.7363 69.8242-28.9062Q71.6797-27.3926 73.4375-25.3662Q75.1953-23.3398 75.1953-20.0195Q75.1953-16.5527 72.8516-14.2822Q70.5078-12.0117 66.9434-12.0117Q65.0879-12.0117 63.6719-12.4512Q62.2559-12.8906 61.0352-13.4277Q59.9121-13.8672 58.8867-14.209Q57.8613-14.5508 56.6895-14.5508Q55.4688-14.5508 54.4434-14.209Q53.418-13.8672 52.2949-13.4277Q51.0254-12.8906 49.6338-12.4512Q48.2422-12.0117 46.4355-12.0117Q42.8223-12.0117 40.4785-14.2822Q38.1348-16.5527 38.1348-20.0195Z"/>
  </g>
  <g id="Ultralight-M" transform="matrix(1 0 0 1 503.632 1126)">
   <path d="M56.0547 12.0605Q65.8203 12.0605 74.3896 8.37402Q82.959 4.6875 89.4775-1.83105Q95.9961-8.34961 99.707-16.9189Q103.418-25.4883 103.418-35.2539Q103.418-45.0195 99.707-53.5889Q95.9961-62.1582 89.4775-68.6768Q82.959-75.1953 74.3896-78.8818Q65.8203-82.5684 56.0547-82.5684Q46.2891-82.5684 37.7197-78.8818Q29.1504-75.1953 22.6562-68.6768Q16.1621-62.1582 12.4512-53.5889Q8.74023-45.0195 8.74023-35.2539Q8.74023-25.4883 12.4268-16.9189Q16.1133-8.34961 22.6318-1.83105Q29.1504 4.6875 37.7197 8.37402Q46.2891 12.0605 56.0547 12.0605ZM31.3477-39.8438Q31.3477-43.6523 32.9102-45.9717Q34.4727-48.291 37.0117-48.291Q39.5996-48.291 41.1133-45.9717Q42.627-43.6523 42.627-39.8438Q42.627-36.0352 41.1133-33.7158Q39.5996-31.3965 37.0117-31.3965Q34.4727-31.3965 32.9102-33.7158Q31.3477-36.0352 31.3477-39.8438ZM42.7734-53.4668Q42.7734-57.2754 44.3359-59.5703Q45.8984-61.8652 48.4375-61.8652Q51.0254-61.8652 52.5879-59.5703Q54.1504-57.2754 54.1504-53.4668Q54.1504-49.6094 52.5879-47.29Q51.0254-44.9707 48.4375-44.9707Q45.8984-44.9707 44.3359-47.29Q42.7734-49.6094 42.7734-53.4668ZM58.1055-53.4668Q58.1055-57.2754 59.6436-59.5703Q61.1816-61.8652 63.7695-61.8652Q66.3086-61.8652 67.8711-59.5703Q69.4336-57.2754 69.4336-53.4668Q69.4336-49.6094 67.8711-47.29Q66.3086-44.9707 63.7695-44.9707Q61.1816-44.9707 59.6436-47.29Q58.1055-49.6094 58.1055-53.4668ZM69.5801-39.8438Q69.5801-43.6523 71.1182-45.9717Q72.6562-48.291 75.2441-48.291Q77.7832-48.291 79.3213-45.9717Q80.8594-43.6523 80.8594-39.8438Q80.8594-36.0352 79.3213-33.7158Q77.7832-31.3965 75.2441-31.3965Q72.6562-31.3965 71.1182-33.7158Q69.5801-36.0352 69.5801-39.8438ZM37.7441-20.2148Q37.7441-23.584 39.5264-25.6104Q41.3086-27.6367 43.2129-29.1504Q44.2383-29.9805 45.0684-30.7861Q45.8984-31.5918 46.4355-32.5684Q46.8262-33.1543 47.1436-33.8867Q47.4609-34.6191 47.8027-35.4492Q48.5352-37.207 49.5361-39.0381Q50.5371-40.8691 52.0996-42.1143Q53.6621-43.3594 56.1035-43.3594Q58.5449-43.3594 60.0586-42.1387Q61.5723-40.918 62.5977-39.0625Q63.623-37.207 64.4043-35.4492Q64.7461-34.5703 65.1123-33.7646Q65.4785-32.959 65.8203-32.3242Q66.3086-31.543 67.1631-30.7617Q68.0176-29.9805 68.9941-29.1504Q70.8496-27.6367 72.6318-25.6104Q74.4141-23.584 74.4141-20.2148Q74.4141-16.8457 72.0703-14.624Q69.7266-12.4023 66.2598-12.4023Q64.4531-12.4023 63.0371-12.8662Q61.6211-13.3301 60.4492-13.8672Q59.3262-14.3555 58.3008-14.6973Q57.2754-15.0391 56.1035-15.0391Q54.8828-15.0391 53.8818-14.6973Q52.8809-14.3555 51.7578-13.8672Q50.5371-13.3301 49.1455-12.8662Q47.7539-12.4023 45.9961-12.4023Q42.4316-12.4023 40.0879-14.624Q37.7441-16.8457 37.7441-20.2148Z"/>
  </g>
  <g id="Black-S" transform="matrix(1 0 0 1 2884.57 696)">
   <path d="M48.8281 6.78711Q57.5195 6.78711 65.1123 3.51562Q72.7051 0.244141 78.4912-5.54199Q84.2773-11.3281 87.5488-18.9209Q90.8203-26.5137 90.8203-35.2051Q90.8203-43.8965 87.5488-51.4893Q84.2773-59.082 78.4912-64.8682Q72.7051-70.6543 65.1123-73.9258Q57.5195-77.1973 48.8281-77.1973Q40.1367-77.1973 32.5439-73.9258Q24.9512-70.6543 19.165-64.8682Q13.3789-59.082 10.1074-51.4893Q6.83594-43.8965 6.83594-35.2051Q6.83594-26.5137 10.1074-18.9209Q13.3789-11.3281 19.165-5.54199Q24.9512 0.244141 32.5439 3.51562Q40.1367 6.78711 48.8281 6.78711ZM29.541-37.793Q29.541-40.5273 30.9814-42.5049Q32.4219-44.4824 34.4238-44.4824Q36.4746-44.4824 37.8906-42.5049Q39.3066-40.5273 39.3066-37.793Q39.3066-35.0098 37.8906-33.0322Q36.4746-31.0547 34.4238-31.0547Q32.4219-31.0547 30.9814-33.0322Q29.541-35.0098 29.541-37.793ZM38.2324-48.1445Q38.2324-50.9277 39.624-52.9053Q41.0156-54.8828 43.0664-54.8828Q45.1172-54.8828 46.5576-52.9053Q47.998-50.9277 47.998-48.1445Q47.998-45.4102 46.5576-43.4326Q45.1172-41.4551 43.0664-41.4551Q41.0645-41.4551 39.6484-43.4326Q38.2324-45.4102 38.2324-48.1445ZM49.6582-48.1445Q49.6582-50.9277 51.0986-52.9053Q52.5391-54.8828 54.5898-54.8828Q56.6406-54.8828 58.0322-52.9053Q59.4238-50.9277 59.4238-48.1445Q59.4238-45.4102 58.0078-43.4326Q56.5918-41.4551 54.5898-41.4551Q52.5391-41.4551 51.0986-43.4326Q49.6582-45.4102 49.6582-48.1445ZM58.3496-37.793Q58.3496-40.5273 59.7656-42.5049Q61.1816-44.4824 63.2324-44.4824Q65.2344-44.4824 66.6748-42.5049Q68.1152-40.5273 68.1152-37.793Q68.1152-35.0098 66.6748-33.0322Q65.2344-31.0547 63.2324-31.0547Q61.1816-31.0547 59.7656-33.0322Q58.3496-35.0098 58.3496-37.793ZM35.4004-24.3652Q35.4004-26.7578 36.5723-28.1494Q37.7441-29.541 39.0137-30.5176Q39.6973-31.0547 40.3076-31.6162Q40.918-32.1777 41.3086-32.8125Q41.6504-33.3008 41.9434-33.8623Q42.2363-34.4238 42.5781-35.1074Q43.5059-37.0605 44.6777-38.7695Q45.8496-40.4785 48.8281-40.4785Q51.8066-40.4785 52.9785-38.7695Q54.1504-37.0605 55.0781-35.1074Q55.4199-34.4238 55.7129-33.8623Q56.0059-33.3008 56.3477-32.8125Q56.7383-32.1777 57.373-31.6162Q58.0078-31.0547 58.6426-30.5176Q59.9121-29.541 61.084-28.1494Q62.2559-26.7578 62.2559-24.3652Q62.2559-21.3867 60.4736-19.4824Q58.6914-17.5781 55.8105-17.5781Q54.4434-17.5781 53.3936-17.8711Q52.3438-18.1641 51.5137-18.457Q50.8789-18.7012 50.2441-18.8477Q49.6094-18.9941 48.8281-18.9941Q48.0469-18.9941 47.4365-18.8477Q46.8262-18.7012 46.1426-18.457Q45.3125-18.1641 44.2627-17.8711Q43.2129-17.5781 41.8457-17.5781Q39.0137-17.5781 37.207-19.4824Q35.4004-21.3867 35.4004-24.3652Z"/>
  </g>
  <g id="Heavy-S" transform="matrix(1 0 0 1 2588.47 696)">
   <path d="M48.1934 6.15234Q56.7871 6.15234 64.2578 2.92969Q71.7285-0.292969 77.4414-6.00586Q83.1543-11.7188 86.377-19.1895Q89.5996-26.6602 89.5996-35.2051Q89.5996-43.75 86.377-51.2451Q83.1543-58.7402 77.4414-64.4531Q71.7285-70.166 64.2334-73.3887Q56.7383-76.6113 48.1934-76.6113Q39.6484-76.6113 32.1777-73.3887Q24.707-70.166 18.9941-64.4531Q13.2812-58.7402 10.0586-51.2451Q6.83594-43.75 6.83594-35.2051Q6.83594-26.6602 10.0586-19.1895Q13.2812-11.7188 18.9941-6.00586Q24.707-0.292969 32.2021 2.92969Q39.6973 6.15234 48.1934 6.15234ZM28.418-37.8906Q28.418-40.6738 29.8584-42.6758Q31.2988-44.6777 33.3008-44.6777Q35.3516-44.6777 36.7676-42.6758Q38.1836-40.6738 38.1836-37.8906Q38.1836-35.0586 36.7676-33.0566Q35.3516-31.0547 33.3008-31.0547Q31.2988-31.0547 29.8584-33.0566Q28.418-35.0586 28.418-37.8906ZM37.4023-48.5352Q37.4023-51.3672 38.7939-53.3691Q40.1855-55.3711 42.2363-55.3711Q44.2871-55.3711 45.7275-53.3691Q47.168-51.3672 47.168-48.5352Q47.168-45.8008 45.7275-43.7744Q44.2871-41.748 42.2363-41.748Q40.2344-41.748 38.8184-43.7744Q37.4023-45.8008 37.4023-48.5352ZM49.2676-48.5352Q49.2676-51.3672 50.6836-53.3691Q52.0996-55.3711 54.1504-55.3711Q56.2012-55.3711 57.6172-53.3691Q59.0332-51.3672 59.0332-48.5352Q59.0332-45.8008 57.5928-43.7744Q56.1523-41.748 54.1504-41.748Q52.0996-41.748 50.6836-43.7744Q49.2676-45.8008 49.2676-48.5352ZM58.2031-37.8906Q58.2031-40.6738 59.6436-42.6758Q61.084-44.6777 63.0859-44.6777Q65.0879-44.6777 66.5283-42.6758Q67.9688-40.6738 67.9688-37.8906Q67.9688-35.0586 66.5283-33.0566Q65.0879-31.0547 63.0859-31.0547Q61.084-31.0547 59.6436-33.0566Q58.2031-35.0586 58.2031-37.8906ZM34.375-23.9746Q34.375-26.416 35.5713-27.832Q36.7676-29.248 38.0859-30.2734Q38.7695-30.8105 39.4287-31.3965Q40.0879-31.9824 40.5273-32.7148Q40.918-33.252 41.2109-33.8379Q41.5039-34.4238 41.8457-35.1074Q42.8223-37.207 44.0186-38.916Q45.2148-40.625 48.1934-40.625Q51.2207-40.625 52.3926-38.916Q53.5645-37.207 54.541-35.1074Q54.8828-34.4238 55.2002-33.8379Q55.5176-33.252 55.8594-32.7148Q56.2988-31.9824 56.9824-31.3965Q57.666-30.8105 58.3496-30.2734Q59.668-29.248 60.8398-27.832Q62.0117-26.416 62.0117-23.9746Q62.0117-20.9473 60.2295-19.043Q58.4473-17.1387 55.5176-17.1387Q54.1016-17.1387 53.0273-17.4316Q51.9531-17.7246 51.0742-18.0176Q50.3906-18.2617 49.707-18.4326Q49.0234-18.6035 48.1934-18.6035Q47.3633-18.6035 46.7041-18.4326Q46.0449-18.2617 45.3125-18.0176Q44.4336-17.7246 43.3594-17.4316Q42.2852-17.1387 40.8691-17.1387Q37.9883-17.1387 36.1816-19.043Q34.375-20.9473 34.375-23.9746Z"/>
  </g>
  <g id="Bold-S" transform="matrix(1 0 0 1 2292.42 696)">
   <path d="M47.5586 5.46875Q55.957 5.46875 63.3057 2.29492Q70.6543-0.878906 76.2695-6.51855Q81.8848-12.1582 85.083-19.5068Q88.2812-26.8555 88.2812-35.2539Q88.2812-43.6035 85.083-50.9766Q81.8848-58.3496 76.2695-63.9648Q70.6543-69.5801 63.2812-72.7539Q55.9082-75.9277 47.5098-75.9277Q39.1602-75.9277 31.7871-72.7539Q24.4141-69.5801 18.8232-63.9648Q13.2324-58.3496 10.0342-50.9766Q6.83594-43.6035 6.83594-35.2539Q6.83594-26.8555 10.0342-19.5068Q13.2324-12.1582 18.8477-6.51855Q24.4629-0.878906 31.8115 2.29492Q39.1602 5.46875 47.5586 5.46875ZM27.1973-37.9883Q27.1973-40.8203 28.6377-42.8467Q30.0781-44.873 32.0801-44.873Q34.1309-44.873 35.5469-42.8467Q36.9629-40.8203 36.9629-37.9883Q36.9629-35.1074 35.5469-33.0811Q34.1309-31.0547 32.0801-31.0547Q30.0781-31.0547 28.6377-33.0811Q27.1973-35.1074 27.1973-37.9883ZM36.4746-49.0234Q36.4746-51.9043 37.8906-53.9062Q39.3066-55.9082 41.3574-55.9082Q43.4082-55.9082 44.8242-53.9062Q46.2402-51.9043 46.2402-49.0234Q46.2402-46.1914 44.8242-44.165Q43.4082-42.1387 41.3574-42.1387Q39.3555-42.1387 37.915-44.165Q36.4746-46.1914 36.4746-49.0234ZM48.8281-49.0234Q48.8281-51.9043 50.2686-53.9062Q51.709-55.9082 53.7109-55.9082Q55.7617-55.9082 57.1777-53.9062Q58.5938-51.9043 58.5938-49.0234Q58.5938-46.1914 57.1533-44.165Q55.7129-42.1387 53.7109-42.1387Q51.709-42.1387 50.2686-44.165Q48.8281-46.1914 48.8281-49.0234ZM58.1055-37.9883Q58.1055-40.8203 59.5459-42.8467Q60.9863-44.873 62.9883-44.873Q64.9902-44.873 66.4307-42.8467Q67.8711-40.8203 67.8711-37.9883Q67.8711-35.1074 66.4307-33.0811Q64.9902-31.0547 62.9883-31.0547Q60.9863-31.0547 59.5459-33.0811Q58.1055-35.1074 58.1055-37.9883ZM33.252-23.5352Q33.252-26.0254 34.4727-27.4658Q35.6934-28.9062 37.0605-29.9805Q37.793-30.5664 38.501-31.2012Q39.209-31.8359 39.6973-32.6172Q40.0879-33.2031 40.4297-33.8379Q40.7715-34.4727 41.1133-35.1562Q42.1387-37.3535 43.335-39.0869Q44.5312-40.8203 47.5586-40.8203Q50.5859-40.8203 51.7578-39.0869Q52.9297-37.3535 53.9551-35.1562Q54.2969-34.4727 54.6387-33.8379Q54.9805-33.2031 55.3711-32.6172Q55.9082-31.8359 56.6162-31.2012Q57.3242-30.5664 58.0566-29.9805Q59.4238-28.9062 60.6201-27.4658Q61.8164-26.0254 61.8164-23.5352Q61.8164-20.5078 60.0098-18.5547Q58.2031-16.6016 55.2246-16.6016Q53.8086-16.6016 52.71-16.9189Q51.6113-17.2363 50.6836-17.5293Q49.9023-17.8223 49.1699-17.9932Q48.4375-18.1641 47.5586-18.1641Q46.6797-18.1641 45.9229-17.9932Q45.166-17.8223 44.4336-17.5293Q43.457-17.2363 42.3828-16.9189Q41.3086-16.6016 39.8438-16.6016Q36.9141-16.6016 35.083-18.5547Q33.252-20.5078 33.252-23.5352Z"/>
  </g>
  <g id="Semibold-S" transform="matrix(1 0 0 1 1996.2 696)">
   <path d="M47.0703 4.98047Q55.3711 4.98047 62.6465 1.85547Q69.9219-1.26953 75.4639-6.86035Q81.0059-12.4512 84.1553-19.7266Q87.3047-27.002 87.3047-35.2539Q87.3047-43.5059 84.1553-50.7812Q81.0059-58.0566 75.4395-63.623Q69.873-69.1895 62.5977-72.3389Q55.3223-75.4883 47.0215-75.4883Q38.7695-75.4883 31.4941-72.3389Q24.2188-69.1895 18.6768-63.623Q13.1348-58.0566 9.98535-50.7812Q6.83594-43.5059 6.83594-35.2539Q6.83594-27.002 9.98535-19.7266Q13.1348-12.4512 18.7012-6.86035Q24.2676-1.26953 31.543 1.85547Q38.8184 4.98047 47.0703 4.98047ZM26.3672-38.0371Q26.3672-40.918 27.7832-42.9443Q29.1992-44.9707 31.25-44.9707Q33.252-44.9707 34.6924-42.9443Q36.1328-40.918 36.1328-38.0371Q36.1328-35.1074 34.6924-33.0811Q33.252-31.0547 31.25-31.0547Q29.1992-31.0547 27.7832-33.0811Q26.3672-35.1074 26.3672-38.0371ZM35.8398-49.3652Q35.8398-52.2461 37.2803-54.248Q38.7207-56.25 40.7227-56.25Q42.7734-56.25 44.1895-54.248Q45.6055-52.2461 45.6055-49.3652Q45.6055-46.4844 44.1895-44.4092Q42.7734-42.334 40.7227-42.334Q38.7207-42.334 37.2803-44.4092Q35.8398-46.4844 35.8398-49.3652ZM48.5352-49.3652Q48.5352-52.2461 49.9756-54.248Q51.416-56.25 53.418-56.25Q55.4199-56.25 56.8604-54.248Q58.3008-52.2461 58.3008-49.3652Q58.3008-46.4844 56.8604-44.4092Q55.4199-42.334 53.418-42.334Q51.416-42.334 49.9756-44.4092Q48.5352-46.4844 48.5352-49.3652ZM58.0566-38.0371Q58.0566-40.918 59.4727-42.9443Q60.8887-44.9707 62.9395-44.9707Q64.9414-44.9707 66.3818-42.9443Q67.8223-40.918 67.8223-38.0371Q67.8223-35.1074 66.3818-33.0811Q64.9414-31.0547 62.9395-31.0547Q60.8887-31.0547 59.4727-33.0811Q58.0566-35.1074 58.0566-38.0371ZM32.4707-23.2422Q32.4707-25.7324 33.7158-27.1973Q34.9609-28.6621 36.3281-29.7852Q37.1094-30.3711 37.8418-31.0303Q38.5742-31.6895 39.1113-32.5195Q39.5508-33.1543 39.8926-33.8135Q40.2344-34.4727 40.625-35.1562Q41.6504-37.4512 42.8467-39.1846Q44.043-40.918 47.0703-40.918Q50.1465-40.918 51.3184-39.1846Q52.4902-37.4512 53.5645-35.1562Q53.9062-34.4727 54.2725-33.8135Q54.6387-33.1543 55.0293-32.5195Q55.6152-31.6895 56.3477-31.0303Q57.0801-30.3711 57.8125-29.7852Q59.2285-28.6621 60.4492-27.1973Q61.6699-25.7324 61.6699-23.2422Q61.6699-20.166 59.8389-18.2129Q58.0078-16.2598 54.9805-16.2598Q53.5645-16.2598 52.4414-16.5527Q51.3184-16.8457 50.3906-17.1875Q49.5605-17.4805 48.7793-17.6514Q47.998-17.8223 47.0703-17.8223Q46.1914-17.8223 45.3857-17.6514Q44.5801-17.4805 43.7988-17.1875Q42.8223-16.8457 41.7236-16.5527Q40.625-16.2598 39.1602-16.2598Q36.1816-16.2598 34.3262-18.2129Q32.4707-20.166 32.4707-23.2422Z"/>
  </g>
  <g id="Medium-S" transform="matrix(1 0 0 1 1699.83 696)">
   <path d="M46.7285 4.63867Q54.9316 4.63867 62.1338 1.51367Q69.3359-1.61133 74.8535-7.12891Q80.3711-12.6465 83.4961-19.8486Q86.6211-27.0508 86.6211-35.2539Q86.6211-43.4082 83.4961-50.6348Q80.3711-57.8613 74.8291-63.3789Q69.2871-68.8965 62.085-71.9971Q54.8828-75.0977 46.6797-75.0977Q38.4766-75.0977 31.2744-71.9971Q24.0723-68.8965 18.5791-63.3789Q13.0859-57.8613 9.96094-50.6348Q6.83594-43.4082 6.83594-35.2539Q6.83594-27.0508 9.96094-19.8486Q13.0859-12.6465 18.6035-7.12891Q24.1211-1.61133 31.3232 1.51367Q38.5254 4.63867 46.7285 4.63867ZM25.6836-38.0859Q25.6836-41.0156 27.0996-43.042Q28.5156-45.0684 30.5664-45.0684Q32.5684-45.0684 34.0088-43.042Q35.4492-41.0156 35.4492-38.0859Q35.4492-35.1074 34.0088-33.0811Q32.5684-31.0547 30.5664-31.0547Q28.5156-31.0547 27.0996-33.0811Q25.6836-35.1074 25.6836-38.0859ZM35.3516-49.6094Q35.3516-52.4902 36.7676-54.5166Q38.1836-56.543 40.2344-56.543Q42.2852-56.543 43.7012-54.5166Q45.1172-52.4902 45.1172-49.6094Q45.1172-46.6797 43.7012-44.6045Q42.2852-42.5293 40.2344-42.5293Q38.2324-42.5293 36.792-44.6045Q35.3516-46.6797 35.3516-49.6094ZM48.291-49.6094Q48.291-52.4902 49.707-54.5166Q51.123-56.543 53.125-56.543Q55.127-56.543 56.5918-54.5166Q58.0566-52.4902 58.0566-49.6094Q58.0566-46.6797 56.5918-44.6045Q55.127-42.5293 53.125-42.5293Q51.123-42.5293 49.707-44.6045Q48.291-46.6797 48.291-49.6094ZM57.959-38.0859Q57.959-41.0156 59.375-43.042Q60.791-45.0684 62.8418-45.0684Q64.8438-45.0684 66.2842-43.042Q67.7246-41.0156 67.7246-38.0859Q67.7246-35.1074 66.2842-33.0811Q64.8438-31.0547 62.8418-31.0547Q60.791-31.0547 59.375-33.0811Q57.959-35.1074 57.959-38.0859ZM31.8848-22.998Q31.8848-25.5371 33.1055-27.002Q34.3262-28.4668 35.7422-29.6387Q36.5234-30.2734 37.3047-30.9326Q38.0859-31.5918 38.623-32.4707Q39.0625-33.1055 39.4287-33.8135Q39.7949-34.5215 40.1855-35.2051Q41.2109-37.5 42.4316-39.2578Q43.6523-41.0156 46.6797-41.0156Q49.7559-41.0156 50.9521-39.2578Q52.1484-37.5 53.2227-35.2051Q53.5645-34.5215 53.9307-33.8135Q54.2969-33.1055 54.7363-32.4707Q55.3223-31.5918 56.0791-30.9326Q56.8359-30.2734 57.6172-29.6387Q59.082-28.4668 60.3027-27.002Q61.5234-25.5371 61.5234-22.998Q61.5234-19.9219 59.6924-17.9443Q57.8613-15.9668 54.7852-15.9668Q53.3691-15.9668 52.2217-16.2842Q51.0742-16.6016 50.0977-16.9434Q49.2676-17.2363 48.4619-17.4072Q47.6562-17.5781 46.6797-17.5781Q45.752-17.5781 44.9219-17.4072Q44.0918-17.2363 43.3105-16.9434Q42.2363-16.6016 41.1377-16.2842Q40.0391-15.9668 38.5254-15.9668Q35.5469-15.9668 33.7158-17.9443Q31.8848-19.9219 31.8848-22.998Z"/>
  </g>
  <g id="Regular-S" transform="matrix(1 0 0 1 1403.58 696)">
   <path d="M46.2402 4.15039Q54.3457 4.15039 61.4746 1.07422Q68.6035-2.00195 74.0479-7.4707Q79.4922-12.9395 82.5928-20.0684Q85.6934-27.1973 85.6934-35.2539Q85.6934-43.3105 82.5928-50.4395Q79.4922-57.5684 74.0234-63.0371Q68.5547-68.5059 61.4258-71.582Q54.2969-74.6582 46.1914-74.6582Q38.1348-74.6582 31.0059-71.582Q23.877-68.5059 18.457-63.0371Q13.0371-57.5684 9.93652-50.4395Q6.83594-43.3105 6.83594-35.2539Q6.83594-27.1973 9.93652-20.0684Q13.0371-12.9395 18.4814-7.4707Q23.9258-2.00195 31.0547 1.07422Q38.1836 4.15039 46.2402 4.15039ZM24.8535-38.1348Q24.8535-41.1133 26.2695-43.1641Q27.6855-45.2148 29.7363-45.2148Q31.7383-45.2148 33.1787-43.1641Q34.6191-41.1133 34.6191-38.1348Q34.6191-35.1562 33.1787-33.1055Q31.7383-31.0547 29.7363-31.0547Q27.6855-31.0547 26.2695-33.1055Q24.8535-35.1562 24.8535-38.1348ZM34.7168-49.9023Q34.7168-52.832 36.1572-54.8584Q37.5977-56.8848 39.5996-56.8848Q41.6504-56.8848 43.0664-54.8584Q44.4824-52.832 44.4824-49.9023Q44.4824-46.9727 43.0664-44.873Q41.6504-42.7734 39.5996-42.7734Q37.5977-42.7734 36.1572-44.873Q34.7168-46.9727 34.7168-49.9023ZM47.998-49.9023Q47.998-52.832 49.4141-54.8584Q50.8301-56.8848 52.832-56.8848Q54.834-56.8848 56.2988-54.8584Q57.7637-52.832 57.7637-49.9023Q57.7637-46.9727 56.2988-44.873Q54.834-42.7734 52.832-42.7734Q50.8301-42.7734 49.4141-44.873Q47.998-46.9727 47.998-49.9023ZM57.8613-38.1348Q57.8613-41.1133 59.3018-43.1641Q60.7422-45.2148 62.7441-45.2148Q64.7461-45.2148 66.1865-43.1641Q67.627-41.1133 67.627-38.1348Q67.627-35.1562 66.1865-33.1055Q64.7461-31.0547 62.7441-31.0547Q60.7422-31.0547 59.3018-33.1055Q57.8613-35.1562 57.8613-38.1348ZM31.1035-22.7051Q31.1035-25.2441 32.3486-26.7334Q33.5938-28.2227 35.0586-29.4434Q35.8398-30.0781 36.6455-30.7617Q37.4512-31.4453 38.0371-32.373Q38.5254-33.0566 38.8916-33.7891Q39.2578-34.5215 39.6484-35.2051Q40.7227-37.5977 41.9434-39.3555Q43.1641-41.1133 46.2402-41.1133Q49.3164-41.1133 50.5127-39.3555Q51.709-37.5977 52.832-35.2051Q53.1738-34.5215 53.5645-33.7891Q53.9551-33.0566 54.3945-32.373Q55.0293-31.4453 55.8105-30.7617Q56.5918-30.0781 57.4219-29.4434Q58.8867-28.2227 60.1318-26.7334Q61.377-25.2441 61.377-22.7051Q61.377-19.5801 59.5215-17.6025Q57.666-15.625 54.5898-15.625Q53.125-15.625 51.9775-15.9424Q50.8301-16.2598 49.8047-16.6016Q48.9258-16.8945 48.0713-17.0898Q47.2168-17.2852 46.2402-17.2852Q45.2637-17.2852 44.3848-17.0898Q43.5059-16.8945 42.6758-16.6016Q41.6016-16.2598 40.4785-15.9424Q39.3555-15.625 37.8418-15.625Q34.8145-15.625 32.959-17.6025Q31.1035-19.5801 31.1035-22.7051Z"/>
  </g>
  <g id="Light-S" transform="matrix(1 0 0 1 1107.6 696)">
   <path d="M45.5078 3.41797Q53.4668 3.41797 60.4736 0.415039Q67.4805-2.58789 72.8271-7.95898Q78.1738-13.3301 81.2012-20.3125Q84.2285-27.2949 84.2285-35.2539Q84.2285-43.2129 81.2012-50.1953Q78.1738-57.1777 72.8027-62.5488Q67.4316-67.9199 60.4492-70.9229Q53.4668-73.9258 45.459-73.9258Q37.5488-73.9258 30.542-70.9229Q23.5352-67.9199 18.2129-62.5488Q12.8906-57.1777 9.86328-50.1953Q6.83594-43.2129 6.83594-35.2539Q6.83594-27.2949 9.86328-20.3125Q12.8906-13.3301 18.2373-7.95898Q23.584-2.58789 30.5908 0.415039Q37.5977 3.41797 45.5078 3.41797ZM24.7559-38.3301Q24.7559-41.3574 26.123-43.335Q27.4902-45.3125 29.4922-45.3125Q31.4941-45.3125 32.8613-43.335Q34.2285-41.3574 34.2285-38.3301Q34.2285-35.4004 32.8613-33.4229Q31.4941-31.4453 29.4922-31.4453Q27.4902-31.4453 26.123-33.4229Q24.7559-35.4004 24.7559-38.3301ZM34.3262-49.8047Q34.3262-52.7344 35.6934-54.6875Q37.0605-56.6406 39.0625-56.6406Q41.1133-56.6406 42.4805-54.6875Q43.8477-52.7344 43.8477-49.8047Q43.8477-46.8262 42.4805-44.8242Q41.1133-42.8223 39.0625-42.8223Q37.0605-42.8223 35.6934-44.8242Q34.3262-46.8262 34.3262-49.8047ZM47.2168-49.8047Q47.2168-52.7344 48.584-54.6875Q49.9512-56.6406 51.9531-56.6406Q53.9551-56.6406 55.3223-54.6875Q56.6895-52.7344 56.6895-49.8047Q56.6895-46.8262 55.3223-44.8242Q53.9551-42.8223 51.9531-42.8223Q49.9512-42.8223 48.584-44.8242Q47.2168-46.8262 47.2168-49.8047ZM56.7871-38.3301Q56.7871-41.3574 58.1543-43.335Q59.5215-45.3125 61.5234-45.3125Q63.5742-45.3125 64.9414-43.335Q66.3086-41.3574 66.3086-38.3301Q66.3086-35.4004 64.9414-33.4229Q63.5742-31.4453 61.5234-31.4453Q59.5215-31.4453 58.1543-33.4229Q56.7871-35.4004 56.7871-38.3301ZM30.6152-22.9492Q30.6152-25.4883 31.9092-27.0264Q33.2031-28.5645 34.668-29.7852Q35.4492-30.4199 36.2061-31.0791Q36.9629-31.7383 37.5-32.6172Q37.9395-33.2031 38.2812-33.9111Q38.623-34.6191 38.9648-35.2539Q39.9902-37.5488 41.2598-39.4043Q42.5293-41.2598 45.5078-41.2598Q48.5352-41.2598 49.7803-39.4043Q51.0254-37.5488 52.0996-35.2539Q52.3926-34.5703 52.7588-33.8867Q53.125-33.2031 53.5156-32.5684Q54.0527-31.7383 54.8096-31.0791Q55.5664-30.4199 56.3477-29.7852Q57.8125-28.5645 59.1064-27.0264Q60.4004-25.4883 60.4004-22.9492Q60.4004-19.9707 58.5693-18.0664Q56.7383-16.1621 53.7598-16.1621Q52.2949-16.1621 51.1475-16.5039Q50-16.8457 49.0234-17.1875Q48.1445-17.4805 47.3145-17.7246Q46.4844-17.9688 45.5078-17.9688Q44.5801-17.9688 43.7256-17.7246Q42.8711-17.4805 41.9922-17.1875Q40.9668-16.8457 39.8438-16.5039Q38.7207-16.1621 37.2559-16.1621Q34.3262-16.1621 32.4707-18.0664Q30.6152-19.9707 30.6152-22.9492Z"/>
  </g>
  <g id="Thin-S" transform="matrix(1 0 0 1 811.867 696)">
   <path d="M44.5312 2.44141Q52.3438 2.44141 59.1553-0.488281Q65.9668-3.41797 71.1914-8.64258Q76.416-13.8672 79.3457-20.6787Q82.2754-27.4902 82.2754-35.2539Q82.2754-43.0176 79.3457-49.8291Q76.416-56.6406 71.1914-61.8652Q65.9668-67.0898 59.1553-70.0195Q52.3438-72.9492 44.5312-72.9492Q36.7676-72.9492 29.9316-70.0195Q23.0957-67.0898 17.9199-61.8652Q12.7441-56.6406 9.79004-49.8291Q6.83594-43.0176 6.83594-35.2539Q6.83594-27.4902 9.79004-20.6787Q12.7441-13.8672 17.9199-8.64258Q23.0957-3.41797 29.9316-0.488281Q36.7676 2.44141 44.5312 2.44141ZM24.6582-38.623Q24.6582-41.6504 25.9277-43.5303Q27.1973-45.4102 29.248-45.4102Q31.25-45.4102 32.5195-43.5303Q33.7891-41.6504 33.7891-38.623Q33.7891-35.6934 32.5195-33.8135Q31.25-31.9336 29.248-31.9336Q27.1973-31.9336 25.9277-33.8135Q24.6582-35.6934 24.6582-38.623ZM33.8867-49.6094Q33.8867-52.5879 35.1562-54.4434Q36.4258-56.2988 38.4277-56.2988Q40.4785-56.2988 41.7236-54.4434Q42.9688-52.5879 42.9688-49.6094Q42.9688-46.6309 41.7236-44.7266Q40.4785-42.8223 38.4277-42.8223Q36.4258-42.8223 35.1562-44.7266Q33.8867-46.6309 33.8867-49.6094ZM46.2402-49.6094Q46.2402-52.5879 47.5098-54.4434Q48.7793-56.2988 50.7812-56.2988Q52.7832-56.2988 54.0771-54.4434Q55.3711-52.5879 55.3711-49.6094Q55.3711-46.6309 54.0771-44.7266Q52.7832-42.8223 50.7812-42.8223Q48.7793-42.8223 47.5098-44.7266Q46.2402-46.6309 46.2402-49.6094ZM55.4688-38.623Q55.4688-41.6504 56.7139-43.5303Q57.959-45.4102 59.9609-45.4102Q62.0117-45.4102 63.2812-43.5303Q64.5508-41.6504 64.5508-38.623Q64.5508-35.6934 63.2812-33.8135Q62.0117-31.9336 59.9609-31.9336Q57.959-31.9336 56.7139-33.8135Q55.4688-35.6934 55.4688-38.623ZM29.9805-23.2422Q29.9805-25.8301 31.3477-27.417Q32.7148-29.0039 34.1797-30.1758Q34.9609-30.8594 35.6689-31.4941Q36.377-32.1289 36.8652-32.9102Q37.207-33.4473 37.4756-34.082Q37.7441-34.7168 38.0859-35.3516Q39.0137-37.5 40.332-39.4775Q41.6504-41.4551 44.5801-41.4551Q47.5098-41.4551 48.8281-39.502Q50.1465-37.5488 51.123-35.3516Q51.416-34.668 51.7334-34.0088Q52.0508-33.3496 52.3926-32.8125Q52.832-32.0801 53.5156-31.4697Q54.1992-30.8594 55.0293-30.1758Q56.4941-29.0039 57.8369-27.417Q59.1797-25.8301 59.1797-23.2422Q59.1797-20.5078 57.3486-18.7012Q55.5176-16.8945 52.6855-16.8945Q51.2207-16.8945 50.0977-17.2363Q48.9746-17.5781 48.0469-17.9688Q47.168-18.3105 46.3623-18.5791Q45.5566-18.8477 44.5801-18.8477Q43.6523-18.8477 42.8223-18.5791Q41.9922-18.3105 41.1621-17.9688Q40.1855-17.5781 39.0869-17.2363Q37.9883-16.8945 36.5234-16.8945Q33.6914-16.8945 31.8359-18.7012Q29.9805-20.5078 29.9805-23.2422Z"/>
  </g>
  <g id="Ultralight-S" transform="matrix(1 0 0 1 515.644 696)">
   <path d="M44.043 1.95312Q51.7578 1.95312 58.4717-0.927734Q65.1855-3.80859 70.3369-8.95996Q75.4883-14.1113 78.3936-20.8252Q81.2988-27.5391 81.2988-35.2539Q81.2988-42.9688 78.3936-49.6826Q75.4883-56.3965 70.3369-61.5479Q65.1855-66.6992 58.4717-69.5801Q51.7578-72.4609 44.043-72.4609Q36.377-72.4609 29.6387-69.5801Q22.9004-66.6992 17.7734-61.5479Q12.6465-56.3965 9.74121-49.6826Q6.83594-42.9688 6.83594-35.2539Q6.83594-27.5391 9.74121-20.8252Q12.6465-14.1113 17.7734-8.95996Q22.9004-3.80859 29.6387-0.927734Q36.377 1.95312 44.043 1.95312ZM24.5605-38.7695Q24.5605-41.7969 25.8057-43.6279Q27.0508-45.459 29.0527-45.459Q31.0547-45.459 32.2754-43.6279Q33.4961-41.7969 33.4961-38.7695Q33.4961-35.8398 32.2754-34.0088Q31.0547-32.1777 29.0527-32.1777Q27.0508-32.1777 25.8057-34.0088Q24.5605-35.8398 24.5605-38.7695ZM33.5938-49.5605Q33.5938-52.4902 34.8145-54.3213Q36.0352-56.1523 38.0371-56.1523Q40.0879-56.1523 41.3086-54.3213Q42.5293-52.4902 42.5293-49.5605Q42.5293-46.5332 41.3086-44.7021Q40.0879-42.8711 38.0371-42.8711Q36.0352-42.8711 34.8145-44.7021Q33.5938-46.5332 33.5938-49.5605ZM45.6543-49.5605Q45.6543-52.4902 46.8994-54.3213Q48.1445-56.1523 50.1465-56.1523Q52.1484-56.1523 53.3691-54.3213Q54.5898-52.4902 54.5898-49.5605Q54.5898-46.5332 53.3691-44.7021Q52.1484-42.8711 50.1465-42.8711Q48.1445-42.8711 46.8994-44.7021Q45.6543-46.5332 45.6543-49.5605ZM54.6875-38.7695Q54.6875-41.7969 55.9082-43.6279Q57.1289-45.459 59.1309-45.459Q61.1816-45.459 62.4023-43.6279Q63.623-41.7969 63.623-38.7695Q63.623-35.8398 62.4023-34.0088Q61.1816-32.1777 59.1309-32.1777Q57.1289-32.1777 55.9082-34.0088Q54.6875-35.8398 54.6875-38.7695ZM29.6387-23.3887Q29.6387-26.0254 31.0303-27.6123Q32.4219-29.1992 33.8867-30.4199Q34.668-31.0547 35.3516-31.6895Q36.0352-32.3242 36.4746-33.0566Q36.7676-33.5449 37.0361-34.1553Q37.3047-34.7656 37.5977-35.4004Q38.4766-37.4512 39.8438-39.502Q41.2109-41.5527 44.0918-41.5527Q46.9238-41.5527 48.291-39.5264Q49.6582-37.5 50.5859-35.4004Q50.8301-34.7168 51.123-34.082Q51.416-33.4473 51.7578-32.9102Q52.1484-32.2754 52.8076-31.665Q53.4668-31.0547 54.248-30.4199Q55.7129-29.1992 57.1045-27.6123Q58.4961-26.0254 58.4961-23.3887Q58.4961-20.752 56.665-18.9941Q54.834-17.2363 52.0508-17.2363Q50.6348-17.2363 49.5117-17.6025Q48.3887-17.9688 47.4609-18.3594Q46.582-18.7012 45.8008-18.9941Q45.0195-19.2871 44.0918-19.2871Q43.1641-19.2871 42.3584-18.9941Q41.5527-18.7012 40.6738-18.3594Q39.6973-17.9688 38.5986-17.6025Q37.5-17.2363 36.084-17.2363Q33.3008-17.2363 31.4697-18.9941Q29.6387-20.752 29.6387-23.3887Z"/>
  </g>
 </g>
</svg>
