<?xml version="1.0" encoding="UTF-8"?>
<!--Generator: Apple Native CoreSVG 149-->
<!DOCTYPE svg
PUBLIC "-//W3C//DTD SVG 1.1//EN"
       "http://www.w3.org/Graphics/SVG/1.1/DTD/svg11.dtd">
<svg version="1.1" xmlns="http://www.w3.org/2000/svg" xmlns:xlink="http://www.w3.org/1999/xlink" width="3300" height="2200">
 <!--glyph: "uni1003EC.medium", point size: 100.0, font version: "17.0d9e1", template writer version: "59"-->
 <g id="Notes">
  <rect height="2200" id="artboard" style="fill:white;opacity:1" width="3300" x="0" y="0"/>
  <line style="fill:none;stroke:black;opacity:1;stroke-width:0.5;" x1="263" x2="3036" y1="292" y2="292"/>
  <text style="stroke:none;fill:black;font-family:sans-serif;font-size:13;font-weight:bold;" transform="matrix(1 0 0 1 263 322)">Weight/Scale Variations</text>
  <text style="stroke:none;fill:black;font-family:sans-serif;font-size:13;text-anchor:middle;" transform="matrix(1 0 0 1 559.711 322)">Ultralight</text>
  <text style="stroke:none;fill:black;font-family:sans-serif;font-size:13;text-anchor:middle;" transform="matrix(1 0 0 1 856.422 322)">Thin</text>
  <text style="stroke:none;fill:black;font-family:sans-serif;font-size:13;text-anchor:middle;" transform="matrix(1 0 0 1 1153.13 322)">Light</text>
  <text style="stroke:none;fill:black;font-family:sans-serif;font-size:13;text-anchor:middle;" transform="matrix(1 0 0 1 1449.84 322)">Regular</text>
  <text style="stroke:none;fill:black;font-family:sans-serif;font-size:13;text-anchor:middle;" transform="matrix(1 0 0 1 1746.56 322)">Medium</text>
  <text style="stroke:none;fill:black;font-family:sans-serif;font-size:13;text-anchor:middle;" transform="matrix(1 0 0 1 2043.27 322)">Semibold</text>
  <text style="stroke:none;fill:black;font-family:sans-serif;font-size:13;text-anchor:middle;" transform="matrix(1 0 0 1 2339.98 322)">Bold</text>
  <text style="stroke:none;fill:black;font-family:sans-serif;font-size:13;text-anchor:middle;" transform="matrix(1 0 0 1 2636.69 322)">Heavy</text>
  <text style="stroke:none;fill:black;font-family:sans-serif;font-size:13;text-anchor:middle;" transform="matrix(1 0 0 1 2933.4 322)">Black</text>
  <line style="fill:none;stroke:black;opacity:1;stroke-width:0.5;" x1="263" x2="3036" y1="1903" y2="1903"/>
  <g transform="matrix(1 0 0 1 263 1933)">
   <path d="M9.24805 0.830078Q10.8691 0.830078 12.2949 0.214844Q13.7207-0.400391 14.8096-1.49414Q15.8984-2.58789 16.5186-4.01367Q17.1387-5.43945 17.1387-7.05078Q17.1387-8.66211 16.5186-10.0879Q15.8984-11.5137 14.8047-12.6074Q13.7109-13.7012 12.2852-14.3164Q10.8594-14.9316 9.23828-14.9316Q7.62695-14.9316 6.20117-14.3164Q4.77539-13.7012 3.69141-12.6074Q2.60742-11.5137 1.9873-10.0879Q1.36719-8.66211 1.36719-7.05078Q1.36719-5.43945 1.9873-4.01367Q2.60742-2.58789 3.69629-1.49414Q4.78516-0.400391 6.21094 0.214844Q7.63672 0.830078 9.24805 0.830078ZM9.24805-0.654297Q7.91992-0.654297 6.7627-1.14746Q5.60547-1.64062 4.73145-2.51953Q3.85742-3.39844 3.36426-4.56055Q2.87109-5.72266 2.87109-7.05078Q2.87109-8.37891 3.35938-9.54102Q3.84766-10.7031 4.72168-11.582Q5.5957-12.4609 6.75293-12.9541Q7.91016-13.4473 9.23828-13.4473Q10.5762-13.4473 11.7334-12.9541Q12.8906-12.4609 13.7695-11.582Q14.6484-10.7031 15.1465-9.54102Q15.6445-8.37891 15.6445-7.05078Q15.6445-5.72266 15.1514-4.56055Q14.6582-3.39844 13.7842-2.51953Q12.9102-1.64062 11.748-1.14746Q10.5859-0.654297 9.24805-0.654297ZM5.83984-7.04102Q5.83984-6.71875 6.04492-6.51855Q6.25-6.31836 6.5918-6.31836L8.50586-6.31836L8.50586-4.39453Q8.50586-4.0625 8.70605-3.85742Q8.90625-3.65234 9.22852-3.65234Q9.56055-3.65234 9.76562-3.85742Q9.9707-4.0625 9.9707-4.39453L9.9707-6.31836L11.8945-6.31836Q12.2266-6.31836 12.4316-6.51855Q12.6367-6.71875 12.6367-7.04102Q12.6367-7.37305 12.4316-7.57812Q12.2266-7.7832 11.8945-7.7832L9.9707-7.7832L9.9707-9.69727Q9.9707-10.0391 9.76562-10.2441Q9.56055-10.4492 9.22852-10.4492Q8.90625-10.4492 8.70605-10.2441Q8.50586-10.0391 8.50586-9.69727L8.50586-7.7832L6.5918-7.7832Q6.25-7.7832 6.04492-7.57812Q5.83984-7.37305 5.83984-7.04102Z"/>
  </g>
  <g transform="matrix(1 0 0 1 281.867 1933)">
   <path d="M11.709 2.91016Q13.75 2.91016 15.5518 2.12891Q17.3535 1.34766 18.7305-0.0292969Q20.1074-1.40625 20.8887-3.20801Q21.6699-5.00977 21.6699-7.05078Q21.6699-9.0918 20.8887-10.8936Q20.1074-12.6953 18.7305-14.0723Q17.3535-15.4492 15.5469-16.2305Q13.7402-17.0117 11.6992-17.0117Q9.6582-17.0117 7.85645-16.2305Q6.05469-15.4492 4.68262-14.0723Q3.31055-12.6953 2.5293-10.8936Q1.74805-9.0918 1.74805-7.05078Q1.74805-5.00977 2.5293-3.20801Q3.31055-1.40625 4.6875-0.0292969Q6.06445 1.34766 7.86621 2.12891Q9.66797 2.91016 11.709 2.91016ZM11.709 1.25Q9.98047 1.25 8.47656 0.605469Q6.97266-0.0390625 5.83496-1.17676Q4.69727-2.31445 4.05762-3.81836Q3.41797-5.32227 3.41797-7.05078Q3.41797-8.7793 4.05762-10.2832Q4.69727-11.7871 5.83008-12.9297Q6.96289-14.0723 8.4668-14.7119Q9.9707-15.3516 11.6992-15.3516Q13.4277-15.3516 14.9316-14.7119Q16.4355-14.0723 17.5781-12.9297Q18.7207-11.7871 19.3652-10.2832Q20.0098-8.7793 20.0098-7.05078Q20.0098-5.32227 19.3701-3.81836Q18.7305-2.31445 17.5928-1.17676Q16.4551-0.0390625 14.9463 0.605469Q13.4375 1.25 11.709 1.25ZM7.39258-7.04102Q7.39258-6.68945 7.62695-6.46484Q7.86133-6.24023 8.23242-6.24023L10.8789-6.24023L10.8789-3.57422Q10.8789-3.21289 11.1035-2.9834Q11.3281-2.75391 11.6797-2.75391Q12.0508-2.75391 12.2852-2.9834Q12.5195-3.21289 12.5195-3.57422L12.5195-6.24023L15.1758-6.24023Q15.5371-6.24023 15.7715-6.46484Q16.0059-6.68945 16.0059-7.04102Q16.0059-7.41211 15.7715-7.6416Q15.5371-7.87109 15.1758-7.87109L12.5195-7.87109L12.5195-10.5176Q12.5195-10.8984 12.2852-11.1279Q12.0508-11.3574 11.6797-11.3574Q11.3281-11.3574 11.1035-11.1279Q10.8789-10.8984 10.8789-10.5176L10.8789-7.87109L8.23242-7.87109Q7.85156-7.87109 7.62207-7.6416Q7.39258-7.41211 7.39258-7.04102Z"/>
  </g>
  <g transform="matrix(1 0 0 1 305.646 1933)">
   <path d="M14.9707 5.66406Q17.0605 5.66406 18.96 5.01465Q20.8594 4.36523 22.4512 3.19336Q24.043 2.02148 25.2197 0.429688Q26.3965-1.16211 27.0459-3.06641Q27.6953-4.9707 27.6953-7.05078Q27.6953-9.14062 27.0459-11.04Q26.3965-12.9395 25.2197-14.5312Q24.043-16.123 22.4512-17.2998Q20.8594-18.4766 18.9551-19.126Q17.0508-19.7754 14.9609-19.7754Q12.8711-19.7754 10.9717-19.126Q9.07227-18.4766 7.48535-17.2998Q5.89844-16.123 4.72168-14.5312Q3.54492-12.9395 2.90039-11.04Q2.25586-9.14062 2.25586-7.05078Q2.25586-4.9707 2.90527-3.06641Q3.55469-1.16211 4.72656 0.429688Q5.89844 2.02148 7.49023 3.19336Q9.08203 4.36523 10.9814 5.01465Q12.8809 5.66406 14.9707 5.66406ZM14.9707 3.84766Q13.1641 3.84766 11.5283 3.2959Q9.89258 2.74414 8.53516 1.74805Q7.17773 0.751953 6.17676-0.610352Q5.17578-1.97266 4.62891-3.6084Q4.08203-5.24414 4.08203-7.05078Q4.08203-8.86719 4.62891-10.5029Q5.17578-12.1387 6.17188-13.501Q7.16797-14.8633 8.52539-15.8594Q9.88281-16.8555 11.5186-17.4023Q13.1543-17.9492 14.9609-17.9492Q16.7773-17.9492 18.4131-17.4023Q20.0488-16.8555 21.4111-15.8594Q22.7734-14.8633 23.7695-13.501Q24.7656-12.1387 25.3174-10.5029Q25.8691-8.86719 25.8691-7.05078Q25.8789-5.24414 25.332-3.6084Q24.7852-1.97266 23.7842-0.610352Q22.7832 0.751953 21.4209 1.74805Q20.0586 2.74414 18.4229 3.2959Q16.7871 3.84766 14.9707 3.84766ZM9.45312-7.04102Q9.45312-6.66016 9.71191-6.41113Q9.9707-6.16211 10.3711-6.16211L14.0625-6.16211L14.0625-2.46094Q14.0625-2.06055 14.3115-1.80664Q14.5605-1.55273 14.9414-1.55273Q15.3516-1.55273 15.6055-1.80664Q15.8594-2.06055 15.8594-2.46094L15.8594-6.16211L19.5605-6.16211Q19.9609-6.16211 20.2148-6.41113Q20.4688-6.66016 20.4688-7.04102Q20.4688-7.45117 20.2148-7.70508Q19.9609-7.95898 19.5605-7.95898L15.8594-7.95898L15.8594-11.6504Q15.8594-12.0605 15.6055-12.3145Q15.3516-12.5684 14.9414-12.5684Q14.5605-12.5684 14.3115-12.3096Q14.0625-12.0508 14.0625-11.6504L14.0625-7.95898L10.3711-7.95898Q9.96094-7.95898 9.70703-7.70508Q9.45312-7.45117 9.45312-7.04102Z"/>
  </g>
  <text style="stroke:none;fill:black;font-family:sans-serif;font-size:13;font-weight:bold;" transform="matrix(1 0 0 1 263 1953)">Design Variations</text>
  <text style="stroke:none;fill:black;font-family:sans-serif;font-size:13;" transform="matrix(1 0 0 1 263 1971)">Symbols are supported in up to nine weights and three scales.</text>
  <text style="stroke:none;fill:black;font-family:sans-serif;font-size:13;" transform="matrix(1 0 0 1 263 1989)">For optimal layout with text and other symbols, vertically align</text>
  <text style="stroke:none;fill:black;font-family:sans-serif;font-size:13;" transform="matrix(1 0 0 1 263 2007)">symbols with the adjacent text.</text>
  <line style="fill:none;stroke:#00AEEF;stroke-width:0.5;opacity:1.0;" x1="776" x2="776" y1="1919" y2="1933"/>
  <g transform="matrix(1 0 0 1 776 1933)">
   <path d="M3.31055 0.15625Q3.70117 0.15625 3.91602-0.00976562Q4.13086-0.175781 4.26758-0.585938L5.52734-4.0332L11.2891-4.0332L12.5488-0.585938Q12.6855-0.175781 12.9004-0.00976562Q13.1152 0.15625 13.4961 0.15625Q13.8867 0.15625 14.1162-0.0585938Q14.3457-0.273438 14.3457-0.644531Q14.3457-0.869141 14.2383-1.17188L9.6582-13.3691Q9.48242-13.8184 9.17969-14.043Q8.87695-14.2676 8.4082-14.2676Q7.5-14.2676 7.17773-13.3789L2.59766-1.16211Q2.49023-0.859375 2.49023-0.634766Q2.49023-0.263672 2.70996-0.0537109Q2.92969 0.15625 3.31055 0.15625ZM6.00586-5.51758L8.37891-12.0898L8.42773-12.0898L10.8008-5.51758Z"/>
  </g>
  <line style="fill:none;stroke:#00AEEF;stroke-width:0.5;opacity:1.0;" x1="793.197" x2="793.197" y1="1919" y2="1933"/>
  <text style="stroke:none;fill:black;font-family:sans-serif;font-size:13;font-weight:bold;" transform="matrix(1 0 0 1 776 1953)">Margins</text>
  <text style="stroke:none;fill:black;font-family:sans-serif;font-size:13;" transform="matrix(1 0 0 1 776 1971)">Leading and trailing margins on the left and right side of each symbol</text>
  <text style="stroke:none;fill:black;font-family:sans-serif;font-size:13;" transform="matrix(1 0 0 1 776 1989)">can be adjusted by modifying the x-location of the margin guidelines.</text>
  <text style="stroke:none;fill:black;font-family:sans-serif;font-size:13;" transform="matrix(1 0 0 1 776 2007)">Modifications are automatically applied proportionally to all</text>
  <text style="stroke:none;fill:black;font-family:sans-serif;font-size:13;" transform="matrix(1 0 0 1 776 2025)">scales and weights.</text>
  <g transform="matrix(1 0 0 1 1289 1933)">
   <path d="M2.8418 1.86523L4.54102 3.57422Q5.18555 4.22852 5.90332 4.17969Q6.62109 4.13086 7.31445 3.35938L18.0078-8.42773L17.041-9.4043L6.42578 2.27539Q6.16211 2.57812 5.89355 2.61719Q5.625 2.65625 5.27344 2.30469L4.10156 1.14258Q3.75 0.791016 3.79395 0.522461Q3.83789 0.253906 4.14062-0.0195312L15.6152-10.8203L14.6387-11.7871L3.04688-0.898438Q2.30469-0.214844 2.25098 0.498047Q2.19727 1.21094 2.8418 1.86523ZM9.25781-16.3281Q8.94531-16.0254 8.90625-15.6348Q8.86719-15.2441 9.04297-14.9512Q9.21875-14.6777 9.55566-14.541Q9.89258-14.4043 10.3809-14.5215Q11.4746-14.7754 12.5977-14.7314Q13.7207-14.6875 14.7949-13.9844L14.209-12.5293Q13.9551-11.9043 14.0674-11.4404Q14.1797-10.9766 14.5801-10.5664L16.875-8.25195Q17.2363-7.88086 17.5781-7.82227Q17.9199-7.76367 18.3398-7.8418L19.4043-8.03711L20.0684-7.36328L20.0293-6.80664Q20-6.43555 20.1221-6.12305Q20.2441-5.81055 20.6055-5.44922L21.3672-4.70703Q21.7285-4.3457 22.1533-4.33105Q22.5781-4.31641 22.9297-4.66797L25.8398-7.58789Q26.1914-7.93945 26.1816-8.35449Q26.1719-8.76953 25.8105-9.13086L25.0391-9.89258Q24.6875-10.2539 24.3799-10.3857Q24.0723-10.5176 23.7109-10.4883L23.1348-10.4395L22.4902-11.0742L22.7344-12.1973Q22.832-12.6172 22.6953-12.9834Q22.5586-13.3496 22.1191-13.7891L19.9219-15.9766Q18.6719-17.2168 17.2607-17.8369Q15.8496-18.457 14.4189-18.4814Q12.9883-18.5059 11.665-17.959Q10.3418-17.4121 9.25781-16.3281ZM10.752-15.957Q11.6602-16.6211 12.7002-16.9043Q13.7402-17.1875 14.8047-17.085Q15.8691-16.9824 16.8701-16.5137Q17.8711-16.0449 18.7012-15.2051L21.1328-12.793Q21.3086-12.6172 21.3525-12.4512Q21.3965-12.2852 21.3379-12.0312L21.0156-10.5469L22.5195-9.0625L23.5059-9.12109Q23.6914-9.13086 23.7891-9.09668Q23.8867-9.0625 24.0332-8.91602L24.6094-8.33984L22.168-5.89844L21.5918-6.47461Q21.4453-6.62109 21.4062-6.71875Q21.3672-6.81641 21.377-7.01172L21.4453-7.98828L19.9512-9.47266L18.4277-9.21875Q18.1836-9.16992 18.042-9.2041Q17.9004-9.23828 17.7148-9.41406L15.7129-11.416Q15.5176-11.5918 15.4932-11.7529Q15.4688-11.9141 15.5859-12.1875L16.4648-14.2773Q15.293-15.3711 13.8281-15.791Q12.3633-16.2109 10.8398-15.7617Q10.7227-15.7324 10.6885-15.8057Q10.6543-15.8789 10.752-15.957Z"/>
  </g>
  <text style="stroke:none;fill:black;font-family:sans-serif;font-size:13;font-weight:bold;" transform="matrix(1 0 0 1 1289 1953)">Exporting</text>
  <text style="stroke:none;fill:black;font-family:sans-serif;font-size:13;" transform="matrix(1 0 0 1 1289 1971)">Symbols should be outlined when exporting to ensure the</text>
  <text style="stroke:none;fill:black;font-family:sans-serif;font-size:13;" transform="matrix(1 0 0 1 1289 1989)">design is preserved when submitting to Xcode.</text>
  <text id="template-version" style="stroke:none;fill:black;font-family:sans-serif;font-size:13;text-anchor:end;" transform="matrix(1 0 0 1 3036 1933)">Template v.2.0</text>
  <text style="stroke:none;fill:black;font-family:sans-serif;font-size:13;text-anchor:end;" transform="matrix(1 0 0 1 3036 1951)">Requires Xcode 13 or greater</text>
  <text id="descriptive-name" style="stroke:none;fill:black;font-family:sans-serif;font-size:13;text-anchor:end;" transform="matrix(1 0 0 1 3036 1969)">Generated from photo.fill.on.rectangle.fill</text>
  <text style="stroke:none;fill:black;font-family:sans-serif;font-size:13;text-anchor:end;" transform="matrix(1 0 0 1 3036 1987)">Typeset at 100 points</text>
  <text style="stroke:none;fill:black;font-family:sans-serif;font-size:13;" transform="matrix(1 0 0 1 263 726)">Small</text>
  <text style="stroke:none;fill:black;font-family:sans-serif;font-size:13;" transform="matrix(1 0 0 1 263 1156)">Medium</text>
  <text style="stroke:none;fill:black;font-family:sans-serif;font-size:13;" transform="matrix(1 0 0 1 263 1586)">Large</text>
 </g>
 <g id="Guides">
  <g id="H-reference" style="fill:#27AAE1;stroke:none;" transform="matrix(1 0 0 1 339 696)">
   <path d="M0.976562 0L3.66211 0L29.3457-67.1387L30.0293-67.1387L30.0293-70.459L28.125-70.459ZM11.6699-24.4629L46.9727-24.4629L46.2402-26.709L12.4512-26.709ZM55.127 0L57.7637 0L30.6152-70.459L29.4434-70.459L29.4434-67.1387Z"/>
  </g>
  <line id="Baseline-S" style="fill:none;stroke:#27AAE1;opacity:1;stroke-width:0.5;" x1="263" x2="3036" y1="696" y2="696"/>
  <line id="Capline-S" style="fill:none;stroke:#27AAE1;opacity:1;stroke-width:0.5;" x1="263" x2="3036" y1="625.541" y2="625.541"/>
  <g id="H-reference" style="fill:#27AAE1;stroke:none;" transform="matrix(1 0 0 1 339 1126)">
   <path d="M0.976562 0L3.66211 0L29.3457-67.1387L30.0293-67.1387L30.0293-70.459L28.125-70.459ZM11.6699-24.4629L46.9727-24.4629L46.2402-26.709L12.4512-26.709ZM55.127 0L57.7637 0L30.6152-70.459L29.4434-70.459L29.4434-67.1387Z"/>
  </g>
  <line id="Baseline-M" style="fill:none;stroke:#27AAE1;opacity:1;stroke-width:0.5;" x1="263" x2="3036" y1="1126" y2="1126"/>
  <line id="Capline-M" style="fill:none;stroke:#27AAE1;opacity:1;stroke-width:0.5;" x1="263" x2="3036" y1="1055.54" y2="1055.54"/>
  <g id="H-reference" style="fill:#27AAE1;stroke:none;" transform="matrix(1 0 0 1 339 1556)">
   <path d="M0.976562 0L3.66211 0L29.3457-67.1387L30.0293-67.1387L30.0293-70.459L28.125-70.459ZM11.6699-24.4629L46.9727-24.4629L46.2402-26.709L12.4512-26.709ZM55.127 0L57.7637 0L30.6152-70.459L29.4434-70.459L29.4434-67.1387Z"/>
  </g>
  <line id="Baseline-L" style="fill:none;stroke:#27AAE1;opacity:1;stroke-width:0.5;" x1="263" x2="3036" y1="1556" y2="1556"/>
  <line id="Capline-L" style="fill:none;stroke:#27AAE1;opacity:1;stroke-width:0.5;" x1="263" x2="3036" y1="1485.54" y2="1485.54"/>
  <line id="left-margin" style="fill:none;stroke:#00AEEF;stroke-width:0.5;opacity:1.0;" x1="1376.65" x2="1376.65" y1="1030.79" y2="1150.12"/>
  <line id="right-margin" style="fill:none;stroke:#00AEEF;stroke-width:0.5;opacity:1.0;" x1="1523.04" x2="1523.04" y1="1030.79" y2="1150.12"/>
 </g>
 <g id="Symbols">
  <g id="Black-L" transform="matrix(1 0 0 1 2833.42 1556)">
   <path d="M102.1-17.9199Q98.584-17.9199 95.6543-19.6777Q92.7246-21.4355 90.9912-24.3408Q89.2578-27.2461 89.2578-30.8105Q89.2578-34.3262 90.9912-37.2314Q92.7246-40.1367 95.6543-41.8701Q98.584-43.6035 102.1-43.6035Q105.615-43.6035 108.521-41.8701Q111.426-40.1367 113.159-37.2314Q114.893-34.3262 114.893-30.8105Q114.893-27.2461 113.159-24.3408Q111.426-21.4355 108.521-19.6777Q105.615-17.9199 102.1-17.9199ZM77.1973 15.3809Q74.0234 15.3809 72.4121 13.8672Q70.8008 12.3535 70.8008 8.93555L70.8008 3.51562L82.8125-7.42188Q84.2773-8.69141 85.9863-9.35059Q87.6953-10.0098 89.3555-10.0098Q91.1133-10.0098 92.8223-9.35059Q94.5312-8.69141 96.0449-7.32422L105.127 0.878906L127.783-19.1406Q129.443-20.6055 131.323-21.2891Q133.203-21.9727 135.156-21.9727Q137.158-21.9727 139.038-21.2646Q140.918-20.5566 142.48-19.0918L163.623 0.537109L163.623 8.93555Q163.623 12.3535 162.012 13.8672Q160.4 15.3809 157.227 15.3809ZM74.4629 35.498L159.961 35.498Q171.387 35.498 177.637 29.2969Q183.887 23.0957 183.887 11.6699L183.887-49.5605Q183.887-60.9375 177.637-67.1631Q171.387-73.3887 159.961-73.3887L74.4629-73.3887Q63.0371-73.3887 56.8115-67.1631Q50.5859-60.9375 50.5859-49.5605L50.5859 11.6699Q50.5859 23.0957 56.8115 29.2969Q63.0371 35.498 74.4629 35.498ZM74.4629-84.7656L149.268-84.7656L149.268-84.9121Q148.535-95.166 142.407-100.708Q136.279-106.25 125.488-106.25L39.9902-106.25Q28.5156-106.25 22.29-100.049Q16.0645-93.8477 16.0645-82.4707L16.0645-21.1914Q16.0645-10.1074 21.9482-3.95508Q27.832 2.19727 38.6719 2.53906L39.1602 2.53906L39.1602-49.5605Q39.1602-60.3027 43.5059-68.2129Q47.8516-76.123 55.7617-80.4443Q63.6719-84.7656 74.4629-84.7656Z"/>
  </g>
  <g id="Heavy-L" transform="matrix(1 0 0 1 2538.18 1556)">
   <path d="M99.5117-18.8477Q95.9473-18.8477 92.9932-20.6299Q90.0391-22.4121 88.2812-25.3662Q86.5234-28.3203 86.5234-31.8848Q86.5234-35.4492 88.2812-38.4033Q90.0391-41.3574 92.9932-43.0908Q95.9473-44.8242 99.5117-44.8242Q103.076-44.8242 106.006-43.0908Q108.936-41.3574 110.693-38.4033Q112.451-35.4492 112.451-31.8848Q112.451-28.3203 110.693-25.3662Q108.936-22.4121 106.006-20.6299Q103.076-18.8477 99.5117-18.8477ZM74.4629 16.2109Q70.8008 16.2109 68.9453 14.4043Q67.0898 12.5977 67.0898 8.78906L67.0898 3.56445L79.8828-8.00781Q81.3965-9.375 83.1299-10.0586Q84.8633-10.7422 86.5723-10.7422Q88.4277-10.7422 90.1855-10.0586Q91.9434-9.375 93.5059-7.91016L102.832 0.488281L126.172-20.1172Q127.93-21.6309 129.858-22.3633Q131.787-23.0957 133.838-23.0957Q135.938-23.0957 137.891-22.3389Q139.844-21.582 141.504-20.0684L163.428 0.341797L163.428 8.78906Q163.428 12.5977 161.548 14.4043Q159.668 16.2109 156.055 16.2109ZM72.3145 33.5938L158.154 33.5938Q169.141 33.5938 175.049 27.7344Q180.957 21.875 180.957 10.9863L180.957-49.9023Q180.957-60.791 175.049-66.6748Q169.141-72.5586 158.154-72.5586L72.3145-72.5586Q61.377-72.5586 55.4932-66.6748Q49.6094-60.791 49.6094-49.9023L49.6094 10.9863Q49.6094 21.9238 55.4932 27.7588Q61.377 33.5938 72.3145 33.5938ZM72.3145-83.1055L147.021-83.1055L147.021-83.5449Q146.484-93.6035 140.674-98.9502Q134.863-104.297 124.365-104.297L38.8184-104.297Q27.832-104.297 21.9482-98.4375Q16.0645-92.5781 16.0645-81.6895L16.0645-20.752Q16.0645-10.1074 21.6797-4.27246Q27.2949 1.5625 37.8418 1.80664L39.0137 1.80664L39.0137-49.9023Q39.0137-60.1074 43.0908-67.5537Q47.168-75 54.6143-79.0527Q62.0605-83.1055 72.3145-83.1055Z"/>
  </g>
  <g id="Bold-L" transform="matrix(1 0 0 1 2243.13 1556)">
   <path d="M96.6309-19.9219Q93.0176-19.9219 90.0391-21.7285Q87.0605-23.5352 85.2783-26.5137Q83.4961-29.4922 83.4961-33.1543Q83.4961-36.7188 85.2783-39.6973Q87.0605-42.6758 90.0391-44.458Q93.0176-46.2402 96.6309-46.2402Q100.244-46.2402 103.198-44.458Q106.152-42.6758 107.935-39.6973Q109.717-36.7188 109.717-33.1543Q109.717-29.4922 107.935-26.5137Q106.152-23.5352 103.198-21.7285Q100.244-19.9219 96.6309-19.9219ZM71.3867 17.1387Q67.2363 17.1387 65.0879 15.0391Q62.9395 12.9395 62.9395 8.59375L62.9395 3.61328L76.5625-8.69141Q78.2227-10.1074 79.9561-10.8398Q81.6895-11.5723 83.4961-11.5723Q85.4004-11.5723 87.207-10.8398Q89.0137-10.1074 90.7227-8.59375L100.244 0.0976562L124.365-21.1914Q126.221-22.8027 128.198-23.584Q130.176-24.3652 132.373-24.3652Q134.57-24.3652 136.621-23.5596Q138.672-22.7539 140.43-21.1426L163.184 0.146484L163.184 8.59375Q163.184 12.9395 161.011 15.0391Q158.838 17.1387 154.736 17.1387ZM69.9219 31.4941L156.152 31.4941Q166.602 31.4941 172.119 26.0254Q177.637 20.5566 177.637 10.2051L177.637-50.3418Q177.637-60.6934 172.119-66.1621Q166.602-71.6309 156.152-71.6309L69.9219-71.6309Q59.4727-71.6309 53.9795-66.1621Q48.4863-60.6934 48.4863-50.3418L48.4863 10.2051Q48.4863 20.6055 53.9795 26.0498Q59.4727 31.4941 69.9219 31.4941ZM69.9219-81.2012L144.531-81.2012L144.531-82.0312Q144.189-91.8457 138.745-96.9727Q133.301-102.1 123.145-102.1L37.5488-102.1Q27.0508-102.1 21.5576-96.6553Q16.0645-91.2109 16.0645-80.8105L16.0645-20.3125Q16.0645-10.0586 21.3867-4.61426Q26.709 0.830078 36.8652 0.976562L38.8672 0.976562L38.8672-50.3418Q38.8672-59.9121 42.627-66.8457Q46.3867-73.7793 53.3447-77.4902Q60.3027-81.2012 69.9219-81.2012Z"/>
  </g>
  <g id="Semibold-L" transform="matrix(1 0 0 1 1947.56 1556)">
   <path d="M94.6289-20.6543Q90.9668-20.6543 87.9639-22.4609Q84.9609-24.2676 83.1787-27.2949Q81.3965-30.3223 81.3965-33.9844Q81.3965-37.5977 83.1787-40.6006Q84.9609-43.6035 87.9639-45.4102Q90.9668-47.2168 94.6289-47.2168Q98.2422-47.2168 101.245-45.4102Q104.248-43.6035 106.03-40.6006Q107.812-37.5977 107.812-33.9844Q107.812-30.3223 106.03-27.2949Q104.248-24.2676 101.245-22.4609Q98.2422-20.6543 94.6289-20.6543ZM69.2383 17.7246Q64.7461 17.7246 62.4023 15.4297Q60.0586 13.1348 60.0586 8.44727L60.0586 3.61328L74.2676-9.13086Q75.9766-10.6445 77.7344-11.4014Q79.4922-12.1582 81.3477-12.1582Q83.3008-12.1582 85.1562-11.4014Q87.0117-10.6445 88.7695-9.0332L98.4863-0.244141L123.096-21.9238Q125-23.584 127.026-24.3896Q129.053-25.1953 131.348-25.1953Q133.643-25.1953 135.742-24.3652Q137.842-23.5352 139.648-21.875L162.988-0.0488281L162.988 8.44727Q162.988 13.1348 160.62 15.4297Q158.252 17.7246 153.809 17.7246ZM68.2617 30.0293L154.785 30.0293Q164.844 30.0293 170.093 24.8291Q175.342 19.6289 175.342 9.61914L175.342-50.5859Q175.342-60.5469 170.093-65.7715Q164.844-70.9961 154.785-70.9961L68.2617-70.9961Q58.1543-70.9961 52.9297-65.7715Q47.7051-60.5469 47.7051-50.5859L47.7051 9.61914Q47.7051 19.6777 52.9297 24.8535Q58.1543 30.0293 68.2617 30.0293ZM68.2617-79.8828L142.822-79.8828L142.822-81.0059Q142.578-90.625 137.378-95.6055Q132.178-100.586 122.314-100.586L36.6211-100.586Q26.5137-100.586 21.2891-95.4102Q16.0645-90.2344 16.0645-80.2246L16.0645-19.9707Q16.0645-10.0586 21.1914-4.88281Q26.3184 0.292969 36.2305 0.390625L38.7695 0.390625L38.7695-50.5859Q38.7695-59.7168 42.3096-66.3086Q45.8496-72.9004 52.4658-76.3916Q59.082-79.8828 68.2617-79.8828Z"/>
  </g>
  <g id="Medium-L" transform="matrix(1 0 0 1 1651.71 1556)">
   <path d="M93.0664-21.1914Q89.4043-21.1914 86.4014-23.0225Q83.3984-24.8535 81.5918-27.8809Q79.7852-30.9082 79.7852-34.6191Q79.7852-38.2324 81.5918-41.2598Q83.3984-44.2871 86.4014-46.1182Q89.4043-47.9492 93.0664-47.9492Q96.7773-47.9492 99.7803-46.1182Q102.783-44.2871 104.565-41.2598Q106.348-38.2324 106.348-34.6191Q106.348-30.9082 104.565-27.8809Q102.783-24.8535 99.7803-23.0225Q96.7773-21.1914 93.0664-21.1914ZM67.627 18.2129Q62.8906 18.2129 60.376 15.7471Q57.8613 13.2812 57.8613 8.39844L57.8613 3.61328L72.5586-9.47266Q74.3164-11.0352 76.0742-11.792Q77.832-12.5488 79.6875-12.5488Q81.7383-12.5488 83.6182-11.792Q85.498-11.0352 87.2559-9.42383L97.1191-0.439453L122.119-22.4609Q124.121-24.2188 126.172-25.0488Q128.223-25.8789 130.615-25.8789Q132.91-25.8789 135.083-25Q137.256-24.1211 139.062-22.4121L162.842-0.146484L162.842 8.39844Q162.842 13.2812 160.327 15.7471Q157.812 18.2129 153.125 18.2129ZM66.9922 28.9551L153.711 28.9551Q163.525 28.9551 168.579 23.9502Q173.633 18.9453 173.633 9.22852L173.633-50.7812Q173.633-60.498 168.579-65.5029Q163.525-70.5078 153.711-70.5078L66.9922-70.5078Q57.1777-70.5078 52.1484-65.5029Q47.1191-60.498 47.1191-50.7812L47.1191 9.22852Q47.1191 18.9941 52.1484 23.9746Q57.1777 28.9551 66.9922 28.9551ZM66.9922-78.9062L141.504-78.9062L141.504-80.1758Q141.357-89.6973 136.353-94.5801Q131.348-99.4629 121.631-99.4629L35.9375-99.4629Q26.123-99.4629 21.0938-94.4824Q16.0645-89.502 16.0645-79.7363L16.0645-19.7266Q16.0645-10.0098 21.0205-5.05371Q25.9766-0.0976562 35.6934 0L38.6719 0L38.6719-50.7812Q38.6719-59.6191 42.0654-65.918Q45.459-72.2168 51.8066-75.5615Q58.1543-78.9062 66.9922-78.9062Z"/>
  </g>
  <g id="Regular-L" transform="matrix(1 0 0 1 1356.12 1556)">
   <path d="M91.1133-21.9238Q87.4023-21.9238 84.375-23.7549Q81.3477-25.5859 79.541-28.6621Q77.7344-31.7383 77.7344-35.4492Q77.7344-39.1113 79.541-42.1631Q81.3477-45.2148 84.375-47.0459Q87.4023-48.877 91.1133-48.877Q94.8242-48.877 97.8516-47.0459Q100.879-45.2148 102.686-42.1631Q104.492-39.1113 104.492-35.4492Q104.492-31.7383 102.686-28.6621Q100.879-25.5859 97.8516-23.7549Q94.8242-21.9238 91.1133-21.9238ZM65.5273 18.8477Q60.4492 18.8477 57.7393 16.1621Q55.0293 13.4766 55.0293 8.25195L55.0293 3.66211L70.3125-9.91211Q72.1191-11.5234 73.9014-12.3291Q75.6836-13.1348 77.5879-13.1348Q79.6875-13.1348 81.5918-12.3291Q83.4961-11.5234 85.3516-9.86328L95.3613-0.732422L120.898-23.1934Q122.949-25 125.049-25.8545Q127.148-26.709 129.59-26.709Q131.982-26.709 134.204-25.8057Q136.426-24.9023 138.33-23.1445L162.695-0.292969L162.695 8.25195Q162.695 13.4766 159.961 16.1621Q157.227 18.8477 152.197 18.8477ZM65.3809 27.4902L152.344 27.4902Q161.816 27.4902 166.602 22.7539Q171.387 18.0176 171.387 8.69141L171.387-51.0742Q171.387-60.4004 166.602-65.1367Q161.816-69.873 152.344-69.873L65.3809-69.873Q55.9082-69.873 51.1475-65.1367Q46.3867-60.4004 46.3867-51.0742L46.3867 8.69141Q46.3867 18.0664 51.1475 22.7783Q55.9082 27.4902 65.3809 27.4902ZM65.3809-77.6367L139.795-77.6367L139.795-79.1504Q139.795-88.4766 135.034-93.2129Q130.273-97.9492 120.801-97.9492L35.0586-97.9492Q25.5859-97.9492 20.8252-93.2373Q16.0645-88.5254 16.0645-79.1504L16.0645-19.3848Q16.0645-10.0098 20.8252-5.29785Q25.5859-0.585938 35.0586-0.585938L38.5742-0.585938L38.5742-51.0742Q38.5742-59.4727 41.748-65.4297Q44.9219-71.3867 50.9277-74.5117Q56.9336-77.6367 65.3809-77.6367Z"/>
  </g>
  <g id="Light-L" transform="matrix(1 0 0 1 1060.38 1556)">
   <path d="M89.7949-22.3633Q86.0352-22.3633 82.9834-24.2188Q79.9316-26.0742 78.125-29.1748Q76.3184-32.2754 76.3184-35.9863Q76.3184-39.6484 78.125-42.7246Q79.9316-45.8008 82.9834-47.6562Q86.0352-49.5117 89.7949-49.5117Q93.5059-49.5117 96.5576-47.6562Q99.6094-45.8008 101.416-42.7246Q103.223-39.6484 103.223-35.9863Q103.223-32.2754 101.416-29.1748Q99.6094-26.0742 96.5576-24.2188Q93.5059-22.3633 89.7949-22.3633ZM63.3789 19.4336Q57.7637 19.4336 54.834 16.5039Q51.9043 13.5742 51.9043 7.86133L51.9043 4.83398L68.5547-10.2051Q70.3613-11.8652 72.1436-12.6709Q73.9258-13.4766 75.9277-13.4766Q78.125-13.4766 80.0049-12.6465Q81.8848-11.8164 83.7402-10.1562L93.6523-1.07422L119.287-23.4375Q121.436-25.293 123.56-26.1963Q125.684-27.0996 128.223-27.0996Q130.762-27.0996 133.008-26.1475Q135.254-25.1953 137.256-23.3887L162.793 0.292969L162.793 7.86133Q162.793 13.5742 159.79 16.5039Q156.787 19.4336 151.27 19.4336ZM63.2324 26.0254L151.416 26.0254Q160.352 26.0254 164.893 21.4844Q169.434 16.9434 169.434 8.20312L169.434-52.002Q169.434-60.7422 164.893-65.2832Q160.352-69.8242 151.416-69.8242L63.2324-69.8242Q54.3457-69.8242 49.8047-65.3076Q45.2637-60.791 45.2637-52.002L45.2637 8.20312Q45.2637 17.041 49.8047 21.5332Q54.3457 26.0254 63.2324 26.0254ZM63.2324-76.5137L138.184-76.5137L138.184-78.6133Q138.184-87.3535 133.667-91.8945Q129.15-96.4355 120.264-96.4355L34.0332-96.4355Q25.0977-96.4355 20.5811-91.9434Q16.0645-87.4512 16.0645-78.6133L16.0645-18.4082Q16.0645-9.57031 20.5811-5.07812Q25.0977-0.585938 34.0332-0.585938L38.5742-0.585938L38.5742-52.002Q38.5742-59.7168 41.5039-65.21Q44.4336-70.7031 49.9512-73.6084Q55.4688-76.5137 63.2324-76.5137Z"/>
  </g>
  <g id="Thin-L" transform="matrix(1 0 0 1 764.992 1556)">
   <path d="M88.0371-22.998Q84.2285-22.998 81.1768-24.8291Q78.125-26.6602 76.2939-29.7852Q74.4629-32.9102 74.4629-36.6699Q74.4629-40.3809 76.2939-43.4814Q78.125-46.582 81.1768-48.4619Q84.2285-50.3418 88.0371-50.3418Q91.748-50.3418 94.8486-48.4619Q97.9492-46.582 99.7559-43.4814Q101.562-40.3809 101.562-36.6699Q101.562-32.9102 99.7559-29.7852Q97.9492-26.6602 94.8486-24.8291Q91.748-22.998 88.0371-22.998ZM60.5469 20.166Q54.248 20.166 50.9766 16.9189Q47.7051 13.6719 47.7051 7.32422L47.7051 6.44531L66.2109-10.5469Q68.0664-12.3047 69.8242-13.1348Q71.582-13.9648 73.7793-13.9648Q76.0742-13.9648 77.9053-13.0859Q79.7363-12.207 81.6406-10.498L91.4062-1.46484L117.188-23.7793Q119.482-25.6836 121.582-26.6602Q123.682-27.6367 126.367-27.6367Q129.15-27.6367 131.396-26.6113Q133.643-25.5859 135.791-23.7305L162.891 1.12305L162.891 7.32422Q162.891 13.6719 159.521 16.9189Q156.152 20.166 150.049 20.166ZM60.4004 24.1211L150.195 24.1211Q158.35 24.1211 162.573 19.8486Q166.797 15.5762 166.797 7.51953L166.797-53.2227Q166.797-61.2305 162.573-65.5029Q158.35-69.7754 150.195-69.7754L60.4004-69.7754Q52.2461-69.7754 48.0225-65.5518Q43.7988-61.3281 43.7988-53.2227L43.7988 7.51953Q43.7988 15.6738 48.0225 19.8975Q52.2461 24.1211 60.4004 24.1211ZM60.4004-75L136.084-75L136.084-77.832Q136.084-85.8887 131.885-90.1611Q127.686-94.4336 119.482-94.4336L32.666-94.4336Q24.5117-94.4336 20.2881-90.21Q16.0645-85.9863 16.0645-77.832L16.0645-17.0898Q16.0645-8.93555 20.2881-4.73633Q24.5117-0.537109 32.666-0.537109L38.5742-0.537109L38.5742-53.2227Q38.5742-60.0586 41.1621-64.9414Q43.75-69.8242 48.6328-72.4121Q53.5156-75 60.4004-75Z"/>
  </g>
  <g id="Ultralight-L" transform="matrix(1 0 0 1 468.94 1556)">
   <path d="M87.1094-23.291Q83.3008-23.291 80.2246-25.1465Q77.1484-27.002 75.3418-30.1514Q73.5352-33.3008 73.5352-37.0605Q73.5352-40.7227 75.3418-43.8477Q77.1484-46.9727 80.2246-48.8525Q83.3008-50.7324 87.1094-50.7324Q90.8691-50.7324 93.9697-48.8525Q97.0703-46.9727 98.9014-43.8477Q100.732-40.7227 100.732-37.0605Q100.732-33.3008 98.9014-30.1514Q97.0703-27.002 93.9697-25.1465Q90.8691-23.291 87.1094-23.291ZM59.1309 20.5566Q52.3926 20.5566 48.999 17.1631Q45.6055 13.7695 45.6055 7.08008L45.6055 7.22656L65.0391-10.7422Q66.8945-12.5 68.6279-13.3545Q70.3613-14.209 72.6562-14.209Q75-14.209 76.8066-13.3301Q78.6133-12.4512 80.5176-10.6934L90.2344-1.70898L116.113-23.9258Q118.457-25.8789 120.581-26.9043Q122.705-27.9297 125.439-27.9297Q128.32-27.9297 130.591-26.8799Q132.861-25.8301 135.059-23.877L162.939 1.51367L162.939 7.08008Q162.939 13.7695 159.399 17.1631Q155.859 20.5566 149.414 20.5566ZM58.9355 23.1445L149.561 23.1445Q157.373 23.1445 161.426 18.9941Q165.479 14.8438 165.479 7.17773L165.479-53.8574Q165.479-61.4746 161.426-65.6006Q157.373-69.7266 149.561-69.7266L58.9355-69.7266Q51.1719-69.7266 47.0947-65.6738Q43.0176-61.6211 43.0176-53.8574L43.0176 7.17773Q43.0176 14.9902 47.0947 19.0674Q51.1719 23.1445 58.9355 23.1445ZM58.9355-74.2188L135.01-74.2188L135.01-77.4902Q135.01-85.1074 130.957-89.2578Q126.904-93.4082 119.141-93.4082L31.9824-93.4082Q24.1699-93.4082 20.1172-89.3311Q16.0645-85.2539 16.0645-77.4902L16.0645-16.4551Q16.0645-8.64258 20.1172-4.58984Q24.1699-0.537109 31.9824-0.537109L38.5742-0.537109L38.5742-53.8574Q38.5742-60.2539 40.9912-64.8193Q43.4082-69.3848 47.9736-71.8018Q52.5391-74.2188 58.9355-74.2188Z"/>
  </g>
  <g id="Black-M" transform="matrix(1 0 0 1 2854.98 1126)">
   <path d="M80.9082-21.1426Q76.8066-21.1426 73.9258-24.0479Q71.0449-26.9531 71.0449-31.0547Q71.0449-35.1074 73.9258-37.9883Q76.8066-40.8691 80.9082-40.8691Q83.5938-40.8691 85.8398-39.5264Q88.0859-38.1836 89.4043-35.9619Q90.7227-33.7402 90.7227-31.0547Q90.7227-26.9531 87.8418-24.0479Q84.9609-21.1426 80.9082-21.1426ZM61.4746 3.4668Q59.2285 3.4668 58.1055 2.46582Q56.9824 1.46484 56.9824-0.976562L56.9824-4.83398L66.1133-13.2812Q67.1875-14.209 68.4814-14.6973Q69.7754-15.1855 71.0449-15.1855Q72.3633-15.1855 73.6572-14.6973Q74.9512-14.209 76.0254-13.1836L82.8613-6.98242L99.9023-22.0215Q101.123-23.0957 102.539-23.6328Q103.955-24.1699 105.371-24.1699Q106.934-24.1699 108.325-23.6328Q109.717-23.0957 110.889-22.0215L127.051-7.12891L127.051-0.976562Q127.051 1.46484 125.928 2.46582Q124.805 3.4668 122.559 3.4668ZM58.8379 20.7031L125.195 20.7031Q134.277 20.7031 139.331 15.6738Q144.385 10.6445 144.385 1.5625L144.385-46.3379Q144.385-55.4199 139.331-60.4492Q134.277-65.4785 125.195-65.4785L58.8379-65.4785Q49.7559-65.4785 44.7021-60.4492Q39.6484-55.4199 39.6484-46.3379L39.6484 1.5625Q39.6484 10.6445 44.7021 15.6738Q49.7559 20.7031 58.8379 20.7031ZM58.8379-74.6582L117.041-74.6582L117.041-74.707Q116.357-82.666 111.401-87.0605Q106.445-91.4551 97.998-91.4551L31.5918-91.4551Q22.5586-91.4551 17.5049-86.4258Q12.4512-81.3965 12.4512-72.3145L12.4512-24.4141Q12.4512-15.625 17.1387-10.6445Q21.8262-5.66406 30.3711-5.32227L30.4688-5.32227L30.4688-46.3379Q30.4688-54.9316 33.9844-61.3037Q37.5-67.6758 43.8721-71.167Q50.2441-74.6582 58.8379-74.6582Z"/>
  </g>
  <g id="Heavy-M" transform="matrix(1 0 0 1 2559.52 1126)">
   <path d="M78.6621-21.9727Q74.5117-21.9727 71.6064-24.9268Q68.7012-27.8809 68.7012-32.0312Q68.7012-36.084 71.6064-39.0137Q74.5117-41.9434 78.6621-41.9434Q81.3965-41.9434 83.667-40.5762Q85.9375-39.209 87.2559-36.9629Q88.5742-34.7168 88.5742-32.0312Q88.5742-27.8809 85.6689-24.9268Q82.7637-21.9727 78.6621-21.9727ZM59.2285 4.15039Q56.6406 4.15039 55.3223 2.92969Q54.0039 1.70898 54.0039-1.07422L54.0039-5.0293L63.623-13.8184Q64.7461-14.7949 66.0645-15.3076Q67.3828-15.8203 68.7012-15.8203Q70.0684-15.8203 71.4111-15.3076Q72.7539-14.7949 73.9258-13.7207L81.0059-7.27539L98.6816-22.9004Q99.9512-24.0723 101.416-24.6094Q102.881-25.1465 104.395-25.1465Q106.006-25.1465 107.471-24.585Q108.936-24.0234 110.156-22.9004L126.807-7.4707L126.807-1.07422Q126.807 1.70898 125.488 2.92969Q124.17 4.15039 121.582 4.15039ZM57.1777 19.1895L123.633 19.1895Q132.373 19.1895 137.134 14.4531Q141.895 9.7168 141.895 0.976562L141.895-46.4844Q141.895-55.2246 137.134-59.9609Q132.373-64.6973 123.633-64.6973L57.1777-64.6973Q48.4375-64.6973 43.6768-59.9609Q38.916-55.2246 38.916-46.4844L38.916 0.976562Q38.916 9.7168 43.6768 14.4531Q48.4375 19.1895 57.1777 19.1895ZM57.1777-73.2422L115.186-73.2422L115.186-73.4863Q114.697-81.3477 109.985-85.5957Q105.273-89.8438 97.0215-89.8438L30.7129-89.8438Q21.9727-89.8438 17.2119-85.1074Q12.4512-80.3711 12.4512-71.6797L12.4512-24.2188Q12.4512-15.7227 16.9434-11.0107Q21.4355-6.29883 29.7363-6.05469L30.3223-6.05469L30.3223-46.4844Q30.3223-54.6875 33.6182-60.6934Q36.9141-66.6992 42.9443-69.9707Q48.9746-73.2422 57.1777-73.2422Z"/>
  </g>
  <g id="Bold-M" transform="matrix(1 0 0 1 2264.17 1126)">
   <path d="M76.1719-22.9004Q71.9727-22.9004 69.0186-25.9033Q66.0645-28.9062 66.0645-33.1055Q66.0645-37.207 69.0186-40.1855Q71.9727-43.1641 76.1719-43.1641Q78.9062-43.1641 81.2012-41.7969Q83.4961-40.4297 84.8633-38.1348Q86.2305-35.8398 86.2305-33.1055Q86.2305-28.9062 83.2764-25.9033Q80.3223-22.9004 76.1719-22.9004ZM56.7383 4.93164Q53.8086 4.93164 52.2705 3.4668Q50.7324 2.00195 50.7324-1.17188L50.7324-5.32227L60.791-14.4043Q62.0605-15.4297 63.4033-15.9912Q64.7461-16.5527 66.0645-16.5527Q67.5293-16.5527 68.9209-16.0156Q70.3125-15.4785 71.5332-14.3066L78.9062-7.66602L97.2656-23.9258Q98.6328-25.1465 100.146-25.708Q101.66-26.2695 103.32-26.2695Q104.98-26.2695 106.519-25.6836Q108.057-25.0977 109.375-23.877L126.562-7.8125L126.562-1.17188Q126.562 2.00195 125 3.4668Q123.438 4.93164 120.508 4.93164ZM55.3711 17.4805L121.924 17.4805Q130.273 17.4805 134.717 13.0615Q139.16 8.64258 139.16 0.341797L139.16-46.6797Q139.16-54.9805 134.717-59.3994Q130.273-63.8184 121.924-63.8184L55.3711-63.8184Q47.0215-63.8184 42.5781-59.3994Q38.1348-54.9805 38.1348-46.6797L38.1348 0.341797Q38.1348 8.64258 42.5781 13.0615Q47.0215 17.4805 55.3711 17.4805ZM55.3711-71.7285L113.184-71.7285L113.184-72.168Q112.842-79.8828 108.423-83.9844Q104.004-88.0859 95.9961-88.0859L29.6875-88.0859Q21.3379-88.0859 16.8945-83.6914Q12.4512-79.2969 12.4512-70.9473L12.4512-23.9746Q12.4512-15.8203 16.7236-11.4258Q20.9961-7.03125 29.1016-6.88477L30.1758-6.88477L30.1758-46.6797Q30.1758-54.3945 33.252-60.0342Q36.3281-65.6738 41.9678-68.7012Q47.6074-71.7285 55.3711-71.7285Z"/>
  </g>
  <g id="Semibold-M" transform="matrix(1 0 0 1 1968.41 1126)">
   <path d="M74.4141-23.5352Q70.166-23.5352 67.1875-26.5625Q64.209-29.5898 64.209-33.8379Q64.209-37.9883 67.1875-40.9912Q70.166-43.9941 74.4141-43.9941Q77.1973-43.9941 79.5166-42.6025Q81.8359-41.2109 83.2031-38.8916Q84.5703-36.5723 84.5703-33.8379Q84.5703-29.5898 81.5918-26.5625Q78.6133-23.5352 74.4141-23.5352ZM55.0293 5.41992Q51.8066 5.41992 50.1221 3.78418Q48.4375 2.14844 48.4375-1.2207L48.4375-5.46875L58.8379-14.7949Q60.1562-15.8691 61.5234-16.4551Q62.8906-17.041 64.2578-17.041Q65.7227-17.041 67.1631-16.4795Q68.6035-15.918 69.9219-14.6973L77.4414-7.86133L96.2891-24.6094Q97.7051-25.8789 99.2676-26.4648Q100.83-27.0508 102.539-27.0508Q104.248-27.0508 105.859-26.416Q107.471-25.7812 108.789-24.5605L126.367-8.05664L126.367-1.2207Q126.367 2.14844 124.658 3.78418Q122.949 5.41992 119.775 5.41992ZM54.1016 16.2598L120.703 16.2598Q128.76 16.2598 133.008 12.085Q137.256 7.91016 137.256-0.146484L137.256-46.7773Q137.256-54.7852 133.008-58.9844Q128.76-63.1836 120.703-63.1836L54.1016-63.1836Q45.9961-63.1836 41.7725-59.0088Q37.5488-54.834 37.5488-46.7773L37.5488-0.146484Q37.5488 7.91016 41.7725 12.085Q45.9961 16.2598 54.1016 16.2598ZM54.1016-70.6055L111.768-70.6055L111.768-71.1914Q111.523-78.8574 107.324-82.8613Q103.125-86.8652 95.2148-86.8652L29.0039-86.8652Q20.8984-86.8652 16.6748-82.6904Q12.4512-78.5156 12.4512-70.459L12.4512-23.8281Q12.4512-15.8691 16.5527-11.6943Q20.6543-7.51953 28.6133-7.42188L30.0781-7.42188L30.0781-46.7773Q30.0781-54.1992 32.9834-59.5459Q35.8887-64.8926 41.2598-67.749Q46.6309-70.6055 54.1016-70.6055Z"/>
  </g>
  <g id="Medium-M" transform="matrix(1 0 0 1 1672.41 1126)">
   <path d="M73.0957-24.0234Q68.8477-24.0234 65.8447-27.0752Q62.8418-30.127 62.8418-34.375Q62.8418-38.5742 65.8447-41.6016Q68.8477-44.6289 73.0957-44.6289Q75.9277-44.6289 78.2471-43.2373Q80.5664-41.8457 81.9336-39.502Q83.3008-37.1582 83.3008-34.375Q83.3008-30.127 80.2979-27.0752Q77.2949-24.0234 73.0957-24.0234ZM53.7109 5.81055Q50.293 5.81055 48.4863 4.05273Q46.6797 2.29492 46.6797-1.26953L46.6797-5.61523L57.373-15.0879Q58.7402-16.2109 60.1074-16.7969Q61.4746-17.3828 62.8906-17.3828Q64.4043-17.3828 65.8447-16.8213Q67.2852-16.2598 68.6523-14.9902L76.3184-8.05664L95.5566-25.0977Q97.0215-26.416 98.6084-27.0264Q100.195-27.6367 101.953-27.6367Q103.711-27.6367 105.347-26.9775Q106.982-26.3184 108.35-25.0488L126.27-8.25195L126.27-1.26953Q126.27 2.29492 124.414 4.05273Q122.559 5.81055 119.189 5.81055ZM53.1738 15.3809L119.775 15.3809Q127.686 15.3809 131.763 11.377Q135.84 7.37305 135.84-0.488281L135.84-46.875Q135.84-54.6387 131.763-58.667Q127.686-62.6953 119.775-62.6953L53.1738-62.6953Q45.2148-62.6953 41.1621-58.6914Q37.1094-54.6875 37.1094-46.875L37.1094-0.488281Q37.1094 7.37305 41.1621 11.377Q45.2148 15.3809 53.1738 15.3809ZM53.1738-69.8242L110.693-69.8242L110.693-70.5078Q110.547-78.125 106.494-82.0312Q102.441-85.9375 94.6777-85.9375L28.4668-85.9375Q20.5566-85.9375 16.5039-81.9336Q12.4512-77.9297 12.4512-70.0684L12.4512-23.6816Q12.4512-15.918 16.4307-11.9141Q20.4102-7.91016 28.2715-7.86133L29.9805-7.86133L29.9805-46.875Q29.9805-54.0527 32.7637-59.2041Q35.5469-64.3555 40.7227-67.0898Q45.8984-69.8242 53.1738-69.8242Z"/>
  </g>
  <g id="Regular-M" transform="matrix(1 0 0 1 1376.65 1126)">
   <path d="M71.3867-24.6582Q67.0898-24.6582 64.0625-27.7344Q61.0352-30.8105 61.0352-35.1074Q61.0352-39.3066 64.0625-42.3828Q67.0898-45.459 71.3867-45.459Q74.2188-45.459 76.5625-44.043Q78.9062-42.627 80.2979-40.2588Q81.6895-37.8906 81.6895-35.1074Q81.6895-30.8105 78.6621-27.7344Q75.6348-24.6582 71.3867-24.6582ZM52.002 6.34766Q48.3398 6.34766 46.3867 4.41895Q44.4336 2.49023 44.4336-1.31836L44.4336-5.76172L55.4688-15.4785Q56.8848-16.6504 58.2764-17.2607Q59.668-17.8711 61.084-17.8711Q62.6465-17.8711 64.1357-17.2852Q65.625-16.6992 67.041-15.3809L74.9023-8.30078L94.6289-25.7812Q96.1426-27.1484 97.7539-27.7588Q99.3652-28.3691 101.221-28.3691Q102.979-28.3691 104.688-27.71Q106.396-27.0508 107.812-25.7324L126.074-8.49609L126.074-1.31836Q126.074 2.49023 124.072 4.41895Q122.07 6.34766 118.457 6.34766ZM51.9043 14.209L118.604 14.209Q126.221 14.209 130.078 10.4248Q133.936 6.64062 133.936-0.927734L133.936-46.9727Q133.936-54.4922 130.078-58.3008Q126.221-62.1094 118.604-62.1094L51.9043-62.1094Q44.2383-62.1094 40.4053-58.3252Q36.5723-54.541 36.5723-46.9727L36.5723-0.927734Q36.5723 6.64062 40.4053 10.4248Q44.2383 14.209 51.9043 14.209ZM51.9043-68.75L109.277-68.75L109.277-69.5801Q109.277-77.0996 105.42-80.9082Q101.562-84.7168 93.9453-84.7168L27.7832-84.7168Q20.1172-84.7168 16.2842-80.9326Q12.4512-77.1484 12.4512-69.5801L12.4512-23.5352Q12.4512-15.9668 16.2842-12.1826Q20.1172-8.39844 27.7832-8.39844L29.8828-8.39844L29.8828-46.9727Q29.8828-53.8574 32.4951-58.7402Q35.1074-63.623 40.0146-66.1865Q44.9219-68.75 51.9043-68.75Z"/>
  </g>
  <g id="Light-M" transform="matrix(1 0 0 1 1080.82 1126)">
   <path d="M70.2148-25.0488Q65.8691-25.0488 62.8174-28.1494Q59.7656-31.25 59.7656-35.5957Q59.7656-39.8438 62.8174-42.9199Q65.8691-45.9961 70.2148-45.9961Q73.0469-45.9961 75.3906-44.5801Q77.7344-43.1641 79.1504-40.7715Q80.5664-38.3789 80.5664-35.5957Q80.5664-31.25 77.5146-28.1494Q74.4629-25.0488 70.2148-25.0488ZM50.0977 6.88477Q45.9473 6.88477 43.7744 4.73633Q41.6016 2.58789 41.6016-1.66016L41.6016-4.6875L53.9062-15.7227Q55.3223-16.9434 56.6895-17.5781Q58.0566-18.2129 59.6191-18.2129Q61.2305-18.2129 62.6953-17.6025Q64.1602-16.9922 65.625-15.625L73.3398-8.59375L93.2129-25.9766Q94.7754-27.3926 96.4111-28.0762Q98.0469-28.7598 100-28.7598Q101.855-28.7598 103.589-28.0518Q105.322-27.3438 106.836-25.9277L126.123-7.95898L126.123-1.66016Q126.123 2.58789 123.901 4.73633Q121.68 6.88477 117.627 6.88477ZM50 12.8906L117.773 12.8906Q124.902 12.8906 128.54 9.27734Q132.178 5.66406 132.178-1.36719L132.178-47.8027Q132.178-54.834 128.54-58.4473Q124.902-62.0605 117.773-62.0605L50-62.0605Q42.8223-62.0605 39.209-58.4717Q35.5957-54.8828 35.5957-47.8027L35.5957-1.36719Q35.5957 5.71289 39.209 9.30176Q42.8223 12.8906 50 12.8906ZM50-67.7246L107.861-67.7246L107.861-69.0918Q107.861-76.123 104.224-79.7363Q100.586-83.3496 93.457-83.3496L26.8555-83.3496Q19.6777-83.3496 16.0645-79.7607Q12.4512-76.1719 12.4512-69.0918L12.4512-22.6562Q12.4512-15.5762 16.0645-11.9873Q19.6777-8.39844 26.8555-8.39844L29.8828-8.39844L29.8828-47.8027Q29.8828-54.1016 32.2754-58.5693Q34.668-63.0371 39.1357-65.3809Q43.6035-67.7246 50-67.7246Z"/>
  </g>
  <g id="Thin-M" transform="matrix(1 0 0 1 785.28 1126)">
   <path d="M68.6035-25.5859Q64.2578-25.5859 61.1816-28.7109Q58.1055-31.8359 58.1055-36.1816Q58.1055-40.4785 61.1816-43.6279Q64.2578-46.7773 68.6035-46.7773Q71.4844-46.7773 73.8525-45.3125Q76.2207-43.8477 77.6611-41.4551Q79.1016-39.0625 79.1016-36.1816Q79.1016-31.8359 76.0254-28.7109Q72.9492-25.5859 68.6035-25.5859ZM47.5586 7.51953Q42.7734 7.51953 40.332 5.10254Q37.8906 2.68555 37.8906-2.14844L37.8906-3.27148L51.8066-16.0645Q53.2715-17.334 54.6143-17.9932Q55.957-18.6523 57.6172-18.6523Q59.375-18.6523 60.8154-17.9932Q62.2559-17.334 63.7207-15.9668L71.3379-8.98438L91.3086-26.2695Q93.0176-27.7344 94.6533-28.4912Q96.2891-29.248 98.3887-29.248Q100.391-29.248 102.173-28.4668Q103.955-27.6855 105.566-26.2207L126.221-7.22656L126.221-2.14844Q126.221 2.68555 123.682 5.10254Q121.143 7.51953 116.553 7.51953ZM47.4609 11.1816L116.65 11.1816Q123.145 11.1816 126.489 7.8125Q129.834 4.44336 129.834-1.95312L129.834-48.9258Q129.834-55.2734 126.489-58.667Q123.145-62.0605 116.65-62.0605L47.4609-62.0605Q40.918-62.0605 37.5732-58.7158Q34.2285-55.3711 34.2285-48.9258L34.2285-1.95312Q34.2285 4.49219 37.5732 7.83691Q40.918 11.1816 47.4609 11.1816ZM47.4609-66.3574L105.957-66.3574L105.957-68.4082Q105.957-74.8047 102.612-78.1738Q99.2676-81.543 92.7734-81.543L25.5859-81.543Q19.1406-81.543 15.7959-78.2227Q12.4512-74.9023 12.4512-68.4082L12.4512-21.4844Q12.4512-15.0391 15.7959-11.6943Q19.1406-8.34961 25.5859-8.34961L29.8828-8.34961L29.8828-48.9258Q29.8828-54.4434 31.958-58.3252Q34.0332-62.207 37.9639-64.2822Q41.8945-66.3574 47.4609-66.3574Z"/>
  </g>
  <g id="Ultralight-M" transform="matrix(1 0 0 1 489.154 1126)">
   <path d="M67.8223-25.8789Q63.4277-25.8789 60.3516-29.0039Q57.2754-32.1289 57.2754-36.5234Q57.2754-40.8691 60.3516-43.9941Q63.4277-47.1191 67.8223-47.1191Q70.6543-47.1191 73.0469-45.6787Q75.4395-44.2383 76.8799-41.8213Q78.3203-39.4043 78.3203-36.5234Q78.3203-32.1289 75.2197-29.0039Q72.1191-25.8789 67.8223-25.8789ZM46.2402 7.91016Q41.1621 7.91016 38.5742 5.32227Q35.9863 2.73438 35.9863-2.34375L35.9863-2.53906L50.7324-16.2109Q52.1973-17.5781 53.54-18.2129Q54.8828-18.8477 56.6406-18.8477Q58.4473-18.8477 59.8633-18.1885Q61.2793-17.5293 62.7441-16.1621L70.2637-9.17969L90.3809-26.416Q92.0898-27.9297 93.75-28.7109Q95.4102-29.4922 97.5586-29.4922Q99.6582-29.4922 101.44-28.6865Q103.223-27.8809 104.883-26.3672L126.27-6.88477L126.27-2.34375Q126.27 2.73438 123.584 5.32227Q120.898 7.91016 116.016 7.91016ZM46.1426 10.3027L116.113 10.3027Q122.266 10.3027 125.464 7.03125Q128.662 3.75977 128.662-2.24609L128.662-49.4629Q128.662-55.4688 125.464-58.7402Q122.266-62.0117 116.113-62.0117L46.1426-62.0117Q39.9902-62.0117 36.792-58.7891Q33.5938-55.5664 33.5938-49.4629L33.5938-2.24609Q33.5938 3.85742 36.792 7.08008Q39.9902 10.3027 46.1426 10.3027ZM46.1426-65.6738L105.029-65.6738L105.029-68.0664Q105.029-74.1699 101.831-77.3926Q98.6328-80.6152 92.4316-80.6152L24.9512-80.6152Q18.8477-80.6152 15.6494-77.417Q12.4512-74.2188 12.4512-68.0664L12.4512-20.8984Q12.4512-14.7461 15.6494-11.5479Q18.8477-8.34961 24.9512-8.34961L29.8828-8.34961L29.8828-49.4629Q29.8828-54.5898 31.8115-58.2031Q33.7402-61.8164 37.3779-63.7451Q41.0156-65.6738 46.1426-65.6738Z"/>
  </g>
  <g id="Black-S" transform="matrix(1 0 0 1 2871.63 696)">
   <path d="M64.0137-23.9746Q60.8398-23.9746 58.5693-26.2451Q56.2988-28.5156 56.2988-31.6895Q56.2988-34.8633 58.5693-37.1094Q60.8398-39.3555 64.0137-39.3555Q67.1875-39.3555 69.4336-37.1094Q71.6797-34.8633 71.6797-31.6895Q71.6797-28.5156 69.4336-26.2451Q67.1875-23.9746 64.0137-23.9746ZM48.7305-5.07812Q47.0703-5.07812 46.2402-5.83496Q45.4102-6.5918 45.4102-8.39844L45.4102-11.2793L52.4902-17.8711Q53.3203-18.6035 54.3213-18.9697Q55.3223-19.3359 56.2988-19.3359Q57.3242-19.3359 58.3252-18.9697Q59.3262-18.6035 60.1562-17.8223L65.4297-13.0371L78.5645-24.6094Q79.541-25.4395 80.6396-25.8545Q81.7383-26.2695 82.8125-26.2695Q84.0332-26.2695 85.083-25.8545Q86.1328-25.4395 87.0605-24.6094L99.6094-13.0859L99.6094-8.39844Q99.6094-6.5918 98.8037-5.83496Q97.998-5.07812 96.2891-5.07812ZM46.4844 8.98438L98.5352 8.98438Q105.713 8.98438 109.741 4.95605Q113.77 0.927734 113.77-6.25L113.77-43.9453Q113.77-51.123 109.741-55.1514Q105.713-59.1797 98.5352-59.1797L46.4844-59.1797Q39.3066-59.1797 35.2783-55.1514Q31.25-51.123 31.25-43.9453L31.25-6.25Q31.25 0.927734 35.2783 4.95605Q39.3066 8.98438 46.4844 8.98438ZM46.4844-66.5039L92.1875-66.5039L92.1875-66.5039Q91.6016-72.7539 87.6709-76.2207Q83.7402-79.6875 77.0508-79.6875L25-79.6875Q17.8223-79.6875 13.7939-75.6592Q9.76562-71.6309 9.76562-64.4531L9.76562-26.7578Q9.76562-19.8242 13.501-15.8447Q17.2363-11.8652 23.9258-11.5723L23.9258-11.5723L23.9258-43.9453Q23.9258-50.7812 26.7334-55.835Q29.541-60.8887 34.6191-63.6963Q39.6973-66.5039 46.4844-66.5039Z"/>
  </g>
  <g id="Heavy-S" transform="matrix(1 0 0 1 2575.87 696)">
   <path d="M62.2559-24.6094Q59.0332-24.6094 56.7383-26.9287Q54.4434-29.248 54.4434-32.4707Q54.4434-35.6445 56.7383-37.915Q59.0332-40.1855 62.2559-40.1855Q65.4785-40.1855 67.749-37.915Q70.0195-35.6445 70.0195-32.4707Q70.0195-29.248 67.749-26.9287Q65.4785-24.6094 62.2559-24.6094ZM47.0703-4.54102Q45.166-4.54102 44.1895-5.46875Q43.2129-6.39648 43.2129-8.39844L43.2129-11.6211L50.5371-18.2617Q51.4648-19.043 52.4658-19.4336Q53.4668-19.8242 54.4922-19.8242Q55.5664-19.8242 56.5918-19.4336Q57.6172-19.043 58.4961-18.2129L64.0137-13.2812L77.6855-25.3418Q78.7109-26.2207 79.834-26.6602Q80.957-27.0996 82.1289-27.0996Q83.3984-27.0996 84.4971-26.6602Q85.5957-26.2207 86.5723-25.3418L99.4141-13.4277L99.4141-8.39844Q99.4141-6.39648 98.4619-5.46875Q97.5098-4.54102 95.5566-4.54102ZM45.3125 7.86133L97.3145 7.86133Q104.248 7.86133 108.057 4.05273Q111.865 0.244141 111.865-6.68945L111.865-43.9453Q111.865-50.9277 108.057-54.7119Q104.248-58.4961 97.3145-58.4961L45.3125-58.4961Q38.3789-58.4961 34.5703-54.7119Q30.7617-50.9277 30.7617-43.9453L30.7617-6.68945Q30.7617 0.244141 34.5703 4.05273Q38.3789 7.86133 45.3125 7.86133ZM45.3125-65.4297L90.7715-65.4297L90.7715-65.5273Q90.332-71.7285 86.5967-75.1221Q82.8613-78.5156 76.2695-78.5156L24.3652-78.5156Q17.3828-78.5156 13.5742-74.707Q9.76562-70.8984 9.76562-63.9648L9.76562-26.709Q9.76562-19.9219 13.3545-16.1621Q16.9434-12.4023 23.5352-12.207L23.8281-12.207L23.8281-43.9453Q23.8281-50.5371 26.4648-55.3467Q29.1016-60.1562 33.9355-62.793Q38.7695-65.4297 45.3125-65.4297Z"/>
  </g>
  <g id="Bold-S" transform="matrix(1 0 0 1 2280.21 696)">
   <path d="M60.2539-25.3906Q57.0312-25.3906 54.7119-27.71Q52.3926-30.0293 52.3926-33.3008Q52.3926-36.5234 54.7119-38.8428Q57.0312-41.1621 60.2539-41.1621Q63.5254-41.1621 65.8203-38.8428Q68.1152-36.5234 68.1152-33.3008Q68.1152-30.0293 65.8203-27.71Q63.5254-25.3906 60.2539-25.3906ZM45.2148-4.00391Q43.0664-4.00391 41.9434-5.07812Q40.8203-6.15234 40.8203-8.44727L40.8203-12.0117L48.3887-18.75Q49.3652-19.5801 50.3906-19.9951Q51.416-20.4102 52.4414-20.4102Q53.5645-20.4102 54.6631-19.9951Q55.7617-19.5801 56.6895-18.7012L62.4512-13.5254L76.709-26.1719Q77.7832-27.0996 78.9551-27.5391Q80.127-27.9785 81.3477-27.9785Q82.666-27.9785 83.8379-27.5391Q85.0098-27.0996 86.0352-26.1719L99.1699-13.8184L99.1699-8.44727Q99.1699-6.15234 98.0469-5.07812Q96.9238-4.00391 94.7754-4.00391ZM44.043 6.5918L95.9473 6.5918Q102.637 6.5918 106.201 3.02734Q109.766-0.537109 109.766-7.17773L109.766-43.9941Q109.766-50.6836 106.201-54.2236Q102.637-57.7637 95.9473-57.7637L44.043-57.7637Q37.3535-57.7637 33.7891-54.2236Q30.2246-50.6836 30.2246-43.9941L30.2246-7.17773Q30.2246-0.537109 33.7891 3.02734Q37.3535 6.5918 44.043 6.5918ZM44.043-64.2578L89.2578-64.2578L89.2578-64.4531Q88.9648-70.6543 85.4492-73.9258Q81.9336-77.1973 75.4395-77.1973L23.6328-77.1973Q16.8945-77.1973 13.3301-73.6328Q9.76562-70.0684 9.76562-63.4277L9.76562-26.6113Q9.76562-20.0684 13.1836-16.5527Q16.6016-13.0371 23.0957-12.8906L23.6816-12.8906L23.6816-43.9941Q23.6816-50.2441 26.1719-54.7852Q28.6621-59.3262 33.2275-61.792Q37.793-64.2578 44.043-64.2578Z"/>
  </g>
  <g id="Semibold-S" transform="matrix(1 0 0 1 1984.23 696)">
   <path d="M58.8867-25.8789Q55.6152-25.8789 53.2715-28.2227Q50.9277-30.5664 50.9277-33.8867Q50.9277-37.1094 53.2715-39.4531Q55.6152-41.7969 58.8867-41.7969Q62.207-41.7969 64.502-39.4531Q66.7969-37.1094 66.7969-33.8867Q66.7969-30.5664 64.502-28.2227Q62.207-25.8789 58.8867-25.8789ZM43.9453-3.56445Q41.6016-3.56445 40.3564-4.78516Q39.1113-6.00586 39.1113-8.44727L39.1113-12.2559L46.875-19.0918Q47.9004-19.9219 48.9502-20.3613Q50-20.8008 51.0254-20.8008Q52.1973-20.8008 53.3203-20.3613Q54.4434-19.9219 55.4199-19.043L61.3281-13.7207L75.9766-26.7578Q77.0996-27.6855 78.3203-28.1494Q79.541-28.6133 80.8105-28.6133Q82.1289-28.6133 83.374-28.1494Q84.6191-27.6855 85.6445-26.709L99.0234-14.0625L99.0234-8.44727Q99.0234-6.00586 97.7783-4.78516Q96.5332-3.56445 94.1895-3.56445ZM43.1641 5.66406L94.9707 5.66406Q101.514 5.66406 104.907 2.29492Q108.301-1.07422 108.301-7.51953L108.301-43.9941Q108.301-50.4883 104.907-53.8574Q101.514-57.2266 94.9707-57.2266L43.1641-57.2266Q36.6211-57.2266 33.2275-53.8574Q29.834-50.4883 29.834-43.9941L29.834-7.51953Q29.834-1.02539 33.2275 2.31934Q36.6211 5.66406 43.1641 5.66406ZM43.1641-63.4277L88.1348-63.4277L88.1348-63.6719Q87.9883-69.873 84.6191-73.0713Q81.25-76.2695 74.8535-76.2695L23.0957-76.2695Q16.5527-76.2695 13.1592-72.876Q9.76562-69.4824 9.76562-63.0371L9.76562-26.5625Q9.76562-20.166 13.0615-16.8213Q16.3574-13.4766 22.7539-13.3789L23.584-13.3789L23.584-43.9941Q23.584-50.0488 25.9521-54.3945Q28.3203-58.7402 32.6904-61.084Q37.0605-63.4277 43.1641-63.4277Z"/>
  </g>
  <g id="Medium-S" transform="matrix(1 0 0 1 1688.06 696)">
   <path d="M57.8613-26.2695Q54.541-26.2695 52.1973-28.6377Q49.8535-31.0059 49.8535-34.3262Q49.8535-37.5977 52.1973-39.9658Q54.541-42.334 57.8613-42.334Q61.1816-42.334 63.501-39.9658Q65.8203-37.5977 65.8203-34.3262Q65.8203-31.0059 63.501-28.6377Q61.1816-26.2695 57.8613-26.2695ZM42.9688-3.27148Q40.5273-3.27148 39.1846-4.56543Q37.8418-5.85938 37.8418-8.49609L37.8418-12.4512L45.7031-19.3359Q46.7773-20.2148 47.8516-20.6543Q48.9258-21.0938 49.9512-21.0938Q51.1719-21.0938 52.2949-20.6543Q53.418-20.2148 54.4922-19.2871L60.498-13.8184L75.4883-27.1484Q76.6113-28.1738 77.8564-28.6133Q79.1016-29.0527 80.4199-29.0527Q81.7383-29.0527 83.0078-28.5889Q84.2773-28.125 85.3516-27.1484L98.877-14.3066L98.877-8.49609Q98.877-5.85938 97.5586-4.56543Q96.2402-3.27148 93.75-3.27148ZM42.4805 5.0293L94.2383 5.0293Q100.684 5.0293 103.955 1.78223Q107.227-1.46484 107.227-7.76367L107.227-44.043Q107.227-50.3418 103.955-53.5889Q100.684-56.8359 94.2383-56.8359L42.4805-56.8359Q36.084-56.8359 32.8125-53.5889Q29.541-50.3418 29.541-44.043L29.541-7.76367Q29.541-1.41602 32.8125 1.80664Q36.084 5.0293 42.4805 5.0293ZM42.4805-62.8418L87.3535-62.8418L87.3535-63.0859Q87.2559-69.2871 83.9844-72.4365Q80.7129-75.5859 74.4141-75.5859L22.7051-75.5859Q16.3086-75.5859 13.0371-72.3389Q9.76562-69.0918 9.76562-62.7441L9.76562-26.5137Q9.76562-20.2148 12.9883-16.9922Q16.2109-13.7695 22.5098-13.7207L23.5352-13.7207L23.5352-44.043Q23.5352-49.9023 25.8057-54.126Q28.0762-58.3496 32.2998-60.5957Q36.5234-62.8418 42.4805-62.8418Z"/>
  </g>
  <g id="Regular-S" transform="matrix(1 0 0 1 1392.08 696)">
   <path d="M56.4941-26.7578Q53.1738-26.7578 50.8057-29.1504Q48.4375-31.543 48.4375-34.9121Q48.4375-38.1836 50.8057-40.5762Q53.1738-42.9688 56.4941-42.9688Q59.8633-42.9688 62.207-40.5762Q64.5508-38.1836 64.5508-34.9121Q64.5508-31.543 62.207-29.1504Q59.8633-26.7578 56.4941-26.7578ZM41.6992-2.88086Q39.0625-2.88086 37.6221-4.29688Q36.1816-5.71289 36.1816-8.49609L36.1816-12.6953L44.2383-19.6289Q45.3613-20.5566 46.4355-21.0205Q47.5098-21.4844 48.584-21.4844Q49.8047-21.4844 50.9766-21.0205Q52.1484-20.5566 53.2227-19.5801L59.4238-14.0137L74.8047-27.7344Q75.9766-28.7598 77.2461-29.2236Q78.5156-29.6875 79.8828-29.6875Q81.25-29.6875 82.5684-29.1992Q83.8867-28.7109 84.9609-27.6855L98.7305-14.5508L98.7305-8.49609Q98.7305-5.71289 97.29-4.29688Q95.8496-2.88086 93.2129-2.88086ZM41.6016 4.15039L93.3105 4.15039Q99.5605 4.15039 102.661 1.07422Q105.762-2.00195 105.762-8.10547L105.762-44.043Q105.762-50.1953 102.661-53.2471Q99.5605-56.2988 93.3105-56.2988L41.6016-56.2988Q35.3516-56.2988 32.251-53.2471Q29.1504-50.1953 29.1504-44.043L29.1504-8.10547Q29.1504-1.95312 32.251 1.09863Q35.3516 4.15039 41.6016 4.15039ZM41.6016-62.0117L86.2793-62.0117L86.2793-62.3535Q86.2793-68.5059 83.1787-71.582Q80.0781-74.6582 73.8281-74.6582L22.2168-74.6582Q15.9668-74.6582 12.8662-71.582Q9.76562-68.5059 9.76562-62.3535L9.76562-26.4648Q9.76562-20.3125 12.8662-17.2607Q15.9668-14.209 22.2168-14.209L23.4375-14.209L23.4375-44.043Q23.4375-49.707 25.5859-53.7354Q27.7344-57.7637 31.7871-59.8877Q35.8398-62.0117 41.6016-62.0117Z"/>
  </g>
  <g id="Light-S" transform="matrix(1 0 0 1 1096.15 696)">
   <path d="M55.4199-27.0996Q52.0996-27.0996 49.707-29.5166Q47.3145-31.9336 47.3145-35.3516Q47.3145-38.623 49.707-41.04Q52.0996-43.457 55.4199-43.457Q58.8379-43.457 61.2061-41.04Q63.5742-38.623 63.5742-35.3516Q63.5742-31.9336 61.2061-29.5166Q58.8379-27.0996 55.4199-27.0996ZM39.9902-2.44141Q36.9629-2.44141 35.3271-4.05273Q33.6914-5.66406 33.6914-8.78906L33.6914-11.7188L42.8223-19.8242Q43.9453-20.8008 45.0195-21.2891Q46.0938-21.7773 47.2656-21.7773Q48.5352-21.7773 49.707-21.2891Q50.8789-20.8008 51.9531-19.7754L58.0566-14.2578L73.5352-27.9297Q74.8047-29.0039 76.0742-29.5166Q77.3438-30.0293 78.8086-30.0293Q80.2734-30.0293 81.6162-29.4922Q82.959-28.9551 84.082-27.8809L98.7793-14.0625L98.7793-8.78906Q98.7793-5.66406 97.1436-4.05273Q95.5078-2.44141 92.4805-2.44141ZM39.8926 2.97852L92.5781 2.97852Q98.3887 2.97852 101.294 0.0732422Q104.199-2.83203 104.199-8.49609L104.199-44.7754Q104.199-50.4883 101.294-53.3691Q98.3887-56.25 92.5781-56.25L39.8926-56.25Q34.082-56.25 31.1768-53.3691Q28.2715-50.4883 28.2715-44.7754L28.2715-8.49609Q28.2715-2.7832 31.1768 0.0976562Q34.082 2.97852 39.8926 2.97852ZM39.8926-61.084L85.0098-61.084L85.0098-61.9141Q85.0098-67.627 82.1045-70.5322Q79.1992-73.4375 73.3887-73.4375L21.3867-73.4375Q15.5762-73.4375 12.6709-70.5566Q9.76562-67.6758 9.76562-61.9141L9.76562-25.6836Q9.76562-19.9707 12.6709-17.0898Q15.5762-14.209 21.3867-14.209L23.4375-14.209L23.4375-44.7754Q23.4375-49.9023 25.3906-53.5645Q27.3438-57.2266 31.0059-59.1553Q34.668-61.084 39.8926-61.084Z"/>
  </g>
  <g id="Thin-S" transform="matrix(1 0 0 1 800.441 696)">
   <path d="M54.0527-27.5879Q50.6348-27.5879 48.2422-30.0293Q45.8496-32.4707 45.8496-35.8887Q45.8496-39.2578 48.2422-41.6992Q50.6348-44.1406 54.0527-44.1406Q57.4219-44.1406 59.8389-41.6992Q62.2559-39.2578 62.2559-35.8887Q62.2559-32.4707 59.8389-30.0293Q57.4219-27.5879 54.0527-27.5879ZM37.7441-1.80664Q34.1309-1.80664 32.251-3.68652Q30.3711-5.56641 30.3711-9.17969L30.3711-10.498L41.0156-20.1172Q42.1387-21.1426 43.1885-21.6553Q44.2383-22.168 45.5078-22.168Q46.875-22.168 48.0225-21.6553Q49.1699-21.1426 50.293-20.0684L56.25-14.5996L71.875-28.1738Q73.2422-29.2969 74.5361-29.8584Q75.8301-30.4199 77.3438-30.4199Q78.9551-30.4199 80.3223-29.834Q81.6895-29.248 82.959-28.125L98.877-13.4277L98.877-9.17969Q98.877-5.56641 96.9482-3.68652Q95.0195-1.80664 91.5039-1.80664ZM37.6465 1.46484L91.6016 1.46484Q96.8262 1.46484 99.5117-1.24512Q102.197-3.95508 102.197-9.0332L102.197-45.752Q102.197-50.8789 99.5117-53.5645Q96.8262-56.25 91.6016-56.25L37.6465-56.25Q32.4219-56.25 29.7607-53.5645Q27.0996-50.8789 27.0996-45.752L27.0996-9.0332Q27.0996-3.85742 29.7607-1.19629Q32.4219 1.46484 37.6465 1.46484ZM37.6465-59.9121L83.3496-59.9121L83.3496-61.3281Q83.3496-66.4551 80.6885-69.1406Q78.0273-71.8262 72.8027-71.8262L20.3125-71.8262Q15.0879-71.8262 12.4268-69.1895Q9.76562-66.5527 9.76562-61.3281L9.76562-24.6582Q9.76562-19.4824 12.4268-16.8213Q15.0879-14.1602 20.3125-14.1602L23.4375-14.1602L23.4375-45.752Q23.4375-50.1953 25.1221-53.3691Q26.8066-56.543 29.9805-58.2275Q33.1543-59.9121 37.6465-59.9121Z"/>
  </g>
  <g id="Ultralight-S" transform="matrix(1 0 0 1 504.267 696)">
   <path d="M53.3203-27.832Q49.9023-27.832 47.4854-30.2734Q45.0684-32.7148 45.0684-36.1816Q45.0684-39.5508 47.4854-42.0166Q49.9023-44.4824 53.3203-44.4824Q56.7383-44.4824 59.1797-42.0166Q61.6211-39.5508 61.6211-36.1816Q61.6211-32.7148 59.1797-30.2734Q56.7383-27.832 53.3203-27.832ZM36.6211-1.51367Q32.7148-1.51367 30.7129-3.51562Q28.7109-5.51758 28.7109-9.42383L28.7109-9.81445L40.0391-20.2637Q41.1621-21.3379 42.2363-21.8506Q43.3105-22.3633 44.6289-22.3633Q46.0449-22.3633 47.168-21.8262Q48.291-21.2891 49.4141-20.2148L55.3223-14.7461L71.0449-28.2715Q72.4121-29.4434 73.7061-30.0537Q75-30.6641 76.6113-30.6641Q78.3203-30.6641 79.6875-30.0293Q81.0547-29.3945 82.373-28.2227L98.9258-13.0859L98.9258-9.42383Q98.9258-5.51758 96.8506-3.51562Q94.7754-1.51367 91.0156-1.51367ZM36.5234 0.634766L91.1133 0.634766Q95.9961 0.634766 98.5596-1.92871Q101.123-4.49219 101.123-9.32617L101.123-46.2402Q101.123-51.0742 98.5596-53.6377Q95.9961-56.2012 91.1133-56.2012L36.5234-56.2012Q31.5918-56.2012 29.0527-53.6621Q26.5137-51.123 26.5137-46.2402L26.5137-9.32617Q26.5137-4.39453 29.0527-1.87988Q31.5918 0.634766 36.5234 0.634766ZM36.5234-59.2773L82.5195-59.2773L82.5195-61.0352Q82.5195-65.8691 79.9805-68.457Q77.4414-71.0449 72.5098-71.0449L19.7754-71.0449Q14.8438-71.0449 12.3047-68.5059Q9.76562-65.9668 9.76562-61.0352L9.76562-24.1699Q9.76562-19.2383 12.3047-16.6992Q14.8438-14.1602 19.7754-14.1602L23.4375-14.1602L23.4375-46.2402Q23.4375-50.3418 25-53.2471Q26.5625-56.1523 29.4678-57.7148Q32.373-59.2773 36.5234-59.2773Z"/>
  </g>
 </g>
</svg>
